<?xml version="1.0" encoding="utf-8"?>
<!-- Generator: Adobe Illustrator 23.0.1, SVG Export Plug-In . SVG Version: 6.00 Build 0)  -->
<svg version="1.1" id="Layer_1" xmlns="http://www.w3.org/2000/svg" xmlns:xlink="http://www.w3.org/1999/xlink" x="0px" y="0px"
	 viewBox="0 0 841.89 595.28" style="enable-background:new 0 0 841.89 595.28;" xml:space="preserve">
<style type="text/css">
	.st0{fill:#003B79;}
	.st1{fill:#00A0D1;}
</style>
<g>
	<path class="st0" d="M403.28,248.92c0,15.6-0.06,31.19,0.02,46.79c0.05,8.62,1.53,17.02,4.6,25.11c1.23,3.24,3.18,6.09,4.76,9.14
		c0.59,1.13,1.23,2.25,1.69,3.44c1.32,3.4,0.47,5.86-2.64,7.76c-4.64,2.83-9.3,5.63-13.96,8.45c-1.37,0.83-2.71,1.7-4.12,2.45
		c-3.76,1.99-6.56,1.55-9.57-1.41c-1.91-1.87-3.29-4.11-4.55-6.44c-2.13-3.95-3.83-8.09-5.46-12.27c-1-2.57-1.25-2.65-3.18-0.85
		c-5.47,5.11-11.48,9.47-18.05,13.01c-10.07,5.42-20.77,8.62-32.26,9.12c-7.25,0.32-14.38-0.21-21.35-2.25
		c-16.79-4.91-27.86-15.93-33.43-32.31c-5.13-15.09-5.35-30.49-0.99-45.82c3.77-13.27,11.69-23.67,22.91-31.62
		c9.53-6.75,20.17-11.03,31.38-14c9.29-2.46,18.76-3.99,28.33-4.85c5.02-0.45,10.03-0.9,15.07-0.94c0.72-0.01,1.43-0.11,2.14-0.22
		c1.01-0.15,1.58-0.73,1.57-1.78c-0.08-7.9,0.6-15.85-1.2-23.66c-0.29-1.24-0.67-2.47-1.11-3.67c-2.35-6.36-6.89-10.46-13.27-12.57
		c-3.74-1.24-7.61-1.83-11.54-2.06c-15.88-0.95-30.78,2.82-45.08,9.45c-1.89,0.87-3.77,1.76-5.72,2.48
		c-4.12,1.53-7.26,0.12-8.84-3.99c-1.93-5-3.81-10.02-5.59-15.07c-1.73-4.88-0.97-7.3,3.03-10.51c2.71-2.17,5.8-3.69,8.97-5.03
		c9.03-3.81,18.48-6.23,28.08-8.08c10.24-1.98,20.57-3,31.01-2.48c9.39,0.47,18.61,1.87,27.4,5.42
		c14.58,5.89,23.85,16.49,28.04,31.6c1.94,6.98,2.74,14.13,2.77,21.34c0.07,15.44,0.02,30.88,0.02,46.31
		C403.22,248.92,403.25,248.92,403.28,248.92z M366.24,276.03c0-6.72,0-13.43,0-20.15c0-0.64-0.02-1.28-0.03-1.92
		c-0.02-1.1-0.6-1.61-1.68-1.53c-1.28,0.09-2.55,0.27-3.82,0.3c-7.13,0.15-14.2,0.88-21.22,2.07c-8.08,1.36-15.92,3.46-23.22,7.34
		c-4.52,2.4-8.46,5.48-11.63,9.48c-3.67,4.63-5.61,9.97-6.18,15.86c-0.82,8.39,0.63,16.3,5.1,23.46
		c4.96,7.96,12.44,11.51,21.69,11.24c5.24-0.16,10.24-1.64,15-3.86c9.17-4.29,16.89-10.6,24.24-17.42c1.28-1.19,1.8-2.48,1.78-4.21
		C366.2,289.78,366.24,282.91,366.24,276.03z"/>
	<path class="st0" d="M45.02,261.89c0-25.84,0-51.67,0-77.51c0-3.53-0.01-3.53-3.56-3.53c-6.64,0-13.28,0.01-19.92,0
		c-4.97-0.01-7.12-1.97-7.2-6.87c-0.1-5.92-0.09-11.84,0-17.76c0.07-4.46,2.21-6.55,6.75-6.61c6.64-0.08,13.28-0.04,19.92-0.02
		c4.4,0.01,4,0.02,4.01-4.1c0.02-10.4-0.14-20.8,0.09-31.19c0.22-9.95,1.68-19.74,5.08-29.18c2.48-6.87,6.15-13.03,11.27-18.22
		c4.84-4.91,10.63-8.42,17.15-10.72c6.39-2.25,12.97-3.34,19.72-3.73c13.65-0.79,26.72,1.81,39.5,6.3c2.72,0.96,5.31,2.21,7.74,3.8
		c1.35,0.88,2.59,1.88,3.59,3.15c1.44,1.82,1.95,3.84,1.03,6.06c-2.38,5.76-4.77,11.53-7.21,17.27c-0.37,0.87-0.96,1.66-1.54,2.42
		c-1.57,2.02-3.62,2.73-6.16,2.32c-3.43-0.55-6.59-1.93-9.81-3.13c-5.18-1.92-10.36-3.85-15.87-4.59
		c-4.69-0.63-9.38-0.84-14.06,0.16c-5.5,1.18-9.04,4.51-10.97,9.7c-1.46,3.94-2.04,8.04-2.41,12.2c-0.6,6.78-0.46,13.58-0.47,20.38
		c-0.01,5.92,0,11.84,0,17.76c0,0.64,0.01,1.28,0.04,1.92c0.05,0.85,0.52,1.32,1.36,1.37c0.8,0.05,1.6,0.06,2.4,0.06
		c16.16,0,32.31,0.01,48.47-0.01c1.69,0,3.36,0.1,5,0.51c3.25,0.82,4.92,3.34,4.42,6.66c-0.22,1.5-0.54,2.98-1.03,4.43
		c-1.48,4.31-2.95,8.63-4.31,12.98c-1.36,4.33-5.07,6.78-9.37,6.74c-14.56-0.12-29.11-0.05-43.67-0.04c-3.3,0-3.31,0.01-3.31,3.31
		c0,50.95,0,101.9,0,152.85c0,1.12,0.03,2.24-0.04,3.36c-0.29,4.37-2.94,7.05-7.31,7.42c-0.64,0.05-1.28,0.04-1.92,0.04
		c-6.08,0-12.16,0-18.24,0c-1.12,0-2.23-0.01-3.34-0.28c-3.61-0.87-5.62-3.25-5.81-6.96c-0.05-0.88-0.02-1.76-0.02-2.64
		C45.01,312.6,45.02,287.24,45.02,261.89z"/>
	<path class="st0" d="M452.6,242.54c0-18.96,0.01-37.92-0.01-56.88c0-5.44,0.52-4.8-4.94-4.82c-6.88-0.03-13.76,0-20.64-0.01
		c-4.53-0.01-6.88-2.06-7.01-6.63c-0.17-6.07-0.17-12.16,0-18.23c0.12-4.31,2.38-6.33,6.78-6.38c7.36-0.07,14.72-0.02,22.08-0.03
		c3.72,0,3.73-0.01,3.73-3.69c0-15.36,0-30.72,0-46.08c0-5.42,1.76-7.95,6.97-9.47c7.6-2.21,15.13-4.68,22.89-6.29
		c4.04-0.84,6.27,0.9,6.76,4.99c0.23,1.91,0.34,3.82,0.34,5.74c-0.02,16.96-0.01,33.92-0.01,50.88c0,3.92,0.01,3.92,4.02,3.92
		c16.56,0,33.12,0.01,49.68-0.01c1.61,0,3.2,0.08,4.77,0.44c3.23,0.73,5,3.22,4.66,6.52c-0.05,0.48-0.07,0.97-0.19,1.43
		c-1.62,6.11-3.54,12.15-5.98,17.96c-1.45,3.43-4.52,4.96-8.36,4.95c-14.88-0.04-29.76-0.02-44.64-0.02c-3.94,0-3.95,0-3.95,3.94
		c0.01,37.44,0.02,74.87,0.02,112.31c0,3.44,0.22,6.86,0.96,10.25c1.71,7.92,6.53,11.76,14.86,12.53c8.67,0.8,17.05-0.67,25.19-3.68
		c4.06-1.5,8.01-3.23,11.95-4.99c1.39-0.62,2.78-1.23,4.27-1.58c3.29-0.78,6.4,0.91,7.36,4.13c1.67,5.59,3.18,11.24,4.9,16.81
		c1.07,3.46,0.06,6.08-2.64,8.28c-2.44,1.99-5.17,3.5-8.03,4.75c-9.74,4.25-19.93,6.89-30.39,8.61c-4.35,0.72-8.74,1.22-13.12,1.18
		c-8.2-0.06-16.22-1.4-23.94-4.36c-13.6-5.21-21.85-15.11-25.7-28.95c-1.81-6.52-2.51-13.22-2.56-19.93
		c-0.14-19.2-0.05-38.4-0.05-57.59C452.63,242.54,452.61,242.54,452.6,242.54z"/>
	<path class="st0" d="M205.05,179.23c0,38.15-0.03,76.3,0.03,114.45c0.01,5.59,0.24,11.19,0.88,16.75c0.19,1.6,0.65,3.12,1.35,4.58
		c2.46,5.1,6.64,7.51,12.95,7.09c4.44-0.29,8.64-1.55,12.74-3.19c1.56-0.62,3.14-1.23,4.75-1.65c3.7-0.96,6.22,0.45,7.49,4.06
		c1.84,5.2,3.67,10.41,5.49,15.61c1.34,3.82,0.59,6.13-2.74,8.47c-4.15,2.92-8.96,4.19-13.77,5.39c-6.3,1.57-12.74,2.55-19.21,2.6
		c-9.96,0.07-19.59-1.65-28.31-6.86c-7.91-4.73-12.76-11.69-14.85-20.62c-1.22-5.22-1.99-10.52-2.5-15.86
		c-1.37-14.51-1.38-29.05-1.37-43.61c0.02-66.06,0.01-132.12,0.01-198.19c0-1.68-0.02-3.36,0.4-5.01c0.72-2.8,2.4-4.68,5.23-5.37
		c7.23-1.75,14.46-3.47,21.7-5.17c0.85-0.2,1.74-0.24,2.62-0.3c3.56-0.22,5.76,1.44,6.54,4.96c0.4,1.8,0.46,3.64,0.46,5.49
		c-0.01,38.79-0.01,77.58-0.01,116.37C204.98,179.23,205.01,179.23,205.05,179.23z"/>
	<path class="st1" d="M507,524.34c-0.82-0.56-0.86-1.42-1.09-2.15c-5.86-18.45-11.7-36.9-17.54-55.36
		c-2.34-7.4-4.7-14.79-7.05-22.18c-3.27-10.29-6.54-20.58-9.81-30.87c-0.07-0.23-0.16-0.46-0.21-0.69
		c-0.36-1.53-0.17-1.79,1.48-1.92c0.48-0.04,0.96-0.02,1.44-0.02c21.76,0,43.52,0,65.28,0c0.08,0,0.16,0,0.24,0
		c3.09,0.02,3.15,0.04,2.28,2.89c-2.21,7.19-4.48,14.35-6.73,21.53c-5.72,18.24-11.43,36.48-17.15,54.72
		c-3.45,10.99-6.91,21.97-10.38,32.96C507.65,523.64,507.57,524.05,507,524.34z"/>
	<path class="st0" d="M558.31,525.86c-10.88,0-21.76,0-32.63,0c-3.75,0-3.78-0.07-2.68-3.59c3.58-11.37,7.14-22.73,10.71-34.1
		c0.24-0.76,0.52-1.51,0.76-2.27c0.29-0.88,0.9-1.28,1.8-1.3c0.64-0.02,1.28-0.03,1.92-0.03c13.36,0,26.71,0,40.07,0
		c0.32,0,0.64,0,0.96,0c2.37,0.05,2.52,0.12,3.24,2.35c1.46,4.49,2.88,8.99,4.3,13.48c2.31,7.32,4.62,14.64,6.93,21.96
		c0.14,0.46,0.31,0.91,0.43,1.37c0.44,1.67,0.23,1.97-1.51,2.1c-0.72,0.05-1.44,0.02-2.16,0.02
		C579.75,525.86,569.03,525.86,558.31,525.86z"/>
	<path class="st0" d="M675.27,483.13c0-8.08,0-16.16,0-24.24c0-0.64,0.02-1.28-0.01-1.92c-0.09-1.74-0.25-1.96-1.96-1.99
		c-2.8-0.05-5.6-0.02-8.4-0.02c-3.46-0.01-3.49-0.03-3.5-3.45c-0.01-1.52-0.04-3.04,0.03-4.56c0.08-1.74,0.42-2.1,2.16-2.17
		c1.92-0.08,3.84-0.03,5.76-0.03c1.2,0,2.4,0.03,3.6-0.01c2.08-0.06,2.3-0.26,2.31-2.41c0.03-6,0-12,0.02-18
		c0.02-4.08-0.48-4,3.89-5.18c2.08-0.56,4.14-1.22,6.23-1.77c2.14-0.56,2.41-0.36,2.46,1.8c0.04,1.68,0.01,3.36,0.01,5.04
		c0,5.84-0.01,11.68,0,17.52c0.01,2.88,0.13,3.01,2.95,3.01c6.56,0.02,13.12,0.01,19.68,0.01c0.64,0,1.28-0.02,1.92,0.01
		c2.33,0.09,2.58,0.4,1.89,2.56c-0.58,1.83-1.2,3.65-1.84,5.46c-0.74,2.07-0.86,2.18-3.12,2.18c-6,0.02-12,0.01-18,0.01
		c-3.47,0-3.48,0.01-3.48,3.4c0,15.28,0,30.55,0,45.83c0,1.92,0.06,3.83,0.48,5.72c0.94,4.23,3.49,6.42,7.85,6.75
		c4.33,0.33,8.43-0.6,12.4-2.22c1.48-0.6,2.93-1.29,4.41-1.9c1.49-0.61,1.82-0.5,2.32,0.98c0.61,1.82,1.09,3.68,1.63,5.52
		c0.48,1.62-0.14,2.81-1.45,3.72c-0.39,0.27-0.82,0.51-1.25,0.71c-6.21,2.75-12.67,4.47-19.51,4.34c-3.22-0.06-6.34-0.74-9.3-2.08
		c-4.83-2.2-7.87-5.91-9.19-11.02c-0.64-2.48-0.98-5.02-0.98-7.59c0.01-8,0-16,0-24C675.29,483.13,675.28,483.13,675.27,483.13z"/>
	<path class="st0" d="M802.98,527.89c-7.72-0.48-15.18-2.1-22.28-5.23c-0.65-0.29-1.29-0.65-1.86-1.09
		c-1.49-1.15-1.65-1.96-0.85-3.72c0.79-1.75,1.55-3.51,2.4-5.23c0.77-1.55,1.05-1.65,2.62-1.01c1.7,0.69,3.36,1.49,5.06,2.2
		c4.31,1.8,8.8,2.89,13.46,3.27c2.99,0.25,5.88-0.18,8.69-1.3c7.37-2.94,8.83-13.3,3.92-18.35c-1.81-1.86-3.88-3.35-6.15-4.53
		c-2.7-1.4-5.45-2.69-8.19-3.99c-4.78-2.25-9.49-4.58-13.49-8.16c-7.11-6.37-8.28-16.04-4.76-24.2
		c3.58-8.31,10.35-12.54,19.11-13.77c8.31-1.17,15.97,1.33,23.5,4.4c0.07,0.03,0.14,0.08,0.21,0.11c2.42,1.3,2.58,1.66,1.48,4.1
		c-0.72,1.6-1.5,3.18-2.32,4.74c-0.96,1.83-1.29,1.97-3.21,1.09c-3.28-1.5-6.63-2.79-10.19-3.47c-2.85-0.55-5.75-0.62-8.6-0.19
		c-4.08,0.61-7.24,2.74-8.56,6.77c-1.34,4.09-0.91,8.07,1.95,11.52c2.52,3.04,5.93,4.81,9.4,6.49c4.89,2.37,9.98,4.33,14.61,7.22
		c5.63,3.52,9.68,8.25,10.43,15.02c1.52,13.66-5.16,22.89-18.07,26.21C808.58,527.5,805.8,527.91,802.98,527.89z"/>
	<path class="st1" d="M379.59,471.55c0.99-0.16,1.53-0.79,2.17-1.25c4.02-2.9,8.53-3.96,13.4-3.35c5.82,0.72,9.51,4.84,10.44,11.16
		c0.92,6.24-0.18,12.26-1.79,18.22c-1.48,5.5-3.67,10.74-6.42,15.73c-2.58,4.69-6,8.48-11.23,10.27c-4.36,1.5-8.79,1.53-13.23,0.37
		c-3.59-0.93-6.91-2.51-10.08-4.41c-2.43-1.46-2.63-1.93-2.05-4.7c2.03-9.62,4.08-19.24,6.13-28.85
		c2.69-12.67,5.41-25.33,8.04-38.01c0.42-2.04,1.31-3.35,3.44-3.71c1.42-0.24,2.8-0.68,4.22-0.92c1.72-0.29,2.38,0.32,2.32,2.07
		c-0.02,0.63-0.17,1.27-0.3,1.89c-1.64,7.82-3.28,15.65-4.91,23.47C379.61,470.15,379.25,470.75,379.59,471.55z M389.46,475.94
		c-2.82-0.15-5.17,1.11-7.25,2.98c-3.76,3.37-6,7.63-7.09,12.5c-1.25,5.61-2.42,11.24-3.58,16.86c-0.86,4.15-0.72,4.34,3.27,5.63
		c5.35,1.73,9.26,0.55,12.68-3.91c1.26-1.65,2.3-3.45,3.18-5.34c2.43-5.18,3.78-10.68,4.67-16.29c0.32-2.04,0.73-4.09,0.6-6.18
		C395.75,478.91,393.69,475.66,389.46,475.94z"/>
	<path class="st1" d="M428.11,512.99c1.51-2.62,2.46-5.16,3.53-7.62c5.04-11.58,10.05-23.18,15.07-34.78
		c0.19-0.44,0.39-0.88,0.61-1.3c0.91-1.7,1.39-1.93,3.28-1.28c1.43,0.5,2.84,1.09,4.21,1.73c1.52,0.71,1.78,1.3,1.15,2.86
		c-0.99,2.44-2.09,4.85-3.17,7.25c-4.96,11.1-9.94,22.18-14.89,33.28c-2.05,4.6-3.82,9.33-6.2,13.78
		c-2.27,4.24-4.83,8.28-8.31,11.68c-6.32,6.19-13.93,7.7-22.07,4.29c-1.27-0.53-2.39-1.26-3.36-2.26c-0.78-0.8-0.93-1.65-0.36-2.6
		c0.86-1.44,1.73-2.88,2.62-4.3c0.66-1.04,1.61-1.26,2.71-0.75c0.94,0.44,1.86,0.94,2.8,1.38c4.71,2.24,9.15,1.17,12.44-2.85
		c1.95-2.38,3.2-5.16,4.74-7.77c0.72-1.22,0.54-1.46-0.81-1.72c-2.32-0.44-2.68-0.78-3.01-2.99c-2.11-14.23-4.21-28.47-6.32-42.7
		c-0.2-1.34-0.41-2.69-0.63-4.03c-0.2-1.22,0.34-2.03,1.46-2.43c2.04-0.72,4.07-1.45,6.14-2.05c1.42-0.41,2.06,0.01,2.38,1.55
		c0.34,1.64,0.48,3.32,0.7,4.98c1.63,12.6,3.26,25.2,4.9,37.8C427.76,512.31,427.86,512.45,428.11,512.99z"/>
	<path class="st0" d="M620.75,454.25c0.99-0.3,1.18-1.08,1.61-1.62c5.32-6.67,12.07-10.31,20.77-9.9c1.79,0.08,3.45,0.6,5.11,1.2
		c1.07,0.39,1.6,0.96,1.07,2.17c-1.32,3-2.61,6.01-3.9,9.03c-0.44,1.03-1.11,1.13-2.12,0.8c-6.51-2.07-13.13,0.21-16.98,5.87
		c-2.16,3.17-3.33,6.62-3.31,10.56c0.09,16.47,0.04,32.95,0.03,49.42c0,3.74-0.01,3.74-3.69,3.75c-2.24,0-4.48,0.04-6.72-0.02
		c-1.81-0.05-2.05-0.32-2.15-2.11c-0.04-0.72-0.02-1.44-0.02-2.16c0-17.83-0.02-35.67,0.01-53.5c0.01-5.85-0.89-11.43-3.89-16.59
		c-1.56-2.68-1.43-2.77,1.22-4.44c1.89-1.19,3.79-2.39,5.72-3.52c1.44-0.85,1.74-0.77,2.79,0.57c1.4,1.79,2.21,3.88,2.93,6.01
		C619.76,451.25,620.25,452.74,620.75,454.25z"/>
	<path class="st0" d="M558.07,411.62c0.9,0.25,0.87,1.01,1.05,1.57c5.93,18.66,11.84,37.32,17.75,55.98c0.05,0.15,0.1,0.3,0.15,0.46
		c0.65,2.26,0.45,2.6-1.82,2.61c-11.35,0.02-22.7,0.02-34.04,0c-2.06-0.01-2.29-0.32-1.69-2.29c1.82-5.96,3.68-11.91,5.55-17.85
		c4-12.73,8.01-25.46,12.02-38.18C557.29,413.1,557.4,412.21,558.07,411.62z"/>
	<path class="st0" d="M757,485.32c0,11.92,0,23.83,0,35.75c0,0.56,0.01,1.12,0,1.68c-0.06,2.51-0.23,2.7-2.78,2.73
		c-2.56,0.02-5.12,0.04-7.68-0.02c-1.79-0.04-2.03-0.34-2.13-2.14c-0.04-0.72-0.02-1.44-0.02-2.16c0-20.87,0-41.75,0-62.62
		c0-3.57,0-3.57-3.53-3.57c-3.04,0-6.08,0.02-9.12-0.01c-2.28-0.02-2.53-0.25-2.59-2.42c-0.05-1.76-0.05-3.52,0-5.28
		c0.06-2.14,0.38-2.46,2.59-2.49c3.44-0.04,6.88-0.02,10.32-0.02c3.92,0,7.84-0.02,11.76,0.01c2.93,0.02,3.16,0.23,3.17,3.13
		C757,460.37,757,472.84,757,485.32z"/>
	<path class="st0" d="M749.85,424.72c-5.07,0.02-9-3.79-9.11-8.85c-0.11-4.81,4.03-9.04,8.9-9.11c4.94-0.07,9.29,4.18,9.25,9.05
		C758.83,420.84,754.91,424.7,749.85,424.72z"/>
</g>
</svg>
