<?xml version="1.0" encoding="utf-8"?>
<!-- Generator: Adobe Illustrator 23.0.1, SVG Export Plug-In . SVG Version: 6.00 Build 0)  -->
<svg version="1.1" xmlns="http://www.w3.org/2000/svg" xmlns:xlink="http://www.w3.org/1999/xlink" x="0px" y="0px"
	 viewBox="0 0 811.29 398.79" style="enable-background:new 0 0 811.29 398.79;" xml:space="preserve">
<style type="text/css">
	.st0{display:none;}
	.st1{display:inline;fill:#FDE9F1;}
	.st2{display:inline;fill:none;stroke:#FAD5E5;stroke-width:0.5;stroke-miterlimit:10;}
</style>
<g id="Layer_1">
	<g>
		<path d="M46.47,285.01c-0.12,1.11-0.38,2.15-0.8,3.1c-0.41,0.95-0.96,1.8-1.63,2.51c-0.67,0.71-1.47,1.28-2.38,1.69
			s-1.96,0.62-3.11,0.62c-1.63,0-3.05-0.31-4.22-0.93c-1.17-0.62-2.14-1.45-2.89-2.47c-0.75-1.02-1.31-2.2-1.66-3.5
			c-0.36-1.3-0.54-2.64-0.54-3.98c0-1.36,0.18-2.71,0.54-4c0.36-1.29,0.92-2.46,1.66-3.49c0.75-1.02,1.72-1.85,2.89-2.47
			c1.17-0.62,2.59-0.93,4.22-0.93c0.89,0,1.76,0.13,2.58,0.4c0.81,0.26,1.57,0.65,2.25,1.16c0.68,0.5,1.26,1.14,1.73,1.88
			c0.47,0.75,0.81,1.6,1.02,2.54l0.02,0.08h2.57l-0.01-0.11c-0.16-1.31-0.56-2.49-1.19-3.5c-0.62-1.01-1.41-1.87-2.34-2.57
			c-0.93-0.69-1.97-1.22-3.11-1.57c-1.14-0.35-2.32-0.53-3.51-0.53c-1.97,0-3.72,0.36-5.21,1.08c-1.49,0.71-2.74,1.69-3.73,2.9
			c-0.98,1.21-1.73,2.61-2.22,4.18c-0.49,1.57-0.74,3.24-0.74,4.96c0,1.73,0.25,3.4,0.74,4.97c0.49,1.57,1.24,2.97,2.22,4.16
			c0.99,1.2,2.24,2.17,3.73,2.88c1.49,0.71,3.24,1.08,5.21,1.08c1.48,0,2.84-0.24,4.04-0.71c1.21-0.47,2.27-1.15,3.17-2.02
			c0.89-0.87,1.63-1.94,2.19-3.18c0.56-1.24,0.93-2.65,1.09-4.19l0.01-0.11h-2.58L46.47,285.01z"/>
		<path d="M66.21,278.73c-0.73-0.87-1.64-1.57-2.71-2.09c-1.07-0.52-2.32-0.78-3.7-0.78c-1.39,0-2.63,0.26-3.7,0.78
			c-1.07,0.52-1.98,1.22-2.71,2.09c-0.73,0.87-1.29,1.9-1.66,3.06c-0.38,1.16-0.56,2.41-0.56,3.72c0,1.31,0.19,2.56,0.56,3.72
			c0.38,1.16,0.94,2.19,1.66,3.06c0.73,0.87,1.64,1.57,2.71,2.07c1.07,0.51,2.32,0.76,3.7,0.76c1.38,0,2.63-0.26,3.7-0.76
			c1.07-0.5,1.98-1.2,2.71-2.07c0.73-0.87,1.29-1.9,1.66-3.06c0.38-1.16,0.56-2.41,0.56-3.72c0-1.31-0.19-2.56-0.56-3.72
			C67.5,280.63,66.93,279.6,66.21,278.73z M59.8,293.11c-1.03,0-1.94-0.22-2.72-0.65c-0.78-0.43-1.43-1.01-1.95-1.72
			c-0.52-0.71-0.91-1.53-1.17-2.44c-0.26-0.91-0.4-1.84-0.4-2.79c0-0.94,0.13-1.88,0.4-2.79c0.26-0.91,0.66-1.73,1.17-2.44
			c0.51-0.71,1.17-1.29,1.95-1.72c0.78-0.43,1.69-0.65,2.72-0.65c1.03,0,1.94,0.22,2.72,0.65c0.78,0.44,1.43,1.01,1.95,1.72
			c0.52,0.71,0.91,1.53,1.17,2.44c0.26,0.91,0.4,1.85,0.4,2.79c0,0.94-0.13,1.88-0.4,2.79c-0.26,0.91-0.66,1.73-1.17,2.44
			c-0.52,0.71-1.17,1.29-1.95,1.72C61.74,292.89,60.82,293.11,59.8,293.11z"/>
		<path d="M90.53,275.86c-1.2,0-2.35,0.3-3.41,0.89c-0.99,0.55-1.77,1.38-2.31,2.47c-0.35-1.09-1-1.92-1.91-2.47
			c-0.98-0.59-2.09-0.89-3.29-0.89c-1.48,0-2.72,0.32-3.68,0.96c-0.91,0.61-1.66,1.45-2.24,2.5v-2.94h-2.23v18.26h2.41v-10.18
			c0-0.94,0.1-1.82,0.31-2.62c0.21-0.79,0.52-1.49,0.95-2.07c0.42-0.58,0.97-1.04,1.64-1.37c0.67-0.33,1.48-0.5,2.39-0.5
			c0.68,0,1.27,0.12,1.74,0.34c0.47,0.22,0.85,0.54,1.13,0.93c0.28,0.4,0.49,0.87,0.61,1.4c0.13,0.54,0.19,1.12,0.19,1.71v12.35
			h2.41v-10.32c0-0.83,0.08-1.64,0.23-2.41c0.15-0.77,0.41-1.46,0.77-2.05c0.36-0.59,0.86-1.07,1.47-1.42
			c0.61-0.35,1.4-0.53,2.33-0.53c1.55,0,2.64,0.38,3.25,1.14c0.61,0.76,0.92,1.89,0.92,3.35v12.24h2.41v-12.35
			C96.62,278.02,94.57,275.86,90.53,275.86z"/>
		<path d="M115.34,278.75c-0.68-0.88-1.55-1.59-2.57-2.11c-1.02-0.52-2.25-0.78-3.63-0.78c-1.48,0-2.82,0.35-3.99,1.05
			c-1.08,0.64-1.9,1.55-2.42,2.69v-3.21h-2.23v24.91h2.41v-9.83c0.23,0.53,0.53,1.01,0.89,1.43c0.44,0.5,0.95,0.92,1.51,1.24
			c0.56,0.33,1.18,0.58,1.85,0.75c0.66,0.17,1.33,0.25,1.98,0.25c1.39,0,2.61-0.26,3.63-0.76c1.02-0.5,1.89-1.21,2.57-2.09
			c0.68-0.88,1.19-1.92,1.52-3.08c0.33-1.16,0.49-2.4,0.49-3.69s-0.17-2.53-0.49-3.68C116.53,280.66,116.02,279.63,115.34,278.75z
			 M109.13,293.11c-1.14,0-2.12-0.23-2.91-0.67c-0.79-0.45-1.44-1.03-1.93-1.74c-0.49-0.71-0.85-1.53-1.07-2.43
			c-0.22-0.91-0.33-1.84-0.33-2.76c0-1.02,0.1-2,0.29-2.92c0.19-0.91,0.54-1.73,1.02-2.41c0.48-0.68,1.13-1.24,1.92-1.65
			c0.8-0.41,1.81-0.62,3-0.62c1.03,0,1.92,0.23,2.64,0.67c0.73,0.45,1.34,1.03,1.81,1.74c0.47,0.71,0.82,1.53,1.04,2.44
			c0.22,0.91,0.33,1.84,0.33,2.76s-0.11,1.85-0.33,2.76c-0.22,0.91-0.57,1.73-1.04,2.44c-0.47,0.71-1.08,1.29-1.81,1.74
			C111.05,292.89,110.16,293.11,109.13,293.11z"/>
		<rect x="120.5" y="269.45" width="2.41" height="25.19"/>
		<path d="M140.56,279.07c-0.65-0.95-1.5-1.74-2.54-2.32c-1.04-0.59-2.3-0.89-3.76-0.89c-1.43,0-2.69,0.28-3.74,0.83
			c-1.05,0.55-1.91,1.29-2.57,2.2c-0.66,0.9-1.15,1.94-1.47,3.09c-0.32,1.15-0.48,2.33-0.48,3.53c0,1.29,0.16,2.53,0.48,3.68
			c0.32,1.16,0.81,2.2,1.47,3.08c0.66,0.88,1.53,1.59,2.57,2.09c1.05,0.51,2.3,0.76,3.74,0.76c2.3,0,4.11-0.57,5.37-1.71
			c1.26-1.13,2.13-2.75,2.6-4.81l0.03-0.12h-2.41l-0.02,0.08c-0.34,1.38-0.97,2.49-1.86,3.31c-0.89,0.82-2.14,1.23-3.71,1.23
			c-1.03,0-1.92-0.22-2.64-0.65c-0.73-0.43-1.34-0.99-1.82-1.65c-0.48-0.66-0.83-1.42-1.05-2.26c-0.21-0.8-0.32-1.59-0.33-2.34
			h13.89l0-0.1c0.05-1.27-0.07-2.53-0.35-3.75C141.68,281.13,141.21,280.02,140.56,279.07z M134.26,277.91
			c0.86,0,1.65,0.18,2.33,0.53c0.69,0.36,1.28,0.83,1.75,1.41c0.48,0.58,0.86,1.26,1.12,2.02c0.25,0.73,0.4,1.49,0.43,2.28h-11.47
			c0.1-0.77,0.28-1.53,0.56-2.26c0.29-0.77,0.68-1.45,1.16-2.04c0.48-0.58,1.07-1.05,1.75-1.41
			C132.58,278.09,133.38,277.91,134.26,277.91z"/>
		<path d="M148.36,270.96h-2.41v5.43h-3.15v2.05h3.15v12.25c-0.02,1.56,0.27,2.65,0.87,3.24c0.6,0.59,1.66,0.89,3.15,0.89
			c0.33,0,0.66-0.01,0.99-0.04c0.31-0.02,0.64-0.03,0.97-0.03h0.1v-2.07l-0.11,0.01c-0.62,0.07-1.26,0.11-1.87,0.11
			c-0.75-0.04-1.22-0.25-1.4-0.63c-0.19-0.39-0.29-0.95-0.29-1.65v-12.08h3.67v-2.05h-3.67V270.96z"/>
		<path d="M167.73,279.07c-0.65-0.95-1.5-1.74-2.54-2.32c-1.04-0.59-2.3-0.89-3.76-0.89c-1.43,0-2.69,0.28-3.74,0.83
			c-1.05,0.55-1.91,1.29-2.57,2.2c-0.66,0.9-1.15,1.94-1.47,3.09c-0.32,1.15-0.48,2.33-0.48,3.53c0,1.29,0.16,2.53,0.48,3.68
			c0.32,1.16,0.81,2.2,1.47,3.08c0.66,0.88,1.53,1.59,2.57,2.09c1.05,0.51,2.3,0.76,3.74,0.76c2.3,0,4.11-0.57,5.37-1.71
			c1.26-1.13,2.13-2.75,2.6-4.81l0.03-0.12h-2.41l-0.02,0.08c-0.34,1.38-0.97,2.49-1.86,3.31c-0.89,0.82-2.14,1.23-3.71,1.23
			c-1.03,0-1.92-0.22-2.64-0.65c-0.73-0.43-1.34-0.99-1.82-1.65c-0.48-0.66-0.83-1.42-1.05-2.26c-0.21-0.8-0.32-1.59-0.33-2.34
			h13.89l0-0.1c0.05-1.27-0.07-2.53-0.35-3.75C168.84,281.13,168.37,280.02,167.73,279.07z M161.43,277.91
			c0.86,0,1.65,0.18,2.33,0.53c0.69,0.36,1.28,0.83,1.75,1.41c0.48,0.58,0.86,1.26,1.12,2.02c0.25,0.73,0.4,1.49,0.43,2.28h-11.47
			c0.1-0.77,0.28-1.53,0.56-2.26c0.29-0.77,0.68-1.45,1.16-2.04c0.48-0.58,1.07-1.05,1.75-1.41
			C159.75,278.09,160.54,277.91,161.43,277.91z"/>
		<path d="M172.61,294.64h1.48c0.01,0.23-0.01,0.49-0.06,0.78c-0.06,0.33-0.15,0.65-0.29,0.96s-0.31,0.59-0.51,0.84
			c-0.2,0.24-0.43,0.41-0.69,0.49l-0.07,0.02v1.71l0.13-0.03c0.52-0.14,0.99-0.39,1.39-0.72c0.39-0.33,0.72-0.72,0.98-1.16
			c0.26-0.44,0.46-0.92,0.59-1.43c0.13-0.51,0.2-1.03,0.2-1.55v-3.81h-3.14V294.64z"/>
		<rect x="189.24" y="276.38" width="2.41" height="18.26"/>
		<rect x="189.24" y="269.45" width="2.41" height="3.73"/>
		<path d="M208.96,277.76c-0.52-0.6-1.22-1.08-2.09-1.41c-0.86-0.33-1.94-0.5-3.2-0.5c-1.3,0-2.5,0.34-3.59,1.01
			c-0.99,0.61-1.71,1.42-2.16,2.4v-2.88h-2.41v18.26h2.41v-10.63c0.02-0.87,0.17-1.69,0.43-2.44c0.26-0.74,0.63-1.39,1.1-1.93
			c0.47-0.53,1.04-0.96,1.72-1.27c0.67-0.31,1.45-0.46,2.32-0.46s1.6,0.14,2.18,0.41c0.58,0.27,1.04,0.65,1.38,1.12
			c0.34,0.48,0.58,1.05,0.72,1.69c0.14,0.65,0.21,1.37,0.21,2.13v11.37h2.41v-11.72c0-1.08-0.11-2.06-0.32-2.93
			C209.86,279.12,209.49,278.37,208.96,277.76z"/>
		<path d="M226.37,286.03c-0.49-0.4-1.05-0.73-1.67-0.98c-0.62-0.25-1.26-0.42-1.89-0.51l-2.94-0.66c-0.37-0.09-0.78-0.22-1.22-0.37
			c-0.43-0.15-0.84-0.34-1.2-0.57c-0.36-0.22-0.66-0.5-0.9-0.83c-0.23-0.32-0.35-0.72-0.35-1.18c0-0.56,0.12-1.04,0.37-1.42
			c0.25-0.38,0.58-0.7,0.98-0.93c0.41-0.24,0.86-0.41,1.35-0.51c1.12-0.24,2.25-0.2,3.23,0.07c0.54,0.15,1.03,0.38,1.45,0.7
			c0.42,0.32,0.75,0.72,1,1.21c0.25,0.49,0.39,1.07,0.41,1.73l0,0.1h2.41l0-0.1c-0.05-0.99-0.25-1.86-0.61-2.59
			c-0.36-0.73-0.84-1.36-1.44-1.85c-0.6-0.5-1.31-0.87-2.1-1.1c-1.48-0.44-3.25-0.47-4.99-0.07c-0.81,0.19-1.56,0.49-2.22,0.89
			c-0.66,0.4-1.21,0.94-1.63,1.61c-0.42,0.67-0.63,1.47-0.63,2.4c0,0.78,0.13,1.45,0.4,1.99c0.26,0.54,0.63,1,1.09,1.36
			c0.46,0.37,1,0.68,1.62,0.92c0.61,0.25,1.28,0.46,2.01,0.65l2.83,0.63c0.49,0.12,0.97,0.26,1.44,0.42
			c0.47,0.16,0.89,0.36,1.25,0.6c0.36,0.24,0.65,0.53,0.86,0.88c0.21,0.34,0.32,0.78,0.32,1.3c0,0.61-0.15,1.12-0.45,1.53
			c-0.3,0.42-0.7,0.77-1.18,1.04c-0.48,0.27-1.01,0.47-1.56,0.58c-0.56,0.11-1.11,0.17-1.64,0.17c-1.44,0-2.66-0.38-3.63-1.12
			c-0.96-0.74-1.5-1.85-1.59-3.3l-0.01-0.09h-2.41l0.01,0.11c0.19,2.24,0.96,3.88,2.3,4.9c1.33,1.01,3.09,1.53,5.22,1.53
			c0.84,0,1.71-0.09,2.58-0.28c0.87-0.19,1.67-0.5,2.36-0.94c0.7-0.44,1.28-1.01,1.73-1.71c0.45-0.7,0.68-1.56,0.68-2.56
			c0-0.81-0.16-1.52-0.47-2.11C227.26,286.94,226.85,286.43,226.37,286.03z"/>
		<path d="M245.81,278.75c-0.68-0.88-1.55-1.59-2.57-2.11c-1.02-0.52-2.25-0.78-3.63-0.78c-1.48,0-2.82,0.35-3.99,1.05
			c-1.08,0.64-1.9,1.55-2.42,2.69v-3.21h-2.23v24.91h2.41v-9.83c0.23,0.53,0.53,1.01,0.89,1.43c0.44,0.5,0.95,0.92,1.51,1.24
			c0.56,0.33,1.18,0.58,1.85,0.75c0.66,0.17,1.33,0.25,1.98,0.25c1.39,0,2.61-0.26,3.63-0.76c1.02-0.5,1.89-1.21,2.57-2.09
			c0.68-0.88,1.19-1.92,1.52-3.08c0.33-1.16,0.49-2.4,0.49-3.69s-0.17-2.53-0.49-3.68C247,280.66,246.49,279.63,245.81,278.75z
			 M239.61,293.11c-1.14,0-2.12-0.23-2.91-0.67c-0.79-0.45-1.44-1.03-1.93-1.74c-0.49-0.71-0.85-1.53-1.07-2.43
			c-0.22-0.91-0.33-1.84-0.33-2.76c0-1.02,0.1-2,0.29-2.92c0.19-0.91,0.54-1.73,1.02-2.41c0.48-0.68,1.13-1.24,1.92-1.65
			c0.8-0.41,1.81-0.62,3-0.62c1.03,0,1.92,0.23,2.64,0.67c0.73,0.45,1.34,1.03,1.81,1.74c0.47,0.71,0.82,1.53,1.04,2.44
			c0.22,0.91,0.33,1.84,0.33,2.76s-0.11,1.85-0.33,2.76c-0.22,0.91-0.57,1.73-1.04,2.44c-0.47,0.71-1.08,1.29-1.81,1.74
			C241.52,292.89,240.63,293.11,239.61,293.11z"/>
		<rect x="250.98" y="269.45" width="2.41" height="3.73"/>
		<rect x="250.98" y="276.38" width="2.41" height="18.26"/>
		<path d="M262.03,277.24c-1.11,0.75-1.95,1.8-2.52,3.14v-3.99h-2.23v18.26h2.41v-9.72c0-0.94,0.16-1.82,0.48-2.6
			c0.32-0.79,0.78-1.48,1.36-2.05c0.58-0.57,1.28-1.02,2.08-1.33c0.8-0.31,1.7-0.44,2.69-0.4l0.1,0v-2.41l-0.1,0
			C264.65,276.06,263.22,276.44,262.03,277.24z"/>
		<path d="M281.46,279.07c-0.65-0.95-1.5-1.74-2.54-2.32c-1.04-0.59-2.3-0.89-3.76-0.89c-1.43,0-2.69,0.28-3.74,0.83
			c-1.05,0.55-1.91,1.29-2.57,2.2c-0.66,0.9-1.15,1.94-1.47,3.09c-0.32,1.15-0.48,2.33-0.48,3.53c0,1.29,0.16,2.53,0.48,3.68
			c0.32,1.16,0.81,2.2,1.47,3.08c0.66,0.88,1.53,1.59,2.57,2.09c1.05,0.51,2.3,0.76,3.74,0.76c2.3,0,4.11-0.57,5.37-1.71
			c1.26-1.13,2.13-2.75,2.6-4.81l0.03-0.12h-2.41l-0.02,0.08c-0.34,1.38-0.97,2.49-1.86,3.31c-0.89,0.82-2.14,1.23-3.71,1.23
			c-1.03,0-1.92-0.22-2.64-0.65c-0.73-0.43-1.34-0.99-1.82-1.65c-0.48-0.66-0.83-1.42-1.05-2.26c-0.21-0.8-0.32-1.59-0.33-2.34
			h13.89l0-0.1c0.05-1.27-0.07-2.53-0.35-3.75C282.58,281.13,282.11,280.02,281.46,279.07z M275.17,277.91
			c0.86,0,1.65,0.18,2.33,0.53c0.69,0.36,1.28,0.83,1.75,1.41c0.48,0.58,0.86,1.26,1.12,2.02c0.25,0.73,0.4,1.49,0.43,2.28h-11.47
			c0.1-0.77,0.28-1.53,0.56-2.26c0.29-0.77,0.68-1.45,1.16-2.04c0.48-0.58,1.07-1.05,1.75-1.41
			C273.48,278.09,274.28,277.91,275.17,277.91z"/>
		<path d="M299.74,279.56c-0.23-0.53-0.53-1.01-0.89-1.43c-0.44-0.5-0.94-0.92-1.51-1.26c-0.57-0.34-1.18-0.6-1.83-0.76
			c-0.65-0.17-1.32-0.25-2-0.25c-1.39,0-2.61,0.26-3.63,0.78c-1.02,0.52-1.89,1.23-2.57,2.11c-0.68,0.88-1.19,1.92-1.52,3.08
			c-0.33,1.16-0.49,2.4-0.49,3.68s0.17,2.53,0.49,3.69c0.33,1.16,0.84,2.2,1.52,3.08c0.68,0.88,1.55,1.59,2.57,2.09
			c1.02,0.51,2.25,0.76,3.63,0.76c0.66,0,1.33-0.09,2-0.28c0.67-0.19,1.31-0.46,1.9-0.8c0.59-0.34,1.12-0.77,1.58-1.26
			c0.39-0.42,0.7-0.87,0.93-1.36v3.21h2.23v-25.19h-2.41V279.56z M293.51,277.91c1.14,0,2.12,0.23,2.91,0.67s1.43,1.03,1.93,1.74
			c0.49,0.71,0.85,1.53,1.07,2.43c0.22,0.91,0.33,1.84,0.33,2.76s-0.11,1.85-0.33,2.76c-0.22,0.91-0.58,1.72-1.07,2.43
			c-0.49,0.71-1.14,1.29-1.93,1.74c-0.79,0.44-1.76,0.67-2.91,0.67c-1.03,0-1.92-0.23-2.64-0.67c-0.73-0.45-1.34-1.03-1.81-1.74
			c-0.47-0.71-0.82-1.53-1.04-2.43c-0.22-0.91-0.33-1.84-0.33-2.76c0-0.92,0.11-1.85,0.33-2.76c0.22-0.91,0.57-1.72,1.04-2.44
			c0.47-0.71,1.08-1.29,1.81-1.74C291.59,278.14,292.48,277.91,293.51,277.91z"/>
		<path d="M327.99,279.56c-0.23-0.53-0.53-1.01-0.89-1.43c-0.44-0.5-0.94-0.92-1.51-1.26c-0.57-0.34-1.18-0.6-1.83-0.76
			c-0.65-0.17-1.32-0.25-2-0.25c-1.39,0-2.61,0.26-3.63,0.78c-1.02,0.52-1.89,1.23-2.57,2.11c-0.68,0.88-1.19,1.92-1.52,3.08
			c-0.33,1.16-0.49,2.4-0.49,3.68s0.17,2.53,0.49,3.69c0.33,1.16,0.84,2.2,1.52,3.08c0.68,0.88,1.55,1.59,2.57,2.09
			c1.02,0.51,2.25,0.76,3.63,0.76c0.66,0,1.33-0.09,2-0.28c0.67-0.19,1.31-0.46,1.9-0.8c0.59-0.34,1.12-0.77,1.58-1.26
			c0.39-0.42,0.7-0.87,0.93-1.36v3.21h2.23v-25.19h-2.41V279.56z M321.75,277.91c1.14,0,2.12,0.23,2.91,0.67s1.43,1.03,1.93,1.74
			c0.49,0.71,0.85,1.53,1.07,2.43c0.22,0.91,0.33,1.84,0.33,2.76s-0.11,1.85-0.33,2.76c-0.22,0.91-0.58,1.72-1.07,2.43
			c-0.49,0.71-1.14,1.29-1.93,1.74c-0.79,0.44-1.76,0.67-2.91,0.67c-1.03,0-1.92-0.23-2.64-0.67c-0.73-0.45-1.34-1.03-1.81-1.74
			c-0.47-0.71-0.82-1.53-1.04-2.43c-0.22-0.91-0.33-1.84-0.33-2.76c0-0.92,0.11-1.85,0.33-2.76c0.22-0.91,0.57-1.72,1.04-2.44
			c0.47-0.71,1.08-1.29,1.81-1.74C319.83,278.14,320.72,277.91,321.75,277.91z"/>
		<path d="M348.02,279.07c-0.65-0.95-1.5-1.74-2.54-2.32c-1.04-0.59-2.3-0.89-3.76-0.89c-1.43,0-2.69,0.28-3.74,0.83
			c-1.05,0.55-1.91,1.29-2.57,2.2c-0.66,0.9-1.15,1.94-1.47,3.09c-0.32,1.15-0.48,2.33-0.48,3.53c0,1.29,0.16,2.53,0.48,3.68
			c0.32,1.16,0.81,2.2,1.47,3.08c0.66,0.88,1.53,1.59,2.57,2.09c1.05,0.51,2.3,0.76,3.74,0.76c2.3,0,4.11-0.57,5.37-1.71
			c1.26-1.13,2.13-2.75,2.6-4.81l0.03-0.12h-2.41l-0.02,0.08c-0.34,1.38-0.97,2.49-1.86,3.31c-0.89,0.82-2.14,1.23-3.71,1.23
			c-1.03,0-1.92-0.22-2.64-0.65c-0.73-0.43-1.34-0.99-1.82-1.65c-0.48-0.66-0.83-1.42-1.05-2.26c-0.21-0.8-0.32-1.59-0.33-2.34
			h13.89l0-0.1c0.05-1.27-0.07-2.53-0.35-3.75C349.14,281.13,348.67,280.02,348.02,279.07z M341.73,277.91
			c0.86,0,1.65,0.18,2.33,0.53c0.69,0.36,1.28,0.83,1.75,1.41c0.48,0.58,0.86,1.26,1.12,2.02c0.25,0.73,0.4,1.49,0.43,2.28h-11.47
			c0.1-0.77,0.28-1.53,0.56-2.26c0.29-0.77,0.68-1.45,1.16-2.04c0.48-0.58,1.07-1.05,1.75-1.41
			C340.04,278.09,340.84,277.91,341.73,277.91z"/>
		<path d="M364.85,286.03c-0.49-0.4-1.05-0.73-1.67-0.98c-0.62-0.25-1.26-0.42-1.89-0.51l-2.94-0.66c-0.37-0.09-0.78-0.22-1.22-0.37
			c-0.43-0.15-0.84-0.34-1.2-0.57c-0.36-0.22-0.66-0.5-0.9-0.83c-0.23-0.32-0.35-0.72-0.35-1.18c0-0.56,0.12-1.04,0.37-1.42
			c0.25-0.38,0.58-0.7,0.98-0.93c0.41-0.24,0.86-0.41,1.35-0.51c1.12-0.24,2.25-0.2,3.23,0.07c0.54,0.15,1.03,0.38,1.45,0.7
			c0.42,0.32,0.75,0.72,1,1.21c0.25,0.49,0.39,1.07,0.41,1.73l0,0.1h2.41l0-0.1c-0.05-0.99-0.25-1.86-0.61-2.59
			c-0.36-0.73-0.84-1.36-1.44-1.85c-0.6-0.5-1.31-0.87-2.1-1.1c-1.48-0.44-3.25-0.47-4.99-0.07c-0.81,0.19-1.56,0.49-2.22,0.89
			c-0.66,0.4-1.21,0.94-1.63,1.61c-0.42,0.67-0.63,1.47-0.63,2.4c0,0.78,0.13,1.45,0.4,1.99c0.26,0.54,0.63,1,1.09,1.36
			c0.46,0.37,1,0.68,1.62,0.92c0.61,0.25,1.28,0.46,2.01,0.65l2.83,0.63c0.49,0.12,0.97,0.26,1.44,0.42
			c0.47,0.16,0.89,0.36,1.25,0.6c0.36,0.24,0.65,0.53,0.86,0.88c0.21,0.34,0.32,0.78,0.32,1.3c0,0.61-0.15,1.12-0.45,1.53
			c-0.3,0.42-0.7,0.77-1.18,1.04c-0.48,0.27-1.01,0.47-1.56,0.58c-0.56,0.11-1.11,0.17-1.64,0.17c-1.44,0-2.66-0.38-3.63-1.12
			c-0.96-0.74-1.5-1.85-1.59-3.3l-0.01-0.09h-2.41l0.01,0.11c0.19,2.24,0.96,3.88,2.3,4.9c1.33,1.01,3.09,1.53,5.22,1.53
			c0.84,0,1.71-0.09,2.58-0.28c0.87-0.19,1.67-0.5,2.36-0.94c0.7-0.44,1.28-1.01,1.73-1.71c0.45-0.7,0.68-1.56,0.68-2.56
			c0-0.81-0.16-1.52-0.47-2.11C365.74,286.94,365.34,286.43,364.85,286.03z"/>
		<rect x="369.45" y="276.38" width="2.41" height="18.26"/>
		<rect x="369.45" y="269.45" width="2.41" height="3.73"/>
		<path d="M388.92,279.29c-0.2-0.4-0.47-0.79-0.79-1.16c-0.39-0.45-0.84-0.85-1.33-1.19c-0.5-0.34-1.05-0.61-1.65-0.8
			c-0.6-0.19-1.25-0.28-1.94-0.28c-1.32,0-2.5,0.24-3.53,0.73c-1.02,0.48-1.9,1.15-2.59,1.99c-0.69,0.83-1.23,1.82-1.59,2.94
			c-0.36,1.11-0.55,2.31-0.55,3.55c0,1.29,0.15,2.52,0.46,3.65c0.3,1.14,0.8,2.15,1.47,2.99c0.67,0.85,1.54,1.52,2.57,2.01
			c1.04,0.48,2.3,0.73,3.75,0.73c1.34,0,2.53-0.35,3.54-1.03c0.93-0.63,1.66-1.47,2.17-2.49v2.16c0,2.16-0.45,3.83-1.34,4.98
			c-0.89,1.14-2.36,1.71-4.37,1.71c-0.6,0-1.19-0.06-1.76-0.19c-0.57-0.13-1.1-0.33-1.56-0.6c-0.46-0.27-0.87-0.63-1.19-1.08
			c-0.33-0.44-0.55-1-0.66-1.65l-0.01-0.08h-2.4l0.01,0.11c0.07,0.97,0.34,1.82,0.8,2.52c0.46,0.7,1.05,1.28,1.74,1.73
			c0.69,0.45,1.49,0.78,2.36,0.99c0.86,0.21,1.77,0.32,2.68,0.32c1.48,0,2.74-0.2,3.76-0.6c1.03-0.4,1.87-0.99,2.51-1.74
			c0.64-0.75,1.11-1.69,1.4-2.77c0.29-1.08,0.44-2.3,0.44-3.63v-16.69h-2.41V279.29z M383.21,292.38c-1.01,0-1.89-0.2-2.61-0.6
			c-0.73-0.4-1.34-0.93-1.82-1.58c-0.48-0.65-0.84-1.41-1.07-2.26c-0.23-0.85-0.35-1.74-0.35-2.63c0-0.92,0.11-1.84,0.33-2.72
			c0.22-0.88,0.57-1.68,1.05-2.36c0.48-0.69,1.09-1.25,1.82-1.67c0.73-0.42,1.62-0.64,2.65-0.64c1.02,0,1.91,0.22,2.63,0.65
			c0.72,0.43,1.31,1.01,1.77,1.72c0.46,0.71,0.79,1.51,1,2.38c0.21,0.88,0.31,1.76,0.31,2.64c0,0.9-0.12,1.78-0.36,2.63
			c-0.24,0.85-0.61,1.61-1.09,2.26c-0.48,0.65-1.08,1.18-1.79,1.58C384.98,292.17,384.15,292.38,383.21,292.38z"/>
		<path d="M408.64,277.76c-0.52-0.6-1.22-1.08-2.09-1.41c-0.86-0.33-1.94-0.5-3.2-0.5c-1.3,0-2.5,0.34-3.59,1.01
			c-0.99,0.61-1.71,1.42-2.16,2.4v-2.88h-2.41v18.26h2.41v-10.63c0.02-0.87,0.17-1.69,0.43-2.44c0.26-0.74,0.63-1.39,1.1-1.93
			c0.47-0.53,1.04-0.96,1.72-1.27c0.67-0.31,1.45-0.46,2.32-0.46c0.87,0,1.6,0.14,2.18,0.41c0.58,0.27,1.04,0.65,1.38,1.12
			c0.34,0.48,0.58,1.05,0.72,1.7c0.14,0.65,0.21,1.37,0.21,2.13v11.37h2.4v-11.72c0-1.08-0.11-2.06-0.32-2.93
			C409.54,279.12,409.16,278.37,408.64,277.76z"/>
		<path d="M434.37,286.03c-0.48-0.4-1.05-0.73-1.67-0.98c-0.62-0.25-1.26-0.42-1.89-0.51l-2.94-0.66c-0.38-0.09-0.79-0.22-1.22-0.37
			c-0.44-0.15-0.84-0.34-1.21-0.57c-0.36-0.22-0.66-0.5-0.9-0.83c-0.23-0.32-0.35-0.72-0.35-1.18c0-0.56,0.13-1.04,0.37-1.42
			c0.25-0.38,0.58-0.69,0.98-0.93c0.41-0.24,0.86-0.41,1.35-0.51c1.12-0.24,2.24-0.2,3.23,0.07c0.54,0.15,1.03,0.38,1.45,0.7
			c0.42,0.32,0.75,0.72,1,1.21c0.25,0.49,0.39,1.07,0.41,1.73l0,0.1h2.41l0-0.1c-0.05-0.99-0.25-1.86-0.6-2.59
			c-0.36-0.73-0.84-1.36-1.44-1.85c-0.6-0.5-1.31-0.87-2.1-1.1c-1.48-0.44-3.25-0.47-4.99-0.07c-0.81,0.19-1.56,0.49-2.22,0.89
			c-0.66,0.4-1.21,0.94-1.63,1.61c-0.42,0.67-0.63,1.47-0.63,2.4c0,0.78,0.13,1.45,0.4,1.99c0.26,0.54,0.63,1,1.09,1.36
			c0.46,0.37,1,0.68,1.62,0.92c0.61,0.25,1.29,0.47,2.01,0.65l2.83,0.63c0.49,0.12,0.97,0.26,1.44,0.42
			c0.47,0.16,0.89,0.36,1.25,0.6c0.36,0.23,0.65,0.53,0.86,0.88c0.21,0.34,0.32,0.78,0.32,1.3c0,0.61-0.15,1.12-0.45,1.53
			c-0.3,0.42-0.7,0.77-1.18,1.04c-0.48,0.27-1.01,0.47-1.56,0.58c-0.56,0.11-1.11,0.17-1.64,0.17c-1.44,0-2.66-0.38-3.63-1.12
			c-0.96-0.74-1.5-1.85-1.59-3.3l-0.01-0.09h-2.41l0.01,0.11c0.19,2.24,0.96,3.88,2.3,4.9c1.33,1.01,3.09,1.53,5.22,1.53
			c0.84,0,1.71-0.09,2.58-0.28c0.87-0.19,1.67-0.5,2.36-0.94c0.7-0.44,1.28-1.01,1.73-1.71c0.45-0.7,0.68-1.56,0.68-2.56
			c0-0.81-0.16-1.52-0.47-2.11C435.26,286.94,434.86,286.43,434.37,286.03z"/>
		<path d="M453.01,278.73c-0.73-0.87-1.64-1.57-2.71-2.09c-1.07-0.52-2.32-0.78-3.7-0.78s-2.63,0.26-3.7,0.78
			c-1.07,0.52-1.98,1.22-2.71,2.09c-0.73,0.87-1.29,1.9-1.66,3.06c-0.38,1.16-0.57,2.41-0.57,3.72c0,1.31,0.19,2.57,0.57,3.72
			c0.38,1.16,0.93,2.19,1.66,3.06c0.73,0.87,1.64,1.57,2.71,2.07c1.07,0.51,2.32,0.76,3.7,0.76s2.63-0.26,3.7-0.76
			c1.07-0.5,1.98-1.2,2.71-2.07c0.73-0.87,1.29-1.9,1.66-3.06c0.38-1.16,0.56-2.41,0.56-3.72c0-1.31-0.19-2.56-0.56-3.72
			C454.3,280.63,453.74,279.6,453.01,278.73z M446.6,293.11c-1.03,0-1.94-0.22-2.72-0.65c-0.78-0.43-1.43-1.01-1.95-1.72
			s-0.91-1.53-1.18-2.44c-0.26-0.91-0.4-1.84-0.4-2.79c0-0.94,0.13-1.88,0.4-2.79c0.26-0.91,0.66-1.73,1.18-2.44
			c0.51-0.71,1.17-1.29,1.95-1.72c0.78-0.43,1.69-0.65,2.72-0.65s1.94,0.22,2.72,0.65c0.78,0.44,1.43,1.01,1.95,1.72
			c0.51,0.71,0.91,1.53,1.17,2.44c0.26,0.91,0.4,1.85,0.4,2.79c0,0.94-0.13,1.88-0.4,2.79c-0.26,0.91-0.66,1.73-1.17,2.44
			c-0.51,0.71-1.17,1.29-1.95,1.72C448.54,292.89,447.62,293.11,446.6,293.11z"/>
		<rect x="458.32" y="269.45" width="2.4" height="25.19"/>
		<path d="M477.05,285.97c0,0.9-0.11,1.79-0.31,2.65c-0.21,0.86-0.53,1.63-0.97,2.3c-0.43,0.66-0.99,1.2-1.65,1.6
			c-0.66,0.4-1.46,0.6-2.4,0.6c-1.71,0-2.93-0.41-3.62-1.22c-0.69-0.82-1.07-2.05-1.11-3.65v-11.86h-2.4v11.82
			c0,1.08,0.12,2.05,0.35,2.9c0.24,0.85,0.61,1.58,1.12,2.17c0.51,0.59,1.18,1.05,2,1.38c0.81,0.32,1.81,0.48,2.96,0.48
			c1.36,0,2.62-0.33,3.74-0.98c1.05-0.61,1.87-1.48,2.46-2.59v3.07h2.23v-18.26h-2.4V285.97z"/>
		<path d="M487.09,270.96h-2.4v5.43h-3.15v2.05h3.15v12.25c-0.02,1.56,0.27,2.65,0.87,3.24c0.6,0.59,1.66,0.89,3.15,0.89
			c0.33,0,0.66-0.01,0.99-0.04c0.31-0.02,0.64-0.03,0.97-0.03h0.1v-2.07l-0.11,0.01c-0.62,0.07-1.26,0.11-1.87,0.11
			c-0.75-0.04-1.22-0.26-1.4-0.63c-0.19-0.39-0.29-0.95-0.29-1.65v-12.08h3.67v-2.05h-3.67V270.96z"/>
		<rect x="493.31" y="276.38" width="2.4" height="18.26"/>
		<rect x="493.31" y="269.45" width="2.4" height="3.73"/>
		<path d="M513.87,278.73c-0.73-0.87-1.64-1.57-2.71-2.09c-1.07-0.52-2.32-0.78-3.7-0.78s-2.63,0.26-3.7,0.78
			c-1.07,0.52-1.98,1.22-2.71,2.09c-0.73,0.87-1.29,1.9-1.66,3.06c-0.38,1.16-0.57,2.41-0.57,3.72c0,1.31,0.19,2.57,0.57,3.72
			c0.38,1.16,0.93,2.19,1.66,3.06c0.73,0.87,1.64,1.57,2.71,2.07c1.07,0.51,2.32,0.76,3.7,0.76s2.63-0.26,3.7-0.76
			c1.07-0.5,1.98-1.2,2.71-2.07c0.73-0.87,1.29-1.9,1.66-3.06c0.38-1.16,0.56-2.41,0.56-3.72c0-1.31-0.19-2.56-0.56-3.72
			C515.15,280.63,514.59,279.6,513.87,278.73z M507.45,293.11c-1.03,0-1.94-0.22-2.72-0.65c-0.78-0.43-1.43-1.01-1.95-1.72
			s-0.91-1.53-1.18-2.44c-0.26-0.91-0.4-1.84-0.4-2.79c0-0.94,0.13-1.88,0.4-2.79c0.26-0.91,0.66-1.73,1.18-2.44
			c0.51-0.71,1.17-1.29,1.95-1.72c0.78-0.43,1.69-0.65,2.72-0.65s1.94,0.22,2.72,0.65c0.78,0.44,1.43,1.01,1.95,1.72
			c0.51,0.71,0.91,1.53,1.17,2.44c0.26,0.91,0.4,1.85,0.4,2.79c0,0.94-0.13,1.88-0.4,2.79c-0.26,0.91-0.66,1.73-1.17,2.44
			c-0.51,0.71-1.17,1.29-1.95,1.72C509.4,292.89,508.48,293.11,507.45,293.11z"/>
		<path d="M532.54,277.76c-0.52-0.6-1.22-1.08-2.09-1.41c-0.86-0.33-1.94-0.5-3.2-0.5c-1.3,0-2.5,0.34-3.59,1.01
			c-0.99,0.61-1.71,1.42-2.16,2.39v-2.88h-2.4v18.26h2.4v-10.63c0.02-0.87,0.17-1.69,0.43-2.44c0.26-0.74,0.63-1.39,1.1-1.93
			c0.47-0.53,1.04-0.96,1.72-1.27c0.67-0.31,1.45-0.46,2.32-0.46c0.87,0,1.6,0.14,2.18,0.41c0.58,0.27,1.04,0.65,1.38,1.12
			s0.58,1.04,0.72,1.69c0.14,0.66,0.21,1.37,0.21,2.13v11.37h2.4v-11.72c0-1.07-0.11-2.06-0.32-2.93
			C533.44,279.12,533.07,278.37,532.54,277.76z"/>
		<path d="M551.15,287.53c-0.31-0.59-0.71-1.1-1.2-1.5c-0.48-0.4-1.05-0.73-1.67-0.98c-0.62-0.25-1.26-0.42-1.89-0.51l-2.94-0.66
			c-0.38-0.09-0.79-0.22-1.22-0.37c-0.44-0.15-0.84-0.34-1.21-0.57c-0.36-0.22-0.66-0.5-0.9-0.83c-0.23-0.32-0.35-0.72-0.35-1.18
			c0-0.56,0.13-1.04,0.37-1.42c0.25-0.38,0.58-0.7,0.98-0.93c0.41-0.24,0.86-0.41,1.35-0.51c1.12-0.24,2.24-0.2,3.23,0.07
			c0.54,0.15,1.03,0.38,1.45,0.7c0.42,0.32,0.75,0.72,1,1.21c0.25,0.49,0.39,1.07,0.41,1.73l0,0.1h2.41l0-0.1
			c-0.05-0.99-0.25-1.86-0.6-2.59c-0.36-0.73-0.84-1.36-1.44-1.85c-0.6-0.5-1.31-0.87-2.1-1.1c-1.48-0.44-3.24-0.47-4.99-0.07
			c-0.81,0.19-1.56,0.49-2.22,0.89c-0.66,0.4-1.21,0.94-1.63,1.61c-0.42,0.67-0.63,1.47-0.63,2.4c0,0.78,0.13,1.45,0.4,1.99
			c0.26,0.54,0.63,1,1.09,1.36c0.46,0.37,1,0.68,1.62,0.92c0.61,0.25,1.29,0.47,2.01,0.65l2.83,0.63c0.49,0.12,0.97,0.26,1.44,0.42
			c0.47,0.16,0.89,0.36,1.25,0.6c0.36,0.23,0.65,0.53,0.86,0.88c0.21,0.34,0.32,0.78,0.32,1.3c0,0.61-0.15,1.12-0.45,1.53
			c-0.3,0.42-0.7,0.77-1.18,1.04c-0.48,0.27-1.01,0.47-1.56,0.58c-0.56,0.11-1.11,0.17-1.64,0.17c-1.44,0-2.66-0.38-3.63-1.12
			c-0.96-0.74-1.5-1.85-1.59-3.3l-0.01-0.09h-2.41l0.01,0.11c0.19,2.24,0.96,3.88,2.3,4.9c1.33,1.01,3.09,1.53,5.22,1.53
			c0.84,0,1.71-0.09,2.58-0.28c0.87-0.19,1.67-0.5,2.36-0.94c0.7-0.44,1.28-1.01,1.73-1.71c0.45-0.7,0.68-1.56,0.68-2.56
			C551.61,288.83,551.45,288.12,551.15,287.53z"/>
	</g>
	<path d="M341.35,126.61c0,0,0.99-0.74,2.92-2.17c0.96-0.72,2.16-1.6,3.59-2.66c1.44-1.03,3.11-2.23,5-3.59
		c7.6-5.37,18.84-13.15,33.83-21.99c14.97-8.87,33.57-18.99,55.75-28.91c22.14-9.96,47.76-19.92,76.55-28.25
		c14.39-4.17,29.55-7.97,45.43-11.13c15.88-3.15,32.48-5.57,49.67-7.07c17.19-1.48,34.99-1.98,53.2-0.95
		c18.2,1.06,36.83,3.77,55.27,9.21c9.21,2.73,18.37,6.18,27.2,10.65c8.85,4.44,17.37,9.96,25.04,16.78
		c7.66,6.8,14.42,15,19.34,24.37c0.62,1.16,1.18,2.37,1.76,3.55c0.58,1.19,1.05,2.43,1.58,3.64l0.19,0.46
		c0,0.01,0.21,0.51,0.24,0.61l0.31,0.85l0.62,1.71l0.31,0.86l0.31,0.99l0.61,1.98c1.53,5.19,2.5,10.37,3.01,15.67
		c1.01,10.58,0.03,21.22-2.3,31.4c-2.38,10.19-6.04,19.96-10.54,29.23c-9.03,18.57-21.2,35.22-34.66,50.41
		c-6.76,7.59-13.92,14.77-21.33,21.64c-7.4,6.88-15.07,13.42-22.94,19.66c-15.73,12.49-32.22,23.81-49.13,34.07
		c-8.45,5.13-17.01,10.01-25.64,14.63c-8.65,4.59-17.37,8.93-26.14,13.02c-17.51,8.18-35.28,15.46-52.87,21.73
		c-4.45,1.55-8.88,3.17-13.3,4.59c-2.21,0.73-4.41,1.46-6.61,2.18c-2.21,0.69-4.41,1.38-6.61,2.07c-8.79,2.78-17.59,5.22-26.32,7.51
		c-17.47,4.57-34.75,8.25-51.68,11.24c-16.93,2.96-33.5,5.26-49.6,6.68c-16.11,1.43-31.72,2.16-46.73,2.21
		c-15,0-29.39-0.65-43.01-2.07c-13.62-1.43-26.46-3.68-38.34-6.66c-5.91-1.55-11.66-3.28-16.97-5.19
		c-5.38-1.89-10.49-3.83-15.36-5.83c-9.74-3.99-18.5-8.1-26.2-12.22c-15.46-8.16-26.42-16.67-33.02-23.27
		c-3.32-3.29-5.56-6.09-6.98-8.03c-0.74-0.95-1.21-1.73-1.57-2.23c-0.34-0.51-0.52-0.76-0.52-0.76s0.19,0.25,0.56,0.73
		c0.38,0.48,0.89,1.23,1.68,2.14c1.52,1.85,3.9,4.51,7.36,7.58c3.46,3.07,7.97,6.59,13.62,10.2c5.65,3.61,12.37,7.38,20.16,11.09
		c7.78,3.71,16.61,7.38,26.4,10.88c9.81,3.41,20.49,7.05,32.11,9.56c23.35,4.98,50.49,6.66,79.95,5.83
		c14.74-0.49,30.07-1.66,45.87-3.53c15.79-1.84,32.06-4.37,48.63-7.66c33.14-6.52,67.63-16.17,102.06-28.9
		c17.35-6.43,34.51-13.73,51.56-21.96c8.52-4.11,16.98-8.46,25.36-13.04c8.4-4.55,16.72-9.33,24.93-14.37
		c16.42-10.06,32.39-21.13,47.55-33.27c7.58-6.07,14.96-12.41,22.03-19.05c7.09-6.63,13.9-13.55,20.32-20.78
		c12.88-14.39,24.36-30.06,32.69-47.03c4.16-8.47,7.47-17.27,9.6-26.22c2.09-8.95,2.93-18.07,2.12-26.95
		c-0.4-4.41-1.23-8.85-2.42-12.99l-0.45-1.5l-0.22-0.75l-0.31-0.86l-0.61-1.71l-0.31-0.86l-0.26-0.61c-0.82-2.04-1.74-4.04-2.72-6
		c-3.98-7.83-9.56-14.82-16.12-20.79c-6.56-5.98-14.05-11.01-22.02-15.14c-7.96-4.16-16.38-7.46-24.95-10.12
		c-8.57-2.69-17.33-4.67-26.09-6.22c-8.78-1.5-17.57-2.59-26.32-3.29c-17.51-1.36-34.8-1.25-51.59-0.16
		c-16.8,1.08-33.08,3.2-48.74,5.83c-15.66,2.64-30.69,5.94-44.99,9.64c-14.3,3.69-27.85,7.83-40.64,12.1
		c-12.76,4.24-24.81,8.75-35.93,13.26c-22.29,9.07-41.23,18.21-56.5,26.36c-7.65,4.05-14.35,7.91-20.18,11.27
		c-5.8,3.41-10.69,6.4-14.61,8.89c-1.96,1.25-3.69,2.35-5.18,3.31c-1.48,0.98-2.72,1.8-3.73,2.46
		C342.38,125.93,341.35,126.61,341.35,126.61z"/>
	<g>
		<path d="M20.5,173.13v-12.59h11.26v-5.3c0-6.1,1.9-11.09,5.7-14.98c3.8-3.89,9.54-5.83,17.23-5.83c1.68,0,3.36,0.07,5.04,0.2
			c1.68,0.13,3.31,0.24,4.9,0.33v14.05c-2.21-0.27-4.51-0.4-6.89-0.4c-2.56,0-4.4,0.6-5.5,1.79c-1.11,1.19-1.66,3.2-1.66,6.03v4.11
			h12.99v12.59H50.59v55.93H31.77v-55.93H20.5z"/>
		<path d="M87.64,160.54v12.72h0.26c0.88-2.12,2.08-4.09,3.58-5.9c1.5-1.81,3.22-3.36,5.17-4.64c1.94-1.28,4.02-2.27,6.23-2.98
			c2.21-0.71,4.51-1.06,6.89-1.06c1.24,0,2.6,0.22,4.11,0.66v17.49c-0.88-0.18-1.94-0.33-3.18-0.46c-1.24-0.13-2.43-0.2-3.58-0.2
			c-3.45,0-6.36,0.58-8.75,1.72c-2.39,1.15-4.31,2.72-5.76,4.7c-1.46,1.99-2.5,4.31-3.11,6.96c-0.62,2.65-0.93,5.52-0.93,8.61v30.88
			H69.75v-68.52H87.64z"/>
		<path d="M140.1,212.62c2.83,2.74,6.89,4.11,12.19,4.11c3.8,0,7.07-0.95,9.81-2.85c2.74-1.9,4.42-3.91,5.04-6.03h16.57
			c-2.65,8.22-6.72,14.09-12.19,17.63c-5.48,3.53-12.11,5.3-19.88,5.3c-5.39,0-10.25-0.86-14.58-2.58c-4.33-1.72-8-4.17-11-7.36
			c-3-3.18-5.32-6.98-6.96-11.4c-1.64-4.42-2.45-9.28-2.45-14.58c0-5.12,0.84-9.89,2.52-14.31c1.68-4.42,4.06-8.24,7.16-11.46
			c3.09-3.22,6.78-5.76,11.07-7.62c4.28-1.86,9.03-2.78,14.25-2.78c5.83,0,10.91,1.13,15.24,3.38c4.33,2.25,7.89,5.28,10.67,9.08
			c2.78,3.8,4.79,8.13,6.03,12.99c1.24,4.86,1.68,9.94,1.32,15.24h-49.43C135.73,205.47,137.27,209.88,140.1,212.62z M161.37,176.57
			c-2.25-2.47-5.68-3.71-10.27-3.71c-3,0-5.5,0.51-7.49,1.52c-1.99,1.02-3.58,2.28-4.77,3.78c-1.19,1.5-2.03,3.09-2.52,4.77
			c-0.49,1.68-0.77,3.18-0.86,4.51h30.61C165.19,182.67,163.63,179.05,161.37,176.57z"/>
		<path d="M209.2,160.54v9.28h0.27c2.47-3.53,5.45-6.27,8.95-8.22c3.49-1.94,7.49-2.91,11.99-2.91c4.33,0,8.28,0.84,11.86,2.52
			c3.58,1.68,6.3,4.64,8.15,8.88c2.03-3,4.79-5.65,8.28-7.95c3.49-2.3,7.62-3.45,12.39-3.45c3.62,0,6.98,0.44,10.07,1.32
			c3.09,0.88,5.74,2.3,7.95,4.24c2.21,1.94,3.93,4.49,5.17,7.62c1.24,3.14,1.86,6.91,1.86,11.33v45.85h-18.82v-38.83
			c0-2.3-0.09-4.46-0.27-6.49c-0.18-2.03-0.66-3.8-1.46-5.3c-0.79-1.5-1.97-2.69-3.51-3.58c-1.55-0.88-3.64-1.32-6.3-1.32
			s-4.79,0.51-6.43,1.52c-1.64,1.02-2.92,2.34-3.84,3.98c-0.93,1.64-1.55,3.49-1.86,5.57c-0.31,2.08-0.46,4.17-0.46,6.3v38.17
			h-18.82v-38.43c0-2.03-0.05-4.04-0.13-6.03c-0.09-1.99-0.46-3.82-1.13-5.5c-0.66-1.68-1.77-3.03-3.31-4.04
			c-1.55-1.01-3.82-1.52-6.83-1.52c-0.88,0-2.05,0.2-3.51,0.6c-1.46,0.4-2.87,1.15-4.24,2.25c-1.37,1.11-2.54,2.7-3.51,4.77
			c-0.97,2.08-1.46,4.79-1.46,8.15v39.76h-18.82v-68.52H209.2z"/>
		<path d="M366.39,160.94v64.54c0,3.8-0.44,7.49-1.32,11.07c-0.88,3.58-2.4,6.74-4.56,9.48c-2.16,2.74-5.14,4.92-8.93,6.56
			c-3.79,1.63-8.59,2.45-14.41,2.45c-3.61,0-7.01-0.38-10.18-1.13c-3.17-0.75-5.95-1.95-8.33-3.58c-2.38-1.64-4.3-3.8-5.75-6.49
			c-1.45-2.7-2.27-6.03-2.45-10.01h5.04c0.27,3,1.01,5.57,2.25,7.69c1.24,2.12,2.85,3.86,4.84,5.23c1.99,1.37,4.22,2.36,6.69,2.98
			c2.47,0.62,5.12,0.93,7.95,0.93c4.68,0,8.59-0.71,11.73-2.12c3.14-1.41,5.63-3.25,7.49-5.5c1.85-2.25,3.16-4.82,3.91-7.69
			c0.75-2.87,1.13-5.76,1.13-8.68v-15.64h-0.38c-2.38,5.04-5.62,8.88-9.72,11.53c-4.1,2.65-9.06,3.98-14.88,3.98
			c-5.02,0-9.37-0.86-13.02-2.58c-3.66-1.72-6.7-4.11-9.12-7.16c-2.42-3.05-4.23-6.6-5.42-10.67c-1.19-4.06-1.79-8.48-1.79-13.25
			c0-4.51,0.64-8.79,1.92-12.86c1.28-4.06,3.16-7.62,5.63-10.67c2.47-3.05,5.54-5.48,9.21-7.29c3.67-1.81,7.89-2.72,12.66-2.72
			c5.39,0,10.36,1.37,14.91,4.11c4.55,2.74,7.8,6.63,9.74,11.66h0.27v-14.18H366.39z M336.57,163.72c-4.15,0-7.75,0.84-10.8,2.52
			c-3.05,1.68-5.57,3.89-7.55,6.63c-1.99,2.74-3.49,5.85-4.51,9.34c-1.02,3.49-1.52,7.05-1.52,10.67c0,3.98,0.51,7.75,1.52,11.33
			c1.01,3.58,2.56,6.69,4.64,9.34c2.08,2.65,4.64,4.75,7.69,6.29c3.05,1.55,6.56,2.32,10.54,2.32c4.15,0,7.77-0.8,10.87-2.39
			c3.09-1.59,5.68-3.75,7.75-6.49c2.08-2.74,3.62-5.85,4.64-9.34c1.01-3.49,1.52-7.18,1.52-11.07c0-3.8-0.51-7.47-1.52-11
			c-1.02-3.53-2.56-6.65-4.64-9.34c-2.08-2.69-4.66-4.84-7.75-6.43C344.35,164.51,340.73,163.72,336.57,163.72z"/>
		<path d="M382.24,176.04h0.4c0.62-2.21,1.74-4.28,3.38-6.23c1.63-1.94,3.62-3.62,5.96-5.04c2.34-1.41,4.95-2.5,7.82-3.25
			c2.87-0.75,5.85-1.08,8.95-0.99v5.04c-2.65-0.35-5.68-0.09-9.08,0.8c-3.4,0.88-6.65,2.83-9.74,5.83
			c-1.24,1.33-2.32,2.61-3.25,3.84c-0.93,1.24-1.7,2.61-2.32,4.11c-0.62,1.5-1.11,3.18-1.46,5.04c-0.35,1.86-0.58,4.06-0.66,6.63
			v37.24h-5.04v-68.12h5.04V176.04z"/>
		<path d="M408.24,195c0-4.86,0.68-9.43,2.05-13.72c1.37-4.28,3.38-8.06,6.03-11.33c2.65-3.27,5.92-5.85,9.81-7.75
			c3.89-1.9,8.35-2.85,13.38-2.85c5.04,0,9.5,0.95,13.39,2.85c3.89,1.9,7.16,4.49,9.81,7.75c2.65,3.27,4.66,7.05,6.03,11.33
			c1.37,4.29,2.05,8.86,2.05,13.72c0,4.86-0.68,9.45-2.05,13.78c-1.37,4.33-3.38,8.11-6.03,11.33c-2.65,3.23-5.92,5.79-9.81,7.69
			c-3.89,1.9-8.35,2.85-13.39,2.85c-5.04,0-9.5-0.95-13.38-2.85c-3.89-1.9-7.16-4.46-9.81-7.69c-2.65-3.22-4.66-7-6.03-11.33
			C408.92,204.45,408.24,199.86,408.24,195z M413.28,195c0,4.06,0.57,7.97,1.72,11.73c1.15,3.76,2.83,7.09,5.04,10.01
			c2.21,2.92,4.95,5.23,8.22,6.96c3.27,1.72,7.02,2.58,11.26,2.58c4.24,0,8-0.86,11.26-2.58c3.27-1.72,6.01-4.04,8.22-6.96
			c2.21-2.92,3.89-6.25,5.04-10.01c1.15-3.75,1.72-7.66,1.72-11.73c0-4.06-0.58-7.97-1.72-11.73c-1.15-3.75-2.83-7.09-5.04-10.01
			c-2.21-2.92-4.95-5.23-8.22-6.96c-3.27-1.72-7.02-2.58-11.26-2.58c-4.24,0-8,0.86-11.26,2.58c-3.27,1.72-6.01,4.04-8.22,6.96
			c-2.21,2.91-3.89,6.25-5.04,10.01C413.85,187.02,413.28,190.93,413.28,195z"/>
		<path d="M532.37,229.06h-5.04v-14.58h-0.27c-0.88,2.56-2.14,4.84-3.78,6.83c-1.64,1.99-3.54,3.69-5.7,5.1
			c-2.17,1.41-4.53,2.48-7.09,3.18c-2.56,0.71-5.17,1.06-7.82,1.06c-3.98,0-7.35-0.49-10.14-1.46c-2.78-0.97-5.06-2.25-6.82-3.84
			c-1.77-1.59-3.16-3.38-4.18-5.37c-1.02-1.99-1.74-4-2.19-6.03c-0.44-2.03-0.71-4-0.79-5.9c-0.09-1.9-0.13-3.55-0.13-4.97v-42.14
			h5.04v43.07c0,1.77,0.13,3.91,0.4,6.43c0.27,2.52,1.04,4.95,2.32,7.29c1.28,2.34,3.2,4.35,5.76,6.03
			c2.56,1.68,6.18,2.52,10.87,2.52c3.8,0,7.22-0.71,10.27-2.12c3.05-1.41,5.63-3.38,7.75-5.9c2.12-2.52,3.73-5.52,4.84-9.01
			c1.1-3.49,1.66-7.31,1.66-11.46v-36.84h5.04V229.06z"/>
		<path d="M546.02,176.57h0.4c0.53-1.68,1.41-3.53,2.65-5.57c1.24-2.03,2.87-3.91,4.9-5.63c2.03-1.72,4.48-3.16,7.36-4.31
			c2.87-1.15,6.16-1.72,9.87-1.72c5.21,0,9.74,0.97,13.58,2.92c3.84,1.94,7.02,4.55,9.54,7.82c2.52,3.27,4.39,7.07,5.63,11.4
			c1.24,4.33,1.86,8.88,1.86,13.65c0,5.21-0.62,9.99-1.86,14.31c-1.24,4.33-3.12,8.06-5.65,11.2c-2.52,3.14-5.71,5.59-9.56,7.36
			c-3.85,1.77-8.39,2.65-13.62,2.65c-5.67,0-10.72-1.24-15.15-3.71c-4.43-2.47-7.66-6.49-9.7-12.06h-0.26l0,38.57h-4.9v-92.5h4.9
			V176.57z M571.14,226.27c4.43,0,8.26-0.84,11.49-2.52c3.23-1.68,5.89-3.93,7.97-6.76c2.08-2.83,3.63-6.12,4.65-9.87
			c1.02-3.75,1.53-7.75,1.53-11.99c0-3.89-0.49-7.71-1.46-11.46c-0.98-3.75-2.48-7.11-4.52-10.07c-2.04-2.96-4.67-5.34-7.91-7.16
			c-3.23-1.81-7.15-2.72-11.76-2.72c-4.52,0-8.37,0.88-11.56,2.65c-3.19,1.77-5.78,4.11-7.77,7.02c-1.99,2.92-3.43,6.25-4.32,10.01
			c-0.89,3.76-1.33,7.67-1.33,11.73c0,4.07,0.4,7.98,1.19,11.73c0.8,3.76,2.15,7.07,4.05,9.94c1.91,2.87,4.47,5.17,7.71,6.89
			C562.35,225.41,566.35,226.27,571.14,226.27z"/>
	</g>
</g>
<g id="Guideline" class="st0">
	<path class="st1" d="M-19.72,138.87h12.59v11.26h5.3c6.1,0,11.09,1.9,14.98,5.7c3.89,3.8,5.83,9.54,5.83,17.23
		c0,1.68-0.07,3.36-0.2,5.04c-0.13,1.68-0.24,3.31-0.33,4.9H4.4c0.27-2.21,0.4-4.51,0.4-6.89c0-2.56-0.6-4.4-1.79-5.5
		c-1.19-1.11-3.2-1.66-6.03-1.66h-4.11v12.99h-12.59v-12.99h-55.93v-18.82h55.93V138.87z"/>
	<path class="st1" d="M859.41,138.87H872v11.26h5.3c6.1,0,11.09,1.9,14.98,5.7c3.89,3.8,5.83,9.54,5.83,17.23
		c0,1.68-0.07,3.36-0.2,5.04c-0.13,1.68-0.24,3.31-0.33,4.9h-14.05c0.27-2.21,0.4-4.51,0.4-6.89c0-2.56-0.6-4.4-1.79-5.5
		c-1.19-1.11-3.2-1.66-6.03-1.66H872v12.99h-12.59v-12.99h-55.93v-18.82h55.93V138.87z"/>
	<path class="st1" d="M593.53-19.35v12.59h-11.26v5.3c0,6.1-1.9,11.09-5.7,14.98c-3.8,3.89-9.54,5.83-17.23,5.83
		c-1.68,0-3.36-0.07-5.04-0.2c-1.68-0.13-3.31-0.24-4.9-0.33V4.77c2.21,0.27,4.51,0.4,6.89,0.4c2.56,0,4.4-0.6,5.5-1.79
		c1.11-1.19,1.66-3.2,1.66-6.03v-4.11h-12.99v-12.59h12.99v-55.93h18.82v55.93H593.53z"/>
	<path class="st1" d="M377.21,439.45v12.59h-11.26v5.3c0,6.1-1.9,11.09-5.7,14.98c-3.8,3.89-9.54,5.83-17.23,5.83
		c-1.68,0-3.36-0.07-5.04-0.2c-1.68-0.13-3.31-0.24-4.9-0.33v-14.05c2.21,0.27,4.51,0.4,6.89,0.4c2.56,0,4.4-0.6,5.5-1.79
		c1.11-1.19,1.66-3.2,1.66-6.03v-4.11h-12.99v-12.59h12.99v-55.93h18.82v55.93H377.21z"/>
	<rect x="-75.64" y="-75.28" class="st2" width="973.76" height="553.42"/>
	<rect x="18.52" y="19.34" class="st2" width="783.22" height="365.95"/>
</g>
</svg>
