<?xml version="1.0" encoding="utf-8"?>
<!-- Generator: Adobe Illustrator 23.0.1, SVG Export Plug-In . SVG Version: 6.00 Build 0)  -->
<svg version="1.1" id="Layer_1" xmlns="http://www.w3.org/2000/svg" xmlns:xlink="http://www.w3.org/1999/xlink" x="0px" y="0px"
	 viewBox="0 0 972.26 294.13" style="enable-background:new 0 0 972.26 294.13;" xml:space="preserve">
<polygon points="184.26,56.06 182.13,58.19 135.65,191.56 133.38,191.56 86.89,58.19 84.76,56.06 30.34,56.06 28.21,58.19 
	28.21,243.86 30.34,245.98 62.09,245.98 64.21,243.86 64.21,98.58 66.48,98.58 118.64,243.86 120.76,245.98 148.26,245.98 
	150.39,243.86 202.54,96.31 204.81,96.31 204.81,243.86 206.94,245.98 238.68,245.98 240.81,243.86 240.81,58.19 238.68,56.06 "/>
<polygon points="757.42,56.06 755.3,58.19 755.3,243.86 757.42,245.98 787.19,245.98 789.31,243.86 789.31,58.19 787.19,56.06 "/>
<g>
	<path d="M544.4,100.85V58.19l-2.13-2.13h-25.23l-2.13,2.13l-4.54,42.66H474.1c-13.61,0-23.81,5.67-31.75,13.61h-2.27l-9.07-13.61
		H411.6l-2.13,2.13v140.88l2.13,2.13h29.76l2.13-2.13v-79.51c0-18.14,12.47-31.75,32.88-31.75h34.01v75.97
		c0,22.68,13.61,37.42,36.28,37.42h36.43l2.13-2.13v-27.5l-2.13-2.13h-30.76c-4.53,0-7.94-2.27-7.94-6.8V132.6h38.69l2.13-2.13
		v-27.5l-2.13-2.13H544.4z"/>
	<path d="M874.07,96.31c-35.15,0-53.29,21.54-56.69,38.55v9.21l2.13,2.13h29.62c1.13-10.2,10.21-18.14,26.08-18.14
		c14.74,0,26.08,6.8,26.08,19.28c0,11.34-5.67,12.47-13.61,12.47H868.4c-41.95,0-60.09,19.27-60.09,45.35
		c0,26.08,21.54,45.07,47.62,45.07c19.28,0,30.61-5.39,43.09-18.99h2.27l9.07,14.74h22.82l2.13-2.13v-93.12
		C935.3,112.19,910.35,96.31,874.07,96.31 M901.28,190.42c0,21.54-21.54,30.61-36.28,30.61c-13.61,0-22.68-6.8-22.68-17.01
		c0-9.07,7.94-17.01,26.08-17.01h11.34c7.94,0,19.28-2.27,21.54-6.8V190.42z"/>
	<path d="M325.57,96.31c-35.15,0-53.29,21.54-56.69,38.55v9.21l2.13,2.13h29.62c1.13-10.2,10.21-18.14,26.08-18.14
		c14.74,0,26.08,6.8,26.08,19.28c0,11.34-5.67,12.47-13.61,12.47H319.9c-41.95,0-60.1,19.27-60.1,45.35
		c0,26.08,21.54,45.07,47.62,45.07c19.27,0,30.61-5.39,43.09-18.99h2.27l9.07,14.74h22.82l2.13-2.13v-93.12
		C386.8,112.19,361.85,96.31,325.57,96.31 M352.78,190.42c0,21.54-21.54,30.61-36.28,30.61c-13.61,0-22.68-6.8-22.68-17.01
		c0-9.07,7.94-17.01,26.08-17.01h11.34c7.94,0,19.28-2.27,21.54-6.8V190.42z"/>
	<path d="M669.41,96.31c-45.35,0-69.16,34.02-69.16,77.1c0,43.09,24.94,76.82,69.16,76.82c28.35,0,51.02-12.19,60.09-37.14v-10.35
		l-2.13-2.13h-30.76c-1.13,12.47-11.34,18.14-27.21,18.14c-20.41,0-32.88-12.47-34.02-34.02h96.52l2.13-2.13v-22.82
		C732.9,128.06,712.5,96.31,669.41,96.31 M635.39,159.81c2.27-19.27,13.61-31.75,34.02-31.75c17.01,0,30.61,12.47,31.75,31.75
		H635.39z"/>
</g>
</svg>
