<?xml version="1.0" encoding="utf-8"?>
<!-- Generator: Adobe Illustrator 23.0.1, SVG Export Plug-In . SVG Version: 6.00 Build 0)  -->
<svg version="1.1" id="Layer_1" xmlns="http://www.w3.org/2000/svg" xmlns:xlink="http://www.w3.org/1999/xlink" x="0px" y="0px"
	 viewBox="0 0 218.55 151.19" style="enable-background:new 0 0 218.55 151.19;" xml:space="preserve">
<style type="text/css">
	.st0{fill:#302F2B;}
	.st1{fill:none;}
</style>
<g>
	<g id="aw">
		<g>
			<path class="st0" d="M127.11,8.46L96.38,0c-0.19-0.05-0.4-0.05-0.59,0L65.05,8.46c-0.49,0.12-0.83,0.57-0.82,1.07v53.61
				c0.01,0.61,0.51,1.11,1.12,1.11h61.38c0.61,0,1.11-0.5,1.12-1.11l0.05-53.61C127.91,9.04,127.58,8.6,127.11,8.46z M96.11,9.46
				l22.32,6.12v17.63H73.76V15.58L96.11,9.46z"/>
			<g>
				<path class="st1" d="M209.32,87.69h-2.51v2.77h2.51c0.75,0.03,1.38-0.56,1.41-1.31c0-0.03,0-0.05,0-0.08
					c0.03-0.73-0.54-1.35-1.28-1.38C209.41,87.69,209.36,87.69,209.32,87.69z"/>
				<path class="st1" d="M208.39,82.73c-4.52,0-8.18,3.66-8.18,8.18s3.66,8.18,8.18,8.18s8.18-3.66,8.18-8.18
					c0.01-4.51-3.65-8.17-8.16-8.18C208.4,82.73,208.4,82.73,208.39,82.73z M212.28,95.28c0.14,0.25,0.05,0.56-0.19,0.7
					c-0.09,0.05-0.19,0.07-0.29,0.06h-1.27c-0.23-0.02-0.42-0.18-0.5-0.39l-1.41-3.33h-1.75v3.19c-0.01,0.29-0.25,0.53-0.54,0.53h-1
					c-0.29,0-0.53-0.24-0.54-0.53v-9.26c0.01-0.29,0.25-0.53,0.54-0.53h4.17c1.83-0.09,3.38,1.32,3.47,3.15c0,0.06,0,0.12,0,0.18
					c0.07,1.4-0.81,2.67-2.14,3.1C211.3,93.19,211.8,94.27,212.28,95.28z"/>
				<path class="st0" d="M208.39,80.75c-5.61,0.01-10.15,4.55-10.14,10.16s4.55,10.15,10.16,10.14c5.6-0.01,10.13-4.54,10.14-10.14
					C218.55,85.3,214,80.75,208.39,80.75C208.39,80.75,208.39,80.75,208.39,80.75z M208.39,99.09c-4.52,0-8.18-3.66-8.18-8.18
					s3.66-8.18,8.18-8.18s8.18,3.66,8.18,8.18C216.56,95.43,212.91,99.08,208.39,99.09z"/>
				<path class="st0" d="M212.93,89.05c0.01-1.83-1.46-3.32-3.29-3.33c-0.06,0-0.12,0-0.18,0h-4.17c-0.29,0-0.53,0.24-0.54,0.53
					v9.26c0.01,0.29,0.25,0.53,0.54,0.53h1c0.29,0,0.53-0.24,0.54-0.53v-3.19h1.75l1.42,3.33c0.08,0.21,0.27,0.37,0.5,0.39h1.27
					c0.28,0.02,0.52-0.19,0.54-0.47c0.01-0.1-0.02-0.2-0.06-0.29c-0.48-1-1-2.09-1.49-3.13C212.11,91.73,213,90.46,212.93,89.05z
					 M209.32,90.46h-2.51v-2.77h2.51c0.73-0.04,1.36,0.51,1.41,1.25c0,0.04,0,0.09,0,0.13c0.02,0.75-0.58,1.37-1.33,1.39
					C209.37,90.46,209.35,90.46,209.32,90.46L209.32,90.46z"/>
				<path class="st0" d="M37.1,100.72L37.1,100.72c-1.34,0.01-2.43,1.1-2.43,2.44v22.17l-30-24.61c-0.72-0.61-1.67-0.86-2.6-0.68
					C0.88,100.21,0,101.23,0,102.43v46.33c0.09,1.34,1.25,2.37,2.59,2.28c1.22-0.08,2.2-1.05,2.28-2.28v-41.58l29.75,24.41h0.05
					v17.14c0.01,1.34,1.09,2.42,2.43,2.43l0,0c1.34-0.01,2.42-1.09,2.43-2.43v-45.6C39.51,101.8,38.43,100.73,37.1,100.72z"/>
				<path class="st0" d="M191.61,101.61c-0.85-1.04-2.39-1.19-3.43-0.34l-27.63,22.66c-0.07,0.06-0.13,0.12-0.18,0.19v-21
					c0.09-1.34-0.93-2.5-2.28-2.59c-1.34-0.09-2.5,0.93-2.59,2.28c-0.01,0.1-0.01,0.21,0,0.31v45.6c0.09,1.34,1.25,2.37,2.59,2.28
					c1.22-0.08,2.2-1.05,2.28-2.28v-21c0.06,0.06,0.11,0.12,0.18,0.18l27.63,22.66c1.04,0.85,2.57,0.7,3.42-0.34
					c0.85-1.04,0.7-2.57-0.33-3.42l0,0L165.76,126l25.51-21C192.29,104.15,192.44,102.64,191.61,101.61z"/>
				<g>
					<path class="st1" d="M74.08,137.13c-0.76-0.81-0.73-2.08,0.07-2.85s2.08-0.73,2.85,0.07c2.44,2.2,5.8,3.08,9,2.34
						c1.86-3.3,2.83-7.02,2.81-10.81c0-11-8.27-20-18.82-20s-18.95,9-18.95,20c0,11.39,8.27,20.38,18.95,20.38
						c4.81,0,9.41-1.93,12.79-5.35C79.52,140.72,76.44,139.38,74.08,137.13z"/>
					<path class="st0" d="M69.91,100.83c-13.55,0-24.1,11.39-24.1,25.06c0,14,10.55,25.3,24.1,25.3S94,139.92,94,125.89
						C94,112.22,83.34,100.83,69.91,100.83z M51,125.89c0-11,8.27-20,18.95-20s18.82,9,18.82,20c0.02,3.79-0.95,7.51-2.81,10.81
						c-3.2,0.74-6.56-0.14-9-2.34c-0.76-0.8-2.03-0.82-2.83-0.06s-0.82,2.03-0.06,2.83c2.34,2.23,5.39,3.57,8.62,3.79
						c-3.38,3.42-7.98,5.35-12.79,5.35C59.23,146.27,51,137.28,51,125.89z"/>
				</g>
				<g>
					<path class="st1" d="M124.38,105.86c-10.55,0-18.83,9-18.83,20c-0.02,3.78,0.96,7.51,2.82,10.8c3.18,0.73,6.53-0.14,8.95-2.33
						c0.78-0.78,2.05-0.78,2.83,0c0,0,0,0,0,0c0.79,0.76,0.81,2.01,0.06,2.81c-2.35,2.23-5.4,3.57-8.63,3.79
						c3.38,3.42,7.99,5.35,12.8,5.35c10.67,0,19-9,19-20.38C143.33,114.86,135.05,105.86,124.38,105.86z"/>
					<path class="st0" d="M124.38,100.83c-13.43,0-24.1,11.39-24.1,25.06c0,14,10.67,25.3,24.1,25.3s24.1-11.27,24.1-25.3
						C148.48,112.22,137.93,100.83,124.38,100.83z M124.38,146.27c-4.81,0-9.42-1.93-12.8-5.35c3.23-0.22,6.28-1.56,8.63-3.79
						c0.75-0.8,0.73-2.05-0.06-2.81c-0.78-0.78-2.05-0.78-2.83,0c0,0,0,0,0,0c-2.42,2.19-5.77,3.06-8.95,2.33
						c-1.86-3.29-2.84-7.02-2.82-10.8c0-11,8.28-20,18.83-20s19,9,19,20C143.33,137.28,135.05,146.27,124.38,146.27z"/>
				</g>
			</g>
		</g>
	</g>
</g>
</svg>
