<?xml version="1.0" encoding="utf-8"?>
<!-- Generator: Adobe Illustrator 23.0.1, SVG Export Plug-In . SVG Version: 6.00 Build 0)  -->
<svg version="1.1" id="Layer_1" xmlns="http://www.w3.org/2000/svg" xmlns:xlink="http://www.w3.org/1999/xlink" x="0px" y="0px"
	 viewBox="0 0 694.49 694.49" style="enable-background:new 0 0 694.49 694.49;" xml:space="preserve">
<style type="text/css">
	.st0{fill-rule:evenodd;clip-rule:evenodd;}
	.st1{fill-rule:evenodd;clip-rule:evenodd;fill:#FFFFFF;}
</style>
<path class="st0" d="M350.3,50.86c162.75,0,294.73,131.96,294.73,294.69S513.05,640.24,350.3,640.24
	c-162.75,0-294.73-131.96-294.73-294.69S187.55,50.86,350.3,50.86"/>
<path class="st1" d="M165.8,442.13h20.19v-0.01c2.18,0,3.98-1.6,4.29-3.69V335.62c0.06-11.17,13.65-11.15,13.63-0.02v15.72v0.13
	c0.07,2.09,0.48,4.01,1.21,5.77l37.97,82.73c0.75,1.29,2.15,2.16,3.75,2.16v0.01h10.87v-0.01c2.21,0,4.04-1.65,4.31-3.78V253
	c-0.15-2.26-2.03-4.05-4.33-4.05v-0.02h-20.16v0.02c-2.27,0-4.13,1.76-4.32,3.98v101.33h-0.16v0.66c-0.04,10.66-13.48,10.26-13.43,0
	v-16.84c-0.07-2.02-0.45-3.88-1.13-5.59L181.77,251c-0.73-1.19-2.03-2-3.52-2.06h-12.46v0.02c-2.27,0-4.14,1.76-4.32,3.98v184.96
	c0.06,2.34,1.97,4.22,4.33,4.23V442.13z M291.76,394.69c0,32.73,24.85,49.19,48.3,49.19c23.45,0,48.3-16.43,48.3-49.19v-98.31
	c0-32.76-24.85-49.14-48.3-49.14c-23.44,0-48.3,16.4-48.3,49.14V394.69z M320.57,296.38c0-13.84,9.04-20.33,19.49-20.33
	c10.45,0,19.49,6.52,19.49,20.33v98.31c0,13.81-9.04,20.33-19.49,20.33c-10.45,0-19.49-6.5-19.49-20.33V296.38z M437.26,442.13
	h20.19v-0.01c2.16,0,3.95-1.57,4.28-3.64V276.04h25.85c2.19-0.18,3.93-1.99,3.98-4.21v-0.11v-18.76c-0.17-2.24-2.04-4.01-4.33-4.01
	v-0.02h-79.85v0.02c-2.4,0-4.34,1.94-4.34,4.34v18.43c0,2.28,1.76,4.15,3.99,4.33h25.89v161.9c0.09,2.32,1.99,4.17,4.33,4.17V442.13
	z M514.66,442.13h20.19v-0.01c2.17,0,3.97-1.59,4.29-3.67V253.09c-0.08-2.22-1.84-4.01-4.05-4.16h-20.72
	c-2.19,0.14-3.93,1.91-4.04,4.1V438c0.12,2.29,2.01,4.11,4.33,4.11V442.13z"/>
</svg>
