<?xml version="1.0" encoding="utf-8"?>
<!-- Generator: Adobe Illustrator 23.0.1, SVG Export Plug-In . SVG Version: 6.00 Build 0)  -->
<svg version="1.1" id="Layer_1" xmlns="http://www.w3.org/2000/svg" xmlns:xlink="http://www.w3.org/1999/xlink" x="0px" y="0px"
	 viewBox="0 0 841.89 595.28" style="enable-background:new 0 0 841.89 595.28;" xml:space="preserve">
<style type="text/css">
	.st0{fill:#796E65;}
</style>
<g>
	<path class="st0" d="M601.59,379.91c-40.55,1.35-81.21-31.73-81.12-80.84c0.1-50.08,41.44-81.82,81.81-81.04
		c45.19,0.87,80.16,35.87,80.65,81.38C683.39,342.81,645.72,381.65,601.59,379.91z M666.18,299.14
		c1.85-30.75-24.11-64.85-64.01-64.9c-37.39-0.05-64.67,28.16-65.28,64.77c-0.59,35.44,29.82,65.41,65.15,65.2
		C637.54,363.99,666.17,334.95,666.18,299.14z"/>
	<path class="st0" d="M416.41,218.23c45.6,0.01,80.25,35.22,80.9,80.87c0.64,44.94-38.58,82.3-82.33,81.08
		c-43.84-1.22-80.4-36.21-80.17-80.79C335.07,247.87,378.07,216.34,416.41,218.23z M351.14,299.09
		c1.48,37.47,28.6,64.45,65.44,64.92c35.39,0.45,64.6-29.74,64.57-64.96c-0.04-35.27-29.26-65.42-64.61-64.92
		C379.43,234.66,352.56,261.92,351.14,299.09z"/>
	<path class="st0" d="M231.27,218.23c42.6-1.63,81.21,37.14,80.66,81.94c-0.52,42.31-37.64,80.59-82.17,80.14
		c-42.01-0.42-80.66-37.04-80.31-82C149.79,255.12,187.51,216.12,231.27,218.23z M295.82,298.93c-0.21-35.09-29.78-64.69-64.93-65
		c-34.97-0.31-65.55,30.23-65.34,65.27c0.21,35.09,29.87,64.78,64.93,65C265.54,364.42,296.02,333.97,295.82,298.93z"/>
	<path class="st0" d="M603.27,337.49c-9.56-0.4-18.18-3.58-26.23-8.61c-3.81-2.38-3.89-4.85-1.18-8.32
		c5.85-7.49,5.71-7.55,14.4-2.87c5.28,2.84,10.9,4.75,16.96,3.76c3.13-0.51,6.37-1.7,6.61-5.75c0.22-3.65-2.47-5.27-5.3-6.25
		c-5.36-1.86-10.9-3.19-16.24-5.09c-12.55-4.47-17.26-11.09-16.46-22.59c0.77-10.95,7.88-18.3,20.25-20.5
		c10.28-1.83,19.8,0.62,28.82,5.64c4.04,2.25,4.73,4.65,1.97,8.68c-5.36,7.81-5.14,7.89-13.54,3.97c-4.33-2.03-8.81-3.9-13.75-2.92
		c-2.97,0.59-5.94,1.87-6.26,5.37c-0.29,3.18,2.23,4.89,4.81,5.92c2.93,1.18,6.07,1.84,9.08,2.84c4.09,1.36,8.24,2.6,12.2,4.28
		c8.08,3.45,12.57,9.65,12.6,18.52c0.03,9.14-3.8,16.23-12.22,20.42C614.59,336.58,609.03,337.52,603.27,337.49z"/>
	<path class="st0" d="M391.55,298.9c0-9.99,0.12-19.98-0.05-29.96c-0.08-4.69,1.29-7.15,6.54-7.08c14.98,0.2,29.96,0.2,44.95,0.02
		c6.31-0.08,5.96,4.05,6.04,8.26c0.08,4.31-0.57,7.6-6.18,7.45c-9.07-0.23-18.16,0.15-27.24-0.1c-5.56-0.15-6.2,2.94-6.23,7.35
		c-0.03,4.54,0.96,7.42,6.38,7.24c7.26-0.25,14.53,0.16,21.79-0.08c6.06-0.2,6.34,3.5,6.34,7.99c0,4.61,0.09,8.79-6.44,8.6
		c-7.26-0.21-14.53,0.07-21.79-0.02c-4.25-0.05-6.29,1.74-6.21,6.08c0.09,5.22-0.09,10.44-0.04,15.66c0.07,7.43-5.4,5.72-9.67,5.91
		c-4.27,0.19-8.33,0.28-8.22-5.99c0.2-10.44,0.05-20.88,0.05-31.33C391.56,298.9,391.56,298.9,391.55,298.9z"/>
	<path class="st0" d="M231.68,260.65c20.84,0.37,37.67,17.94,37.43,39.07c-0.25,21.18-17.96,38.15-39.42,37.76
		c-21.11-0.38-37.95-18.27-37.42-39.76C192.78,276.95,210.5,260.27,231.68,260.65z M231.16,277.35
		c-12.27-0.16-21.92,8.94-22.19,20.91c-0.28,12.64,8.9,22.38,21.24,22.54c12.27,0.16,21.92-8.94,22.19-20.91
		C252.68,287.25,243.51,277.51,231.16,277.35z"/>
</g>
</svg>
