<?xml version="1.0" encoding="utf-8"?>
<!-- Generator: Adobe Illustrator 23.0.1, SVG Export Plug-In . SVG Version: 6.00 Build 0)  -->
<svg version="1.1" id="Layer_1" xmlns="http://www.w3.org/2000/svg" xmlns:xlink="http://www.w3.org/1999/xlink" x="0px" y="0px"
	 viewBox="0 0 283 113" style="enable-background:new 0 0 283 113;" xml:space="preserve">
<g>
	<path d="M25.48,55.9c0-3.96,2.26-5.71,7.74-5.71c8.93,0,13.81,0.58,13.81,0.58l1.07-5.01c0,0-5.6-0.58-15.36-0.58
		c-7.62,0-13.33,3.38-13.33,11.29c0,15.26,25.24,10.72,25.24,22.95c0,5.36-3.69,8.74-10.72,8.74c-8.21,0-13.21-2.33-13.21-2.33
		l-1.55,4.89c0,0,4.88,2.45,14.65,2.45c11.19,0,17.15-6.41,17.15-14.21C50.96,62.66,25.48,66.51,25.48,55.9 M77.75,88.05
		c-10.96,0-16.91-8.15-16.91-18.52c0-14.56,5.24-19.34,15.48-19.34c8.33,0,13.81,0.58,13.81,0.58l1.07-5.01c0,0-5-0.58-14.88-0.58
		c-13.81,0-21.79,6.75-21.79,24.92c0,12.47,8.34,23.07,22.38,23.07c10.48,0,15.24-2.45,15.24-2.45l-1.43-4.77
		C90.73,85.96,87.04,88.05,77.75,88.05 M120.14,45.19c-10.84,0-20.24,1.4-20.24,1.4l0.71,4.66c0,0,7.26-0.93,18.57-0.93
		c6.31,0,7.38,0.93,7.38,6.99v9.09h-14.4c-8.93,0-14.64,5.13-14.64,13.98c0,7.69,5.36,12.81,12.74,12.81
		c9.52,0,16.31-6.29,16.31-6.29v5.36h6.19V56.72C132.76,47.52,130.26,45.19,120.14,45.19 M126.57,82.46c0,0-7.97,5.71-14.65,5.71
		c-5.24,0-8.33-2.91-8.33-8.04c0-6.06,3.69-9.08,9.41-9.08h13.57V82.46z M143.48,92.25h6.19V20.03h-6.19V92.25z M179.68,45.19
		c-12.38,0-20.48,7.22-20.48,21.9c0,18.17,9.65,26.09,22.74,26.09c10.95,0,16.07-2.45,16.07-2.45l-1.43-4.77c0,0-4.89,2.1-14.05,2.1
		c-9.52,0-16.67-6.06-16.67-19.57h32.98c0,0,0.48-2.68,0.48-6.17C199.33,51.25,192.66,45.19,179.68,45.19 M193.37,63.83h-27.51
		c0-8.85,5.83-13.98,14.05-13.98C189.56,49.85,193.97,54.51,193.37,63.83 M227.43,19.82h-2.08l-12.94,7.72
		c-0.3,0.14-0.45,0.44-0.38,0.65c0.38,1.02,0.89,2.04,1.64,2.69c0.22,0.22,0.59,0.07,0.82-0.07l8.85-4.66v41.18
		c0,0.29,0.15,0.58,0.52,0.73c0.3,0.07,1.49,0.14,1.78,0.14c0.3,0,1.49-0.07,1.94-0.14c0.3-0.07,0.44-0.44,0.44-0.73V20.62
		C228.03,20.19,227.81,19.82,227.43,19.82 M242.48,55.02c-1.49,0-2.57,1.1-2.57,2.51c0,1.36,1.08,2.51,2.57,2.51
		c1.39,0,2.57-1.15,2.57-2.51C245.05,56.12,243.87,55.02,242.48,55.02 M242.48,37.38c-1.49,0-2.57,1.06-2.57,2.52
		c0,1.35,1.08,2.51,2.57,2.51c1.39,0,2.57-1.16,2.57-2.51C245.05,38.43,243.87,37.38,242.48,37.38 M263.24,19.82h-2.08l-12.94,7.72
		c-0.3,0.14-0.44,0.44-0.37,0.65c0.37,1.02,0.89,2.04,1.63,2.69c0.22,0.22,0.59,0.07,0.82-0.07l8.85-4.66v41.18
		c0,0.29,0.15,0.58,0.52,0.73c0.3,0.07,1.49,0.14,1.79,0.14s1.49-0.07,1.93-0.14c0.3-0.07,0.45-0.44,0.45-0.73V20.62
		C263.84,20.19,263.61,19.82,263.24,19.82"/>
</g>
</svg>
