<?xml version="1.0" encoding="utf-8"?>
<!-- Generator: Adobe Illustrator 23.0.1, SVG Export Plug-In . SVG Version: 6.00 Build 0)  -->
<svg version="1.1" id="Layer_1" xmlns="http://www.w3.org/2000/svg" xmlns:xlink="http://www.w3.org/1999/xlink" x="0px" y="0px"
	 viewBox="0 0 2352.72 861.36" style="enable-background:new 0 0 2352.72 861.36;" xml:space="preserve">
<style type="text/css">
	.st0{fill-rule:evenodd;clip-rule:evenodd;fill:#FFFFFF;}
	.st1{fill-rule:evenodd;clip-rule:evenodd;}
</style>
<g>
	<path class="st0" d="M1772.16,863.04c-590.4,0-1180.8,0-1771.2,0c0-287.36,0-574.72,0-862.08c130.88,0,261.76,0,392.64,0
		c-0.05,2.08-0.16,4.15-0.16,6.23c-0.01,175.8-0.01,351.6-0.01,527.4c0,1.44-0.04,2.88,0.02,4.32c0.04,0.9,0.25,1.8,0.42,2.98
		c2.13,0.05,4.03,0.14,5.92,0.14c38.71,0.01,77.42,0.01,116.13,0.01c1.12,0,2.24,0.06,3.36-0.03c0.91-0.08,1.81-0.33,3.01-0.57
		c0-2.22,0-4.29,0-6.36c0-176.28,0-352.56,0-528.84c0-1.76-0.04-3.52-0.06-5.28c159.04,0,318.08,0,477.12,0
		c0,177.56,0,355.13,0.01,532.69c0,1.76-0.04,3.52,0.02,5.28c0.03,0.9,0.23,1.79,0.39,2.94c2.19,0.05,4.09,0.14,5.98,0.14
		c38.71,0.01,77.42,0.01,116.14,0.01c1.12,0,2.25,0.06,3.36-0.03c0.9-0.07,1.79-0.33,2.88-0.55c0.05-1.78,0.14-3.36,0.14-4.94
		c0.01-176.92,0.01-353.85-0.01-530.77c0-1.59-0.18-3.18-0.27-4.77c393.92,0,787.84,0,1181.76,0c-1.98,1.31-4.34,0.78-6.49,1.3
		c-19.93,4.78-35.98,23.89-31.6,48.36c4.7,26.21,31.65,40.77,55.98,31.4c13.7-5.28,22.64-15.16,25.56-29.92
		c0.09-0.43,0.47-0.81,0.71-1.21c0,57.28,0,114.56,0,171.84c-0.3-1.53-0.7-3.05-0.87-4.6c-0.38-3.49-0.52-7.02-0.99-10.49
		c-2.07-15.27-5.79-30.13-11.64-44.41c-15.1-36.84-41.13-62.29-78.94-75.34c-13.52-4.67-27.46-7.27-41.71-8.46
		c-16.66-1.39-33.25-1.05-49.76,1.47c-28.15,4.31-53.8,14.82-76.96,31.42c-14.25,10.21-26.89,22.16-38.5,35.25
		c-0.8,0.9-1.71,1.71-2.78,2.79c-1-1.68-1.82-3.03-2.6-4.4c-8.75-15.34-19.98-28.53-34.08-39.2c-20.97-15.87-44.88-24.12-70.8-27.01
		c-12.75-1.42-25.52-1.49-38.31-0.2c-16.7,1.69-32.66,5.97-47.84,13.12c-16.98,7.99-31.75,19.08-45.07,32.19
		c-7.42,7.31-14.25,15.14-20.77,23.25c-0.62,0.77-1,2.12-2.79,1.63c0-1.54,0-3.12,0-4.69c0-17.44,0.01-34.88-0.02-52.31
		c0-1.71,0.37-3.49-0.6-5.4c-1.9-0.04-3.79-0.11-5.68-0.11c-38.72-0.01-77.43-0.01-116.14,0c-1.12,0-2.24-0.04-3.36,0.02
		c-0.91,0.05-1.81,0.24-2.96,0.4c-0.04,2.13-0.11,4.03-0.11,5.92c0,147.34,0,294.68,0,442.02c0,1.12-0.05,2.24,0.02,3.36
		c0.06,0.9,0.26,1.8,0.43,2.97c2.14,0.05,4.03,0.14,5.93,0.14c38.71,0.01,77.43,0.01,116.14,0c1.12,0,2.25,0.06,3.36-0.03
		c0.91-0.08,1.81-0.34,3-0.57c0-2.23,0-4.29,0-6.36c0.01-82.87,0.01-165.74,0.02-248.61c0-9.63,0.96-19.17,2.88-28.59
		c2.13-10.41,5.6-20.33,11.18-29.44c8.25-13.46,19.75-22.94,34.7-28.07c16.14-5.53,32.62-6.07,49.21-2.59
		c19.25,4.03,33.74,14.71,43.29,31.99c4.53,8.19,7.44,16.97,9.33,26.09c2.19,10.53,3.03,21.18,3.02,31.94
		c-0.04,82.07-0.02,164.14-0.02,246.21c0,1.6-0.03,3.2,0.02,4.8c0.03,0.91,0.2,1.82,0.31,2.75c2.1,0.73,4.03,0.48,5.92,0.48
		c34.4,0.02,68.79,0.01,103.19,0.01c5.28,0,10.56,0.02,15.84-0.02c1.07-0.01,2.14-0.27,3.15-0.41c0.82-2.26,0.49-4.36,0.49-6.41
		c0.02-81.11,0.01-162.22,0.03-243.33c0-10.57,0.49-21.1,2.46-31.52c1.88-9.96,4.83-19.55,9.69-28.48
		c9.28-17.05,23.28-28.16,42.05-33.17c12.7-3.39,25.58-3.82,38.54-1.9c22.4,3.32,39.21,14.69,49.67,34.98
		c4.43,8.6,7.13,17.78,8.88,27.26c1.99,10.74,2.51,21.6,2.51,32.48c0.02,80.95,0.01,161.9,0.01,242.85c0,1.6-0.03,3.2,0.03,4.8
		c0.03,0.78,0.23,1.54,0.35,2.27c1.95,0.99,3.91,0.59,5.79,0.59c38.71,0.03,77.43,0.01,116.14,0.04c1.9,0,3.81,0.23,5.71,0.36
		c0,106.88,0,213.76,0,320.64c-190.4,0-380.8,0-571.2,0c1.05-1.47,2.78-1.41,4.27-1.82c4.59-1.23,8.53-3.55,11.94-6.83
		c2.67-2.57,5.03-5.42,6.76-8.67c2.39-4.51,4.75-9.07,6.7-13.78c7.2-17.42,14.23-34.92,21.33-52.39
		c6.38-15.69,12.77-31.38,19.12-47.08c0.5-1.25,1.57-2.47,0.51-4.32c-4.76-0.12-9.66-0.19-14.75,0.07c-0.75,1.79-1.45,3.38-2.08,5
		c-3.52,9.09-7.01,18.19-10.51,27.29c-6.14,15.96-12.25,31.92-18.46,47.86c-0.48,1.22-0.39,2.96-2.35,3.54
		c-0.74-1.59-1.5-3.16-2.2-4.75c-10.67-24.46-21.31-48.93-32-73.39c-0.82-1.87-1.33-3.93-2.75-5.35
		c-7.11-0.71-12.86-0.53-16.03,0.58c15.32,33.58,30.62,67.14,45.92,100.68c-1.8,4.8-4.08,9.17-7.27,13.01
		c-3.35,4.03-7.61,6.17-12.94,6.21c-4.85,0.04-9.56-0.49-14.07-2.39c-0.81-0.34-1.72-0.46-2.81-0.74
		c-1.51,3.93-3.45,7.37-4.53,11.28c0.75,0.49,1.22,0.96,1.79,1.16c3.01,1.05,6.05,2,9.07,3.03
		C1768.99,861.79,1770.92,861.51,1772.16,863.04z M1151.22,313.56c0.15,18,1.41,33.59,4.47,49.03
		c9.46,47.73,31.55,88.64,66.75,122.21c41.37,39.46,91.24,60.4,147.77,66.12c16.1,1.63,32.25,1.6,48.4,0.34
		c18.24-1.43,36.15-4.6,53.66-9.86c50.06-15.03,91.63-42.65,123.55-84.23c26.87-35,42.11-74.7,46.55-118.55
		c1.45-14.34,1.52-28.73,0.41-43.13c-1.05-13.59-3.06-27.02-6.55-40.18c-16.79-63.37-53.88-111.31-110.54-144
		c-32.65-18.84-68.1-28.89-105.64-31.79c-17.92-1.39-35.78-1.08-53.64,0.96c-18.02,2.06-35.63,5.89-52.79,11.71
		c-42.8,14.5-79.2,38.58-108.19,73.36C1169.19,209.03,1151.77,259.43,1151.22,313.56z M834.09,282.47c-2.38,0.11-4.39-1-6.48-1.69
		c-25.95-8.53-52.52-13.91-79.79-15.55c-17.73-1.07-35.48-1.04-53.21,0.46c-14.53,1.23-28.88,3.41-43.02,6.96
		c-16.83,4.22-32.95,10.25-47.92,19.11c-31.53,18.65-51.67,45.68-59.61,81.55c-4.68,21.17-5.1,42.5-1.71,63.88
		c3.18,20.07,10.6,38.46,22.61,54.91c13.01,17.82,29.82,31.06,49.55,40.7c20.97,10.25,43.28,15.56,66.45,17.09
		c19.85,1.31,39.63,0.38,59.21-3.62c24.14-4.94,46.36-14.26,66.32-28.8c8.82-6.42,16.91-13.67,24.43-21.57
		c0.69-0.72,1.15-1.99,2.85-1.58c0.06,1.58,0.16,3.14,0.16,4.7c0.01,12.48-0.01,24.96,0.03,37.43c0.01,1.71-0.37,3.5,0.75,5.44
		c1.8,0.04,3.7,0.13,5.59,0.13c37.27,0.01,74.54,0.01,111.82,0c1.12,0,2.25,0.06,3.36-0.03c0.9-0.08,1.78-0.35,2.85-0.58
		c0.06-1.8,0.17-3.38,0.17-4.96c0.01-86.06,0.01-172.13,0-258.19c0-15.37-0.86-30.68-3.16-45.9c-2.5-16.5-6.46-32.61-12.69-48.11
		c-12.9-32.1-33.8-57.37-63.98-74.67c-16.64-9.54-34.47-15.96-53.1-20.27c-19.55-4.53-39.38-6.68-59.42-7.14
		c-23.05-0.52-46.04,0.38-68.96,3.07c-14.62,1.72-29.09,4.23-43.42,7.58c-24.36,5.69-47.79,14.06-70.69,24.02
		c-1.14,0.5-2.23,1.13-3.43,1.75c0.24,1.12,0.36,2.06,0.64,2.95c1.07,3.35,2.2,6.68,3.29,10.02c8.75,26.73,17.47,53.47,26.27,80.19
		c0.53,1.61,0.57,3.53,2.29,4.75c1.16-0.39,2.36-0.78,3.56-1.18c8.33-2.79,16.63-5.69,24.99-8.36c14.94-4.78,30.16-8.43,45.65-10.9
		c12.17-1.94,24.43-2.96,36.75-3.52c12.98-0.59,25.9-0.39,38.78,1.4c10.66,1.49,21,4.16,30.79,8.73
		c19.36,9.03,32.22,23.7,38.29,44.25c3.3,11.18,3.94,22.64,3.66,34.2C834.56,281.56,834.26,282,834.09,282.47z M2.22,481.74
		c1.47,1.17,2.7,2.17,3.96,3.13c23.39,17.88,48.8,32.21,76.14,43.12c27.18,10.84,55.35,17.77,84.43,20.91
		c12.26,1.32,24.58,1.6,36.9,1.42c18.94-0.27,37.64-2.44,56.05-6.97c17.33-4.27,33.85-10.58,49.1-19.96
		c30.42-18.7,49.67-45.47,58-80.17c2.85-11.88,4.05-23.95,4.42-36.12c0.28-9.3-0.31-18.56-1.99-27.71
		c-4.04-22.07-14.25-40.9-30.06-56.76c-9.43-9.47-20.12-17.29-31.58-24.1c-14.2-8.44-29.13-15.37-44.62-21.03
		c-17.4-6.36-34.97-12.28-52.47-18.37c-12.68-4.41-25.39-8.74-37.63-14.29c-5.98-2.71-11.8-5.71-17.18-9.5
		c-3.68-2.59-7.06-5.5-9.77-9.14c-2.64-3.54-4.34-7.48-4.66-11.9c-0.82-11.38,3.56-20.24,13.13-26.49
		c4.88-3.19,10.28-5.11,15.94-6.38c11.89-2.66,23.84-2.29,35.78-0.59c12.38,1.76,24.42,4.93,36.27,8.9
		c22.67,7.6,44.12,17.86,64.9,29.61c1.38,0.78,2.78,1.54,4.27,2.37c0.49-0.58,0.98-1.01,1.27-1.55
		c16.01-28.96,32.01-57.93,48.14-87.13c-1.49-1.04-2.74-1.99-4.07-2.83c-49.66-31.33-103.64-48.59-162.51-49.8
		c-20.1-0.41-39.91,1.8-59.35,7c-19.63,5.25-38,13.3-54.53,25.23c-25.16,18.17-42.2,42.1-50.33,72.11
		c-5.73,21.12-6.68,42.59-3.35,64.21c3.19,20.72,11.42,39.18,25.06,55.17c10.08,11.82,22.17,21.18,35.45,29.09
		c12.26,7.3,25.24,13.1,38.56,18.16c16.75,6.36,33.98,11.22,51.12,16.33c13.17,3.93,26.39,7.69,39.28,12.48
		c7.2,2.67,14.27,5.65,20.87,9.62c3.85,2.32,7.47,4.94,10.57,8.23c3.13,3.32,5.6,7.08,6.53,11.56c2.58,12.31-0.82,25.4-13.72,33.03
		c-1.92,1.13-3.94,2.13-5.98,3.02c-5.61,2.46-11.55,3.73-17.59,4.54c-14.4,1.93-28.75,1.08-43.01-1.24
		c-14.71-2.39-28.99-6.47-42.94-11.73c-24.68-9.31-47.56-21.97-69.16-37.03c-1.42-0.99-2.87-1.94-4.27-2.87
		C54.41,400.76,12.43,464.83,2.22,481.74z M789.18,753.14c-1.98,0.92-3.43,1.59-4.87,2.25c-4.96,2.28-9.62,5.04-13.86,8.5
		c-10.57,8.65-15.4,19.71-14.17,33.37c0.91,10.06,5.22,18.34,12.93,24.83c3.96,3.33,8.44,5.79,13.37,7.34
		c16,5.05,31.25,3.14,45.7-5.27c5-2.91,9.44-6.57,13.56-10.62c0.88-0.87,1.84-1.65,2.92-2.61c1.12,1.04,2.07,1.85,2.94,2.75
		c5.36,5.49,10.7,11.01,16.07,16.49c0.85,0.87,1.86,1.59,2.85,2.43c3.93-2.89,7.69-5.5,11.24-8.83c-1.12-1.26-2.02-2.34-3-3.35
		c-6.13-6.31-12.28-12.6-18.4-18.91c-0.74-0.76-1.36-1.65-1.97-2.4c12.47-19.72,17.39-28.68,19.02-34.75
		c-3.83-2.08-7.76-4.03-12.19-5.49c-0.79,1.63-1.5,3.04-2.15,4.47c-3.67,8-7.76,15.78-12.57,23.16c-0.57,0.87-1.38,1.57-2.06,2.32
		c-0.53-0.37-0.82-0.52-1.04-0.75c-9.53-9.69-19.06-19.39-28.56-29.11c-0.49-0.51-0.73-1.26-1.13-1.98c2.75-1.2,5.26-2.24,7.72-3.39
		c5.39-2.52,10.35-5.68,14.66-9.84c15.93-15.34,12.01-44.53-12.91-52.45c-10.55-3.35-20.93-2.17-30.69,2.95
		c-9.02,4.74-14.62,12.28-16.47,22.35c-1.33,7.27-0.36,14.33,2.75,21.07c1.89,4.09,4.4,7.79,7.16,11.33
		C787.01,750.26,787.95,751.53,789.18,753.14z M2106.56,728.69c-0.68,4.35-1.01,76.92-0.43,98.27c0.02,0.92,0.2,1.84,0.33,2.98
		c4.92,0.43,9.6,0.51,14.62-0.08c0.07-1.99,0.18-3.72,0.19-5.45c0.01-16.47,0-32.95,0.02-49.42c0-2.72,0.03-5.45,0.28-8.15
		c0.52-5.51,2.37-10.59,5.52-15.15c6.57-9.53,17.43-14.22,30.39-10.95c8.87,2.24,14.08,8.42,16.75,16.9
		c1.41,4.46,1.8,9.08,1.8,13.74c0,17.75-0.01,35.51,0.02,53.26c0,1.71-0.31,3.49,0.6,5.35c4.6,0.33,9.14,0.48,13.74-0.11
		c0.65-1.92,0.43-3.68,0.43-5.41c0.02-16.95-0.04-33.91,0.05-50.86c0.02-3.5,0.2-7.07,0.9-10.49c2.29-11.2,8.49-19.18,19.83-22.41
		c5.17-1.47,10.45-1.33,15.65,0.01c6.93,1.79,11.92,6.03,14.94,12.47c1.01,2.15,1.68,4.48,2.34,6.78c1.12,3.89,1.1,7.9,1.1,11.9
		c0.01,17.59-0.01,35.19,0.02,52.78c0,1.71-0.33,3.49,0.45,5.05c4.78,0.8,11.03,0.7,14.57-0.25c0.05-1.48,0.14-3.06,0.14-4.63
		c0.01-11.52,0.01-23.03,0-34.55c0-8.48,0.03-16.95-0.05-25.43c-0.06-6.3-1.29-12.4-3.83-18.18c-4-9.13-10.66-15.56-20.16-18.61
		c-15.51-4.98-34.29-2.17-46.54,13.7c-0.95,1.23-1.94,2.44-3.15,3.96c-0.71-1.02-1.29-1.74-1.76-2.53
		c-6.01-9.99-14.82-15.72-26.38-17.01c-12.16-1.35-22.8,1.91-31.33,11c-1.53,1.63-2.86,3.44-4.32,5.13
		c-0.37,0.42-0.61,1.21-1.74,0.77c-0.57-2.18-0.14-4.57-0.27-6.9c-0.13-2.51,0.31-5.07-0.35-7.45
		C2116.82,727.84,2110.25,727.84,2106.56,728.69z M1147.5,728.88c-0.03,1.62-0.09,3.34-0.09,5.07c-0.01,19.2,0,38.39,0,57.59
		c0,11.36-0.01,22.71,0.01,34.07c0,1.39,0.19,2.78,0.29,4.07c4.74,0.82,11.13,0.74,14.79-0.19c0.03-1.63,0.1-3.36,0.1-5.09
		c0.02-12,0.03-24,0.02-35.99c0-4.82,0.65-9.56,1.76-14.25c5.05-21.35,21-30.95,36.32-31.38c0.95-0.03,2.1,0.08,2.81-0.39
		c2.22-1.49,4.64-0.96,6.99-0.98c2.35-0.01,4.76-0.38,7.16,0.39c0.72,1.82,0.43,3.59,0.43,5.31c0.03,17.92,0.01,35.83,0.02,53.75
		c0,2.4-0.06,4.81,0.2,7.19c1.22,11.23,6.71,19.92,19.21,22.83c8.46,1.97,16.84,1.43,24.91-2.03c0.98-0.42,1.84-1.12,2.59-1.59
		c0-4.14,0-7.95,0-12.06c-1.28,0.35-2.36,0.55-3.36,0.95c-4.72,1.88-9.62,2.27-14.62,1.82c-8.03-0.73-12.85-5.53-13.6-13.52
		c-0.13-1.43-0.15-2.88-0.16-4.31c-0.02-2.88-0.01-5.76-0.01-8.64c0-14.88-0.01-29.75,0.02-44.63c0-1.7-0.34-3.49,0.76-5.39
		c2.52-0.03,5.05-0.07,7.58-0.09c2.56-0.02,5.12,0,7.68,0c2.72,0,5.44,0.03,8.16-0.01c2.51-0.04,5.06,0.23,7.46-0.25
		c0.79-4.43,0.77-8.89-0.07-12.84c-1.48-0.06-3.05-0.18-4.62-0.19c-7.68-0.02-15.36,0.01-23.03-0.03c-1.22-0.01-2.58,0.35-3.92-1.14
		c-0.01-4.58,0.06-9.52-0.04-14.46c-0.11-4.91,0.47-9.85-0.36-14.66c-4.32-0.87-10.93-0.82-14.66,0.13
		c-0.28,4.84-0.04,9.78-0.13,14.71c-0.09,4.92,0.25,9.86-0.19,14.47c-0.44,0.39-0.55,0.57-0.67,0.58
		c-3.66,0.13-7.32,0.26-10.98,0.31c-0.59,0.01-1.33-0.22-1.75-0.61c-1.35-1.29-2.94-1.03-4.53-0.93
		c-11.5,0.66-20.79,5.75-28.38,14.2c-2.79,3.11-5.09,6.57-7.08,10.24c-0.35,0.64-0.53,1.56-1.94,1.36c0-2.66,0-5.34,0-8.02
		c0-2.56,0.06-5.12-0.02-7.68c-0.08-2.66,0.35-5.37-0.32-7.91C1157.52,727.79,1151.13,727.88,1147.5,728.88z M946.68,811.34
		c2.22,2.53,3.74,4.31,5.31,6.04c13.94,15.42,34.36,18.39,51.33,11.44c13.5-5.52,22.7-15.35,27.57-28.98
		c4.91-13.71,4.89-27.65,0.07-41.39c-4.55-12.99-13.17-22.56-25.78-28.25c-17.53-7.91-38.13-5.38-52.53,10.7
		c-1.39,1.55-2.66,3.2-4,4.79c-0.48,0.56-0.79,1.45-2,1.02c-0.44-5.96,0.18-12.01-0.35-18.02c-2.53-1.02-4.95-0.61-7.3-0.58
		c-2.48,0.04-5.08-0.64-7.67,0.83c0,43.49,0,86.99,0.01,130.48c0,0.6,0.21,1.21,0.31,1.74c3.75,0.91,10.28,0.94,14.28,0.11
		c0.1-0.12,0.29-0.23,0.29-0.35C946.39,844.79,946.53,828.65,946.68,811.34z M90.08,770.92c-1.7-0.39-2.94-0.64-4.16-0.95
		c-10.78-2.76-21.75-3.53-32.83-2.91c-6.92,0.39-13.62,1.86-19.89,4.89c-9.92,4.8-16.04,12.53-17.41,23.6
		c-1.6,12.94,2.83,23.25,13.99,30.31c2.28,1.44,4.77,2.62,7.31,3.55c9.42,3.45,19.05,3.8,28.77,1.45
		c8.47-2.04,15.64-6.33,21.65-12.61c0.67-0.7,1.08-2.12,2.81-1.37c0,3.43-0.04,6.94,0.03,10.46c0.02,0.89,0.36,1.77,0.59,2.86
		c4.79-0.09,9.36,0.4,14.18-0.35c0.08-1.83,0.21-3.39,0.21-4.95c0.01-18.71,0.05-37.42-0.03-56.12c-0.01-3.5-0.21-7.05-0.77-10.51
		c-2.2-13.71-9.49-23.5-22.68-28.5c-4.35-1.65-8.9-2.61-13.53-2.98c-14.31-1.13-28.02,1.27-41.08,7.26
		c-0.82,0.38-1.55,0.94-2.42,1.48c1.48,4.08,2.4,8.07,4.68,11.63c3.4-1.24,6.5-2.51,9.68-3.52c9.88-3.14,19.95-4.55,30.25-2.46
		c9.03,1.84,15.9,6.48,19.12,15.54C90.14,761.16,90.63,765.7,90.08,770.92z M2093.21,785.32c0.35-0.88,0.54-1.16,0.56-1.45
		c0.68-10.38-0.74-20.42-4.86-30.01c-10.45-24.34-33.72-31.27-53.52-26.61c-13.87,3.27-24,11.62-30.88,23.96
		c-6.38,11.46-8.01,23.85-6.41,36.7c0.92,7.37,3.25,14.36,7.23,20.67c9.48,15.04,23.17,22.95,40.91,23.82
		c16.62,0.81,30.74-4.74,42.21-16.86c0.61-0.65,1.08-1.43,1.69-2.25c-3.14-2.9-5.82-5.81-9.21-7.92c-2.23,1.9-4.23,3.74-6.38,5.39
		c-9.83,7.56-21.03,10.16-33.04,7.83c-18.25-3.54-26.87-18.2-28.36-31.61c-0.05-0.42,0.19-0.87,0.39-1.65
		c8.78-0.02,17.56-0.01,26.33-0.01c8.96,0,17.92,0,26.87,0C2075.53,785.32,2084.31,785.32,2093.21,785.32z M1114.42,770.6
		c-0.37,0.04-0.54,0.1-0.69,0.07c-1.09-0.22-2.18-0.43-3.26-0.71c-10.79-2.77-21.76-3.51-32.83-2.89
		c-6.43,0.36-12.68,1.68-18.57,4.33c-11.9,5.34-18.43,14.43-18.89,27.61c-0.38,11.09,3.86,19.96,13.13,26.15
		c2.63,1.76,5.56,3.19,8.53,4.29c9.41,3.49,19.05,3.76,28.77,1.39c7.96-1.94,14.8-5.87,20.6-11.66c0.94-0.94,1.62-2.32,3.31-2.64
		c0.71,2.38,0.23,4.62,0.41,6.81c0.18,2.18-0.53,4.47,0.83,6.83c4.49-0.01,9.06,0.38,13.87-0.29c0.1-1.61,0.25-3.02,0.25-4.42
		c0.01-19.35,0.06-38.7-0.04-58.05c-0.02-3.66-0.32-7.37-1.02-10.96c-2.5-12.7-9.64-21.74-21.83-26.49
		c-4.64-1.81-9.49-2.83-14.46-3.2c-14.15-1.05-27.7,1.36-40.62,7.26c-0.83,0.38-1.59,0.91-2.51,1.45c0.75,2.17,1.35,4.15,2.12,6.05
		c0.75,1.86,1.05,3.98,2.65,5.61c3.27-1.19,6.37-2.42,9.54-3.45c9.88-3.19,19.93-4.5,30.25-2.54c10.85,2.06,18.09,8.79,20.23,19.18
		C1114.9,763.7,1115.44,767.19,1114.42,770.6z M264.65,832.45c30.64,0.25,53.48-24.93,53.38-53.68
		c-0.09-26.34-20.24-52.75-53.13-52.83c-29.92-0.06-53.45,23.19-53.27,53.75C211.82,812.02,237.43,832.99,264.65,832.45z
		 M1517.11,779.24c0.59-27.09-20.42-53.28-53.02-53.29c-32.55-0.01-53.24,26.34-53.3,53.27c-0.07,29.06,22.63,53.15,52.57,53.31
		C1493.94,832.68,1517.42,808.09,1517.11,779.24z M403.63,728.73c-0.64,1.63-0.33,3.4-0.34,5.12c-0.03,16.63-0.01,33.26-0.02,49.89
		c0,1.76,0.03,3.52-0.06,5.28c-0.82,14.64-10.4,28.28-28.46,29.45c-15.67,1.01-26.57-7.14-29.35-21.59
		c-0.69-3.58-0.92-7.29-0.94-10.95c-0.09-17.43-0.03-34.86-0.06-52.29c0-1.7,0.31-3.48-0.42-5c-4.71-0.84-11.08-0.75-14.51,0.17
		c-0.07,0.9-0.22,1.85-0.22,2.8c-0.01,20.31-0.04,40.62,0.06,60.92c0.02,3.33,0.35,6.73,1.06,9.99
		c3.19,14.71,11.73,24.57,26.54,28.47c4.99,1.31,10.1,1.64,15.23,1.21c10.33-0.86,19.06-5.03,25.95-12.86
		c1.16-1.32,2.17-2.76,3.3-4.11c0.37-0.44,0.61-1.19,1.73-0.81c0.56,5.04-0.38,10.29,0.58,15.57c4.82,0.37,9.38,0.43,13.83-0.01
		c1.17-1.67,0.75-3.32,0.75-4.87c0.03-30.7,0.02-61.4,0.02-92.11c0-0.64,0.06-1.29-0.02-1.92c-0.12-0.9-0.34-1.78-0.5-2.56
		C412.7,727.81,407.16,727.9,403.63,728.73z M1544.7,728.55c-5.28-0.73-10.79-0.65-14.2,0.14c-0.67,4.29-1.01,78.36-0.43,98.29
		c0.03,0.92,0.21,1.83,0.34,2.87c2.54,0.67,4.94,0.38,7.3,0.35c2.33-0.04,4.75,0.53,7.26-0.74c0.04-1.73,0.13-3.47,0.13-5.21
		c0.01-16.32-0.02-32.63,0.03-48.95c0.01-3.03,0.11-6.09,0.45-9.1c1.43-12.59,9.94-22.44,22.12-25.49
		c6.16-1.54,12.39-1.4,18.47,0.56c6.21,2,11,5.9,13.93,11.74c1.35,2.68,2.4,5.61,3.01,8.55c0.67,3.26,0.93,6.66,0.95,9.99
		c0.09,17.75,0.03,35.51,0.06,53.26c0,1.7-0.35,3.48,0.63,5.23c4.69,0.26,9.26,0.39,14.12-0.1c0.14-1.38,0.38-2.61,0.38-3.84
		c0.02-19.99,0.08-39.99-0.02-59.98c-0.03-6.27-1.05-12.42-3.53-18.25c-4.11-9.66-11.06-16.35-21.03-19.68
		c-8.39-2.79-16.93-3.07-25.53-0.91c-8.22,2.06-14.81,6.61-20.11,13.14c-0.98,1.21-1.97,2.41-3.5,4.28
		C1544.62,738.86,1545.65,733.73,1544.7,728.55z M429.49,817.17c0.81,0.69,1.16,1.01,1.54,1.3c0.64,0.48,1.27,0.97,1.93,1.41
		c10.97,7.45,23.12,11.54,36.33,12.25c8.1,0.44,15.95-0.99,23.17-4.88c6.59-3.54,11.49-8.68,13.76-15.92
		c4-12.77,1.05-24.43-11.64-31.64c-2.9-1.65-5.98-3.06-9.11-4.22c-4.63-1.72-9.41-3.06-14.09-4.68c-4.22-1.46-8.48-2.86-12.55-4.67
		c-2.44-1.08-4.72-2.7-6.76-4.44c-2.74-2.33-3.58-5.54-3.18-9.11c0.52-4.67,3.01-8.02,6.93-10.35c3.36-2,7.05-2.91,10.96-3.07
		c9.37-0.37,17.98,2.29,26.21,6.49c1.84,0.94,3.65,1.94,5.65,3.01c2.56-3.53,4.84-7.08,6.52-10.86c-0.4-0.49-0.56-0.78-0.8-0.96
		c-0.51-0.38-1.05-0.73-1.6-1.05c-10.32-5.89-21.37-9.25-33.3-9.41c-7.64-0.11-14.97,1.28-21.6,5.29
		c-9.27,5.62-13.78,13.98-13.64,24.77c0.09,7.3,2.98,13.41,8.95,17.72c2.82,2.04,5.9,3.89,9.11,5.22c4.71,1.95,9.63,3.37,14.48,4.98
		c4.7,1.55,9.49,2.86,14.09,4.65c2.79,1.09,5.5,2.63,7.88,4.44c4.58,3.49,5.64,8.3,4.16,13.75c-1.02,3.74-3.37,6.49-6.58,8.53
		c-2.73,1.73-5.74,2.76-8.95,3.2c-4.96,0.68-9.88,0.37-14.78-0.62c-7.79-1.57-14.86-4.81-21.49-9.1c-1.31-0.84-2.62-1.68-4.04-2.59
		C434.22,809.97,431.93,813.37,429.49,817.17z M2346.75,737.91c-0.48-0.59-0.63-0.91-0.88-1.07c-13.1-7.96-27.21-11.75-42.57-9.99
		c-4.47,0.51-8.76,1.89-12.71,4.08c-9.24,5.13-14.39,12.87-14.87,23.56c-0.39,8.67,2.85,15.57,9.98,20.58
		c3.29,2.31,6.85,4.15,10.64,5.44c4.98,1.7,10.06,3.15,15.05,4.8c4.39,1.46,8.82,2.85,13.06,4.67c2.45,1.05,4.67,2.75,6.77,4.43
		c1.9,1.53,3.1,3.7,3.43,6.16c0.77,5.64-0.83,10.45-5.38,14.06c-3.08,2.45-6.65,3.76-10.52,4.3c-4.96,0.7-9.88,0.36-14.78-0.63
		c-7.95-1.6-15.14-4.96-21.9-9.36c-1.17-0.76-2.37-1.49-3.77-2.37c-1.98,2.76-3.85,5.33-5.68,7.93c-0.54,0.76-0.98,1.59-1.42,2.31
		c0.84,1.77,2.33,2.47,3.62,3.34c10.72,7.22,22.59,11.18,35.45,11.96c8.1,0.49,15.95-0.87,23.23-4.66
		c6.63-3.45,11.68-8.48,14.01-15.69c4.41-13.67,0.82-25.09-11.51-32.09c-2.77-1.57-5.69-2.94-8.67-4.05
		c-4.63-1.73-9.39-3.13-14.08-4.71c-3.78-1.27-7.63-2.4-11.28-3.99c-2.75-1.19-5.39-2.8-7.81-4.59c-2.87-2.13-4.03-5.22-3.89-8.84
		c0.18-4.71,2.39-8.22,6.19-10.77c3.4-2.28,7.22-3.33,11.29-3.54c9.37-0.5,18,2.13,26.27,6.25c1.99,0.99,3.92,2.1,6.01,3.23
		C2342.68,745.3,2344.61,741.65,2346.75,737.91z M1927.84,737.75c-0.88-0.66-1.47-1.2-2.14-1.59c-10.55-6.18-21.9-9.65-34.17-9.78
		c-7.47-0.08-14.63,1.32-21.16,5.19c-6.95,4.12-11.6,10-13.17,18.01c-2.47,12.54,2.03,21.02,10.87,26.42
		c2.85,1.74,5.89,3.26,9.01,4.42c4.94,1.82,10.03,3.23,15.04,4.85c3.95,1.28,7.96,2.42,11.78,4.02c2.62,1.09,5.16,2.6,7.39,4.35
		c3.83,3.02,5.13,7.15,4.28,11.99c-0.71,4-2.74,7.12-5.99,9.47c-2.91,2.1-6.19,3.29-9.72,3.81c-4.96,0.73-9.89,0.42-14.78-0.55
		c-7.79-1.55-14.88-4.76-21.52-9.05c-1.32-0.86-2.66-1.7-3.94-2.52c-3.11,3.08-6.02,7.25-7.4,10.53c0.21,0.24,0.38,0.52,0.62,0.72
		c0.49,0.41,1,0.8,1.52,1.17c11.26,7.96,23.84,12.2,37.57,12.94c6.94,0.38,13.73-0.76,20.13-3.59c10.5-4.63,16.77-12.46,17.94-24.08
		c0.95-9.36-2.04-17.02-9.75-22.57c-2.32-1.67-4.83-3.18-7.44-4.32c-4.09-1.79-8.31-3.29-12.53-4.75
		c-4.98-1.72-10.09-3.08-15.01-4.94c-3.11-1.18-6.2-2.67-8.92-4.57c-6.41-4.5-7.03-12.55-1.68-18.32c2.24-2.41,5.04-3.89,8.16-4.81
		c4.86-1.45,9.8-1.34,14.74-0.56c7.02,1.11,13.57,3.6,19.76,7.06c1.21,0.68,2.48,1.27,3.92,2
		C1923.52,744.93,1925.64,741.41,1927.84,737.75z M1749.23,737.52c-1.86-1.11-3.32-2.06-4.86-2.88c-7.25-3.89-14.97-6.48-23.09-7.66
		c-6.84-0.99-13.72-1.01-20.48,0.8c-14.28,3.83-23.68,14.53-22.87,29.57c0.32,5.88,2.43,10.85,6.63,14.95
		c2.78,2.71,5.99,4.84,9.55,6.3c4.28,1.75,8.64,3.32,13.03,4.78c5,1.67,10.13,2.95,15.07,4.74c3.13,1.13,6.17,2.66,8.99,4.43
		c4.83,3.05,6.51,7.65,5.58,13.26c-0.64,3.84-2.63,6.82-5.7,9.11c-3.01,2.24-6.44,3.48-10.15,4c-4.96,0.69-9.88,0.37-14.78-0.62
		c-7.79-1.57-14.86-4.83-21.49-9.11c-1.32-0.85-2.65-1.7-4.19-2.7c-2.53,3.59-4.9,6.96-7.41,10.5c0.93,0.81,1.57,1.48,2.32,2.02
		c11.36,8.11,24.08,12.42,37.98,13.13c6.94,0.35,13.7-0.85,20.12-3.63c9.91-4.27,18.33-13.35,17.89-28.02
		c-0.23-7.56-3.28-13.53-9.2-18.14c-3.05-2.38-6.38-4.3-9.97-5.67c-4.62-1.76-9.33-3.28-14.01-4.89c-4.68-1.61-9.39-3.13-14.04-4.84
		c-2.85-1.05-5.51-2.55-7.82-4.58c-3.77-3.32-4.72-7.45-3.36-12.18c0.97-3.38,3.12-5.92,6.08-7.75c3.33-2.06,6.99-3.07,10.9-3.28
		c9.55-0.5,18.31,2.2,26.7,6.48c1.83,0.93,3.62,1.93,5.61,3C1744.92,745.29,1746.77,741.59,1749.23,737.52z M200.96,803.94
		c-1.51,1.38-2.5,2.42-3.62,3.29c-2.91,2.24-5.69,4.71-8.84,6.54c-19.18,11.19-42.78,3.78-52.37-16.25
		c-3.34-6.97-4.33-14.31-3.88-21.93c0.46-7.69,2.9-14.71,7.32-20.99c11.05-15.7,31.68-20.01,48.03-9.93c3.1,1.91,5.84,4.44,8.7,6.73
		c1.1,0.88,2.09,1.88,3.36,3.03c1.97-1.66,3.53-3.46,5.11-5.21c1.56-1.73,3.55-3.15,4.47-5.32c-16.31-18.9-42.1-21.89-61-13.75
		c-21.63,9.31-35.57,33.1-30.85,59.06c5.37,29.55,33.39,49.45,65.45,41.59c10.28-2.52,18.54-8.37,25.7-15.94
		c0.61-0.65,1.04-1.46,1.63-2.32C207.07,809.64,204.16,806.93,200.96,803.94z M699.52,804.17c-1.3,1.17-2.48,2.23-3.65,3.29
		c-3.45,3.13-7.19,5.83-11.42,7.84c-17.08,8.13-36.97,2.47-47.16-13.45c-8.92-13.94-8.66-33.02,0.66-46.7
		c10.92-16.04,31.71-20.68,48.25-10.57c3.51,2.15,6.54,5.08,9.78,7.67c0.83,0.66,1.62,1.38,2.6,2.22c1.71-1.79,3.28-3.37,4.77-5.03
		c1.57-1.75,3.47-3.24,4.63-5.25c-14.1-17.55-39-22.25-58.54-15.02c-20.52,7.59-35.74,28.68-34.04,54.11
		c1.46,21.78,16.17,41.79,39.38,47.71c20.15,5.14,44.59-3.21,53.99-18.54C705.77,809.74,703.07,806.6,699.52,804.17z
		 M1335.03,697.49c-4.92-0.45-9.61-0.52-14.61,0.08c-0.08,1.8-0.22,3.35-0.22,4.91c-0.02,7.2,0.01,14.39-0.03,21.59
		c-0.01,1.22-0.23,2.45-0.36,3.64c-4.67,0.98-9.21-0.39-13.46,0.92c-0.77,5.22-0.64,9.41,0.35,12.47c4.3,0.84,8.83-0.44,13.4,0.89
		c0.03,1.88,0.08,3.63,0.08,5.37c0.01,18.07-0.04,36.14,0.04,54.21c0.01,3.34,0.22,6.74,0.87,10.01
		c1.96,9.79,7.65,16.36,17.45,18.97c8.77,2.34,17.41,1.82,25.84-1.57c0.99-0.4,1.87-1.09,2.81-1.65c0.04-4.11,0.53-8.04-0.35-12.2
		c-1.31,0.44-2.37,0.74-3.39,1.14c-4.73,1.87-9.65,2.16-14.63,1.64c-7.06-0.73-11.4-4.62-12.9-11.53c-0.34-1.55-0.51-3.16-0.51-4.75
		c-0.04-19.03-0.03-38.06-0.01-57.09c0-0.91,0.21-1.81,0.36-2.95c1.83-0.08,3.4-0.21,4.97-0.21c7.68-0.02,15.35,0.01,23.03-0.03
		c1.22-0.01,2.44-0.25,3.97-0.41c0.04-4.23,0.33-8.17-0.15-12.03c-1.53-1.22-3.19-0.81-4.74-0.82c-7.68-0.04-15.35,0-23.03-0.04
		c-1.38-0.01-2.89,0.4-4.41-1.08c0-4.65,0.06-9.58-0.03-14.52C1335.27,707.55,1335.76,702.61,1335.03,697.49z M1946.75,728.08
		c-3.93,0-7.28-0.05-10.63,0.03c-1.04,0.02-2.08,0.38-3.18,0.59c-0.16,4.26-0.51,8.21,0.25,12.43c4.49,0.66,8.98-0.21,13.22,0.53
		c0.95,1.96,0.59,3.75,0.59,5.47c0.03,17.91-0.02,35.82,0.06,53.73c0.02,3.5,0.2,7.06,0.86,10.49c1.91,10.01,7.72,16.64,17.72,19.27
		c8.45,2.22,16.78,1.72,24.95-1.35c1.17-0.44,2.24-1.14,3.58-1.84c0-3.1,0.02-6.13-0.01-9.15c-0.01-0.94-0.18-1.88-0.31-3.07
		c-1.38,0.42-2.6,0.72-3.77,1.17c-4.75,1.8-9.68,2.08-14.65,1.52c-6.85-0.77-11.09-4.58-12.58-11.29c-0.44-2.01-0.59-4.12-0.6-6.18
		c-0.05-18.23-0.03-36.46-0.02-54.69c0-1.25,0.16-2.49,0.24-3.62c1.67-1.12,3.31-0.71,4.87-0.72c7.83-0.04,15.67,0,23.51-0.04
		c1.22,0,2.59,0.35,3.84-1.25c0-1.53,0.04-3.43-0.01-5.33c-0.06-2.04,0.3-4.12-0.38-6.14c-1.63-0.79-3.25-0.54-4.82-0.55
		c-7.36-0.02-14.71,0-22.07-0.02c-1.55,0-3.11-0.15-4.96-0.25c-0.09-1.88-0.21-3.44-0.22-5c-0.02-7.36,0-14.71-0.03-22.07
		c-0.01-1.06-0.25-2.11-0.42-3.48c-2.65-0.03-5.02-0.14-7.39-0.06c-2.34,0.08-4.76-0.48-7.3,0.68c-0.03,3.36-0.06,6.7-0.08,10.04
		c-0.01,3.2,0.03,6.4-0.01,9.59C1946.98,720.84,1947.21,724.18,1946.75,728.08z M510.67,728.51c0.01,4.31-0.41,8.39,0.38,12.79
		c2.4,0.03,4.62-0.02,6.83,0.1c2.17,0.13,4.45-0.54,6.83,0.74c0.04,1.73,0.12,3.46,0.12,5.19c0.01,17.92-0.01,35.84,0.02,53.76
		c0,2.72,0.03,5.45,0.35,8.14c1.35,11.62,8.41,19.47,19.75,21.85c7,1.47,14.01,1.21,20.86-0.95c2.09-0.66,4.36-1.14,6.12-3.2
		c0-1.69,0.04-3.6-0.01-5.51c-0.06-2,0.31-4.06-0.45-6.31c-1.32,0.43-2.37,0.72-3.38,1.13c-4.73,1.88-9.65,2.19-14.63,1.69
		c-7.42-0.74-11.94-5.03-13.14-12.38c-0.26-1.57-0.46-3.18-0.47-4.77c-0.03-18.72-0.03-37.44,0-56.16c0-0.91,0.24-1.83,0.41-3.02
		c1.78-0.08,3.34-0.21,4.9-0.21c7.68-0.02,15.36,0,23.04-0.03c1.22,0,2.44-0.22,3.87-0.36c0.19-4.37,0.49-8.43-0.25-12.71
		c-1.82-0.08-3.39-0.2-4.96-0.2c-7.68-0.02-15.36,0.01-23.04-0.03c-1.23-0.01-2.59,0.34-3.91-1.2c-0.03-2.94-0.07-6.28-0.08-9.61
		c-0.01-3.2,0.06-6.4-0.02-9.6c-0.08-3.31,0.41-6.66-0.41-10.04c-2.5-0.72-4.91-0.4-7.27-0.37c-2.32,0.04-4.74-0.55-7.21,0.75
		c-0.03,3.37-0.07,6.71-0.09,10.06c-0.01,3.2,0.08,6.4-0.03,9.6c-0.11,3.31,0.5,6.68-0.49,10.01
		C519.98,728.67,515.61,727.53,510.67,728.51z M586.09,728.81c-0.51,1.63-0.3,3.39-0.3,5.13c-0.02,16.64-0.01,33.27-0.01,49.91
		c0,13.6-0.01,27.19,0.01,40.79c0,1.71-0.29,3.49,0.65,5.59c4.68-0.19,9.39,0.46,13.96-0.37c0.23-0.57,0.43-0.85,0.45-1.14
		c0.07-1.12,0.11-2.23,0.11-3.35c-0.04-31.99-0.09-63.98-0.14-95.97c0-0.15-0.07-0.32-0.15-0.45c-0.07-0.13-0.2-0.22-0.31-0.33
		C596.11,727.8,589.61,727.87,586.09,728.81z M1279.6,728.5c-0.8,4.5-1.18,78.85-0.54,98.5c0.03,0.92,0.25,1.84,0.37,2.67
		c4.46,0.84,10.96,0.78,14.32-0.09c0.68-4.44,1-76.24,0.42-98.23c-0.02-0.92-0.21-1.83-0.31-2.68
		C1290.11,727.93,1284.46,727.86,1279.6,728.5z M1396.12,829.92c0.15-1.07,0.36-1.98,0.39-2.9c0.64-20.15,0.27-94.01-0.51-98.44
		c-2.21-0.93-4.63-0.49-6.98-0.46c-2.47,0.03-5.05-0.59-7.66,0.77c0,1.82,0,3.57,0,5.31c0,28.63,0,57.26,0,85.88
		c0,2.4-0.04,4.8,0.03,7.2c0.03,0.89,0.31,1.78,0.53,2.95c4.06,0,7.88,0.01,11.69-0.01
		C1394.38,830.21,1395.14,830.04,1396.12,829.92z M601.89,689.45c-6.67-0.67-13.4-0.52-16.63,0.31c-0.73,4.6-0.66,12.14,0.19,15.66
		c2.61,0.48,5.32,0.29,8,0.21c2.79-0.08,5.68,0.65,8.59-0.64C602.03,699.84,602.22,694.78,601.89,689.45z M1380.52,705.6
		c3.15,0.03,5.83,0.14,8.51,0.05c2.79-0.1,5.67,0.53,8.33-0.45c0.7-7.36,0.52-12.95-0.56-16.05c-5.27,0.04-10.63-0.4-16.38,0.34
		C1380.42,694.79,1380.31,699.85,1380.52,705.6z M1278.63,689.26c-0.83,4.84-0.77,12.59,0.08,16.13c2.63,0.54,5.34,0.31,8.02,0.24
		c2.8-0.08,5.69,0.65,8.37-0.54c0.66-7.42,0.47-12.71-0.59-15.83C1289.33,689.26,1284.11,689.26,1278.63,689.26z"/>
	<path class="st1" d="M2353.92,542.4c-1.9-0.12-3.81-0.35-5.71-0.36c-38.71-0.02-77.43-0.01-116.14-0.04
		c-1.88,0-3.84,0.39-5.79-0.59c-0.12-0.73-0.32-1.5-0.35-2.27c-0.06-1.6-0.03-3.2-0.03-4.8c0-80.95,0.01-161.9-0.01-242.85
		c0-10.89-0.52-21.74-2.51-32.48c-1.76-9.48-4.45-18.66-8.88-27.26c-10.46-20.3-27.27-31.66-49.67-34.98
		c-12.95-1.92-25.84-1.49-38.54,1.9c-18.77,5.01-32.78,16.12-42.05,33.17c-4.86,8.93-7.81,18.52-9.69,28.48
		c-1.97,10.42-2.45,20.96-2.46,31.52c-0.02,81.11-0.01,162.22-0.03,243.33c0,2.05,0.33,4.15-0.49,6.41
		c-1.01,0.14-2.08,0.4-3.15,0.41c-5.28,0.04-10.56,0.02-15.84,0.02c-34.39,0-68.79,0-103.19-0.01c-1.89,0-3.82,0.25-5.92-0.48
		c-0.11-0.94-0.28-1.84-0.31-2.75c-0.05-1.6-0.02-3.2-0.02-4.8c0-82.07-0.02-164.14,0.02-246.21c0-10.75-0.84-21.41-3.02-31.94
		c-1.89-9.12-4.8-17.9-9.33-26.09c-9.55-17.28-24.04-27.95-43.29-31.99c-16.59-3.48-33.07-2.94-49.21,2.59
		c-14.96,5.13-26.46,14.61-34.7,28.07c-5.58,9.11-9.05,19.03-11.18,29.44c-1.93,9.42-2.88,18.96-2.88,28.59
		c0,82.87-0.01,165.74-0.02,248.61c0,2.07,0,4.13,0,6.36c-1.19,0.24-2.09,0.5-3,0.57c-1.11,0.09-2.24,0.03-3.36,0.03
		c-38.71,0-77.43,0-116.14,0c-1.9,0-3.79-0.09-5.93-0.14c-0.18-1.17-0.38-2.06-0.43-2.97c-0.07-1.12-0.02-2.24-0.02-3.36
		c0-147.34,0-294.68,0-442.02c0-1.89,0.07-3.79,0.11-5.92c1.15-0.16,2.06-0.35,2.96-0.4c1.12-0.07,2.24-0.02,3.36-0.02
		c38.71,0,77.43,0,116.14,0c1.89,0,3.78,0.07,5.68,0.11c0.96,1.91,0.59,3.7,0.6,5.4c0.03,17.44,0.02,34.88,0.02,52.31
		c0,1.57,0,3.14,0,4.69c1.79,0.49,2.17-0.86,2.79-1.63c6.52-8.11,13.35-15.94,20.77-23.25c13.32-13.11,28.1-24.2,45.07-32.19
		c15.18-7.15,31.14-11.43,47.84-13.12c12.79-1.29,25.56-1.22,38.31,0.2c25.92,2.89,49.83,11.14,70.8,27.01
		c14.11,10.67,25.33,23.86,34.08,39.2c0.78,1.37,1.6,2.72,2.6,4.4c1.08-1.07,1.98-1.88,2.78-2.79
		c11.61-13.09,24.25-25.03,38.5-35.25c23.16-16.6,48.81-27.11,76.96-31.42c16.51-2.53,33.11-2.86,49.76-1.47
		c14.25,1.19,28.19,3.79,41.71,8.46c37.81,13.05,63.84,38.5,78.94,75.34c5.85,14.28,9.57,29.14,11.64,44.41
		c0.47,3.48,0.61,7,0.99,10.49c0.17,1.55,0.57,3.07,0.87,4.6C2353.92,329.28,2353.92,435.84,2353.92,542.4z"/>
	<path class="st1" d="M522.24,0.96c0.02,1.76,0.06,3.52,0.06,5.28c0,176.28,0,352.56,0,528.84c0,2.07,0,4.13,0,6.36
		c-1.2,0.23-2.09,0.49-3.01,0.57c-1.11,0.09-2.24,0.03-3.36,0.03c-38.71,0-77.42,0-116.13-0.01c-1.89,0-3.79-0.09-5.92-0.14
		c-0.17-1.18-0.38-2.07-0.42-2.98c-0.07-1.44-0.02-2.88-0.02-4.32c0-175.8,0-351.6,0.01-527.4c0-2.08,0.1-4.15,0.16-6.23
		C436.48,0.96,479.36,0.96,522.24,0.96z"/>
	<path class="st1" d="M1128,0.96c0.1,1.59,0.27,3.18,0.27,4.77c0.01,176.92,0.01,353.85,0.01,530.77c0,1.58-0.09,3.16-0.14,4.94
		c-1.09,0.22-1.98,0.48-2.88,0.55c-1.11,0.09-2.24,0.03-3.36,0.03c-38.71,0-77.42,0-116.14-0.01c-1.9,0-3.79-0.09-5.98-0.14
		c-0.16-1.16-0.36-2.05-0.39-2.94c-0.06-1.76-0.02-3.52-0.02-5.28c0-177.57,0-355.13-0.01-532.69
		C1042.24,0.96,1085.12,0.96,1128,0.96z"/>
	<path class="st1" d="M1772.16,863.04c-1.25-1.53-3.17-1.25-4.79-1.8c-3.02-1.03-6.06-1.99-9.07-3.03c-0.57-0.2-1.04-0.66-1.79-1.16
		c1.08-3.91,3.02-7.36,4.53-11.28c1.09,0.28,2,0.4,2.81,0.74c4.51,1.9,9.22,2.43,14.07,2.39c5.33-0.04,9.59-2.17,12.94-6.21
		c3.19-3.84,5.47-8.21,7.27-13.01c-15.3-33.55-30.6-67.1-45.92-100.68c3.17-1.11,8.92-1.29,16.03-0.58
		c1.42,1.42,1.94,3.48,2.75,5.35c10.69,24.45,21.33,48.93,32,73.39c0.7,1.6,1.46,3.17,2.2,4.75c1.96-0.57,1.87-2.31,2.35-3.54
		c6.2-15.93,12.32-31.9,18.46-47.86c3.5-9.1,7-18.19,10.51-27.29c0.63-1.62,1.33-3.21,2.08-5c5.09-0.26,9.98-0.19,14.75-0.07
		c1.05,1.85-0.01,3.07-0.51,4.32c-6.35,15.7-12.74,31.39-19.12,47.08c-7.1,17.47-14.13,34.97-21.33,52.39
		c-1.95,4.71-4.31,9.27-6.7,13.78c-1.73,3.26-4.09,6.11-6.76,8.67c-3.41,3.28-7.35,5.59-11.94,6.83c-1.49,0.4-3.22,0.35-4.27,1.82
		C1779.2,863.04,1775.68,863.04,1772.16,863.04z"/>
	<path class="st1" d="M2353.92,50.88c-0.24,0.4-0.62,0.78-0.71,1.21c-2.92,14.76-11.87,24.65-25.56,29.92
		c-24.32,9.37-51.28-5.19-55.98-31.4c-4.39-24.47,11.67-43.58,31.6-48.36c2.15-0.52,4.51,0.02,6.49-1.3c1.92,0,3.84,0,5.76,0
		c1.06,0.28,2.1,0.69,3.17,0.82c16.84,2.05,30.89,14.98,34.44,31.69c0.09,0.4,0.52,0.73,0.79,1.09
		C2353.92,40,2353.92,45.44,2353.92,50.88z M2312.97,9.64c-17.23-0.22-33.57,13.44-33.63,33.41c-0.05,18.26,14.38,33.27,33.16,33.37
		c19.93,0.11,33.67-16.08,33.65-33.39C2346.14,24.73,2331.24,9.73,2312.97,9.64z"/>
	<path class="st0" d="M2353.92,34.56c-0.27-0.36-0.7-0.69-0.79-1.09c-3.55-16.71-17.6-29.64-34.44-31.69
		c-1.07-0.13-2.12-0.54-3.17-0.82c12.8,0,25.6,0,38.4,0C2353.92,12.16,2353.92,23.36,2353.92,34.56z"/>
	<path class="st1" d="M1151.22,313.56c0.55-54.13,17.97-104.53,54.2-148.01c28.98-34.78,65.39-58.86,108.19-73.36
		c17.16-5.82,34.78-9.65,52.79-11.71c17.86-2.05,35.72-2.35,53.64-0.96c37.54,2.9,72.99,12.95,105.64,31.79
		c56.66,32.69,93.75,80.63,110.54,144c3.49,13.17,5.5,26.59,6.55,40.18c1.12,14.4,1.05,28.79-0.41,43.13
		c-4.44,43.84-19.68,83.55-46.55,118.55c-31.92,41.57-73.49,69.2-123.55,84.23c-17.51,5.26-35.42,8.43-53.66,9.86
		c-16.16,1.26-32.3,1.29-48.4-0.34c-56.53-5.72-106.4-26.66-147.77-66.12c-35.19-33.56-57.29-74.48-66.75-122.21
		C1152.63,347.16,1151.37,331.57,1151.22,313.56z M1516.19,318.74c0.05-12.18-0.38-18.19-2.22-28.25
		c-3.65-20-11.36-38.29-23.71-54.47c-20.62-26.98-47.96-42.22-81.7-45.69c-12.13-1.25-24.28-0.67-36.32,1.62
		c-17.91,3.4-34.21,10.38-48.56,21.69c-18.52,14.61-30.88,33.5-38.22,55.77c-6.56,19.91-8.2,40.34-6.02,61.12
		c2.04,19.39,7.88,37.57,18.26,54.07c21.99,34.97,53.61,53.99,95.01,56.18c14.8,0.78,29.41-0.82,43.57-5.39
		c31.65-10.21,54.05-30.87,67.92-60.87C1512.66,356.22,1516.35,336.86,1516.19,318.74z"/>
	<path class="st1" d="M834.09,282.47c0.17-0.47,0.47-0.9,0.48-1.35c0.27-11.56-0.36-23.02-3.66-34.2
		c-6.07-20.55-18.93-35.22-38.29-44.25c-9.79-4.57-20.13-7.24-30.79-8.73c-12.87-1.8-25.8-1.99-38.78-1.4
		c-12.32,0.56-24.58,1.58-36.75,3.52c-15.49,2.47-30.71,6.12-45.65,10.9c-8.37,2.68-16.66,5.57-24.99,8.36
		c-1.2,0.4-2.4,0.8-3.56,1.18c-1.72-1.22-1.77-3.14-2.29-4.75c-8.79-26.72-17.52-53.46-26.27-80.19c-1.09-3.34-2.22-6.67-3.29-10.02
		c-0.28-0.89-0.41-1.83-0.64-2.95c1.21-0.62,2.29-1.25,3.43-1.75c22.9-9.97,46.33-18.34,70.69-24.02
		c14.34-3.35,28.8-5.86,43.42-7.58c22.92-2.69,45.91-3.6,68.96-3.07c20.03,0.46,39.87,2.61,59.42,7.14
		c18.63,4.32,36.46,10.74,53.1,20.27c30.18,17.3,51.08,42.57,63.98,74.67c6.23,15.5,10.2,31.6,12.69,48.11
		c2.3,15.22,3.16,30.53,3.16,45.9c0,86.06,0,172.13,0,258.19c0,1.58-0.1,3.16-0.17,4.96c-1.08,0.23-1.95,0.5-2.85,0.58
		c-1.11,0.1-2.24,0.03-3.36,0.03c-37.27,0-74.54,0-111.82,0c-1.89,0-3.79-0.09-5.59-0.13c-1.12-1.94-0.74-3.73-0.75-5.44
		c-0.04-12.48-0.01-24.96-0.03-37.43c0-1.56-0.1-3.12-0.16-4.7c-1.69-0.41-2.16,0.86-2.85,1.58c-7.51,7.9-15.61,15.15-24.43,21.57
		c-19.96,14.54-42.18,23.87-66.32,28.8c-19.57,4-39.35,4.93-59.21,3.62c-23.17-1.53-45.48-6.84-66.45-17.09
		c-19.73-9.64-36.54-22.88-49.55-40.7c-12.02-16.45-19.43-34.84-22.61-54.91c-3.39-21.38-2.98-42.71,1.71-63.88
		c7.94-35.88,28.08-62.9,59.61-81.55c14.97-8.86,31.09-14.89,47.92-19.11c14.14-3.54,28.49-5.73,43.02-6.96
		c17.74-1.5,35.48-1.53,53.21-0.46c27.26,1.64,53.84,7.02,79.79,15.55C829.7,281.47,831.71,282.58,834.09,282.47z M836.11,358.66
		c-6.07-3.05-12.22-5.27-18.44-7.26c-14.51-4.65-29.37-7.52-44.56-8.89c-9.43-0.85-18.85-1.01-28.28-0.65
		c-10.73,0.42-21.34,1.89-31.68,4.85c-10.54,3.01-20.42,7.43-28.91,14.54c-8.59,7.19-14.38,16.16-17.3,27.02
		c-2.07,7.69-2.3,15.49-1.72,23.32c0.85,11.58,5.34,21.63,13.41,30.02c4.71,4.89,10.24,8.65,16.35,11.58
		c9.04,4.34,18.63,6.63,28.56,7.62c7.82,0.78,15.64,0.7,23.47,0.14c11.71-0.83,23.12-3.05,34.17-7c11.4-4.08,21.86-9.83,30.87-18
		c15.48-14.03,23.75-31.45,24.2-52.42c0.16-7.51,0.04-15.03,0.04-22.55C836.31,360.35,836.21,359.72,836.11,358.66z"/>
	<path class="st1" d="M2.22,481.74c10.21-16.9,52.19-80.98,55.35-84.42c1.39,0.94,2.85,1.88,4.27,2.87
		c21.6,15.06,44.48,27.72,69.16,37.03c13.95,5.26,28.22,9.33,42.94,11.73c14.27,2.32,28.61,3.18,43.01,1.24
		c6.04-0.81,11.97-2.08,17.59-4.54c2.04-0.89,4.06-1.89,5.98-3.02c12.91-7.63,16.3-20.72,13.72-33.03
		c-0.94-4.48-3.41-8.24-6.53-11.56c-3.1-3.29-6.72-5.91-10.57-8.23c-6.6-3.97-13.67-6.95-20.87-9.62
		c-12.89-4.79-26.11-8.55-39.28-12.48c-17.15-5.12-34.37-9.98-51.12-16.33c-13.32-5.06-26.29-10.86-38.56-18.16
		c-13.28-7.91-25.37-17.27-35.45-29.09c-13.64-15.99-21.87-34.45-25.06-55.17c-3.33-21.63-2.38-43.09,3.35-64.21
		c8.13-30.01,25.17-53.94,50.33-72.11C97,100.7,115.37,92.65,135,87.4c19.44-5.2,39.26-7.42,59.35-7
		c58.88,1.21,112.86,18.47,162.51,49.8c1.33,0.84,2.58,1.79,4.07,2.83c-16.13,29.2-32.12,58.17-48.14,87.13
		c-0.3,0.54-0.79,0.97-1.27,1.55c-1.49-0.82-2.89-1.58-4.27-2.37c-20.77-11.75-42.23-22.01-64.9-29.61
		c-11.85-3.97-23.89-7.14-36.27-8.9c-11.94-1.7-23.9-2.07-35.78,0.59c-5.66,1.27-11.06,3.19-15.94,6.38
		c-9.56,6.25-13.95,15.11-13.13,26.49c0.32,4.42,2.02,8.35,4.66,11.9c2.71,3.64,6.1,6.54,9.77,9.14c5.38,3.79,11.2,6.79,17.18,9.5
		c12.24,5.55,24.95,9.88,37.63,14.29c17.5,6.09,35.07,12.01,52.47,18.37c15.48,5.66,30.42,12.59,44.62,21.03
		c11.46,6.81,22.15,14.63,31.58,24.1c15.81,15.86,26.02,34.69,30.06,56.76c1.68,9.16,2.27,18.42,1.99,27.71
		c-0.37,12.17-1.56,24.24-4.42,36.12c-8.33,34.7-27.59,61.47-58,80.17c-15.26,9.38-31.77,15.69-49.1,19.96
		c-18.4,4.53-37.11,6.7-56.05,6.97c-12.33,0.18-24.64-0.1-36.9-1.42c-29.09-3.14-57.25-10.07-84.43-20.91
		c-27.34-10.91-52.74-25.24-76.14-43.12C4.91,483.91,3.69,482.9,2.22,481.74z"/>
	<path class="st1" d="M789.18,753.14c-1.22-1.61-2.17-2.88-3.14-4.13c-2.75-3.54-5.27-7.24-7.16-11.33
		c-3.11-6.73-4.09-13.79-2.75-21.07c1.85-10.08,7.45-17.62,16.47-22.35c9.76-5.12,20.14-6.3,30.69-2.95
		c24.92,7.91,28.84,37.1,12.91,52.45c-4.32,4.16-9.27,7.32-14.66,9.84c-2.46,1.15-4.97,2.18-7.72,3.39c0.4,0.72,0.64,1.47,1.13,1.98
		c9.5,9.72,19.03,19.42,28.56,29.11c0.22,0.22,0.52,0.37,1.04,0.75c0.68-0.75,1.49-1.45,2.06-2.32c4.82-7.38,8.91-15.15,12.57-23.16
		c0.66-1.43,1.37-2.84,2.15-4.47c4.43,1.46,8.36,3.41,12.19,5.49c-1.63,6.07-6.55,15.04-19.02,34.75c0.61,0.75,1.23,1.64,1.97,2.4
		c6.12,6.32,12.28,12.6,18.4,18.91c0.98,1.01,1.88,2.09,3,3.35c-3.55,3.33-7.32,5.94-11.24,8.83c-0.99-0.84-2-1.56-2.85-2.43
		c-5.37-5.48-10.71-11-16.07-16.49c-0.87-0.89-1.83-1.71-2.94-2.75c-1.08,0.96-2.04,1.74-2.92,2.61
		c-4.12,4.05-8.56,7.71-13.56,10.62c-14.46,8.4-29.7,10.31-45.7,5.27c-4.93-1.55-9.41-4.01-13.37-7.34
		c-7.71-6.49-12.02-14.77-12.93-24.83c-1.23-13.67,3.6-24.73,14.17-33.37c4.23-3.46,8.9-6.22,13.86-8.5
		C785.75,754.73,787.2,754.06,789.18,753.14z M834.75,800.95c-2.77-3.66-33.67-35.44-36.92-37.91c-7.77,2.84-14.91,6.85-20.29,13.53
		c-1,1.24-1.89,2.59-2.65,3.98c-6.75,12.31-2.37,27.56,9.86,34.45c4.25,2.39,8.84,3.68,13.7,3.89
		C811.93,819.47,826.56,812.22,834.75,800.95z M804.09,747.84c7.15-1.28,16.58-6.49,21.31-11.61c3.13-3.39,4.99-7.35,5.59-11.92
		c1.3-9.81-4.48-18.81-13.89-21.19c-5.4-1.36-10.79-0.96-15.85,1.58c-5.29,2.66-8.76,6.91-10.09,12.66
		c-1.29,5.61-0.69,11.12,2.02,16.27C796.04,739.04,800.03,743.57,804.09,747.84z"/>
	<path class="st1" d="M2106.56,728.69c3.69-0.85,10.27-0.86,14.37,0.05c0.65,2.39,0.21,4.94,0.35,7.45c0.13,2.34-0.31,4.72,0.27,6.9
		c1.13,0.44,1.37-0.35,1.74-0.77c1.46-1.69,2.79-3.51,4.32-5.13c8.53-9.09,19.17-12.35,31.33-11c11.56,1.29,20.37,7.02,26.38,17.01
		c0.47,0.79,1.05,1.51,1.76,2.53c1.21-1.51,2.19-2.72,3.15-3.96c12.25-15.86,31.03-18.67,46.54-13.7
		c9.5,3.05,16.16,9.48,20.16,18.61c2.54,5.78,3.77,11.88,3.83,18.18c0.08,8.48,0.05,16.95,0.05,25.43c0.01,11.52,0.01,23.03,0,34.55
		c0,1.57-0.09,3.15-0.14,4.63c-3.53,0.95-9.78,1.05-14.57,0.25c-0.78-1.56-0.45-3.34-0.45-5.05c-0.03-17.59-0.01-35.19-0.02-52.78
		c0-4,0.02-8.02-1.1-11.9c-0.66-2.29-1.33-4.63-2.34-6.78c-3.03-6.44-8.02-10.69-14.94-12.47c-5.19-1.34-10.47-1.49-15.65-0.01
		c-11.33,3.23-17.53,11.2-19.83,22.41c-0.7,3.42-0.88,6.98-0.9,10.49c-0.09,16.95-0.03,33.91-0.05,50.86c0,1.73,0.22,3.49-0.43,5.41
		c-4.6,0.59-9.15,0.44-13.74,0.11c-0.91-1.86-0.6-3.64-0.6-5.35c-0.03-17.75-0.02-35.5-0.02-53.26c0-4.66-0.4-9.28-1.8-13.74
		c-2.67-8.48-7.88-14.66-16.75-16.9c-12.96-3.27-23.82,1.42-30.39,10.95c-3.15,4.56-5,9.64-5.52,15.15
		c-0.25,2.7-0.28,5.43-0.28,8.15c-0.02,16.47-0.01,32.95-0.02,49.42c0,1.73-0.12,3.45-0.19,5.45c-5.02,0.59-9.7,0.51-14.62,0.08
		c-0.13-1.14-0.3-2.06-0.33-2.98C2105.55,805.62,2105.88,733.05,2106.56,728.69z"/>
	<path class="st1" d="M1147.5,728.88c3.63-1,10.02-1.09,14.76-0.25c0.67,2.55,0.25,5.25,0.32,7.91c0.07,2.56,0.02,5.12,0.02,7.68
		c0,2.68,0,5.37,0,8.02c1.4,0.2,1.59-0.72,1.94-1.36c1.99-3.67,4.29-7.13,7.08-10.24c7.59-8.45,16.88-13.54,28.38-14.2
		c1.58-0.09,3.18-0.35,4.53,0.93c0.41,0.39,1.16,0.62,1.75,0.61c3.66-0.05,7.32-0.19,10.98-0.31c0.12,0,0.23-0.19,0.67-0.58
		c0.44-4.61,0.09-9.55,0.19-14.47c0.09-4.93-0.15-9.87,0.13-14.71c3.73-0.94,10.33-0.99,14.66-0.13c0.83,4.81,0.25,9.75,0.36,14.66
		c0.11,4.94,0.04,9.88,0.04,14.46c1.34,1.48,2.7,1.13,3.92,1.14c7.68,0.04,15.36,0.01,23.03,0.03c1.57,0,3.14,0.13,4.62,0.19
		c0.84,3.95,0.86,8.41,0.07,12.84c-2.41,0.48-4.95,0.21-7.46,0.25c-2.72,0.04-5.44,0.01-8.16,0.01c-2.56,0-5.12-0.01-7.68,0
		c-2.53,0.01-5.06,0.06-7.58,0.09c-1.1,1.9-0.76,3.69-0.76,5.39c-0.03,14.88-0.02,29.75-0.02,44.63c0,2.88-0.02,5.76,0.01,8.64
		c0.01,1.44,0.03,2.88,0.16,4.31c0.75,7.98,5.58,12.79,13.6,13.52c5,0.46,9.9,0.06,14.62-1.82c1-0.4,2.07-0.59,3.36-0.95
		c0,4.12,0,7.93,0,12.06c-0.76,0.47-1.62,1.17-2.59,1.59c-8.07,3.46-16.44,4-24.91,2.03c-12.51-2.91-17.99-11.6-19.21-22.83
		c-0.26-2.38-0.2-4.79-0.2-7.19c-0.01-17.92,0-35.83-0.02-53.75c0-1.71,0.29-3.49-0.43-5.31c-2.4-0.76-4.81-0.4-7.16-0.39
		c-2.35,0.01-4.77-0.52-6.99,0.98c-0.71,0.48-1.86,0.37-2.81,0.39c-15.32,0.43-31.27,10.03-36.32,31.38
		c-1.11,4.69-1.76,9.42-1.76,14.25c0,12-0.01,23.99-0.02,35.99c0,1.73-0.07,3.46-0.1,5.09c-3.65,0.93-10.05,1.01-14.79,0.19
		c-0.1-1.3-0.29-2.68-0.29-4.07c-0.02-11.36-0.01-22.71-0.01-34.07c0-19.2,0-38.39,0-57.59
		C1147.41,732.23,1147.47,730.5,1147.5,728.88z"/>
	<path class="st1" d="M946.68,811.34c-0.15,17.31-0.29,33.45-0.44,49.59c0,0.12-0.19,0.23-0.29,0.35
		c-3.99,0.83-10.53,0.8-14.28-0.11c-0.1-0.53-0.31-1.13-0.31-1.74c-0.02-43.49-0.01-86.98-0.01-130.48
		c2.59-1.47,5.19-0.79,7.67-0.83c2.35-0.04,4.78-0.44,7.3,0.58c0.53,6.01-0.09,12.06,0.35,18.02c1.21,0.44,1.52-0.46,2-1.02
		c1.34-1.59,2.61-3.24,4-4.79c14.4-16.08,35-18.62,52.53-10.7c12.6,5.69,21.22,15.26,25.78,28.25c4.82,13.74,4.84,27.68-0.07,41.39
		c-4.88,13.63-14.08,23.46-27.57,28.98c-16.97,6.94-37.39,3.98-51.33-11.44C950.42,815.64,948.9,813.86,946.68,811.34z
		 M1018.82,779.55c0.18-8.92-1.81-17.37-7.05-24.82c-7.48-10.63-17.93-15.93-30.8-15.1c-14,0.9-24.25,8.25-30.69,20.68
		c-4.42,8.53-5.42,17.69-3.58,27.04c2.53,12.87,9.56,22.5,21.56,28.15c17.13,8.06,40.74,1.42,48.26-20.77
		C1018.17,789.84,1018.87,784.8,1018.82,779.55z"/>
	<path class="st1" d="M90.08,770.92c0.55-5.22,0.07-9.76-1.51-14.2c-3.22-9.06-10.09-13.7-19.12-15.54
		c-10.29-2.09-20.36-0.68-30.25,2.46c-3.18,1.01-6.28,2.28-9.68,3.52c-2.28-3.56-3.21-7.55-4.68-11.63c0.87-0.54,1.6-1.1,2.42-1.48
		c13.06-6,26.77-8.39,41.08-7.26c4.64,0.36,9.18,1.33,13.53,2.98c13.19,4.99,20.48,14.78,22.68,28.5c0.55,3.46,0.75,7,0.77,10.51
		c0.07,18.71,0.04,37.42,0.03,56.12c0,1.56-0.13,3.13-0.21,4.95c-4.82,0.75-9.39,0.26-14.18,0.35c-0.23-1.09-0.57-1.97-0.59-2.86
		c-0.06-3.51-0.03-7.02-0.03-10.46c-1.73-0.75-2.14,0.67-2.81,1.37c-6.01,6.29-13.19,10.57-21.65,12.61
		c-9.73,2.35-19.35,2-28.77-1.45c-2.53-0.93-5.03-2.11-7.31-3.55c-11.16-7.06-15.6-17.37-13.99-30.31
		c1.37-11.07,7.49-18.8,17.41-23.6c6.27-3.03,12.96-4.51,19.89-4.89c11.08-0.62,22.04,0.15,32.83,2.91
		C87.14,770.28,88.38,770.54,90.08,770.92z M89.99,783.27c-0.49-0.22-1.03-0.56-1.63-0.72c-8.5-2.33-17.17-3.63-25.97-3.71
		c-3.65-0.03-7.34,0.27-10.96,0.78c-4.78,0.67-9.29,2.29-13.2,5.24c-9.32,7.03-9.99,20.51-1.44,28.45c2.99,2.78,6.54,4.49,10.43,5.6
		c5.17,1.47,10.43,1.45,15.67,0.79c6.26-0.8,12.06-2.97,17.16-6.79c5.02-3.77,8.45-8.64,9.92-14.79
		C90.72,794.99,90.71,787.36,89.99,783.27z"/>
	<path class="st1" d="M2093.21,785.32c-8.9,0-17.68,0-26.46,0c-8.96,0-17.91,0-26.87,0c-8.77,0-17.55-0.01-26.33,0.01
		c-0.19,0.78-0.43,1.23-0.39,1.65c1.49,13.4,10.11,28.07,28.36,31.61c12.02,2.33,23.21-0.27,33.04-7.83
		c2.15-1.65,4.14-3.5,6.38-5.39c3.39,2.11,6.08,5.02,9.21,7.92c-0.61,0.83-1.08,1.61-1.69,2.25
		c-11.47,12.12-25.58,17.68-42.21,16.86c-17.74-0.87-31.43-8.78-40.91-23.82c-3.98-6.32-6.31-13.31-7.23-20.67
		c-1.61-12.85,0.02-25.23,6.41-36.7c6.87-12.35,17-20.7,30.88-23.96c19.8-4.66,43.07,2.27,53.52,26.61
		c4.12,9.59,5.54,19.64,4.86,30.01C2093.75,784.16,2093.56,784.44,2093.21,785.32z M2012.93,772.56c3.94,0.49,57.62,0.79,63.53,0.43
		c0.61-0.04,1.2-0.28,1.77-0.42c0.07-10.64-6.05-22.84-14.51-28.54c-2.35-1.59-4.99-3.01-7.7-3.77c-13.03-3.68-24.35-0.75-33.46,9.5
		c-4.33,4.88-7.03,10.65-8.53,16.97C2013.6,768.57,2013.33,770.45,2012.93,772.56z"/>
	<path class="st1" d="M1114.42,770.6c1.02-3.41,0.48-6.9-0.22-10.27c-2.14-10.38-9.38-17.12-20.23-19.18
		c-10.32-1.95-20.37-0.65-30.25,2.54c-3.17,1.02-6.27,2.26-9.54,3.45c-1.6-1.63-1.9-3.75-2.65-5.61c-0.77-1.9-1.37-3.88-2.12-6.05
		c0.92-0.54,1.68-1.07,2.51-1.45c12.92-5.89,26.47-8.3,40.62-7.26c4.97,0.37,9.82,1.39,14.46,3.2
		c12.19,4.76,19.33,13.79,21.83,26.49c0.7,3.58,1,7.3,1.02,10.96c0.1,19.35,0.06,38.7,0.04,58.05c0,1.4-0.16,2.8-0.25,4.42
		c-4.81,0.67-9.38,0.28-13.87,0.29c-1.36-2.36-0.65-4.65-0.83-6.83c-0.18-2.19,0.3-4.43-0.41-6.81c-1.69,0.32-2.37,1.7-3.31,2.64
		c-5.8,5.79-12.64,9.72-20.6,11.66c-9.72,2.37-19.36,2.1-28.77-1.39c-2.97-1.1-5.9-2.53-8.53-4.29
		c-9.27-6.2-13.51-15.06-13.13-26.15c0.45-13.18,6.99-22.26,18.89-27.61c5.9-2.65,12.14-3.97,18.57-4.33
		c11.08-0.62,22.05,0.13,32.83,2.89c1.08,0.28,2.17,0.48,3.26,0.71C1113.89,770.7,1114.05,770.64,1114.42,770.6z M1115.14,783.45
		c-1.06-0.45-1.61-0.77-2.21-0.94c-7.88-2.18-15.93-3.4-24.08-3.65c-4.13-0.13-8.29,0.23-12.4,0.7c-4.48,0.51-8.65,2.07-12.5,4.5
		c-11.14,7.02-11.01,22.88-1.39,30.27c2.7,2.07,5.69,3.52,8.92,4.49c5.31,1.58,10.75,1.59,16.14,0.86
		c6.75-0.91,12.96-3.32,18.26-7.75c5.4-4.51,8.65-10.23,9.2-17.26C1115.37,791.04,1115.14,787.37,1115.14,783.45z"/>
	<path class="st1" d="M264.65,832.45c-27.22,0.54-52.83-20.43-53.02-52.75c-0.18-30.56,23.36-53.82,53.27-53.75
		c32.89,0.07,53.04,26.49,53.13,52.83C318.13,807.51,295.29,832.7,264.65,832.45z M227.24,778.62c0.03,9.37,2.28,16.98,6.81,23.75
		c14.53,21.7,46.22,22.25,61.12,1.06c10.68-15.2,9.59-37.22-2.59-51.26c-17.36-20.02-49.9-16.44-61.45,8.51
		C228.39,766.6,227.11,772.79,227.24,778.62z"/>
	<path class="st1" d="M1517.11,779.24c0.31,28.85-23.17,53.44-53.76,53.28c-29.94-0.15-52.64-24.24-52.57-53.31
		c0.07-26.92,20.75-53.28,53.3-53.27C1496.69,725.96,1517.7,752.15,1517.11,779.24z M1426.42,778.51
		c-0.18,9.1,2.16,17.12,7.11,24.32c14.65,21.33,46.08,21.59,60.85,0.55c10.55-15.03,9.52-36.91-2.36-50.9
		c-17.28-20.36-50.68-17.1-62.15,9.14C1427.47,767.11,1426.28,772.87,1426.42,778.51z"/>
	<path class="st1" d="M403.63,728.73c3.53-0.83,9.07-0.92,14.14-0.21c0.16,0.78,0.38,1.67,0.5,2.56c0.08,0.63,0.02,1.28,0.02,1.92
		c0,30.7,0.01,61.41-0.02,92.11c0,1.55,0.42,3.2-0.75,4.87c-4.44,0.44-9,0.38-13.83,0.01c-0.96-5.29-0.02-10.54-0.58-15.57
		c-1.12-0.38-1.37,0.38-1.73,0.81c-1.13,1.35-2.14,2.79-3.3,4.11c-6.88,7.83-15.62,12-25.95,12.86c-5.13,0.43-10.25,0.11-15.23-1.21
		c-14.81-3.9-23.35-13.77-26.54-28.47c-0.71-3.26-1.04-6.65-1.06-9.99c-0.1-20.31-0.06-40.62-0.06-60.92c0-0.95,0.15-1.89,0.22-2.8
		c3.43-0.93,9.8-1.01,14.51-0.17c0.73,1.53,0.42,3.3,0.42,5c0.03,17.43-0.03,34.86,0.06,52.29c0.02,3.66,0.25,7.37,0.94,10.95
		c2.78,14.45,13.68,22.6,29.35,21.59c18.07-1.16,27.65-14.8,28.46-29.45c0.1-1.75,0.06-3.52,0.06-5.28
		c0-16.63-0.01-33.26,0.02-49.89C403.3,732.13,402.99,730.36,403.63,728.73z"/>
	<path class="st1" d="M1544.7,728.55c0.95,5.18-0.08,10.31,0.8,16.15c1.53-1.87,2.52-3.07,3.5-4.28
		c5.3-6.53,11.89-11.08,20.11-13.14c8.6-2.16,17.14-1.88,25.53,0.91c9.98,3.32,16.93,10.01,21.03,19.68
		c2.48,5.83,3.5,11.99,3.53,18.25c0.1,19.99,0.05,39.99,0.02,59.98c0,1.23-0.24,2.46-0.38,3.84c-4.86,0.5-9.43,0.36-14.12,0.1
		c-0.98-1.75-0.63-3.53-0.63-5.23c-0.03-17.75,0.03-35.51-0.06-53.26c-0.02-3.34-0.27-6.73-0.95-9.99
		c-0.61-2.94-1.66-5.86-3.01-8.55c-2.93-5.84-7.71-9.75-13.93-11.74c-6.07-1.95-12.3-2.1-18.47-0.56
		c-12.18,3.05-20.69,12.9-22.12,25.49c-0.34,3.01-0.44,6.06-0.45,9.1c-0.04,16.31-0.02,32.63-0.03,48.95c0,1.74-0.08,3.48-0.13,5.21
		c-2.51,1.27-4.93,0.71-7.26,0.74c-2.36,0.04-4.76,0.33-7.3-0.35c-0.13-1.04-0.31-1.96-0.34-2.87c-0.58-19.94-0.25-94.01,0.43-98.29
		C1533.9,727.91,1539.41,727.83,1544.7,728.55z"/>
	<path class="st1" d="M429.49,817.17c2.44-3.8,4.73-7.2,7.55-10.54c1.42,0.91,2.74,1.74,4.04,2.59c6.63,4.29,13.7,7.54,21.49,9.1
		c4.89,0.98,9.81,1.29,14.78,0.62c3.21-0.44,6.22-1.47,8.95-3.2c3.21-2.04,5.56-4.79,6.58-8.53c1.48-5.44,0.42-10.25-4.16-13.75
		c-2.38-1.82-5.1-3.35-7.88-4.44c-4.6-1.79-9.39-3.1-14.09-4.65c-4.85-1.6-9.77-3.03-14.48-4.98c-3.21-1.33-6.29-3.17-9.11-5.22
		c-5.96-4.32-8.86-10.42-8.95-17.72c-0.14-10.79,4.37-19.15,13.64-24.77c6.62-4.02,13.96-5.4,21.6-5.29
		c11.93,0.16,22.98,3.52,33.3,9.41c0.55,0.32,1.09,0.67,1.6,1.05c0.25,0.18,0.41,0.48,0.8,0.96c-1.67,3.78-3.95,7.33-6.52,10.86
		c-2-1.07-3.81-2.07-5.65-3.01c-8.23-4.21-16.84-6.87-26.21-6.49c-3.91,0.16-7.6,1.07-10.96,3.07c-3.92,2.34-6.41,5.69-6.93,10.35
		c-0.4,3.57,0.45,6.78,3.18,9.11c2.04,1.74,4.32,3.36,6.76,4.44c4.07,1.81,8.33,3.22,12.55,4.67c4.68,1.61,9.45,2.96,14.09,4.68
		c3.13,1.16,6.21,2.57,9.11,4.22c12.69,7.2,15.64,18.87,11.64,31.64c-2.27,7.24-7.17,12.38-13.76,15.92
		c-7.23,3.88-15.07,5.31-23.17,4.88c-13.21-0.71-25.35-4.8-36.33-12.25c-0.66-0.45-1.3-0.93-1.93-1.41
		C430.65,818.18,430.3,817.86,429.49,817.17z"/>
	<path class="st1" d="M2346.75,737.91c-2.13,3.74-4.07,7.39-6.69,10.75c-2.09-1.13-4.02-2.24-6.01-3.23
		c-8.27-4.12-16.9-6.75-26.27-6.25c-4.07,0.22-7.9,1.26-11.29,3.54c-3.81,2.56-6.01,6.06-6.19,10.77c-0.14,3.62,1.03,6.71,3.89,8.84
		c2.42,1.79,5.05,3.4,7.81,4.59c3.65,1.58,7.5,2.71,11.28,3.99c4.69,1.58,9.44,2.98,14.08,4.71c2.98,1.11,5.9,2.48,8.67,4.05
		c12.33,6.99,15.93,18.42,11.51,32.09c-2.33,7.21-7.38,12.24-14.01,15.69c-7.28,3.78-15.13,5.15-23.23,4.66
		c-12.86-0.78-24.73-4.74-35.45-11.96c-1.29-0.87-2.78-1.56-3.62-3.34c0.44-0.72,0.88-1.55,1.42-2.31c1.83-2.6,3.7-5.17,5.68-7.93
		c1.41,0.88,2.6,1.61,3.77,2.37c6.75,4.4,13.95,7.77,21.9,9.36c4.89,0.98,9.81,1.32,14.78,0.63c3.87-0.54,7.44-1.85,10.52-4.3
		c4.55-3.62,6.15-8.42,5.38-14.06c-0.34-2.46-1.53-4.63-3.43-6.16c-2.1-1.68-4.32-3.38-6.77-4.43c-4.24-1.82-8.67-3.21-13.06-4.67
		c-5-1.66-10.07-3.1-15.05-4.8c-3.79-1.29-7.35-3.13-10.64-5.44c-7.14-5.01-10.37-11.91-9.98-20.58
		c0.48-10.69,5.62-18.44,14.87-23.56c3.95-2.19,8.24-3.57,12.71-4.08c15.36-1.76,29.47,2.03,42.57,9.99
		C2346.12,737,2346.27,737.32,2346.75,737.91z"/>
	<path class="st1" d="M1927.84,737.75c-2.21,3.66-4.33,7.18-6.59,10.94c-1.44-0.73-2.71-1.32-3.92-2
		c-6.19-3.46-12.74-5.95-19.76-7.06c-4.93-0.78-9.87-0.88-14.74,0.56c-3.12,0.93-5.92,2.4-8.16,4.81
		c-5.35,5.76-4.73,13.82,1.68,18.32c2.71,1.9,5.81,3.39,8.92,4.57c4.92,1.86,10.03,3.22,15.01,4.94c4.22,1.46,8.44,2.96,12.53,4.75
		c2.61,1.14,5.12,2.65,7.44,4.32c7.71,5.55,10.7,13.22,9.75,22.57c-1.18,11.62-7.45,19.45-17.94,24.08
		c-6.4,2.82-13.18,3.96-20.13,3.59c-13.72-0.74-26.3-4.98-37.57-12.94c-0.52-0.37-1.03-0.76-1.52-1.17
		c-0.24-0.2-0.42-0.48-0.62-0.72c1.38-3.28,4.29-7.46,7.4-10.53c1.28,0.82,2.61,1.66,3.94,2.52c6.64,4.29,13.73,7.5,21.52,9.05
		c4.9,0.97,9.82,1.28,14.78,0.55c3.53-0.52,6.82-1.71,9.72-3.81c3.25-2.35,5.29-5.47,5.99-9.47c0.85-4.84-0.44-8.97-4.28-11.99
		c-2.23-1.76-4.77-3.26-7.39-4.35c-3.82-1.59-7.83-2.74-11.78-4.02c-5.01-1.63-10.1-3.03-15.04-4.85c-3.13-1.15-6.17-2.68-9.01-4.42
		c-8.85-5.4-13.34-13.89-10.87-26.42c1.58-8.01,6.22-13.89,13.17-18.01c6.52-3.86,13.69-5.26,21.16-5.19
		c12.27,0.13,23.62,3.59,34.17,9.78C1926.38,736.56,1926.96,737.09,1927.84,737.75z"/>
	<path class="st1" d="M1749.23,737.52c-2.46,4.07-4.31,7.77-6.96,11.14c-2-1.07-3.79-2.07-5.61-3c-8.38-4.27-17.15-6.98-26.7-6.48
		c-3.9,0.21-7.57,1.21-10.9,3.28c-2.96,1.83-5.1,4.37-6.08,7.75c-1.36,4.72-0.42,8.85,3.36,12.18c2.31,2.03,4.97,3.53,7.82,4.58
		c4.64,1.71,9.36,3.23,14.04,4.84c4.68,1.61,9.39,3.13,14.01,4.89c3.59,1.37,6.92,3.29,9.97,5.67c5.92,4.61,8.97,10.58,9.2,18.14
		c0.45,14.67-7.98,23.75-17.89,28.02c-6.42,2.77-13.18,3.98-20.12,3.63c-13.89-0.71-26.61-5.02-37.98-13.13
		c-0.75-0.53-1.39-1.21-2.32-2.02c2.5-3.55,4.87-6.91,7.41-10.5c1.55,0.99,2.87,1.84,4.19,2.7c6.64,4.28,13.71,7.54,21.49,9.11
		c4.9,0.99,9.81,1.31,14.78,0.62c3.71-0.52,7.14-1.76,10.15-4c3.06-2.29,5.05-5.27,5.7-9.11c0.94-5.61-0.75-10.21-5.58-13.26
		c-2.81-1.78-5.86-3.3-8.99-4.43c-4.95-1.79-10.08-3.08-15.07-4.74c-4.39-1.46-8.75-3.03-13.03-4.78c-3.57-1.46-6.77-3.59-9.55-6.3
		c-4.2-4.1-6.31-9.07-6.63-14.95c-0.82-15.04,8.59-25.74,22.87-29.57c6.75-1.81,13.64-1.79,20.48-0.8
		c8.12,1.17,15.84,3.77,23.09,7.66C1745.91,735.47,1747.37,736.41,1749.23,737.52z"/>
	<path class="st1" d="M200.96,803.94c3.2,2.99,6.11,5.7,9.22,8.6c-0.59,0.86-1.02,1.67-1.63,2.32c-7.16,7.57-15.42,13.43-25.7,15.94
		c-32.07,7.86-60.08-12.04-65.45-41.59c-4.72-25.97,9.22-49.75,30.85-59.06c18.9-8.14,44.69-5.15,61,13.75
		c-0.92,2.17-2.91,3.59-4.47,5.32c-1.58,1.75-3.14,3.55-5.11,5.21c-1.27-1.15-2.27-2.16-3.36-3.03c-2.87-2.29-5.6-4.81-8.7-6.73
		c-16.35-10.08-36.98-5.78-48.03,9.93c-4.43,6.29-6.86,13.3-7.32,20.99c-0.45,7.62,0.54,14.96,3.88,21.93
		c9.59,20.04,33.19,27.44,52.37,16.25c3.15-1.84,5.94-4.3,8.84-6.54C198.46,806.36,199.45,805.32,200.96,803.94z"/>
	<path class="st1" d="M699.52,804.17c3.55,2.44,6.25,5.57,9.26,8.28c-9.4,15.33-33.85,23.68-53.99,18.54
		c-23.21-5.92-37.92-25.93-39.38-47.71c-1.7-25.43,13.52-46.53,34.04-54.11c19.54-7.22,44.44-2.52,58.54,15.02
		c-1.16,2.01-3.06,3.5-4.63,5.25c-1.49,1.66-3.07,3.23-4.77,5.03c-0.98-0.84-1.77-1.55-2.6-2.22c-3.24-2.59-6.27-5.52-9.78-7.67
		c-16.54-10.12-37.34-5.47-48.25,10.57c-9.31,13.69-9.58,32.76-0.66,46.7c10.19,15.92,30.08,21.58,47.16,13.45
		c4.22-2.01,7.96-4.71,11.42-7.84C697.04,806.4,698.22,805.34,699.52,804.17z"/>
	<path class="st1" d="M1335.03,697.49c0.73,5.12,0.25,10.06,0.34,14.96c0.09,4.93,0.03,9.87,0.03,14.52
		c1.52,1.48,3.03,1.08,4.41,1.08c7.67,0.04,15.35,0,23.03,0.04c1.56,0.01,3.22-0.4,4.74,0.82c0.48,3.86,0.19,7.8,0.15,12.03
		c-1.53,0.17-2.75,0.41-3.97,0.41c-7.67,0.04-15.35,0.01-23.03,0.03c-1.57,0-3.14,0.13-4.97,0.21c-0.14,1.14-0.36,2.04-0.36,2.95
		c-0.02,19.03-0.02,38.06,0.01,57.09c0,1.59,0.18,3.2,0.51,4.75c1.5,6.91,5.84,10.8,12.9,11.53c4.98,0.51,9.9,0.22,14.63-1.64
		c1.02-0.4,2.08-0.7,3.39-1.14c0.88,4.16,0.39,8.09,0.35,12.2c-0.94,0.56-1.82,1.25-2.81,1.65c-8.43,3.39-17.08,3.91-25.84,1.57
		c-9.8-2.62-15.49-9.19-17.45-18.97c-0.65-3.26-0.85-6.67-0.87-10.01c-0.08-18.07-0.04-36.14-0.04-54.21c0-1.74-0.05-3.49-0.08-5.37
		c-4.57-1.33-9.09-0.04-13.4-0.89c-0.99-3.07-1.12-7.26-0.35-12.47c4.25-1.31,8.79,0.05,13.46-0.92c0.12-1.19,0.35-2.41,0.36-3.64
		c0.04-7.2,0.01-14.39,0.03-21.59c0.01-1.56,0.14-3.12,0.22-4.91C1325.41,696.97,1330.11,697.04,1335.03,697.49z"/>
	<path class="st1" d="M1946.75,728.08c0.46-3.9,0.22-7.24,0.26-10.56c0.04-3.2,0-6.4,0.01-9.59c0.01-3.33,0.05-6.67,0.08-10.04
		c2.54-1.15,4.96-0.6,7.3-0.68c2.37-0.08,4.74,0.03,7.39,0.06c0.17,1.36,0.41,2.42,0.42,3.48c0.03,7.36,0.01,14.71,0.03,22.07
		c0,1.56,0.13,3.12,0.22,5c1.85,0.1,3.4,0.24,4.96,0.25c7.36,0.03,14.71,0,22.07,0.02c1.57,0,3.19-0.24,4.82,0.55
		c0.68,2.03,0.32,4.11,0.38,6.14c0.05,1.9,0.01,3.8,0.01,5.33c-1.25,1.6-2.62,1.25-3.84,1.25c-7.83,0.04-15.67,0-23.51,0.04
		c-1.56,0.01-3.2-0.4-4.87,0.72c-0.08,1.12-0.24,2.37-0.24,3.62c-0.01,18.23-0.03,36.46,0.02,54.69c0.01,2.06,0.15,4.17,0.6,6.18
		c1.48,6.71,5.72,10.51,12.58,11.29c4.97,0.56,9.9,0.28,14.65-1.52c1.16-0.44,2.38-0.74,3.77-1.17c0.13,1.2,0.3,2.13,0.31,3.07
		c0.04,3.02,0.01,6.05,0.01,9.15c-1.34,0.7-2.41,1.4-3.58,1.84c-8.17,3.07-16.5,3.57-24.95,1.35c-10.01-2.63-15.82-9.26-17.72-19.27
		c-0.65-3.43-0.84-6.99-0.86-10.49c-0.08-17.91-0.03-35.82-0.06-53.73c0-1.72,0.36-3.5-0.59-5.47c-4.24-0.74-8.73,0.13-13.22-0.53
		c-0.76-4.22-0.4-8.17-0.25-12.43c1.1-0.21,2.14-0.57,3.18-0.59C1939.48,728.03,1942.83,728.08,1946.75,728.08z"/>
	<path class="st1" d="M510.67,728.51c4.94-0.97,9.31,0.16,13.65-0.87c0.99-3.33,0.38-6.7,0.49-10.01c0.1-3.2,0.01-6.4,0.03-9.6
		c0.02-3.34,0.06-6.69,0.09-10.06c2.47-1.3,4.89-0.71,7.21-0.75c2.36-0.04,4.76-0.36,7.27,0.37c0.82,3.38,0.33,6.74,0.41,10.04
		c0.08,3.2,0.01,6.4,0.02,9.6c0.02,3.33,0.06,6.67,0.08,9.61c1.32,1.54,2.68,1.2,3.91,1.2c7.68,0.04,15.36,0.01,23.04,0.03
		c1.57,0,3.15,0.12,4.96,0.2c0.74,4.29,0.44,8.35,0.25,12.71c-1.42,0.14-2.64,0.35-3.87,0.36c-7.68,0.03-15.36,0.01-23.04,0.03
		c-1.56,0-3.12,0.13-4.9,0.21c-0.17,1.19-0.41,2.11-0.41,3.02c-0.02,18.72-0.03,37.44,0,56.16c0,1.59,0.21,3.19,0.47,4.77
		c1.19,7.35,5.71,11.64,13.14,12.38c4.99,0.5,9.9,0.19,14.63-1.69c1.01-0.4,2.06-0.69,3.38-1.13c0.76,2.25,0.39,4.31,0.45,6.31
		c0.06,1.91,0.01,3.82,0.01,5.51c-1.76,2.06-4.03,2.54-6.12,3.2c-6.85,2.16-13.86,2.42-20.86,0.95
		c-11.34-2.38-18.4-10.23-19.75-21.85c-0.31-2.69-0.34-5.43-0.35-8.14c-0.03-17.92-0.01-35.84-0.02-53.76
		c0-1.73-0.08-3.46-0.12-5.19c-2.38-1.27-4.66-0.61-6.83-0.74c-2.21-0.13-4.42-0.07-6.83-0.1
		C510.26,736.9,510.67,732.82,510.67,728.51z"/>
	<path class="st1" d="M586.09,728.81c3.52-0.94,10.02-1.01,14.27-0.2c0.1,0.11,0.23,0.21,0.31,0.33c0.08,0.14,0.15,0.3,0.15,0.45
		c0.05,31.99,0.1,63.98,0.14,95.97c0,1.12-0.04,2.24-0.11,3.35c-0.02,0.29-0.22,0.58-0.45,1.14c-4.57,0.83-9.27,0.17-13.96,0.37
		c-0.93-2.11-0.64-3.88-0.65-5.59c-0.03-13.6-0.01-27.19-0.01-40.79c0-16.64-0.01-33.27,0.01-49.91
		C585.79,732.2,585.59,730.44,586.09,728.81z"/>
	<path class="st1" d="M1279.6,728.5c4.85-0.64,10.5-0.57,14.26,0.17c0.1,0.84,0.29,1.76,0.31,2.68c0.58,22,0.26,93.79-0.42,98.23
		c-3.36,0.86-9.86,0.92-14.32,0.09c-0.12-0.84-0.33-1.75-0.37-2.67C1278.42,807.34,1278.8,732.99,1279.6,728.5z"/>
	<path class="st1" d="M1396.12,829.92c-0.98,0.12-1.74,0.29-2.51,0.3c-3.82,0.03-7.63,0.01-11.69,0.01
		c-0.22-1.17-0.5-2.06-0.53-2.95c-0.07-2.4-0.03-4.8-0.03-7.2c0-28.63,0-57.26,0-85.88c0-1.75,0-3.49,0-5.31
		c2.61-1.37,5.2-0.75,7.66-0.77c2.34-0.02,4.76-0.47,6.98,0.46c0.78,4.43,1.15,78.29,0.51,98.44
		C1396.48,827.94,1396.27,828.85,1396.12,829.92z"/>
	<path class="st1" d="M601.89,689.45c0.33,5.33,0.14,10.39,0.15,15.54c-2.9,1.29-5.79,0.55-8.59,0.64c-2.68,0.08-5.39,0.27-8-0.21
		c-0.85-3.52-0.93-11.06-0.19-15.66C588.49,688.93,595.21,688.78,601.89,689.45z"/>
	<path class="st1" d="M1380.52,705.6c-0.21-5.75-0.1-10.8-0.1-16.12c5.75-0.74,11.11-0.29,16.38-0.34
		c1.08,3.11,1.26,8.69,0.56,16.05c-2.66,0.98-5.54,0.34-8.33,0.45C1386.36,705.74,1383.67,705.62,1380.52,705.6z"/>
	<path class="st1" d="M1278.63,689.26c5.48,0,10.71,0,15.88,0c1.06,3.12,1.24,8.41,0.59,15.83c-2.68,1.19-5.57,0.46-8.37,0.54
		c-2.68,0.07-5.39,0.3-8.02-0.24C1277.86,701.85,1277.79,694.1,1278.63,689.26z"/>
	<path class="st0" d="M2312.97,9.64c18.27,0.08,33.16,15.09,33.18,33.39c0.02,17.31-13.72,33.5-33.65,33.39
		c-18.78-0.11-33.21-15.11-33.16-33.37C2279.41,23.08,2295.74,9.43,2312.97,9.64z M2333.58,63.81c-1.79-4.38-3.74-7.83-5.44-11.4
		c-1.65-3.48-3.59-6.72-7.29-8.77c0.75-0.54,1.21-0.98,1.76-1.27c4.39-2.29,5.77-6.11,5.58-10.78c-0.22-5.57-2.76-8.98-8.19-10.34
		c-2.45-0.61-5.03-0.92-7.56-1c-4.94-0.15-9.9-0.06-14.85-0.03c-0.91,0-1.82,0.17-2.84,0.27c-0.13,0.88-0.3,1.49-0.3,2.09
		c-0.01,13.09-0.01,26.18,0.02,39.27c0,0.58,0.27,1.16,0.45,1.88c3.63,0.27,7.05,0.74,10.53-0.39c0.7-5.33-0.38-10.61,0.67-15.73
		c5.05-0.97,8.3,0.9,10.33,5.21c1.29,2.74,2.64,5.46,4.02,8.16c0.49,0.97,1.13,1.87,1.73,2.82
		C2325.84,63.81,2329.31,63.81,2333.58,63.81z"/>
	<path class="st0" d="M1516.19,318.74c0.16,18.12-3.53,37.49-11.98,55.78c-13.87,30-36.27,50.66-67.92,60.87
		c-14.16,4.57-28.77,6.18-43.57,5.39c-41.4-2.19-73.02-21.21-95.01-56.18c-10.38-16.5-16.22-34.68-18.26-54.07
		c-2.18-20.78-0.54-41.21,6.02-61.12c7.34-22.27,19.7-41.16,38.22-55.77c14.35-11.31,30.65-18.29,48.56-21.69
		c12.04-2.29,24.19-2.87,36.32-1.62c33.73,3.47,61.08,18.71,81.7,45.69c12.36,16.18,20.06,34.47,23.71,54.47
		C1515.8,300.55,1516.24,306.55,1516.19,318.74z"/>
	<path class="st0" d="M836.11,358.66c0.09,1.06,0.2,1.69,0.2,2.32c0,7.52,0.12,15.04-0.04,22.55c-0.45,20.97-8.73,38.38-24.2,52.42
		c-9.01,8.17-19.48,13.92-30.87,18c-11.05,3.95-22.46,6.17-34.17,7c-7.84,0.56-15.66,0.64-23.47-0.14
		c-9.93-0.99-19.52-3.28-28.56-7.62c-6.11-2.93-11.64-6.69-16.35-11.58c-8.08-8.39-12.56-18.43-13.41-30.02
		c-0.58-7.84-0.35-15.64,1.72-23.32c2.93-10.86,8.72-19.83,17.3-27.02c8.49-7.11,18.37-11.53,28.91-14.54
		c10.35-2.96,20.96-4.43,31.68-4.85c9.43-0.37,18.85-0.2,28.28,0.65c15.19,1.37,30.05,4.24,44.56,8.89
		C823.9,353.39,830.05,355.62,836.11,358.66z"/>
	<path class="st0" d="M834.75,800.95c-8.2,11.28-22.82,18.52-36.3,17.94c-4.86-0.21-9.45-1.5-13.7-3.89
		c-12.23-6.89-16.61-22.14-9.86-34.45c0.76-1.39,1.66-2.74,2.65-3.98c5.39-6.68,12.53-10.69,20.29-13.53
		C801.09,765.5,831.98,797.29,834.75,800.95z"/>
	<path class="st0" d="M804.09,747.84c-4.06-4.27-8.05-8.8-10.89-14.21c-2.71-5.15-3.31-10.66-2.02-16.27
		c1.32-5.76,4.79-10.01,10.09-12.66c5.06-2.54,10.45-2.95,15.85-1.58c9.42,2.38,15.19,11.38,13.89,21.19
		c-0.61,4.57-2.46,8.53-5.59,11.92C820.67,741.35,811.24,746.56,804.09,747.84z"/>
	<path class="st0" d="M1018.82,779.55c0.05,5.25-0.65,10.29-2.3,15.18c-7.52,22.18-31.13,28.83-48.26,20.77
		c-12-5.65-19.03-15.28-21.56-28.15c-1.84-9.35-0.84-18.51,3.58-27.04c6.44-12.43,16.69-19.79,30.69-20.68
		c12.87-0.82,23.33,4.47,30.8,15.1C1017.01,762.17,1019,770.63,1018.82,779.55z"/>
	<path class="st0" d="M89.99,783.27c0.72,4.09,0.73,11.72-0.02,14.85c-1.48,6.15-4.9,11.02-9.92,14.79
		c-5.09,3.83-10.9,5.99-17.16,6.79c-5.24,0.67-10.5,0.69-15.67-0.79c-3.89-1.11-7.45-2.83-10.43-5.6
		c-8.55-7.95-7.87-21.42,1.44-28.45c3.91-2.95,8.42-4.56,13.2-5.24c3.62-0.51,7.3-0.81,10.96-0.78c8.81,0.08,17.47,1.37,25.97,3.71
		C88.95,782.71,89.5,783.05,89.99,783.27z"/>
	<path class="st0" d="M2012.93,772.56c0.39-2.11,0.67-3.99,1.1-5.83c1.5-6.32,4.21-12.1,8.53-16.97c9.1-10.25,20.42-13.18,33.46-9.5
		c2.71,0.76,5.34,2.18,7.7,3.77c8.46,5.7,14.58,17.9,14.51,28.54c-0.56,0.14-1.16,0.38-1.77,0.42
		C2070.55,773.35,2016.88,773.04,2012.93,772.56z"/>
	<path class="st0" d="M1115.14,783.45c0,3.91,0.24,7.59-0.05,11.22c-0.55,7.03-3.8,12.75-9.2,17.26c-5.3,4.43-11.52,6.84-18.26,7.75
		c-5.39,0.73-10.83,0.72-16.14-0.86c-3.24-0.97-6.23-2.42-8.92-4.49c-9.62-7.39-9.74-23.25,1.39-30.27c3.85-2.43,8.03-3.99,12.5-4.5
		c4.11-0.47,8.28-0.83,12.4-0.7c8.15,0.25,16.2,1.47,24.08,3.65C1113.52,782.68,1114.08,783,1115.14,783.45z"/>
	<path class="st0" d="M227.24,778.62c-0.13-5.83,1.15-12.03,3.89-17.94c11.55-24.95,44.09-28.53,61.45-8.51
		c12.18,14.04,13.28,36.07,2.59,51.26c-14.9,21.19-46.59,20.64-61.12-1.06C229.52,795.61,227.27,787.99,227.24,778.62z"/>
	<path class="st0" d="M1426.42,778.51c-0.14-5.64,1.05-11.4,3.45-16.89c11.47-26.24,44.87-29.5,62.15-9.14
		c11.88,13.99,12.9,35.87,2.36,50.9c-14.77,21.04-46.2,20.78-60.85-0.55C1428.58,795.64,1426.24,787.62,1426.42,778.51z"/>
	<path class="st1" d="M2333.58,63.81c-4.27,0-7.74,0-11.38,0c-0.59-0.96-1.23-1.85-1.73-2.82c-1.38-2.7-2.73-5.41-4.02-8.16
		c-2.03-4.31-5.28-6.18-10.33-5.21c-1.04,5.11,0.04,10.4-0.67,15.73c-3.47,1.13-6.9,0.66-10.53,0.39c-0.18-0.72-0.45-1.3-0.45-1.88
		c-0.03-13.09-0.03-26.18-0.02-39.27c0-0.61,0.17-1.21,0.3-2.09c1.02-0.1,1.93-0.26,2.84-0.27c4.95-0.02,9.9-0.12,14.85,0.03
		c2.53,0.08,5.11,0.38,7.56,1c5.43,1.36,7.97,4.76,8.19,10.34c0.18,4.67-1.2,8.48-5.58,10.78c-0.55,0.29-1.01,0.73-1.76,1.27
		c3.71,2.05,5.64,5.29,7.29,8.77C2329.84,55.98,2331.79,59.43,2333.58,63.81z M2305.91,39.48c2.48,0,4.39,0.07,6.29-0.02
		c2.06-0.09,3.68-0.97,4.44-3.02c0.83-2.24,0.65-4.39-0.82-6.32c-0.37-0.48-0.95-0.87-1.51-1.12c-1.88-0.85-5.5-0.74-8.47,0.23
		C2305.63,32.46,2305.56,35.74,2305.91,39.48z"/>
	<path class="st0" d="M2305.91,39.48c-0.35-3.75-0.28-7.03-0.07-10.25c2.97-0.97,6.58-1.08,8.47-0.23c0.56,0.25,1.15,0.64,1.51,1.12
		c1.47,1.93,1.65,4.08,0.82,6.32c-0.76,2.05-2.38,2.93-4.44,3.02C2310.3,39.55,2308.39,39.48,2305.91,39.48z"/>
</g>
</svg>
