<?xml version="1.0" encoding="utf-8"?>
<!-- Generator: Adobe Illustrator 23.0.1, SVG Export Plug-In . SVG Version: 6.00 Build 0)  -->
<svg version="1.1" id="Layer_1" xmlns="http://www.w3.org/2000/svg" xmlns:xlink="http://www.w3.org/1999/xlink" x="0px" y="0px"
	 viewBox="0 0 170 85" style="enable-background:new 0 0 170 85;" xml:space="preserve">
<style type="text/css">
	.st0{fill:#120C14;}
</style>
<g>
	<path class="st0" d="M22.2,35.87h13.98V25.61H22.2V9.79l-11.39,6.63v43.28c0,1.54,0.2,5.45,3.56,9.13c2.08,2.28,4.9,3.91,8.43,4.88
		c2.55,0.7,5.45,1.05,8.72,1.05h2.44V63.02l-2.44-0.11c-6.4,0-8.44-2.36-8.72-2.88c-0.36-0.65-0.6-1.39-0.6-2.19V35.87z"/>
	<path class="st0" d="M55.52,35.23v-9.63H44.12v49.16h11.39V42.61c0-0.72,0.9-2.65,1.11-2.94c0.38-0.67,0.85-1.3,1.41-1.86
		c2.96-2.97,7.9-3.73,11.25-1.48V24.66C55.6,24.66,55.52,35.23,55.52,35.23"/>
	<path class="st0" d="M99.99,25.61v30.14v2.23c0,3.61-2.93,6.54-6.54,6.54c-3.61,0-6.53-2.93-6.53-6.54v-0.14V35.87V25.61H75.53
		v34.1c0,1.54,0,15.5,12.84,15.5c8.4,0,11.62-8.53,11.62-8.53v7.49h11.39V25.61H99.99z"/>
	<path class="st0" d="M130.75,36.12c0.08-0.09,0.17-0.18,0.26-0.26c3.02-3.22,7.06-2.71,7.06-2.71s4.04-0.52,7.06,2.71
		c0.09,0.09,0.17,0.17,0.25,0.26c0.23,0.25,0.43,0.5,0.6,0.76c1.91,2.52,1.95,5.4,2.09,7.86h-20.02c0.13-2.49,0.16-5.3,2.1-7.86
		C130.32,36.63,130.52,36.38,130.75,36.12 M159.19,47.19c0.06-4.97-0.92-10.54-4.76-15.62c-0.35-0.51-0.76-1.02-1.22-1.53
		c-0.16-0.18-0.34-0.36-0.51-0.53c-6.09-6.49-22.37-6.49-28.46,0c-0.18,0.17-0.35,0.35-0.51,0.53c-0.46,0.51-0.87,1.02-1.22,1.53
		c-4.53,5.98-5.36,12.67-5.37,18.21h0v0.09v0.05l0.03,1.59c0.02,0.54,0.17,1.65,0.17,1.65c0.44,4.53,1.75,9.45,5.17,13.97
		c0.36,0.51,0.76,1.02,1.22,1.52c0.17,0.18,0.34,0.36,0.51,0.53c7.97,7.94,23.96,7.66,31.36,0.29c0.17-0.18-6.68-7.23-6.68-7.23
		c-0.08,0.1-0.18,0.18-0.27,0.28c-4.51,4.49-13.54,4.04-17.89-0.29c-0.09-0.09-0.18-0.18-0.27-0.28c-0.24-0.27-0.45-0.54-0.64-0.8
		c-1.96-2.59-2.07-5.43-2.23-7.99h31.1C158.71,53.16,159.17,48.69,159.19,47.19"/>
</g>
</svg>
