<svg width="160" height="160" viewBox="0 0 160 160" fill="none" xmlns="http://www.w3.org/2000/svg">
<path d="M18.2074 71.5835C13.8581 71.5835 9.99434 73.692 7.58621 76.9366V63H5V84.7542C5 92.0169 10.9246 97.9252 18.2074 97.9252C25.4898 97.9252 31.4148 92.0169 31.4148 84.7542C31.4148 77.4919 25.4898 71.5835 18.2074 71.5835ZM18.2074 95.3463C12.3507 95.3463 7.58621 90.5947 7.58621 84.7542C7.58621 78.9136 12.3507 74.1624 18.2074 74.1624C24.064 74.1624 28.8286 78.9136 28.8286 84.7542C28.8286 90.5947 24.0637 95.3463 18.2074 95.3463Z" fill="white"/>
<path d="M48.2646 71.5835C40.9815 71.5835 35.0565 77.4918 35.0565 84.7542C35.0565 92.0168 40.9815 97.9252 48.2646 97.9252C52.6139 97.9252 56.4784 95.8167 58.8866 92.5721V97.1957H61.4728V84.7542C61.4728 77.4918 55.5474 71.5835 48.2646 71.5835ZM48.2646 95.3463C42.4073 95.3463 37.6427 90.5947 37.6427 84.7542C37.6427 78.9136 42.4073 74.1624 48.2646 74.1624C54.1217 74.1624 58.8866 78.9136 58.8866 84.7542C58.8866 90.5947 54.1217 95.3463 48.2646 95.3463Z" fill="white"/>
<path d="M141.714 71.5835C134.431 71.5835 128.507 77.4918 128.507 84.7542C128.507 92.0168 134.431 97.9252 141.714 97.9252C146.064 97.9252 149.928 95.8167 152.336 92.5721V97.1957H154.922V84.7542C154.922 77.4918 148.997 71.5835 141.714 71.5835ZM141.714 95.3463C135.857 95.3463 131.093 90.5947 131.093 84.7542C131.093 78.9136 135.857 74.1624 141.714 74.1624C147.571 74.1624 152.336 78.9136 152.336 84.7542C152.336 90.5947 147.571 95.3463 141.714 95.3463Z" fill="white"/>
<path d="M69.1701 63.8772H66.5839V97.1954H69.1701V63.8772Z" fill="white"/>
<path d="M111.504 71.5835C106.26 71.5835 101.721 74.6473 99.5898 79.0742C97.4587 74.6473 92.9192 71.5835 87.6747 71.5835C80.392 71.5835 74.4673 77.4918 74.4673 84.7542V97.1954H77.0536V84.7542C77.0536 78.9136 81.8181 74.1624 87.6747 74.1624C93.5318 74.1624 98.2967 78.9136 98.2967 84.7542V97.1954H100.883V84.7542C100.883 78.9136 105.647 74.1624 111.504 74.1624C117.361 74.1624 122.125 78.9136 122.125 84.7542V97.1954H124.711V84.7542C124.711 77.4918 118.787 71.5835 111.504 71.5835Z" fill="white"/>
</svg>
