<svg width="160" height="160" viewBox="0 0 160 160" fill="none" xmlns="http://www.w3.org/2000/svg">
<path d="M18.2074 40.5835C13.8581 40.5835 9.99434 42.692 7.58621 45.9366V32H5V53.7542C5 61.0169 10.9246 66.9252 18.2074 66.9252C25.4898 66.9252 31.4148 61.0169 31.4148 53.7542C31.4148 46.4919 25.4898 40.5835 18.2074 40.5835ZM18.2074 64.3463C12.3507 64.3463 7.58621 59.5947 7.58621 53.7542C7.58621 47.9136 12.3507 43.1624 18.2074 43.1624C24.064 43.1624 28.8286 47.9136 28.8286 53.7542C28.8286 59.5947 24.0637 64.3463 18.2074 64.3463Z" fill="white"/>
<path d="M48.2081 41C40.925 41 35 46.9083 35 54.1707C35 61.4333 40.925 67.3417 48.2081 67.3417C52.5574 67.3417 56.4219 65.2332 58.8301 61.9886V66.6122H61.4163V54.1707C61.4163 46.9083 55.4909 41 48.2081 41ZM48.2081 64.7628C42.3508 64.7628 37.5862 60.0112 37.5862 54.1707C37.5862 48.3301 42.3508 43.5789 48.2081 43.5789C54.0652 43.5789 58.8301 48.3301 58.8301 54.1707C58.8301 60.0112 54.0652 64.7628 48.2081 64.7628Z" fill="white"/>
<path d="M141.714 40.5835C134.431 40.5835 128.507 46.4918 128.507 53.7542C128.507 61.0168 134.431 66.9252 141.714 66.9252C146.064 66.9252 149.928 64.8167 152.336 61.5721V66.1957H154.922V53.7542C154.922 46.4918 148.997 40.5835 141.714 40.5835ZM141.714 64.3463C135.857 64.3463 131.093 59.5947 131.093 53.7542C131.093 47.9136 135.857 43.1624 141.714 43.1624C147.571 43.1624 152.336 47.9136 152.336 53.7542C152.336 59.5947 147.571 64.3463 141.714 64.3463Z" fill="white"/>
<path d="M69.1701 32.8772H66.5839V66.1954H69.1701V32.8772Z" fill="white"/>
<path d="M111.447 41C106.203 41 101.664 44.0638 99.5333 48.4907C97.4022 44.0638 92.8627 41 87.6182 41C80.3355 41 74.4108 46.9083 74.4108 54.1707V66.6119H76.9971V54.1707C76.9971 48.3301 81.7616 43.5789 87.6182 43.5789C93.4753 43.5789 98.2402 48.3301 98.2402 54.1707V66.6119H100.826V54.1707C100.826 48.3301 105.59 43.5789 111.447 43.5789C117.304 43.5789 122.068 48.3301 122.068 54.1707V66.6119H124.654V54.1707C124.654 46.9083 118.73 41 111.447 41Z" fill="white"/>
<path d="M6.99935 99.4H14.9374V101.272H8.94335V104.602H13.9474V106.474H8.94335V110.128H14.9374V112H6.99935V99.4ZM18.4223 102.55L21.1763 109.3L24.0383 102.55H25.9463L21.7523 112H20.4203L16.4243 102.55H18.4223ZM35.497 110.758H35.479C35.095 111.13 34.567 111.46 33.895 111.748C33.223 112.036 32.521 112.18 31.789 112.18C30.805 112.18 29.935 111.976 29.179 111.568C28.435 111.148 27.853 110.578 27.433 109.858C27.013 109.126 26.803 108.298 26.803 107.374C26.803 106.318 27.025 105.418 27.469 104.674C27.913 103.918 28.501 103.342 29.233 102.946C29.965 102.538 30.763 102.334 31.627 102.334C32.419 102.334 33.139 102.532 33.787 102.928C34.435 103.312 34.951 103.846 35.335 104.53C35.719 105.214 35.911 106.012 35.911 106.924L35.893 107.716H28.657C28.765 108.568 29.113 109.246 29.701 109.75C30.301 110.242 31.057 110.488 31.969 110.488C32.629 110.488 33.163 110.368 33.571 110.128C33.979 109.876 34.315 109.636 34.579 109.408L35.497 110.758ZM31.627 104.044C30.919 104.044 30.301 104.212 29.773 104.548C29.245 104.872 28.897 105.436 28.729 106.24H34.021V106.114C33.985 105.706 33.847 105.346 33.607 105.034C33.379 104.722 33.091 104.482 32.743 104.314C32.395 104.134 32.023 104.044 31.627 104.044ZM43.2179 104.548C43.0979 104.488 42.9479 104.44 42.7679 104.404C42.5999 104.356 42.4199 104.332 42.2279 104.332C41.8439 104.332 41.4659 104.434 41.0939 104.638C40.7219 104.83 40.4099 105.112 40.1579 105.484C39.9179 105.844 39.7979 106.276 39.7979 106.78V112H37.9259V102.55H39.7979V104.332C40.0619 103.756 40.4579 103.282 40.9859 102.91C41.5259 102.538 42.0899 102.352 42.6779 102.352C43.1219 102.352 43.4639 102.412 43.7039 102.532L43.2179 104.548ZM46.7696 116.14L48.3176 112.594L48.3716 112.468L43.9796 102.55H46.1396L49.0916 109.498C49.1276 109.57 49.1636 109.66 49.1996 109.768C49.2356 109.876 49.2776 109.996 49.3256 110.128C49.3736 109.996 49.4156 109.87 49.4516 109.75C49.4996 109.618 49.5476 109.492 49.5956 109.372L52.0616 102.55H54.2576L50.3696 112L48.7676 116.14H46.7696ZM58.6686 112H56.8146V104.35H54.8526V102.55H56.8146V100.138H58.6686V102.55H60.8646V104.35H58.6686V112ZM67.5028 102.352C68.3548 102.352 69.0148 102.526 69.4828 102.874C69.9508 103.222 70.2748 103.69 70.4548 104.278C70.6468 104.866 70.7428 105.52 70.7428 106.24V112H68.8888V106.366C68.8888 105.91 68.8288 105.502 68.7088 105.142C68.5888 104.782 68.3848 104.5 68.0968 104.296C67.8088 104.092 67.4068 104.008 66.8908 104.044C66.4108 104.044 65.9848 104.146 65.6128 104.35C65.2408 104.554 64.9468 104.824 64.7308 105.16C64.5148 105.496 64.4068 105.868 64.4068 106.276V112H62.5528V98.68H64.4068V104.044C64.6948 103.6 65.1148 103.21 65.6668 102.874C66.2188 102.526 66.8308 102.352 67.5028 102.352ZM74.4999 100.498C74.0799 100.498 73.7679 100.39 73.5639 100.174C73.3599 99.958 73.2579 99.676 73.2579 99.328C73.2579 99.028 73.3599 98.758 73.5639 98.518C73.7679 98.278 74.0799 98.158 74.4999 98.158C74.9199 98.158 75.2319 98.266 75.4359 98.482C75.6399 98.698 75.7419 98.98 75.7419 99.328C75.7419 99.628 75.6399 99.898 75.4359 100.138C75.2319 100.378 74.9199 100.498 74.4999 100.498ZM75.4539 112H73.5999V102.55H75.4539V112ZM83.2177 102.352C84.0697 102.352 84.7297 102.526 85.1977 102.874C85.6657 103.222 85.9897 103.69 86.1697 104.278C86.3617 104.866 86.4577 105.52 86.4577 106.24V112H84.6037V106.366C84.6037 105.91 84.5437 105.502 84.4237 105.142C84.3037 104.782 84.0997 104.5 83.8117 104.296C83.5237 104.092 83.1217 104.008 82.6057 104.044C82.1257 104.044 81.6997 104.146 81.3277 104.35C80.9557 104.554 80.6617 104.824 80.4457 105.16C80.2297 105.496 80.1217 105.868 80.1217 106.276V112H78.2677V102.55H80.1217V104.044C80.4097 103.6 80.8297 103.21 81.3817 102.874C81.9337 102.526 82.5457 102.352 83.2177 102.352ZM90.2688 113.566C90.6288 113.842 91.0788 114.064 91.6188 114.232C92.1588 114.4 92.6868 114.484 93.2028 114.484C94.1748 114.484 94.9188 114.244 95.4348 113.764C95.9508 113.296 96.2088 112.588 96.2088 111.64V110.488C96.0408 110.776 95.8008 111.052 95.4888 111.316C95.1768 111.568 94.8108 111.778 94.3908 111.946C93.9708 112.102 93.5328 112.18 93.0768 112.18C92.2008 112.18 91.4088 111.97 90.7008 111.55C89.9928 111.13 89.4288 110.548 89.0088 109.804C88.6008 109.06 88.3968 108.214 88.3968 107.266C88.3968 106.306 88.6008 105.46 89.0088 104.728C89.4168 103.984 89.9688 103.402 90.6648 102.982C91.3728 102.562 92.1588 102.352 93.0228 102.352C93.7428 102.352 94.3788 102.514 94.9308 102.838C95.4948 103.15 95.9208 103.492 96.2088 103.864V102.55H98.0628V111.424C98.0628 112.552 97.8348 113.458 97.3788 114.142C96.9348 114.838 96.3408 115.342 95.5968 115.654C94.8648 115.978 94.0668 116.14 93.2028 116.14C92.5308 116.14 91.8588 116.032 91.1868 115.816C90.5268 115.612 89.9928 115.342 89.5848 115.006L90.2688 113.566ZM93.2748 104.044C92.6988 104.044 92.1828 104.188 91.7268 104.476C91.2828 104.752 90.9288 105.136 90.6648 105.628C90.4128 106.108 90.2868 106.654 90.2868 107.266C90.2868 107.878 90.4128 108.424 90.6648 108.904C90.9288 109.384 91.2828 109.768 91.7268 110.056C92.1828 110.332 92.6988 110.47 93.2748 110.47C93.8748 110.47 94.3968 110.332 94.8408 110.056C95.2968 109.78 95.6508 109.402 95.9028 108.922C96.1548 108.43 96.2808 107.878 96.2808 107.266C96.2808 106.642 96.1548 106.09 95.9028 105.61C95.6508 105.13 95.2968 104.752 94.8408 104.476C94.3968 104.188 93.8748 104.044 93.2748 104.044ZM111.161 105.034C110.825 104.698 110.441 104.422 110.009 104.206C109.589 103.99 109.199 103.882 108.839 103.882C108.587 103.882 108.335 103.912 108.083 103.972C107.843 104.032 107.639 104.146 107.471 104.314C107.303 104.47 107.219 104.704 107.219 105.016C107.231 105.448 107.423 105.754 107.795 105.934C108.179 106.114 108.653 106.276 109.217 106.42C109.709 106.552 110.189 106.72 110.657 106.924C111.125 107.116 111.509 107.404 111.809 107.788C112.121 108.16 112.277 108.688 112.277 109.372C112.277 109.96 112.109 110.464 111.773 110.884C111.449 111.304 111.023 111.628 110.495 111.856C109.979 112.072 109.433 112.18 108.857 112.18C108.173 112.18 107.495 112.06 106.823 111.82C106.163 111.568 105.599 111.142 105.131 110.542L106.391 109.462C106.715 109.834 107.081 110.128 107.489 110.344C107.909 110.548 108.419 110.65 109.019 110.65C109.247 110.65 109.475 110.614 109.703 110.542C109.931 110.458 110.123 110.332 110.279 110.164C110.447 109.984 110.531 109.744 110.531 109.444C110.531 109.156 110.441 108.934 110.261 108.778C110.093 108.61 109.865 108.478 109.577 108.382C109.289 108.274 108.971 108.178 108.623 108.094C108.107 107.95 107.597 107.776 107.093 107.572C106.601 107.356 106.187 107.056 105.851 106.672C105.527 106.276 105.365 105.742 105.365 105.07C105.365 104.506 105.521 104.026 105.833 103.63C106.157 103.222 106.577 102.91 107.093 102.694C107.609 102.466 108.161 102.352 108.749 102.352C109.313 102.352 109.925 102.472 110.585 102.712C111.245 102.952 111.791 103.336 112.223 103.864L111.161 105.034ZM117.344 112H115.49V104.35H113.528V102.55H115.49V100.138H117.344V102.55H119.54V104.35H117.344V112ZM129.943 102.55V112H128.071V110.542C127.783 110.938 127.357 111.31 126.793 111.658C126.229 112.006 125.575 112.18 124.831 112.18C124.039 112.18 123.313 111.97 122.653 111.55C122.005 111.13 121.489 110.548 121.105 109.804C120.721 109.06 120.529 108.208 120.529 107.248C120.529 106.288 120.727 105.442 121.123 104.71C121.519 103.966 122.065 103.39 122.761 102.982C123.457 102.562 124.249 102.352 125.137 102.352C125.797 102.352 126.373 102.496 126.865 102.784C127.369 103.072 127.771 103.408 128.071 103.792V102.55H129.943ZM125.263 110.47C125.839 110.47 126.343 110.332 126.775 110.056C127.207 109.768 127.543 109.384 127.783 108.904C128.023 108.412 128.143 107.86 128.143 107.248C128.143 106.648 128.023 106.108 127.783 105.628C127.543 105.148 127.207 104.77 126.775 104.494C126.343 104.206 125.839 104.062 125.263 104.062C124.711 104.062 124.219 104.2 123.787 104.476C123.355 104.752 123.019 105.13 122.779 105.61C122.539 106.09 122.419 106.636 122.419 107.248C122.419 107.86 122.539 108.412 122.779 108.904C123.019 109.384 123.355 109.768 123.787 110.056C124.219 110.332 124.711 110.47 125.263 110.47ZM137.823 104.548C137.703 104.488 137.553 104.44 137.373 104.404C137.205 104.356 137.025 104.332 136.833 104.332C136.449 104.332 136.071 104.434 135.699 104.638C135.327 104.83 135.015 105.112 134.763 105.484C134.523 105.844 134.403 106.276 134.403 106.78V112H132.531V102.55H134.403V104.332C134.667 103.756 135.063 103.282 135.591 102.91C136.131 102.538 136.695 102.352 137.283 102.352C137.727 102.352 138.069 102.412 138.309 102.532L137.823 104.548ZM143.167 112H141.313V104.35H139.351V102.55H141.313V100.138H143.167V102.55H145.363V104.35H143.167V112ZM152.856 105.034C152.52 104.698 152.136 104.422 151.704 104.206C151.284 103.99 150.894 103.882 150.534 103.882C150.282 103.882 150.03 103.912 149.778 103.972C149.538 104.032 149.334 104.146 149.166 104.314C148.998 104.47 148.914 104.704 148.914 105.016C148.926 105.448 149.118 105.754 149.49 105.934C149.874 106.114 150.348 106.276 150.912 106.42C151.404 106.552 151.884 106.72 152.352 106.924C152.82 107.116 153.204 107.404 153.504 107.788C153.816 108.16 153.972 108.688 153.972 109.372C153.972 109.96 153.804 110.464 153.468 110.884C153.144 111.304 152.718 111.628 152.19 111.856C151.674 112.072 151.128 112.18 150.552 112.18C149.868 112.18 149.19 112.06 148.518 111.82C147.858 111.568 147.294 111.142 146.826 110.542L148.086 109.462C148.41 109.834 148.776 110.128 149.184 110.344C149.604 110.548 150.114 110.65 150.714 110.65C150.942 110.65 151.17 110.614 151.398 110.542C151.626 110.458 151.818 110.332 151.974 110.164C152.142 109.984 152.226 109.744 152.226 109.444C152.226 109.156 152.136 108.934 151.956 108.778C151.788 108.61 151.56 108.478 151.272 108.382C150.984 108.274 150.666 108.178 150.318 108.094C149.802 107.95 149.292 107.776 148.788 107.572C148.296 107.356 147.882 107.056 147.546 106.672C147.222 106.276 147.06 105.742 147.06 105.07C147.06 104.506 147.216 104.026 147.528 103.63C147.852 103.222 148.272 102.91 148.788 102.694C149.304 102.466 149.856 102.352 150.444 102.352C151.008 102.352 151.62 102.472 152.28 102.712C152.94 102.952 153.486 103.336 153.918 103.864L152.856 105.034ZM33.2177 123.498C32.7977 123.498 32.4857 123.39 32.2817 123.174C32.0777 122.958 31.9757 122.676 31.9757 122.328C31.9757 122.028 32.0777 121.758 32.2817 121.518C32.4857 121.278 32.7977 121.158 33.2177 121.158C33.6377 121.158 33.9497 121.266 34.1537 121.482C34.3577 121.698 34.4597 121.98 34.4597 122.328C34.4597 122.628 34.3577 122.898 34.1537 123.138C33.9497 123.378 33.6377 123.498 33.2177 123.498ZM34.1717 135H32.3177V125.55H34.1717V135ZM41.9355 125.352C42.7875 125.352 43.4475 125.526 43.9155 125.874C44.3835 126.222 44.7075 126.69 44.8875 127.278C45.0795 127.866 45.1755 128.52 45.1755 129.24V135H43.3215V129.366C43.3215 128.91 43.2615 128.502 43.1415 128.142C43.0215 127.782 42.8175 127.5 42.5295 127.296C42.2415 127.092 41.8395 127.008 41.3235 127.044C40.8435 127.044 40.4175 127.146 40.0455 127.35C39.6735 127.554 39.3795 127.824 39.1635 128.16C38.9475 128.496 38.8395 128.868 38.8395 129.276V135H36.9855V125.55H38.8395V127.044C39.1275 126.6 39.5475 126.21 40.0995 125.874C40.6515 125.526 41.2635 125.352 41.9355 125.352ZM55.7595 135H53.9055V127.35H51.9435V125.55H53.9055V123.138H55.7595V125.55H57.9555V127.35H55.7595V135ZM64.5937 125.352C65.4457 125.352 66.1057 125.526 66.5737 125.874C67.0417 126.222 67.3657 126.69 67.5457 127.278C67.7377 127.866 67.8337 128.52 67.8337 129.24V135H65.9797V129.366C65.9797 128.91 65.9197 128.502 65.7997 128.142C65.6797 127.782 65.4757 127.5 65.1877 127.296C64.8997 127.092 64.4977 127.008 63.9817 127.044C63.5017 127.044 63.0757 127.146 62.7037 127.35C62.3317 127.554 62.0377 127.824 61.8217 128.16C61.6057 128.496 61.4977 128.868 61.4977 129.276V135H59.6437V121.68H61.4977V127.044C61.7857 126.6 62.2057 126.21 62.7577 125.874C63.3097 125.526 63.9217 125.352 64.5937 125.352ZM78.4667 133.758H78.4487C78.0647 134.13 77.5367 134.46 76.8647 134.748C76.1927 135.036 75.4907 135.18 74.7587 135.18C73.7747 135.18 72.9047 134.976 72.1487 134.568C71.4047 134.148 70.8227 133.578 70.4027 132.858C69.9827 132.126 69.7727 131.298 69.7727 130.374C69.7727 129.318 69.9947 128.418 70.4387 127.674C70.8827 126.918 71.4707 126.342 72.2027 125.946C72.9347 125.538 73.7327 125.334 74.5967 125.334C75.3887 125.334 76.1087 125.532 76.7567 125.928C77.4047 126.312 77.9207 126.846 78.3047 127.53C78.6887 128.214 78.8807 129.012 78.8807 129.924L78.8627 130.716H71.6267C71.7347 131.568 72.0827 132.246 72.6707 132.75C73.2707 133.242 74.0267 133.488 74.9387 133.488C75.5987 133.488 76.1327 133.368 76.5407 133.128C76.9487 132.876 77.2847 132.636 77.5487 132.408L78.4667 133.758ZM74.5967 127.044C73.8887 127.044 73.2707 127.212 72.7427 127.548C72.2147 127.872 71.8667 128.436 71.6987 129.24H76.9907V129.114C76.9547 128.706 76.8167 128.346 76.5767 128.034C76.3487 127.722 76.0607 127.482 75.7127 127.314C75.3647 127.134 74.9927 127.044 74.5967 127.044ZM94.9945 130.266C94.9945 131.226 94.7785 132.078 94.3465 132.822C93.9265 133.554 93.3505 134.13 92.6185 134.55C91.8985 134.97 91.0885 135.18 90.1885 135.18C89.2885 135.18 88.4725 134.97 87.7405 134.55C87.0085 134.13 86.4265 133.554 85.9945 132.822C85.5745 132.078 85.3645 131.226 85.3645 130.266C85.3645 129.306 85.5745 128.46 85.9945 127.728C86.4265 126.984 87.0085 126.402 87.7405 125.982C88.4725 125.562 89.2885 125.352 90.1885 125.352C91.0885 125.352 91.8985 125.562 92.6185 125.982C93.3505 126.402 93.9265 126.984 94.3465 127.728C94.7785 128.46 94.9945 129.306 94.9945 130.266ZM93.1045 130.266C93.1165 129.63 92.9905 129.072 92.7265 128.592C92.4745 128.1 92.1265 127.722 91.6825 127.458C91.2385 127.182 90.7405 127.044 90.1885 127.044C89.6365 127.044 89.1325 127.182 88.6765 127.458C88.2325 127.722 87.8785 128.1 87.6145 128.592C87.3625 129.072 87.2425 129.63 87.2545 130.266C87.2425 130.89 87.3625 131.448 87.6145 131.94C87.8785 132.42 88.2325 132.798 88.6765 133.074C89.1325 133.35 89.6365 133.488 90.1885 133.488C90.7405 133.488 91.2385 133.35 91.6825 133.074C92.1265 132.798 92.4745 132.42 92.7265 131.94C92.9905 131.448 93.1165 130.89 93.1045 130.266ZM101.793 127.422H99.5612V135H97.6892V127.422H96.1772V125.712H97.6892V124.488C97.6892 123.672 97.9472 123.006 98.4632 122.49C98.9912 121.962 99.6692 121.698 100.497 121.698C100.977 121.698 101.373 121.788 101.685 121.968C102.009 122.148 102.243 122.322 102.387 122.49L101.757 123.912C101.637 123.792 101.481 123.684 101.289 123.588C101.097 123.48 100.905 123.426 100.713 123.426C100.281 123.426 99.9812 123.528 99.8132 123.732C99.6452 123.936 99.5612 124.188 99.5612 124.488V125.712H101.793V127.422ZM108.507 127.422H106.275V135H104.403V127.422H102.891V125.712H104.403V124.488C104.403 123.672 104.661 123.006 105.177 122.49C105.705 121.962 106.383 121.698 107.211 121.698C107.691 121.698 108.087 121.788 108.399 121.968C108.723 122.148 108.957 122.322 109.101 122.49L108.471 123.912C108.351 123.792 108.195 123.684 108.003 123.588C107.811 123.48 107.619 123.426 107.427 123.426C106.995 123.426 106.695 123.528 106.527 123.732C106.359 123.936 106.275 124.188 106.275 124.488V125.712H108.507V127.422ZM111.675 123.768C111.255 123.768 110.943 123.66 110.739 123.444C110.535 123.228 110.433 122.946 110.433 122.598C110.433 122.298 110.535 122.028 110.739 121.788C110.943 121.548 111.255 121.428 111.675 121.428C112.095 121.428 112.407 121.536 112.611 121.752C112.815 121.968 112.917 122.25 112.917 122.598C112.917 122.898 112.815 123.168 112.611 123.408C112.407 123.648 112.095 123.768 111.675 123.768ZM112.629 135.27H110.775V125.82H112.629V135.27ZM116.625 130.266C116.625 130.89 116.763 131.448 117.039 131.94C117.327 132.42 117.699 132.804 118.155 133.092C118.623 133.368 119.121 133.506 119.649 133.506C120.249 133.506 120.771 133.35 121.215 133.038C121.659 132.726 122.019 132.402 122.295 132.066L123.321 133.326C123.093 133.65 122.781 133.956 122.385 134.244C121.989 134.52 121.539 134.748 121.035 134.928C120.531 135.096 120.003 135.18 119.451 135.18C118.587 135.18 117.807 134.964 117.111 134.532C116.415 134.1 115.863 133.512 115.455 132.768C115.059 132.024 114.861 131.19 114.861 130.266C114.861 129.33 115.059 128.496 115.455 127.764C115.863 127.02 116.415 126.432 117.111 126C117.807 125.568 118.587 125.352 119.451 125.352C120.327 125.352 121.107 125.532 121.791 125.892C122.475 126.24 122.985 126.696 123.321 127.26L122.295 128.52C122.019 128.112 121.623 127.764 121.107 127.476C120.603 127.176 120.111 127.026 119.631 127.026C119.067 127.026 118.557 127.17 118.101 127.458C117.645 127.734 117.285 128.118 117.021 128.61C116.757 129.09 116.625 129.642 116.625 130.266ZM133.187 133.758H133.169C132.785 134.13 132.257 134.46 131.585 134.748C130.913 135.036 130.211 135.18 129.479 135.18C128.495 135.18 127.625 134.976 126.869 134.568C126.125 134.148 125.543 133.578 125.123 132.858C124.703 132.126 124.493 131.298 124.493 130.374C124.493 129.318 124.715 128.418 125.159 127.674C125.603 126.918 126.191 126.342 126.923 125.946C127.655 125.538 128.453 125.334 129.317 125.334C130.109 125.334 130.829 125.532 131.477 125.928C132.125 126.312 132.641 126.846 133.025 127.53C133.409 128.214 133.601 129.012 133.601 129.924L133.583 130.716H126.347C126.455 131.568 126.803 132.246 127.391 132.75C127.991 133.242 128.747 133.488 129.659 133.488C130.319 133.488 130.853 133.368 131.261 133.128C131.669 132.876 132.005 132.636 132.269 132.408L133.187 133.758ZM129.317 127.044C128.609 127.044 127.991 127.212 127.463 127.548C126.935 127.872 126.587 128.436 126.419 129.24H131.711V129.114C131.675 128.706 131.537 128.346 131.297 128.034C131.069 127.722 130.781 127.482 130.433 127.314C130.085 127.134 129.713 127.044 129.317 127.044Z" fill="white"/>
</svg>
