<?xml version="1.0" encoding="UTF-8"?> <svg xmlns:xlink="http://www.w3.org/1999/xlink" xmlns="http://www.w3.org/2000/svg" version="1.1" viewBox="0.0 0.0 1759.706036745407 359.33858267716533" fill="none" stroke="none" stroke-linecap="square" stroke-miterlimit="10"><clipPath id="p.0"><path d="m0 0l1759.706 0l0 359.3386l-1759.706 0l0 -359.3386z" clip-rule="nonzero"></path></clipPath><g clip-path="url(#p.0)"><path fill="#000000" fill-opacity="0.0" d="m0 0l1759.706 0l0 359.3386l-1759.706 0z" fill-rule="evenodd"></path><path fill="#161616" d="m100.51093 130.08269c11.139854 0 20.264397 2.681778 27.37358 8.045334c7.1091843 5.3635406 10.663795 13.599289 10.663795 24.707245c0 11.139694 -3.5546112 19.43892 -10.663795 24.897675c-7.1091843 5.4587708 -16.233727 8.188156 -27.37358 8.188156l-54.69956 0l0 -65.83841zm6.141197 93.925644c8.981728 0 16.884361 1.4123077 23.707901 4.2368927c6.8235474 2.8246002 12.187195 6.966278 16.090912 12.425034c3.9037018 5.4587555 5.8555603 12.377441 5.8555603 20.756012c0 8.981567 -1.9518585 16.503235 -5.8555603 22.565002c-3.903717 6.0300293 -9.2673645 10.600159 -16.090912 13.710388c-6.8235397 3.1102295 -14.726173 4.665344 -23.707901 4.665344l-60.840755 0l0 -78.35867zm-76.027145 -121.96529c-4.284561 0 -7.9026337 1.4122925 -10.854221 4.2368927c-2.919878 2.8245926 -4.379772 6.4743423 -4.379772 10.949265l0 198.0389c0 4.284485 1.4598942 7.886627 4.379772 10.806427c2.9515877 2.9198303 6.56966 4.3796997 10.854221 4.3796997l76.027145 0c14.630966 0 27.595718 -2.9674072 38.894287 -8.902222c11.330292 -5.9665527 20.15329 -14.107086 26.46907 -24.4216c6.347473 -10.346283 9.52124 -22.24765 9.52124 -35.704132c0 -14.8211975 -3.903717 -26.80191 -11.711136 -35.942154c-7.7756653 -9.171997 -18.106216 -15.3289795 -30.991653 -18.470947c8.98172 -4.4749146 16.043304 -10.552551 21.184769 -18.232895c5.173233 -7.712097 7.7598267 -16.360428 7.7598267 -25.945007c0 -11.869629 -2.8722382 -22.390442 -8.61673 -31.562439c-5.744507 -9.171997 -13.6471405 -16.32869 -23.707901 -21.470085c-10.02906 -5.173126 -21.676735 -7.759697 -34.94297 -7.759697z" fill-rule="evenodd"></path><path fill="#161616" d="m327.51178 102.043045c-4.094116 0 -7.6170044 1.4598999 -10.568573 4.3797073c-2.9198303 2.9198074 -4.3797607 6.52195 -4.3797607 10.80645l0 198.0389c0 4.284485 1.412323 7.886627 4.2369385 10.806427c2.8563843 2.9198303 6.4268494 4.3796997 10.711395 4.3796997l121.06265 0c4.3163147 0 7.934387 -1.4598694 10.854218 -4.3796997c2.9198303 -2.9197998 4.3797607 -6.521942 4.3797607 -10.806427c0 -4.316223 -1.4599304 -7.934265 -4.3797607 -10.854065c-2.9198303 -2.9197998 -6.537903 -4.3796997 -10.854218 -4.3796997l-105.87625 0l0 -182.80513c0 -4.2845 -1.4599609 -7.8866425 -4.3797913 -10.80645c-2.9198303 -2.9198074 -6.5220337 -4.3797073 -10.80661 -4.3797073z" fill-rule="evenodd"></path><path fill="#161616" d="m1031.2462 99.09151c-15.9956665 0 -30.817078 3.0308762 -44.464172 9.092644c-13.647156 6.0300293 -25.596313 14.360992 -35.847534 24.992897c-10.219421 10.631897 -18.217285 23.025192 -23.99353 37.179886c-5.744446 14.122971 -8.616699 29.372604 -8.616699 45.748886c0 16.566727 2.8722534 31.975021 8.616699 46.22496c5.776245 14.21814 13.774109 26.643188 23.99353 37.275085c10.251221 10.631897 22.247986 18.915283 35.990356 24.850067c13.74231 5.9348145 28.516113 8.902252 44.32135 8.902252c13.266235 0 25.881958 -2.142273 37.846924 -6.426758c11.996826 -4.284485 23.263672 -10.616028 33.800415 -18.994598c1.5551758 -1.5550842 2.713623 -3.2530212 3.4753418 -5.0937805c0.79345703 -1.8724976 1.1900635 -3.776703 1.1900635 -5.7126465c0 -4.316223 -1.1741943 -7.680359 -3.5228271 -10.092377c-2.3167725 -2.443756 -5.189087 -3.8084412 -8.616699 -4.0940857c-0.37731934 -0.035247803 -0.7553711 -0.052886963 -1.1342773 -0.052886963c-3.031128 0 -6.1124268 1.128418 -9.2438965 3.3852844c-8.188232 6.0617676 -16.725586 10.8064575 -25.612183 14.234039c-8.854736 3.395874 -18.249023 5.0937805 -28.182861 5.0937805c-11.520691 0 -22.35907 -2.2850647 -32.515015 -6.855194c-10.124268 -4.601837 -19.04248 -10.996857 -26.7547 -19.184998c-7.680481 -8.188141 -13.663025 -17.69339 -17.94757 -28.515701c-4.284546 -10.822311 -6.426819 -22.469803 -6.426819 -34.942444c0 -12.282211 2.142273 -23.834488 6.426819 -34.6568c4.284546 -10.822311 10.26709 -20.327545 17.94757 -28.515701c7.712219 -8.188141 16.630432 -14.614883 26.7547 -19.280228c10.155945 -4.6970673 20.994324 -7.0456085 32.515015 -7.0456085c12.66333 0 22.850952 1.6661987 30.563232 4.998581c7.712158 3.300644 15.170532 8.061203 22.374878 14.281647c3.1604004 2.47081 6.411865 3.7062073 9.754272 3.7062073c0.34985352 0 0.7005615 -0.013519287 1.0523682 -0.04058838c3.7132568 -0.28562927 6.887085 -1.6503296 9.52124 -4.0940704c2.6342773 -2.443756 3.951294 -5.522232 3.951294 -9.235458c0 -1.7455444 -0.1586914 -3.2530518 -0.47607422 -4.522522c-0.28564453 -1.2694855 -0.87268066 -2.5389557 -1.7613525 -3.8084488c-0.8569336 -1.2694778 -2.0629883 -2.4913483 -3.618042 -3.665619c-10.917725 -8.949837 -21.787842 -15.376579 -32.61035 -19.280228c-10.82251 -3.903656 -23.739624 -5.8554764 -38.751465 -5.8554764z" fill-rule="evenodd"></path><path fill="#161616" d="m1257.0461 102.043045c-4.094116 0 -7.664551 1.4598999 -10.711304 4.3797073c-3.0151367 2.9198074 -4.522583 6.52195 -4.522583 10.80645l0 198.0389c0 4.284485 1.5074463 7.886627 4.522583 10.806427c3.046753 2.9198303 6.6171875 4.3796997 10.711304 4.3796997c4.284668 0 7.886841 -1.4598694 10.806641 -4.3796997c2.9199219 -2.9197998 4.3797607 -6.521942 4.3797607 -10.806427l0 -70.50375l21.0896 -21.089249l73.9801 100.3524c2.9197998 4.284485 7.109131 6.4267273 12.567993 6.4267273c3.9036865 0 7.029907 -1.3170776 9.378418 -3.951233c2.3486328 -2.6341858 3.713379 -5.8554993 4.094116 -9.66394c0.38085938 -3.8084106 -0.58703613 -7.362976 -2.9039307 -10.663605l-76.07471 -103.54198l74.59888 -74.88345c3.1103516 -3.3006516 4.95105 -6.9504013 5.522339 -10.949265c0.60302734 -3.9988632 -0.17456055 -7.458191 -2.3326416 -10.377998c-2.1264648 -2.9198074 -5.633423 -4.3797073 -10.520996 -4.3797073c-2.1264648 0 -4.173462 0.44432068 -6.1412354 1.3329544c-1.9360352 0.85689545 -4.078247 2.4596176 -6.42688 4.8081512l-96.831055 96.78199l0 -87.73694c0 -4.2845 -1.4598389 -7.8866425 -4.3797607 -10.80645c-2.9197998 -2.9198074 -6.5219727 -4.3797073 -10.806641 -4.3797073z" fill-rule="evenodd"></path><path fill="#161616" d="m1628.1957 126.60748c12.695068 0 24.342651 2.2374573 34.942993 6.712372c10.63208 4.4749146 19.851807 10.75885 27.65918 18.851776c7.807495 8.092941 13.805786 17.598175 17.99524 28.515701c4.189331 10.917526 6.2839355 22.723694 6.2839355 35.418488c0 12.663071 -2.0946045 24.45337 -6.2839355 35.370895c-4.189453 10.9175415 -10.187744 20.42276 -17.99524 28.515686c-7.807373 8.092957 -17.0271 14.440338 -27.65918 19.042206c-10.600342 4.5701294 -22.248047 6.855194 -34.942993 6.855194c-12.663208 0 -24.310913 -2.2850647 -34.942993 -6.855194c-10.631958 -4.6018677 -19.8042 -10.949249 -27.516357 -19.042206c-7.68042 -8.092926 -13.662964 -17.598145 -17.94751 -28.515686c-4.284546 -10.917526 -6.42688 -22.707825 -6.42688 -35.370895c0 -12.694794 2.142334 -24.500961 6.42688 -35.418488c4.284546 -10.917526 10.26709 -20.42276 17.94751 -28.515701c7.712158 -8.092926 16.8844 -14.376862 27.516357 -18.851776c10.63208 -4.4749146 22.279785 -6.712372 34.942993 -6.712372zm0 -27.515976c-17.138184 0 -32.832397 2.8880615 -47.08252 8.6642c-14.218384 5.7443924 -26.453247 13.837326 -36.704468 24.278809c-10.219482 10.409729 -18.169678 22.739548 -23.850708 36.98947c-5.649292 14.218185 -8.473877 29.912125 -8.473877 47.081833c0 17.137985 2.824585 32.87953 8.473877 47.224655c5.6810303 14.345154 13.631226 26.738434 23.850708 37.1799c10.251221 10.409729 22.486084 18.486786 36.704468 24.231201c14.250122 5.744385 29.944336 8.616608 47.08252 8.616608c17.170044 0 32.81665 -2.872223 46.939697 -8.616608c14.155029 -5.744385 26.38977 -13.821442 36.704468 -24.231201c10.346436 -10.441467 18.344238 -22.834778 23.99353 -37.1799c5.6810303 -14.345123 8.521484 -30.086685 8.521484 -47.224655c0 -17.169724 -2.840454 -32.863663 -8.521484 -47.081833c-5.649292 -14.249908 -13.647095 -26.579742 -23.99353 -36.98947c-10.314697 -10.441483 -22.549438 -18.534416 -36.704468 -24.278809c-14.123047 -5.7761383 -29.769653 -8.6642 -46.939697 -8.6642z" fill-rule="evenodd"></path><path fill="#161616" d="m545.752 179.6433l0 0c0 -84.8953 68.82123 -153.71654 153.71655 -153.71654l0 0c40.768127 0 79.866516 16.19509 108.69397 45.02253c28.827454 28.827438 45.022522 67.92585 45.022522 108.69401l0 0c0 84.89531 -68.82123 153.71654 -153.71649 153.71654l0 0c-84.895325 0 -153.71655 -68.82123 -153.71655 -153.71654zm26.199463 0l0 0c0 70.425735 57.09131 127.517075 127.51709 127.517075c70.42572 0 127.51709 -57.09134 127.51709 -127.517075l0 0c0 -70.42575 -57.09137 -127.51709 -127.51709 -127.51709l0 0c-70.42578 0 -127.51709 57.091343 -127.51709 127.51709z" fill-rule="evenodd"></path><path fill="#161616" d="m532.07214 322.32523l0 0c-3.531189 -6.122986 -1.4303589 -13.949707 4.6921997 -17.481506l55.90686 -32.249603c2.9401855 -1.6960449 6.4335327 -2.154541 9.711609 -1.2746887c3.2780762 0.8798828 6.0723267 3.026062 7.7680664 5.9664l0 0l0 0c3.531128 6.122986 1.4303589 13.949707 -4.6922607 17.481506l-55.90686 32.249634c-6.1226196 3.5317688 -13.948486 1.4312134 -17.479614 -4.691742z" fill-rule="evenodd"></path><path fill="#161616" d="m863.87225 322.32523l0 0c3.531128 -6.122986 1.4303589 -13.949707 -4.6922607 -17.481506l-55.90686 -32.249603c-2.9401855 -1.6960449 -6.4335327 -2.154541 -9.711609 -1.2746887c-3.2780762 0.8798828 -6.0723267 3.026062 -7.7680054 5.9664l0 0l0 0c-3.531189 6.122986 -1.4303589 13.949707 4.6921997 17.481506l55.90686 32.249634c6.1226196 3.5317688 13.948486 1.4312134 17.479675 -4.691742z" fill-rule="evenodd"></path></g></svg> 