<svg width="160" height="160" viewBox="0 0 160 160" fill="none" xmlns="http://www.w3.org/2000/svg">
<path fill-rule="evenodd" clip-rule="evenodd" d="M9.13888 39.8147C10.1518 39.8147 10.9814 40.0583 11.6278 40.5454C12.2742 41.0326 12.5974 41.7806 12.5974 42.7895C12.5974 43.8012 12.2742 44.555 11.6278 45.0508C10.9814 45.5466 10.1518 45.7945 9.13888 45.7945H4.16537V39.8147H9.13888ZM9.69727 48.3455C10.5139 48.3455 11.2325 48.4738 11.8529 48.7303C12.4733 48.9868 12.961 49.363 13.3159 49.8588C13.6709 50.3546 13.8484 50.983 13.8484 51.744C13.8484 52.5597 13.6709 53.2429 13.3159 53.7934C12.961 54.3411 12.4733 54.7562 11.8529 55.0387C11.2325 55.3211 10.5139 55.4624 9.69727 55.4624H4.16537V48.3455H9.69727ZM2.78455 37.268C2.39498 37.268 2.06601 37.3963 1.79764 37.6528C1.53215 37.9094 1.39941 38.2409 1.39941 38.6473V56.6341C1.39941 57.0233 1.53215 57.3504 1.79764 57.6156C2.06601 57.8808 2.39498 58.0134 2.78455 58.0134H9.69727C11.0276 58.0134 12.2064 57.7439 13.2337 57.2049C14.2639 56.663 15.0661 55.9236 15.6404 54.9868C16.2175 54.0471 16.5061 52.9661 16.5061 51.744C16.5061 50.3978 16.1512 49.3097 15.4413 48.4795C14.7343 47.6465 13.795 47.0873 12.6234 46.8019C13.44 46.3955 14.0821 45.8435 14.5496 45.1459C15.02 44.4455 15.2551 43.66 15.2551 42.7895C15.2551 41.7114 14.994 40.7559 14.4717 39.9228C13.9494 39.0898 13.2308 38.4398 12.316 37.9728C11.4042 37.503 10.3451 37.268 9.13888 37.268H2.78455Z" fill="#161616"/>
<path fill-rule="evenodd" clip-rule="evenodd" d="M29.7788 37.268C29.4065 37.268 29.0862 37.4006 28.8178 37.6658C28.5524 37.931 28.4196 38.2582 28.4196 38.6473V56.6341C28.4196 57.0233 28.548 57.3504 28.8049 57.6156C29.0646 57.8808 29.3892 58.0134 29.7788 58.0134H40.7863C41.1788 58.0134 41.5077 57.8808 41.7732 57.6156C42.0387 57.3504 42.1715 57.0233 42.1715 56.6341C42.1715 56.2421 42.0387 55.9135 41.7732 55.6483C41.5077 55.3831 41.1788 55.2505 40.7863 55.2505H31.1596V38.6473C31.1596 38.2582 31.0268 37.931 30.7614 37.6658C30.4959 37.4006 30.1684 37.268 29.7788 37.268Z" fill="#161616"/>
<path fill-rule="evenodd" clip-rule="evenodd" d="M93.7653 37C92.3109 37 90.9633 37.2752 89.7225 37.8258C88.4816 38.3735 87.3951 39.1301 86.463 40.0958C85.5339 41.0614 84.8067 42.187 84.2815 43.4726C83.7591 44.7553 83.498 46.1404 83.498 47.6277C83.498 49.1324 83.7591 50.5319 84.2815 51.8261C84.8067 53.1175 85.5339 54.246 86.463 55.2116C87.3951 56.1772 88.4859 56.9296 89.7354 57.4686C90.9849 58.0076 92.3282 58.2772 93.7653 58.2772C94.9715 58.2772 96.1186 58.0826 97.2065 57.6934C98.2973 57.3043 99.3218 56.7292 100.28 55.9683C100.421 55.827 100.527 55.6728 100.596 55.5056C100.668 55.3356 100.704 55.1626 100.704 54.9868C100.704 54.5948 100.597 54.2892 100.384 54.0701C100.173 53.8482 99.9119 53.7242 99.6002 53.6983C99.5659 53.6951 99.5315 53.6935 99.4971 53.6935C99.2215 53.6935 98.9413 53.796 98.6566 54.001C97.9121 54.5515 97.1358 54.9825 96.3278 55.2938C95.5227 55.6022 94.6686 55.7564 93.7653 55.7564C92.7178 55.7564 91.7323 55.5489 90.8089 55.1338C89.8884 54.7158 89.0775 54.135 88.3763 53.3913C87.6779 52.6476 87.134 51.7843 86.7444 50.8014C86.3548 49.8184 86.1601 48.7606 86.1601 47.6277C86.1601 46.5122 86.3548 45.463 86.7444 44.4801C87.134 43.4971 87.6779 42.6338 88.3763 41.8901C89.0775 41.1464 89.8884 40.5627 90.8089 40.139C91.7323 39.7124 92.7178 39.4991 93.7653 39.4991C94.9167 39.4991 95.843 39.6504 96.5443 39.9531C97.2455 40.2529 97.9236 40.6852 98.5787 41.2502C98.866 41.4746 99.1617 41.5868 99.4656 41.5868C99.4974 41.5868 99.5293 41.5856 99.5613 41.5831C99.8989 41.5572 100.187 41.4332 100.427 41.2113C100.666 40.9893 100.786 40.7097 100.786 40.3725C100.786 40.2139 100.772 40.077 100.743 39.9617C100.717 39.8464 100.664 39.7311 100.583 39.6158C100.505 39.5005 100.395 39.3895 100.254 39.2829C99.2612 38.47 98.2728 37.8863 97.2888 37.5318C96.3047 37.1772 95.1303 37 93.7653 37Z" fill="#161616"/>
<path fill-rule="evenodd" clip-rule="evenodd" d="M114.296 37.268C113.924 37.268 113.599 37.4006 113.322 37.6658C113.048 37.931 112.911 38.2582 112.911 38.6473V56.6341C112.911 57.0233 113.048 57.3504 113.322 57.6156C113.599 57.8808 113.924 58.0134 114.296 58.0134C114.686 58.0134 115.013 57.8808 115.279 57.6156C115.544 57.3504 115.677 57.0233 115.677 56.6341V50.2306L117.594 48.3152L124.321 57.4297C124.586 57.8188 124.967 58.0134 125.464 58.0134C125.819 58.0134 126.103 57.8938 126.316 57.6545C126.53 57.4153 126.654 57.1227 126.689 56.7768C126.723 56.4309 126.635 56.1081 126.425 55.8083L119.508 46.4041L126.29 39.6029C126.573 39.3031 126.741 38.9716 126.793 38.6084C126.847 38.2452 126.777 37.931 126.58 37.6658C126.387 37.4006 126.068 37.268 125.624 37.268C125.431 37.268 125.244 37.3084 125.065 37.3891C124.889 37.4669 124.695 37.6125 124.481 37.8258L115.677 46.616V38.6473C115.677 38.2582 115.544 37.931 115.279 37.6658C115.013 37.4006 114.686 37.268 114.296 37.268Z" fill="#161616"/>
<path fill-rule="evenodd" clip-rule="evenodd" d="M148.043 39.4991C149.197 39.4991 150.256 39.7023 151.22 40.1087C152.186 40.5152 153.025 41.0859 153.735 41.8209C154.444 42.556 154.99 43.4193 155.371 44.4109C155.752 45.4025 155.942 46.4747 155.942 47.6277C155.942 48.7779 155.752 49.8487 155.371 50.8403C154.99 51.8319 154.444 52.6952 153.735 53.4302C153.025 54.1653 152.186 54.7418 151.22 55.1597C150.256 55.5748 149.197 55.7823 148.043 55.7823C146.891 55.7823 145.832 55.5748 144.865 55.1597C143.899 54.7418 143.065 54.1653 142.363 53.4302C141.665 52.6952 141.121 51.8319 140.732 50.8403C140.342 49.8487 140.147 48.7779 140.147 47.6277C140.147 46.4747 140.342 45.4025 140.732 44.4109C141.121 43.4193 141.665 42.556 142.363 41.8209C143.065 41.0859 143.899 40.5152 144.865 40.1087C145.832 39.7023 146.891 39.4991 148.043 39.4991ZM148.043 37C146.484 37 145.057 37.2623 143.762 37.7869C142.469 38.3086 141.356 39.0436 140.424 39.992C139.495 40.9375 138.772 42.0573 138.256 43.3516C137.742 44.6429 137.485 46.0683 137.485 47.6277C137.485 49.1843 137.742 50.614 138.256 51.9169C138.772 53.2198 139.495 54.3454 140.424 55.2938C141.356 56.2392 142.469 56.9728 143.762 57.4946C145.057 58.0163 146.484 58.2772 148.043 58.2772C149.604 58.2772 151.026 58.0163 152.31 57.4946C153.598 56.9728 154.71 56.2392 155.648 55.2938C156.589 54.3454 157.316 53.2198 157.829 51.9169C158.346 50.614 158.604 49.1843 158.604 47.6277C158.604 46.0683 158.346 44.6429 157.829 43.3516C157.316 42.0573 156.589 40.9375 155.648 39.992C154.71 39.0436 153.598 38.3086 152.31 37.7869C151.026 37.2623 149.604 37 148.043 37Z" fill="#161616"/>
<path fill-rule="evenodd" clip-rule="evenodd" d="M49.6221 44.316C49.6221 36.6055 55.8797 30.3548 63.5987 30.3548C67.3055 30.3548 70.8605 31.8257 73.4816 34.4439C76.1027 37.0622 77.5753 40.6133 77.5753 44.316C77.5753 52.0266 71.3177 58.2773 63.5987 58.2773C55.8797 58.2773 49.6221 52.0266 49.6221 44.316ZM52.0043 44.316C52.0043 50.7124 57.1953 55.8977 63.5987 55.8977C70.0021 55.8977 75.1931 50.7124 75.1931 44.316C75.1931 37.9196 70.0021 32.7343 63.5987 32.7343C57.1953 32.7343 52.0043 37.9196 52.0043 44.316Z" fill="#161616"/>
<path fill-rule="evenodd" clip-rule="evenodd" d="M48.3783 57.2751C48.0572 56.719 48.2482 56.0081 48.8049 55.6873L53.8882 52.7583C54.1555 52.6042 54.4732 52.5626 54.7712 52.6425C55.0693 52.7224 55.3234 52.9173 55.4775 53.1844C55.7986 53.7405 55.6076 54.4514 55.0509 54.7722L49.9676 57.7012C49.4109 58.022 48.6993 57.8312 48.3783 57.2751Z" fill="#161616"/>
<path fill-rule="evenodd" clip-rule="evenodd" d="M78.5469 57.2751C78.868 56.719 78.677 56.0081 78.1203 55.6873L73.037 52.7583C72.7697 52.6042 72.452 52.5626 72.154 52.6425C71.8559 52.7224 71.6019 52.9173 71.4477 53.1844C71.1266 53.7405 71.3176 54.4514 71.8743 54.7722L76.9576 57.7012C77.5143 58.022 78.2259 57.8312 78.5469 57.2751Z" fill="#161616"/>
<path d="M23.2275 96L22.0395 92.868H16.7655L15.5775 96H13.5975L18.4755 83.4H20.4555L25.2975 96H23.2275ZM18.4395 88.476L17.4855 90.996H21.3375L20.3475 88.404C20.1915 87.984 20.0355 87.534 19.8795 87.054C19.7235 86.562 19.5675 86.07 19.4115 85.578C19.2435 86.082 19.0755 86.586 18.9075 87.09C18.7515 87.594 18.5955 88.056 18.4395 88.476Z" fill="#333333"/>
<path d="M37.0239 86.388C37.8639 86.388 38.6139 86.598 39.2739 87.018C39.9459 87.426 40.4739 87.996 40.8579 88.728C41.2419 89.46 41.4339 90.306 41.4339 91.266C41.4339 92.214 41.2419 93.06 40.8579 93.804C40.4739 94.536 39.9519 95.112 39.2919 95.532C38.6319 95.952 37.8939 96.162 37.0779 96.162C36.4059 96.162 35.7939 96.018 35.2419 95.73C34.7019 95.442 34.2759 95.112 33.9639 94.74V99.96H32.0919V86.532H33.9639V87.918C34.2399 87.522 34.6539 87.168 35.2059 86.856C35.7579 86.544 36.3639 86.388 37.0239 86.388ZM36.7719 88.098C36.2079 88.098 35.7039 88.236 35.2599 88.512C34.8279 88.788 34.4859 89.166 34.2339 89.646C33.9939 90.114 33.8739 90.654 33.8739 91.266C33.8739 91.866 33.9939 92.406 34.2339 92.886C34.4859 93.366 34.8279 93.75 35.2599 94.038C35.7039 94.314 36.2079 94.452 36.7719 94.452C37.3359 94.452 37.8339 94.314 38.2659 94.038C38.6979 93.75 39.0339 93.366 39.2739 92.886C39.5259 92.406 39.6519 91.866 39.6519 91.266C39.6519 90.654 39.5259 90.114 39.2739 89.646C39.0339 89.166 38.6979 88.788 38.2659 88.512C37.8339 88.236 37.3359 88.098 36.7719 88.098Z" fill="#333333"/>
<path d="M51.5654 94.758H51.5474C51.1634 95.13 50.6354 95.46 49.9634 95.748C49.2914 96.036 48.5894 96.18 47.8574 96.18C46.8734 96.18 46.0034 95.976 45.2474 95.568C44.5034 95.148 43.9214 94.578 43.5014 93.858C43.0814 93.126 42.8714 92.298 42.8714 91.374C42.8714 90.318 43.0934 89.418 43.5374 88.674C43.9814 87.918 44.5694 87.342 45.3014 86.946C46.0334 86.538 46.8314 86.334 47.6954 86.334C48.4874 86.334 49.2074 86.532 49.8554 86.928C50.5034 87.312 51.0194 87.846 51.4034 88.53C51.7874 89.214 51.9794 90.012 51.9794 90.924L51.9614 91.716H44.7254C44.8334 92.568 45.1814 93.246 45.7694 93.75C46.3694 94.242 47.1254 94.488 48.0374 94.488C48.6974 94.488 49.2314 94.368 49.6394 94.128C50.0474 93.876 50.3834 93.636 50.6474 93.408L51.5654 94.758ZM47.6954 88.044C46.9874 88.044 46.3694 88.212 45.8414 88.548C45.3134 88.872 44.9654 89.436 44.7974 90.24H50.0894V90.114C50.0534 89.706 49.9154 89.346 49.6754 89.034C49.4474 88.722 49.1594 88.482 48.8114 88.314C48.4634 88.134 48.0914 88.044 47.6954 88.044Z" fill="#333333"/>
<path d="M59.2862 88.548C59.1662 88.488 59.0162 88.44 58.8362 88.404C58.6682 88.356 58.4882 88.332 58.2962 88.332C57.9122 88.332 57.5342 88.434 57.1622 88.638C56.7902 88.83 56.4782 89.112 56.2262 89.484C55.9862 89.844 55.8662 90.276 55.8662 90.78V96H53.9942V86.55H55.8662V88.332C56.1302 87.756 56.5262 87.282 57.0542 86.91C57.5942 86.538 58.1582 86.352 58.7462 86.352C59.1902 86.352 59.5322 86.412 59.7722 86.532L59.2862 88.548Z" fill="#333333"/>
<path d="M66.384 88.422H64.152V96H62.28V88.422H60.768V86.712H62.28V85.488C62.28 84.672 62.538 84.006 63.054 83.49C63.582 82.962 64.26 82.698 65.088 82.698C65.568 82.698 65.964 82.788 66.276 82.968C66.6 83.148 66.834 83.322 66.978 83.49L66.348 84.912C66.228 84.792 66.072 84.684 65.88 84.588C65.688 84.48 65.496 84.426 65.304 84.426C64.872 84.426 64.572 84.528 64.404 84.732C64.236 84.936 64.152 85.188 64.152 85.488V86.712H66.384V88.422Z" fill="#333333"/>
<path d="M76.0868 94.758H76.0688C75.6848 95.13 75.1568 95.46 74.4848 95.748C73.8128 96.036 73.1108 96.18 72.3788 96.18C71.3948 96.18 70.5248 95.976 69.7688 95.568C69.0248 95.148 68.4428 94.578 68.0228 93.858C67.6028 93.126 67.3928 92.298 67.3928 91.374C67.3928 90.318 67.6148 89.418 68.0588 88.674C68.5028 87.918 69.0908 87.342 69.8228 86.946C70.5548 86.538 71.3528 86.334 72.2168 86.334C73.0088 86.334 73.7288 86.532 74.3769 86.928C75.0249 87.312 75.5408 87.846 75.9248 88.53C76.3088 89.214 76.5008 90.012 76.5008 90.924L76.4828 91.716H69.2468C69.3548 92.568 69.7028 93.246 70.2908 93.75C70.8908 94.242 71.6468 94.488 72.5588 94.488C73.2188 94.488 73.7528 94.368 74.1608 94.128C74.5688 93.876 74.9048 93.636 75.1688 93.408L76.0868 94.758ZM72.2168 88.044C71.5088 88.044 70.8908 88.212 70.3628 88.548C69.8348 88.872 69.4868 89.436 69.3188 90.24H74.6108V90.114C74.5748 89.706 74.4368 89.346 74.1968 89.034C73.9688 88.722 73.6808 88.482 73.3328 88.314C72.9848 88.134 72.6128 88.044 72.2168 88.044Z" fill="#333333"/>
<path d="M79.7037 91.266C79.7037 91.89 79.8417 92.448 80.1177 92.94C80.4057 93.42 80.7777 93.804 81.2337 94.092C81.7017 94.368 82.1997 94.506 82.7277 94.506C83.3277 94.506 83.8497 94.35 84.2937 94.038C84.7377 93.726 85.0977 93.402 85.3737 93.066L86.3997 94.326C86.1717 94.65 85.8597 94.956 85.4637 95.244C85.0677 95.52 84.6177 95.748 84.1137 95.928C83.6097 96.096 83.0817 96.18 82.5297 96.18C81.6657 96.18 80.8857 95.964 80.1897 95.532C79.4937 95.1 78.9417 94.512 78.5337 93.768C78.1377 93.024 77.9397 92.19 77.9397 91.266C77.9397 90.33 78.1377 89.496 78.5337 88.764C78.9417 88.02 79.4937 87.432 80.1897 87C80.8857 86.568 81.6657 86.352 82.5297 86.352C83.4057 86.352 84.1857 86.532 84.8697 86.892C85.5537 87.24 86.0637 87.696 86.3997 88.26L85.3737 89.52C85.0977 89.112 84.7017 88.764 84.1857 88.476C83.6817 88.176 83.1897 88.026 82.7097 88.026C82.1457 88.026 81.6357 88.17 81.1797 88.458C80.7237 88.734 80.3637 89.118 80.0997 89.61C79.8357 90.09 79.7037 90.642 79.7037 91.266Z" fill="#333333"/>
<path d="M91.1725 96H89.3185V88.35H87.3565V86.55H89.3185V84.138H91.1725V86.55H93.3685V88.35H91.1725V96Z" fill="#333333"/>
<path d="M101.29 91.266C101.29 91.89 101.428 92.448 101.704 92.94C101.992 93.42 102.364 93.804 102.82 94.092C103.288 94.368 103.786 94.506 104.314 94.506C104.914 94.506 105.436 94.35 105.88 94.038C106.324 93.726 106.684 93.402 106.96 93.066L107.986 94.326C107.758 94.65 107.446 94.956 107.05 95.244C106.654 95.52 106.204 95.748 105.7 95.928C105.196 96.096 104.668 96.18 104.116 96.18C103.252 96.18 102.472 95.964 101.776 95.532C101.08 95.1 100.528 94.512 100.12 93.768C99.7237 93.024 99.5257 92.19 99.5257 91.266C99.5257 90.33 99.7237 89.496 100.12 88.764C100.528 88.02 101.08 87.432 101.776 87C102.472 86.568 103.252 86.352 104.116 86.352C104.992 86.352 105.772 86.532 106.456 86.892C107.14 87.24 107.65 87.696 107.986 88.26L106.96 89.52C106.684 89.112 106.288 88.764 105.772 88.476C105.268 88.176 104.776 88.026 104.296 88.026C103.732 88.026 103.222 88.17 102.766 88.458C102.31 88.734 101.95 89.118 101.686 89.61C101.422 90.09 101.29 90.642 101.29 91.266Z" fill="#333333"/>
<path d="M110.976 84.498C110.556 84.498 110.244 84.39 110.04 84.174C109.836 83.958 109.734 83.676 109.734 83.328C109.734 83.028 109.836 82.758 110.04 82.518C110.244 82.278 110.556 82.158 110.976 82.158C111.396 82.158 111.708 82.266 111.912 82.482C112.116 82.698 112.218 82.98 112.218 83.328C112.218 83.628 112.116 83.898 111.912 84.138C111.708 84.378 111.396 84.498 110.976 84.498ZM111.93 96H110.076V86.55H111.93V96Z" fill="#333333"/>
<path d="M120.036 88.548C119.916 88.488 119.766 88.44 119.586 88.404C119.418 88.356 119.238 88.332 119.046 88.332C118.662 88.332 118.284 88.434 117.912 88.638C117.54 88.83 117.228 89.112 116.976 89.484C116.736 89.844 116.616 90.276 116.616 90.78V96H114.744V86.55H116.616V88.332C116.88 87.756 117.276 87.282 117.804 86.91C118.344 86.538 118.908 86.352 119.496 86.352C119.94 86.352 120.282 86.412 120.522 86.532L120.036 88.548Z" fill="#333333"/>
<path d="M122.788 91.266C122.788 91.89 122.926 92.448 123.202 92.94C123.49 93.42 123.862 93.804 124.318 94.092C124.786 94.368 125.284 94.506 125.812 94.506C126.412 94.506 126.934 94.35 127.378 94.038C127.822 93.726 128.182 93.402 128.458 93.066L129.484 94.326C129.256 94.65 128.944 94.956 128.548 95.244C128.152 95.52 127.702 95.748 127.198 95.928C126.694 96.096 126.166 96.18 125.614 96.18C124.75 96.18 123.97 95.964 123.274 95.532C122.578 95.1 122.026 94.512 121.618 93.768C121.222 93.024 121.024 92.19 121.024 91.266C121.024 90.33 121.222 89.496 121.618 88.764C122.026 88.02 122.578 87.432 123.274 87C123.97 86.568 124.75 86.352 125.614 86.352C126.49 86.352 127.27 86.532 127.954 86.892C128.638 87.24 129.148 87.696 129.484 88.26L128.458 89.52C128.182 89.112 127.786 88.764 127.27 88.476C126.766 88.176 126.274 88.026 125.794 88.026C125.23 88.026 124.72 88.17 124.264 88.458C123.808 88.734 123.448 89.118 123.184 89.61C122.92 90.09 122.788 90.642 122.788 91.266Z" fill="#333333"/>
<path d="M131.233 96V82.68H133.087V96H131.233Z" fill="#333333"/>
<path d="M143.675 94.758H143.657C143.273 95.13 142.745 95.46 142.073 95.748C141.401 96.036 140.699 96.18 139.967 96.18C138.983 96.18 138.113 95.976 137.357 95.568C136.613 95.148 136.031 94.578 135.611 93.858C135.191 93.126 134.981 92.298 134.981 91.374C134.981 90.318 135.203 89.418 135.647 88.674C136.091 87.918 136.679 87.342 137.411 86.946C138.143 86.538 138.941 86.334 139.805 86.334C140.597 86.334 141.317 86.532 141.965 86.928C142.613 87.312 143.129 87.846 143.513 88.53C143.897 89.214 144.089 90.012 144.089 90.924L144.071 91.716H136.835C136.943 92.568 137.291 93.246 137.879 93.75C138.479 94.242 139.235 94.488 140.147 94.488C140.807 94.488 141.341 94.368 141.749 94.128C142.157 93.876 142.493 93.636 142.757 93.408L143.675 94.758ZM139.805 88.044C139.097 88.044 138.479 88.212 137.951 88.548C137.423 88.872 137.075 89.436 136.907 90.24H142.199V90.114C142.163 89.706 142.025 89.346 141.785 89.034C141.557 88.722 141.269 88.482 140.921 88.314C140.573 88.134 140.201 88.044 139.805 88.044Z" fill="#333333"/>
<path d="M38.8183 107.498C38.3983 107.498 38.0863 107.39 37.8823 107.174C37.6783 106.958 37.5763 106.676 37.5763 106.328C37.5763 106.028 37.6783 105.758 37.8823 105.518C38.0863 105.278 38.3983 105.158 38.8183 105.158C39.2383 105.158 39.5503 105.266 39.7543 105.482C39.9583 105.698 40.0603 105.98 40.0603 106.328C40.0603 106.628 39.9583 106.898 39.7543 107.138C39.5503 107.378 39.2383 107.498 38.8183 107.498ZM39.7723 119H37.9183V109.55H39.7723V119Z" fill="#333333"/>
<path d="M47.536 109.352C48.388 109.352 49.048 109.526 49.516 109.874C49.984 110.222 50.308 110.69 50.488 111.278C50.68 111.866 50.776 112.52 50.776 113.24V119H48.922V113.366C48.922 112.91 48.862 112.502 48.742 112.142C48.622 111.782 48.418 111.5 48.13 111.296C47.842 111.092 47.44 111.008 46.924 111.044C46.444 111.044 46.018 111.146 45.646 111.35C45.274 111.554 44.98 111.824 44.764 112.16C44.548 112.496 44.44 112.868 44.44 113.276V119H42.586V109.55H44.44V111.044C44.728 110.6 45.148 110.21 45.7 109.874C46.252 109.526 46.864 109.352 47.536 109.352Z" fill="#333333"/>
<path d="M67.138 109.55V119H65.266V117.542C64.978 117.938 64.552 118.31 63.988 118.658C63.424 119.006 62.77 119.18 62.026 119.18C61.234 119.18 60.508 118.97 59.848 118.55C59.2 118.13 58.684 117.548 58.3 116.804C57.916 116.06 57.724 115.208 57.724 114.248C57.724 113.288 57.922 112.442 58.318 111.71C58.714 110.966 59.26 110.39 59.956 109.982C60.652 109.562 61.444 109.352 62.332 109.352C62.992 109.352 63.568 109.496 64.06 109.784C64.564 110.072 64.966 110.408 65.266 110.792V109.55H67.138ZM62.458 117.47C63.034 117.47 63.538 117.332 63.97 117.056C64.402 116.768 64.738 116.384 64.978 115.904C65.218 115.412 65.338 114.86 65.338 114.248C65.338 113.648 65.218 113.108 64.978 112.628C64.738 112.148 64.402 111.77 63.97 111.494C63.538 111.206 63.034 111.062 62.458 111.062C61.906 111.062 61.414 111.2 60.982 111.476C60.55 111.752 60.214 112.13 59.974 112.61C59.734 113.09 59.614 113.636 59.614 114.248C59.614 114.86 59.734 115.412 59.974 115.904C60.214 116.384 60.55 116.768 60.982 117.056C61.414 117.332 61.906 117.47 62.458 117.47Z" fill="#333333"/>
<path d="M87.4796 109.55L84.2936 119H83.0156L80.6036 113.51L78.3536 119H77.0936L73.8716 109.55L75.7436 109.532L77.8676 116.048L80.1356 111.044H81.2516L83.5016 115.976L85.6076 109.55H87.4796Z" fill="#333333"/>
<path d="M97.9584 114.266C97.9584 115.226 97.7424 116.078 97.3104 116.822C96.8904 117.554 96.3144 118.13 95.5824 118.55C94.8624 118.97 94.0524 119.18 93.1524 119.18C92.2524 119.18 91.4364 118.97 90.7044 118.55C89.9724 118.13 89.3904 117.554 88.9584 116.822C88.5384 116.078 88.3284 115.226 88.3284 114.266C88.3284 113.306 88.5384 112.46 88.9584 111.728C89.3904 110.984 89.9724 110.402 90.7044 109.982C91.4364 109.562 92.2524 109.352 93.1524 109.352C94.0524 109.352 94.8624 109.562 95.5824 109.982C96.3144 110.402 96.8904 110.984 97.3104 111.728C97.7424 112.46 97.9584 113.306 97.9584 114.266ZM96.0684 114.266C96.0804 113.63 95.9544 113.072 95.6904 112.592C95.4384 112.1 95.0904 111.722 94.6464 111.458C94.2024 111.182 93.7044 111.044 93.1524 111.044C92.6004 111.044 92.0964 111.182 91.6404 111.458C91.1964 111.722 90.8424 112.1 90.5784 112.592C90.3264 113.072 90.2064 113.63 90.2184 114.266C90.2064 114.89 90.3264 115.448 90.5784 115.94C90.8424 116.42 91.1964 116.798 91.6404 117.074C92.0964 117.35 92.6004 117.488 93.1524 117.488C93.7044 117.488 94.2024 117.35 94.6464 117.074C95.0904 116.798 95.4384 116.42 95.6904 115.94C95.9544 115.448 96.0804 114.89 96.0684 114.266Z" fill="#333333"/>
<path d="M105.271 111.548C105.151 111.488 105.001 111.44 104.821 111.404C104.653 111.356 104.473 111.332 104.281 111.332C103.897 111.332 103.519 111.434 103.147 111.638C102.775 111.83 102.463 112.112 102.211 112.484C101.971 112.844 101.851 113.276 101.851 113.78V119H99.9786V109.55H101.851V111.332C102.115 110.756 102.511 110.282 103.039 109.91C103.579 109.538 104.143 109.352 104.731 109.352C105.175 109.352 105.517 109.412 105.757 109.532L105.271 111.548Z" fill="#333333"/>
<path d="M107.238 119V105.68H109.092V119H107.238Z" fill="#333333"/>
<path d="M120.419 105.68V119H118.565V117.668C118.289 118.04 117.881 118.388 117.341 118.712C116.801 119.024 116.189 119.18 115.505 119.18C114.653 119.18 113.885 118.97 113.201 118.55C112.517 118.13 111.977 117.548 111.581 116.804C111.185 116.06 110.987 115.214 110.987 114.266C110.987 113.306 111.185 112.46 111.581 111.728C111.977 110.984 112.511 110.402 113.183 109.982C113.855 109.562 114.611 109.352 115.451 109.352C116.123 109.352 116.729 109.49 117.269 109.766C117.821 110.042 118.253 110.366 118.565 110.738V105.68H120.419ZM115.757 117.578C116.333 117.578 116.837 117.434 117.269 117.146C117.701 116.858 118.037 116.462 118.277 115.958C118.517 115.454 118.637 114.89 118.637 114.266C118.637 113.63 118.517 113.066 118.277 112.574C118.037 112.07 117.701 111.674 117.269 111.386C116.837 111.098 116.333 110.954 115.757 110.954C115.193 110.954 114.695 111.098 114.263 111.386C113.831 111.674 113.489 112.07 113.237 112.574C112.997 113.066 112.877 113.63 112.877 114.266C112.877 114.89 112.997 115.454 113.237 115.958C113.489 116.462 113.831 116.858 114.263 117.146C114.695 117.434 115.193 117.578 115.757 117.578Z" fill="#333333"/>
<path d="M43.809 137.266C43.809 138.226 43.593 139.078 43.161 139.822C42.741 140.554 42.165 141.13 41.433 141.55C40.713 141.97 39.903 142.18 39.003 142.18C38.103 142.18 37.287 141.97 36.555 141.55C35.823 141.13 35.241 140.554 34.809 139.822C34.389 139.078 34.179 138.226 34.179 137.266C34.179 136.306 34.389 135.46 34.809 134.728C35.241 133.984 35.823 133.402 36.555 132.982C37.287 132.562 38.103 132.352 39.003 132.352C39.903 132.352 40.713 132.562 41.433 132.982C42.165 133.402 42.741 133.984 43.161 134.728C43.593 135.46 43.809 136.306 43.809 137.266ZM41.919 137.266C41.931 136.63 41.805 136.072 41.541 135.592C41.289 135.1 40.941 134.722 40.497 134.458C40.053 134.182 39.555 134.044 39.003 134.044C38.451 134.044 37.947 134.182 37.491 134.458C37.047 134.722 36.693 135.1 36.429 135.592C36.177 136.072 36.057 136.63 36.069 137.266C36.057 137.89 36.177 138.448 36.429 138.94C36.693 139.42 37.047 139.798 37.491 140.074C37.947 140.35 38.451 140.488 39.003 140.488C39.555 140.488 40.053 140.35 40.497 140.074C40.941 139.798 41.289 139.42 41.541 138.94C41.805 138.448 41.931 137.89 41.919 137.266Z" fill="#333333"/>
<path d="M50.6076 134.422H48.3756V142H46.5036V134.422H44.9916V132.712H46.5036V131.488C46.5036 130.672 46.7616 130.006 47.2776 129.49C47.8056 128.962 48.4836 128.698 49.3116 128.698C49.7916 128.698 50.1876 128.788 50.4996 128.968C50.8236 129.148 51.0576 129.322 51.2016 129.49L50.5716 130.912C50.4516 130.792 50.2956 130.684 50.1036 130.588C49.9116 130.48 49.7196 130.426 49.5276 130.426C49.0956 130.426 48.7956 130.528 48.6276 130.732C48.4596 130.936 48.3756 131.188 48.3756 131.488V132.712H50.6076V134.422Z" fill="#333333"/>
<path d="M63.043 135.034C62.707 134.698 62.323 134.422 61.891 134.206C61.471 133.99 61.081 133.882 60.721 133.882C60.469 133.882 60.217 133.912 59.965 133.972C59.725 134.032 59.521 134.146 59.353 134.314C59.185 134.47 59.101 134.704 59.101 135.016C59.113 135.448 59.305 135.754 59.677 135.934C60.061 136.114 60.535 136.276 61.099 136.42C61.591 136.552 62.071 136.72 62.539 136.924C63.007 137.116 63.391 137.404 63.691 137.788C64.003 138.16 64.159 138.688 64.159 139.372C64.159 139.96 63.991 140.464 63.655 140.884C63.331 141.304 62.905 141.628 62.377 141.856C61.861 142.072 61.315 142.18 60.739 142.18C60.055 142.18 59.377 142.06 58.705 141.82C58.045 141.568 57.481 141.142 57.013 140.542L58.273 139.462C58.597 139.834 58.963 140.128 59.371 140.344C59.791 140.548 60.301 140.65 60.901 140.65C61.129 140.65 61.357 140.614 61.585 140.542C61.813 140.458 62.005 140.332 62.161 140.164C62.329 139.984 62.413 139.744 62.413 139.444C62.413 139.156 62.323 138.934 62.143 138.778C61.975 138.61 61.747 138.478 61.459 138.382C61.171 138.274 60.853 138.178 60.505 138.094C59.989 137.95 59.479 137.776 58.975 137.572C58.483 137.356 58.069 137.056 57.733 136.672C57.409 136.276 57.247 135.742 57.247 135.07C57.247 134.506 57.403 134.026 57.715 133.63C58.039 133.222 58.459 132.91 58.975 132.694C59.491 132.466 60.043 132.352 60.631 132.352C61.195 132.352 61.807 132.472 62.467 132.712C63.127 132.952 63.673 133.336 64.105 133.864L63.043 135.034Z" fill="#333333"/>
<path d="M74.9502 132.532V145.96H73.0962V140.668C72.8202 141.052 72.4122 141.4 71.8722 141.712C71.3442 142.024 70.7502 142.18 70.0902 142.18C69.2502 142.18 68.4942 141.97 67.8222 141.55C67.1502 141.13 66.6162 140.548 66.2202 139.804C65.8242 139.06 65.6262 138.214 65.6262 137.266C65.6262 136.306 65.8182 135.46 66.2022 134.728C66.5982 133.984 67.1262 133.402 67.7862 132.982C68.4582 132.562 69.2082 132.352 70.0362 132.352C70.6962 132.352 71.2902 132.49 71.8182 132.766C72.3582 133.03 72.7842 133.348 73.0962 133.72V132.532H74.9502ZM70.2882 140.47C70.8642 140.47 71.3682 140.332 71.8002 140.056C72.2322 139.768 72.5682 139.384 72.8082 138.904C73.0482 138.424 73.1682 137.878 73.1682 137.266C73.1682 136.654 73.0482 136.108 72.8082 135.628C72.5682 135.136 72.2322 134.752 71.8002 134.476C71.3682 134.188 70.8642 134.044 70.2882 134.044C69.7242 134.044 69.2262 134.188 68.7942 134.476C68.3622 134.752 68.0202 135.136 67.7682 135.628C67.5282 136.108 67.4082 136.654 67.4082 137.266C67.4082 137.878 67.5282 138.424 67.7682 138.904C68.0202 139.384 68.3622 139.768 68.7942 140.056C69.2262 140.332 69.7242 140.47 70.2882 140.47Z" fill="#333333"/>
<path d="M83.9841 138.238V132.55H85.8381V142H83.9841V140.488C83.7081 140.932 83.3001 141.328 82.7601 141.676C82.2321 142.012 81.5961 142.18 80.8521 142.18C79.8681 142.18 79.0701 141.844 78.4581 141.172C77.8461 140.5 77.5401 139.57 77.5401 138.382V132.55H79.3941V137.878C79.3941 138.358 79.4661 138.802 79.6101 139.21C79.7661 139.618 80.0061 139.948 80.3301 140.2C80.6661 140.44 81.0921 140.56 81.6081 140.56C82.2561 140.56 82.8141 140.356 83.2821 139.948C83.7501 139.54 83.9841 138.97 83.9841 138.238Z" fill="#333333"/>
<path d="M97.2406 132.55V142H95.3686V140.542C95.0806 140.938 94.6546 141.31 94.0906 141.658C93.5266 142.006 92.8726 142.18 92.1286 142.18C91.3366 142.18 90.6106 141.97 89.9506 141.55C89.3026 141.13 88.7866 140.548 88.4026 139.804C88.0186 139.06 87.8266 138.208 87.8266 137.248C87.8266 136.288 88.0246 135.442 88.4206 134.71C88.8166 133.966 89.3626 133.39 90.0586 132.982C90.7546 132.562 91.5466 132.352 92.4346 132.352C93.0946 132.352 93.6706 132.496 94.1626 132.784C94.6666 133.072 95.0686 133.408 95.3686 133.792V132.55H97.2406ZM92.5606 140.47C93.1366 140.47 93.6406 140.332 94.0726 140.056C94.5046 139.768 94.8406 139.384 95.0806 138.904C95.3206 138.412 95.4406 137.86 95.4406 137.248C95.4406 136.648 95.3206 136.108 95.0806 135.628C94.8406 135.148 94.5046 134.77 94.0726 134.494C93.6406 134.206 93.1366 134.062 92.5606 134.062C92.0086 134.062 91.5166 134.2 91.0846 134.476C90.6526 134.752 90.3166 135.13 90.0766 135.61C89.8366 136.09 89.7166 136.636 89.7166 137.248C89.7166 137.86 89.8366 138.412 90.0766 138.904C90.3166 139.384 90.6526 139.768 91.0846 140.056C91.5166 140.332 92.0086 140.47 92.5606 140.47Z" fill="#333333"/>
<path d="M105.121 134.548C105.001 134.488 104.851 134.44 104.671 134.404C104.503 134.356 104.323 134.332 104.131 134.332C103.747 134.332 103.369 134.434 102.997 134.638C102.625 134.83 102.313 135.112 102.061 135.484C101.821 135.844 101.701 136.276 101.701 136.78V142H99.8292V132.55H101.701V134.332C101.965 133.756 102.361 133.282 102.889 132.91C103.429 132.538 103.993 132.352 104.581 132.352C105.025 132.352 105.367 132.412 105.607 132.532L105.121 134.548Z" fill="#333333"/>
<path d="M114.803 140.758H114.785C114.401 141.13 113.873 141.46 113.201 141.748C112.529 142.036 111.827 142.18 111.095 142.18C110.111 142.18 109.241 141.976 108.485 141.568C107.741 141.148 107.159 140.578 106.739 139.858C106.319 139.126 106.109 138.298 106.109 137.374C106.109 136.318 106.331 135.418 106.775 134.674C107.219 133.918 107.807 133.342 108.539 132.946C109.271 132.538 110.069 132.334 110.933 132.334C111.725 132.334 112.445 132.532 113.093 132.928C113.741 133.312 114.257 133.846 114.641 134.53C115.025 135.214 115.217 136.012 115.217 136.924L115.199 137.716H107.963C108.071 138.568 108.419 139.246 109.007 139.75C109.607 140.242 110.363 140.488 111.275 140.488C111.935 140.488 112.469 140.368 112.877 140.128C113.285 139.876 113.621 139.636 113.885 139.408L114.803 140.758ZM110.933 134.044C110.225 134.044 109.607 134.212 109.079 134.548C108.551 134.872 108.203 135.436 108.035 136.24H113.327V136.114C113.291 135.706 113.153 135.346 112.913 135.034C112.685 134.722 112.397 134.482 112.049 134.314C111.701 134.134 111.329 134.044 110.933 134.044Z" fill="#333333"/>
<path d="M122.686 135.034C122.35 134.698 121.966 134.422 121.534 134.206C121.114 133.99 120.724 133.882 120.364 133.882C120.112 133.882 119.86 133.912 119.608 133.972C119.368 134.032 119.164 134.146 118.996 134.314C118.828 134.47 118.744 134.704 118.744 135.016C118.756 135.448 118.948 135.754 119.32 135.934C119.704 136.114 120.178 136.276 120.742 136.42C121.234 136.552 121.714 136.72 122.182 136.924C122.65 137.116 123.034 137.404 123.334 137.788C123.646 138.16 123.802 138.688 123.802 139.372C123.802 139.96 123.634 140.464 123.298 140.884C122.974 141.304 122.548 141.628 122.02 141.856C121.504 142.072 120.958 142.18 120.382 142.18C119.698 142.18 119.02 142.06 118.348 141.82C117.688 141.568 117.124 141.142 116.656 140.542L117.916 139.462C118.24 139.834 118.606 140.128 119.014 140.344C119.434 140.548 119.944 140.65 120.544 140.65C120.772 140.65 121 140.614 121.228 140.542C121.456 140.458 121.648 140.332 121.804 140.164C121.972 139.984 122.056 139.744 122.056 139.444C122.056 139.156 121.966 138.934 121.786 138.778C121.618 138.61 121.39 138.478 121.102 138.382C120.814 138.274 120.496 138.178 120.148 138.094C119.632 137.95 119.122 137.776 118.618 137.572C118.126 137.356 117.712 137.056 117.376 136.672C117.052 136.276 116.89 135.742 116.89 135.07C116.89 134.506 117.046 134.026 117.358 133.63C117.682 133.222 118.102 132.91 118.618 132.694C119.134 132.466 119.686 132.352 120.274 132.352C120.838 132.352 121.45 132.472 122.11 132.712C122.77 132.952 123.316 133.336 123.748 133.864L122.686 135.034Z" fill="#333333"/>
</svg>
