<svg width="160" height="160" viewBox="0 0 160 160" fill="none" xmlns="http://www.w3.org/2000/svg">
<path fill-rule="evenodd" clip-rule="evenodd" d="M9.13888 75.8147C10.1518 75.8147 10.9814 76.0583 11.6278 76.5454C12.2742 77.0326 12.5974 77.7806 12.5974 78.7895C12.5974 79.8012 12.2742 80.555 11.6278 81.0508C10.9814 81.5466 10.1518 81.7945 9.13888 81.7945H4.16537V75.8147H9.13888ZM9.69727 84.3455C10.5139 84.3455 11.2325 84.4738 11.8529 84.7303C12.4733 84.9868 12.961 85.363 13.3159 85.8588C13.6709 86.3546 13.8484 86.983 13.8484 87.744C13.8484 88.5597 13.6709 89.2429 13.3159 89.7934C12.961 90.3411 12.4733 90.7562 11.8529 91.0387C11.2325 91.3211 10.5139 91.4624 9.69727 91.4624H4.16537V84.3455H9.69727ZM2.78455 73.268C2.39498 73.268 2.06601 73.3963 1.79764 73.6528C1.53215 73.9094 1.39941 74.2409 1.39941 74.6473V92.6341C1.39941 93.0233 1.53215 93.3504 1.79764 93.6156C2.06601 93.8808 2.39498 94.0134 2.78455 94.0134H9.69727C11.0276 94.0134 12.2064 93.7439 13.2337 93.2049C14.2639 92.663 15.0661 91.9236 15.6404 90.9868C16.2175 90.0471 16.5061 88.9661 16.5061 87.744C16.5061 86.3978 16.1512 85.3097 15.4413 84.4795C14.7343 83.6465 13.795 83.0873 12.6234 82.8019C13.44 82.3955 14.0821 81.8435 14.5496 81.1459C15.02 80.4455 15.2551 79.66 15.2551 78.7895C15.2551 77.7114 14.994 76.7559 14.4717 75.9228C13.9494 75.0898 13.2308 74.4398 12.316 73.9728C11.4042 73.503 10.3451 73.268 9.13888 73.268L2.78455 73.268Z" fill="#161616"/>
<path fill-rule="evenodd" clip-rule="evenodd" d="M29.7788 73.268C29.4065 73.268 29.0862 73.4006 28.8178 73.6658C28.5524 73.931 28.4196 74.2582 28.4196 74.6473V92.6341C28.4196 93.0233 28.548 93.3504 28.8049 93.6156C29.0646 93.8808 29.3892 94.0134 29.7788 94.0134H40.7863C41.1788 94.0134 41.5077 93.8808 41.7732 93.6156C42.0387 93.3504 42.1715 93.0233 42.1715 92.6341C42.1715 92.2421 42.0387 91.9135 41.7732 91.6483C41.5077 91.3831 41.1788 91.2505 40.7863 91.2505H31.1596V74.6473C31.1596 74.2582 31.0268 73.931 30.7614 73.6658C30.4959 73.4006 30.1684 73.268 29.7788 73.268V73.268Z" fill="#161616"/>
<path fill-rule="evenodd" clip-rule="evenodd" d="M93.7653 73C92.3109 73 90.9633 73.2752 89.7225 73.8258C88.4816 74.3735 87.3951 75.1301 86.463 76.0958C85.5339 77.0614 84.8067 78.187 84.2815 79.4726C83.7591 80.7553 83.498 82.1404 83.498 83.6277C83.498 85.1324 83.7591 86.5319 84.2815 87.8261C84.8067 89.1175 85.5339 90.246 86.463 91.2116C87.3951 92.1772 88.4859 92.9296 89.7354 93.4686C90.9849 94.0076 92.3282 94.2772 93.7653 94.2772C94.9715 94.2772 96.1186 94.0826 97.2065 93.6934C98.2973 93.3043 99.3218 92.7292 100.28 91.9683C100.421 91.827 100.527 91.6728 100.596 91.5056C100.668 91.3356 100.704 91.1626 100.704 90.9868C100.704 90.5948 100.597 90.2892 100.384 90.0701C100.173 89.8482 99.9119 89.7242 99.6002 89.6983C99.5659 89.6951 99.5315 89.6935 99.4971 89.6935C99.2215 89.6935 98.9413 89.796 98.6566 90.001C97.9121 90.5515 97.1358 90.9825 96.3278 91.2938C95.5227 91.6022 94.6686 91.7564 93.7653 91.7564C92.7178 91.7564 91.7323 91.5489 90.8089 91.1338C89.8884 90.7158 89.0775 90.135 88.3763 89.3913C87.6779 88.6476 87.134 87.7843 86.7444 86.8014C86.3548 85.8184 86.1601 84.7606 86.1601 83.6277C86.1601 82.5122 86.3548 81.463 86.7444 80.4801C87.134 79.4971 87.6779 78.6338 88.3763 77.8901C89.0775 77.1464 89.8884 76.5627 90.8089 76.139C91.7323 75.7124 92.7178 75.4991 93.7653 75.4991C94.9167 75.4991 95.843 75.6504 96.5443 75.9531C97.2455 76.2529 97.9236 76.6852 98.5787 77.2502C98.866 77.4746 99.1617 77.5868 99.4656 77.5868C99.4974 77.5868 99.5293 77.5856 99.5613 77.5831C99.8989 77.5572 100.187 77.4332 100.427 77.2113C100.666 76.9893 100.786 76.7097 100.786 76.3725C100.786 76.2139 100.772 76.077 100.743 75.9617C100.717 75.8464 100.664 75.7311 100.583 75.6158C100.505 75.5005 100.395 75.3895 100.254 75.2829C99.2612 74.47 98.2728 73.8863 97.2888 73.5318C96.3047 73.1772 95.1303 73 93.7653 73V73Z" fill="#161616"/>
<path fill-rule="evenodd" clip-rule="evenodd" d="M114.296 73.268C113.924 73.268 113.599 73.4006 113.322 73.6658C113.048 73.931 112.911 74.2582 112.911 74.6473V92.6341C112.911 93.0233 113.048 93.3504 113.322 93.6156C113.599 93.8808 113.924 94.0134 114.296 94.0134C114.686 94.0134 115.013 93.8808 115.279 93.6156C115.544 93.3504 115.677 93.0233 115.677 92.6341V86.2306L117.594 84.3152L124.321 93.4297C124.586 93.8188 124.967 94.0134 125.464 94.0134C125.819 94.0134 126.103 93.8938 126.316 93.6545C126.53 93.4153 126.654 93.1227 126.689 92.7768C126.723 92.4309 126.635 92.1081 126.425 91.8083L119.508 82.4041L126.29 75.6029C126.573 75.3031 126.741 74.9716 126.793 74.6084C126.847 74.2452 126.777 73.931 126.58 73.6658C126.387 73.4006 126.068 73.268 125.624 73.268C125.431 73.268 125.244 73.3084 125.065 73.3891C124.889 73.4669 124.695 73.6125 124.481 73.8258L115.677 82.616V74.6473C115.677 74.2582 115.544 73.931 115.279 73.6658C115.013 73.4006 114.686 73.268 114.296 73.268V73.268Z" fill="#161616"/>
<path fill-rule="evenodd" clip-rule="evenodd" d="M148.043 75.4991C149.197 75.4991 150.256 75.7023 151.22 76.1087C152.186 76.5152 153.025 77.0859 153.735 77.8209C154.444 78.556 154.99 79.4193 155.371 80.4109C155.752 81.4025 155.942 82.4747 155.942 83.6277C155.942 84.7779 155.752 85.8487 155.371 86.8403C154.99 87.8319 154.444 88.6952 153.735 89.4302C153.025 90.1653 152.186 90.7418 151.22 91.1597C150.256 91.5748 149.197 91.7823 148.043 91.7823C146.891 91.7823 145.832 91.5748 144.865 91.1597C143.899 90.7418 143.065 90.1653 142.363 89.4302C141.665 88.6952 141.121 87.8319 140.732 86.8403C140.342 85.8487 140.147 84.7779 140.147 83.6277C140.147 82.4747 140.342 81.4025 140.732 80.4109C141.121 79.4193 141.665 78.556 142.363 77.8209C143.065 77.0859 143.899 76.5152 144.865 76.1087C145.832 75.7023 146.891 75.4991 148.043 75.4991V75.4991ZM148.043 73C146.484 73 145.057 73.2623 143.762 73.7869C142.469 74.3086 141.356 75.0436 140.424 75.992C139.495 76.9375 138.772 78.0573 138.256 79.3516C137.742 80.6429 137.485 82.0683 137.485 83.6277C137.485 85.1843 137.742 86.614 138.256 87.9169C138.772 89.2198 139.495 90.3454 140.424 91.2938C141.356 92.2392 142.469 92.9728 143.762 93.4946C145.057 94.0163 146.484 94.2772 148.043 94.2772C149.604 94.2772 151.026 94.0163 152.31 93.4946C153.598 92.9728 154.71 92.2392 155.648 91.2938C156.589 90.3454 157.316 89.2198 157.829 87.9169C158.346 86.614 158.604 85.1843 158.604 83.6277C158.604 82.0683 158.346 80.6429 157.829 79.3516C157.316 78.0573 156.589 76.9375 155.648 75.992C154.71 75.0436 153.598 74.3086 152.31 73.7869C151.026 73.2623 149.604 73 148.043 73V73Z" fill="#161616"/>
<path fill-rule="evenodd" clip-rule="evenodd" d="M49.6221 80.316C49.6221 72.6055 55.8797 66.3548 63.5987 66.3548C67.3055 66.3548 70.8605 67.8257 73.4816 70.4439C76.1027 73.0622 77.5753 76.6133 77.5753 80.316C77.5753 88.0266 71.3177 94.2773 63.5987 94.2773C55.8797 94.2773 49.6221 88.0266 49.6221 80.316V80.316ZM52.0043 80.316C52.0043 86.7124 57.1953 91.8977 63.5987 91.8977C70.0021 91.8977 75.1931 86.7124 75.1931 80.316C75.1931 73.9196 70.0021 68.7343 63.5987 68.7343C57.1953 68.7343 52.0043 73.9196 52.0043 80.316V80.316Z" fill="#161616"/>
<path fill-rule="evenodd" clip-rule="evenodd" d="M48.3783 93.2751C48.0572 92.719 48.2482 92.0081 48.8049 91.6873L53.8882 88.7583C54.1555 88.6042 54.4732 88.5626 54.7712 88.6425C55.0693 88.7224 55.3234 88.9173 55.4775 89.1844C55.7986 89.7405 55.6076 90.4514 55.0509 90.7722L49.9676 93.7012C49.4109 94.022 48.6993 93.8312 48.3783 93.2751V93.2751Z" fill="#161616"/>
<path fill-rule="evenodd" clip-rule="evenodd" d="M78.5469 93.2751C78.868 92.719 78.677 92.0081 78.1203 91.6873L73.037 88.7583C72.7697 88.6042 72.452 88.5626 72.154 88.6425C71.8559 88.7224 71.6019 88.9173 71.4477 89.1844C71.1266 89.7405 71.3176 90.4514 71.8743 90.7722L76.9576 93.7012C77.5143 94.022 78.2259 93.8312 78.5469 93.2751V93.2751Z" fill="#161616"/>
</svg>
