<svg xmlns="http://www.w3.org/2000/svg" width="160" height="160" viewBox="0 0 160 160">
  <g id="flat-by-artis" transform="translate(-8991 2986)">
    <rect id="Rectangle_455" data-name="Rectangle 455" width="160" height="160" transform="translate(8991 -2986)" fill="none"/>
    <g id="FlatbyArtis-01" transform="translate(9010.799 -2967.436)">
      <path id="Path_13" data-name="Path 13" d="M282.615,159.586c0,2.3-.009,4.606,0,6.91a10.547,10.547,0,0,0,.679,3.708,13.126,13.126,0,0,0,.7,1.349,5.064,5.064,0,0,1,.251.508.837.837,0,0,1-.39,1.146c-.685.418-1.373.832-2.062,1.248-.2.125-.4.251-.608.362a1.059,1.059,0,0,1-1.413-.208,3.867,3.867,0,0,1-.672-.951,16.156,16.156,0,0,1-.806-1.812c-.148-.379-.184-.391-.47-.125a12.767,12.767,0,0,1-2.666,1.921,10.945,10.945,0,0,1-4.766,1.347,9.612,9.612,0,0,1-3.153-.332,7.075,7.075,0,0,1-4.937-4.772,11.155,11.155,0,0,1-.146-6.766,8.452,8.452,0,0,1,3.386-4.669,14.165,14.165,0,0,1,4.634-2.069,25.085,25.085,0,0,1,4.184-.716c.741-.066,1.481-.133,2.226-.139a2.275,2.275,0,0,0,.314-.033.241.241,0,0,0,.232-.263,16.089,16.089,0,0,0-.177-3.494,4.663,4.663,0,0,0-.164-.542,2.97,2.97,0,0,0-1.96-1.856,6.608,6.608,0,0,0-1.7-.3,13.7,13.7,0,0,0-6.657,1.4c-.279.125-.557.26-.845.366a.92.92,0,0,1-1.306-.589c-.285-.738-.564-1.48-.825-2.226a1.152,1.152,0,0,1,.448-1.552,5.513,5.513,0,0,1,1.324-.743,20.648,20.648,0,0,1,4.147-1.191,19.064,19.064,0,0,1,4.578-.366,12.325,12.325,0,0,1,4.047.8,6.71,6.71,0,0,1,4.139,4.667,11.9,11.9,0,0,1,.409,3.151c.011,2.28,0,4.56,0,6.839a.092.092,0,0,0,.028,0Zm-5.47,4v-2.976c0-.095,0-.188,0-.283a.2.2,0,0,0-.251-.226c-.188.013-.376.04-.564.045a21.427,21.427,0,0,0-3.135.305,11.14,11.14,0,0,0-3.429,1.084,5.352,5.352,0,0,0-1.718,1.4,4.355,4.355,0,0,0-.912,2.342,5.375,5.375,0,0,0,.753,3.465,3.422,3.422,0,0,0,3.2,1.66,5.643,5.643,0,0,0,2.215-.57,14.16,14.16,0,0,0,3.579-2.571.769.769,0,0,0,.263-.621c0-1.023,0-2.037,0-3.053Z" transform="translate(-225.163 -130.557)" fill="#003b79"/>
      <path id="Path_14" data-name="Path 14" d="M18.808,83.266V71.819c0-.521,0-.521-.526-.521H15.341c-.734,0-1.052-.291-1.066-1.015q-.022-1.311,0-2.622a.874.874,0,0,1,1-.976c.981-.012,1.961-.006,2.942,0,.65,0,.591,0,.592-.606,0-1.536-.021-3.073.013-4.606a13.5,13.5,0,0,1,.753-4.309,7.307,7.307,0,0,1,1.664-2.691,6.574,6.574,0,0,1,2.533-1.583,10.518,10.518,0,0,1,2.912-.551,14.866,14.866,0,0,1,5.832.931,5.3,5.3,0,0,1,1.143.564,2.157,2.157,0,0,1,.53.465.843.843,0,0,1,.152.895q-.527,1.276-1.066,2.55a1.721,1.721,0,0,1-.228.357.888.888,0,0,1-.91.342,7.661,7.661,0,0,1-1.449-.462,11,11,0,0,0-2.343-.678,6.016,6.016,0,0,0-2.078.023,2.115,2.115,0,0,0-1.62,1.432,6.877,6.877,0,0,0-.356,1.8c-.088,1-.068,2.007-.07,3.01v2.622c0,.095,0,.188.006.283a.194.194,0,0,0,.2.2c.118.008.236.009.354.009h7.16a3.022,3.022,0,0,1,.738.075.823.823,0,0,1,.653.983,3.72,3.72,0,0,1-.152.654c-.219.636-.436,1.274-.636,1.917a1.392,1.392,0,0,1-1.385.993c-2.15-.018-4.3-.008-6.449-.006-.487,0-.489,0-.489.489V94.368c0,.166,0,.331-.006.5a1.093,1.093,0,0,1-1.079,1.1c-.095.008-.188.006-.283.006h-2.7a2.056,2.056,0,0,1-.494-.041A1.033,1.033,0,0,1,18.8,94.9c-.008-.13,0-.26,0-.39Q18.806,88.881,18.808,83.266Z" transform="translate(-14.263 -52.321)" fill="#003b79"/>
      <path id="Path_15" data-name="Path 15" d="M424.707,107.262v-8.4c0-.8.077-.709-.729-.712-1.016,0-2.032,0-3.048,0a.9.9,0,0,1-1.035-.979c-.025-.9-.025-1.8,0-2.692.018-.636.351-.935,1-.941,1.087-.01,2.174,0,3.261,0,.549,0,.551,0,.551-.545v-6.8a1.226,1.226,0,0,1,1.029-1.4c1.122-.326,2.234-.69,3.381-.929.6-.125.926.133,1,.737a7.086,7.086,0,0,1,.05.848q0,3.757,0,7.514c0,.579,0,.579.594.579H438.1a3.127,3.127,0,0,1,.7.063.84.84,0,0,1,.69.963,1.424,1.424,0,0,1-.028.211,20.235,20.235,0,0,1-.883,2.652,1.227,1.227,0,0,1-1.235.731c-2.195-.006-4.395,0-6.592,0-.582,0-.583,0-.583.582v16.585a7.059,7.059,0,0,0,.142,1.514,2.18,2.18,0,0,0,2.195,1.851,8.4,8.4,0,0,0,3.72-.544c.6-.221,1.183-.477,1.765-.737a3.55,3.55,0,0,1,.631-.233.885.885,0,0,1,1.087.61c.246.825.47,1.66.724,2.483a1.045,1.045,0,0,1-.39,1.223,5.061,5.061,0,0,1-1.191.7,18.742,18.742,0,0,1-4.488,1.272,11.267,11.267,0,0,1-1.938.174,10,10,0,0,1-3.536-.644,6.026,6.026,0,0,1-3.8-4.275,11.278,11.278,0,0,1-.376-2.943c-.021-2.835-.008-5.671-.008-8.5Z" transform="translate(-359.972 -79.175)" fill="#003b79"/>
      <path id="Path_16" data-name="Path 16" d="M173.451,71.11q0,8.451,0,16.9a21.986,21.986,0,0,0,.13,2.474,2.137,2.137,0,0,0,.2.677A1.787,1.787,0,0,0,175.7,92.21a6.137,6.137,0,0,0,1.881-.471,6.069,6.069,0,0,1,.7-.244.833.833,0,0,1,1.106.6q.408,1.152.811,2.305a.932.932,0,0,1-.4,1.254,5.9,5.9,0,0,1-2.034.8,12.139,12.139,0,0,1-2.837.384,7.852,7.852,0,0,1-4.181-1.013,4.627,4.627,0,0,1-2.195-3.045,17.643,17.643,0,0,1-.369-2.342c-.2-2.143-.2-4.29-.2-6.44q0-14.633,0-29.268a2.965,2.965,0,0,1,.059-.74,1.01,1.01,0,0,1,.773-.793q1.6-.388,3.2-.764a2.407,2.407,0,0,1,.387-.045.841.841,0,0,1,.966.732,3.72,3.72,0,0,1,.068.811V71.109l.02.005Z" transform="translate(-145.273 -52.373)" fill="#003b79"/>
      <path id="Path_17" data-name="Path 17" d="M476.441,427.86c-.121-.083-.125-.209-.161-.317q-1.3-4.087-2.591-8.175-.519-1.639-1.041-3.275l-1.449-4.559c-.01-.034-.024-.068-.031-.1-.053-.226-.025-.265.219-.283.071-.006.142,0,.213,0h9.675c.457,0,.465.006.337.427-.326,1.062-.662,2.119-.994,3.179l-2.533,8.081q-.764,2.434-1.533,4.867A.21.21,0,0,1,476.441,427.86Z" transform="translate(-403.673 -358.159)" fill="#00a0d1"/>
      <path id="Path_18" data-name="Path 18" d="M527.679,490.668h-4.819c-.554,0-.558-.011-.4-.53q.793-2.518,1.582-5.036c.036-.112.077-.223.112-.336a.26.26,0,0,1,.266-.192q.142,0,.283,0h6.059c.35.008.372.018.479.347.216.663.425,1.328.635,1.99l1.023,3.243c.021.068.046.134.063.2.063.246.034.291-.223.31-.107.008-.213,0-.319,0Q530.055,490.672,527.679,490.668Z" transform="translate(-447.333 -420.741)" fill="#003b79"/>
      <path id="Path_19" data-name="Path 19" d="M663.437,426.865V423c-.013-.257-.037-.29-.29-.294-.413-.008-.827,0-1.24,0-.511,0-.516,0-.517-.509,0-.224-.006-.449,0-.674.012-.257.063-.31.319-.32.283-.012.564,0,.851,0,.177,0,.354,0,.532,0,.307-.009.34-.038.341-.356,0-.886,0-1.772,0-2.658,0-.6-.071-.591.574-.765.307-.083.611-.18.92-.262s.356-.053.363.266c.006.251,0,.5,0,.744v2.587c0,.425.019.445.439.445h3.187c.344.013.381.059.279.376-.086.27-.177.539-.271.806-.109.305-.125.322-.461.322h-2.658c-.512,0-.514,0-.514.5v6.768a3.871,3.871,0,0,0,.071.845,1.161,1.161,0,0,0,1.16,1,4,4,0,0,0,1.831-.328c.219-.088.433-.188.651-.28s.269-.074.342.145c.09.269.161.544.241.815a.461.461,0,0,1-.214.549,1.265,1.265,0,0,1-.184.1,6.752,6.752,0,0,1-2.881.641,3.46,3.46,0,0,1-1.373-.307,2.349,2.349,0,0,1-1.357-1.63,4.479,4.479,0,0,1-.145-1.121v-3.544S663.438,426.865,663.437,426.865Z" transform="translate(-565.819 -363.249)" fill="#003b79"/>
      <path id="Path_20" data-name="Path 20" d="M781.274,455.111a9.548,9.548,0,0,1-3.29-.773,1.35,1.35,0,0,1-.275-.161c-.22-.17-.244-.29-.125-.549s.229-.519.354-.773c.114-.229.155-.244.387-.149.251.1.5.22.747.325a6.5,6.5,0,0,0,1.988.483,2.789,2.789,0,0,0,1.283-.192,1.736,1.736,0,0,0,.579-2.71,3.525,3.525,0,0,0-.908-.669c-.4-.207-.8-.4-1.21-.589a7.978,7.978,0,0,1-1.992-1.205,3.077,3.077,0,0,1-.7-3.574,3.356,3.356,0,0,1,2.822-2.034,6.647,6.647,0,0,1,3.47.65c.011,0,.021.012.031.016.357.192.381.245.219.606-.107.236-.221.47-.342.7-.142.27-.188.291-.474.161a6.6,6.6,0,0,0-1.505-.512,3.744,3.744,0,0,0-1.27-.028,1.456,1.456,0,0,0-1.264,1,1.7,1.7,0,0,0,.288,1.7,3.917,3.917,0,0,0,1.388.958,22.522,22.522,0,0,1,2.158,1.066,2.97,2.97,0,0,1,1.54,2.218,3.3,3.3,0,0,1-2.668,3.87,4.7,4.7,0,0,1-1.227.165Z" transform="translate(-664.797 -384.883)" fill="#003b79"/>
      <path id="Path_21" data-name="Path 21" d="M363.343,446.388a.721.721,0,0,0,.32-.184,2.7,2.7,0,0,1,1.979-.495,1.756,1.756,0,0,1,1.542,1.648,6.553,6.553,0,0,1-.265,2.691,10.423,10.423,0,0,1-.948,2.32,3.01,3.01,0,0,1-1.659,1.517,3.314,3.314,0,0,1-1.954.055,5.67,5.67,0,0,1-1.489-.652c-.359-.216-.388-.285-.3-.694q.45-2.132.906-4.26c.4-1.871.8-3.741,1.187-5.613a.592.592,0,0,1,.508-.548c.209-.036.413-.1.623-.136.251-.043.351.047.342.305a1.64,1.64,0,0,1-.044.279q-.363,1.732-.725,3.466A.431.431,0,0,0,363.343,446.388Zm1.457.648a1.467,1.467,0,0,0-1.07.439,3.4,3.4,0,0,0-1.047,1.846c-.184.828-.357,1.66-.529,2.49-.125.613-.107.641.483.832a1.516,1.516,0,0,0,1.872-.578,4.248,4.248,0,0,0,.47-.789,8.884,8.884,0,0,0,.69-2.406,4.207,4.207,0,0,0,.088-.912.891.891,0,0,0-.957-.922Z" transform="translate(-309.389 -384.482)" fill="#00a0d1"/>
      <path id="Path_22" data-name="Path 22" d="M401.811,474.358a10.457,10.457,0,0,0,.521-1.125q1.116-2.565,2.226-5.136c.028-.063.058-.13.09-.192.134-.251.205-.285.484-.188a6.7,6.7,0,0,1,.621.255c.224.1.263.192.17.423-.146.361-.309.716-.468,1.07q-1.1,2.459-2.2,4.915c-.3.679-.564,1.38-.916,2.035a6.906,6.906,0,0,1-1.227,1.725,2.817,2.817,0,0,1-3.261.633,1.464,1.464,0,0,1-.5-.334.287.287,0,0,1-.053-.384c.125-.213.255-.425.387-.635a.286.286,0,0,1,.4-.111c.139.063.275.139.413.2a1.427,1.427,0,0,0,1.837-.421,8.7,8.7,0,0,0,.7-1.148c.107-.18.08-.216-.12-.251-.342-.063-.4-.115-.445-.439q-.467-3.152-.933-6.306c-.029-.2-.063-.4-.093-.6a.3.3,0,0,1,.216-.359c.3-.107.6-.214.907-.3.209-.063.3,0,.352.229s.071.49.1.736q.361,2.791.724,5.581a1.064,1.064,0,0,0,.063.125Z" transform="translate(-340.693 -406.332)" fill="#00a0d1"/>
      <path id="Path_23" data-name="Path 23" d="M607.8,444.351c.146-.045.174-.159.238-.24a3.54,3.54,0,0,1,3.067-1.462,2.543,2.543,0,0,1,.752.177c.158.058.236.142.158.32-.2.443-.386.887-.576,1.333-.063.152-.164.167-.314.118a2.17,2.17,0,0,0-2.508.867,2.673,2.673,0,0,0-.489,1.56c.013,2.432.006,4.866,0,7.3,0,.552,0,.552-.545.554-.331,0-.662.006-.993,0-.267-.008-.3-.047-.317-.314-.006-.107,0-.213,0-.319v-7.9a4.715,4.715,0,0,0-.574-2.45c-.23-.4-.211-.409.18-.656.279-.176.56-.353.845-.52.213-.125.257-.113.412.084a2.917,2.917,0,0,1,.433.887C607.654,443.907,607.729,444.127,607.8,444.351Z" transform="translate(-518.236 -384.999)" fill="#003b79"/>
      <path id="Path_24" data-name="Path 24" d="M541.97,411.62c.133.037.125.149.155.232q1.317,4.133,2.621,8.267c.008.022.015.045.022.068.1.334.067.384-.269.386q-2.514,0-5.027,0c-.3,0-.338-.047-.251-.338q.4-1.32.82-2.634.886-2.822,1.775-5.638a.667.667,0,0,1,.154-.342Z" transform="translate(-461.66 -358.564)" fill="#003b79"/>
      <path id="Path_25" data-name="Path 25" d="M733.233,450.738v5.53c-.009.371-.034.4-.411.4s-.756.006-1.134,0c-.265-.006-.3-.05-.314-.314-.006-.107,0-.213,0-.319v-9.256c0-.527,0-.527-.521-.527h-1.347c-.337,0-.376-.037-.383-.357q-.011-.39,0-.78c.009-.314.056-.363.383-.367.508-.006,1.016,0,1.524,0h1.736c.433,0,.467.034.468.462Q733.234,447.974,733.233,450.738Z" transform="translate(-623.546 -386.797)" fill="#003b79"/>
      <path id="Path_26" data-name="Path 26" d="M742.084,409.412a1.317,1.317,0,0,1-1.345-1.307,1.352,1.352,0,0,1,1.317-1.345,1.37,1.37,0,0,1,1.366,1.336,1.317,1.317,0,0,1-1.338,1.317Z" transform="translate(-633.452 -354.421)" fill="#003b79"/>
    </g>
    <path id="A_New_Look_at_Partition_Walls" data-name="A New Look at Partition Walls" d="M-45.465,0h1.44L-47.79-10.4h-1.575L-53.145,0h1.44l.84-2.325h4.56Zm-1.23-3.435h-3.78l1.89-5.28Zm15.18-7.035v8.31L-37-10.47H-38.37V0H-37V-8.325L-31.515,0h1.365V-10.47ZM-24.33-7.2a2.412,2.412,0,0,1,2.6,2.49h-5.19A2.546,2.546,0,0,1-24.33-7.2Zm3.84,4.665h-1.47A2.259,2.259,0,0,1-24.27-1.02,2.584,2.584,0,0,1-26.94-3.6h6.57a7.4,7.4,0,0,0,.045-.825,3.768,3.768,0,0,0-3.945-3.93,3.911,3.911,0,0,0-4.065,4.23A3.96,3.96,0,0,0-24.27.135,3.7,3.7,0,0,0-20.49-2.535ZM-16.92,0h1.41l1.98-6.525L-11.55,0h1.41l2.565-8.22h-1.35l-1.86,6.915-2-6.915h-1.395l-2.04,6.9-1.89-6.9h-1.4Zm14.7-10.455V0H2.805V-1.11H-.855v-9.345Zm14.28,6.33a4.012,4.012,0,0,0-4.155-4.23A4.02,4.02,0,0,0,3.75-4.125a3.991,3.991,0,0,0,4.1,4.26A4.076,4.076,0,0,0,12.06-4.125Zm-6.915,0A2.725,2.725,0,0,1,7.89-7.17a2.762,2.762,0,0,1,2.775,3.045,2.791,2.791,0,0,1-2.82,3.06C6.42-1.065,5.145-2.04,5.145-4.125Zm16.515,0a4.012,4.012,0,0,0-4.155-4.23,4.02,4.02,0,0,0-4.155,4.23A3.991,3.991,0,0,0,17.445.135,4.076,4.076,0,0,0,21.66-4.125Zm-6.915,0A2.725,2.725,0,0,1,17.49-7.17a2.762,2.762,0,0,1,2.775,3.045,2.791,2.791,0,0,1-2.82,3.06C16.02-1.065,14.745-2.04,14.745-4.125ZM23.46,0h1.365V-3.63L28.05,0h1.86L26.025-4.125l3.87-4.1H27.99L24.825-4.575V-11.1H23.46ZM34.68-4.14A3.953,3.953,0,0,0,38.565.135,3.433,3.433,0,0,0,41.64-1.53V0h1.38V-8.22H41.64v1.5a3.411,3.411,0,0,0-3.06-1.635A3.9,3.9,0,0,0,34.68-4.14Zm6.96.015a2.813,2.813,0,0,1-2.79,3.06A2.815,2.815,0,0,1,36.075-4.14,2.775,2.775,0,0,1,38.85-7.17,2.816,2.816,0,0,1,41.64-4.125ZM45.63-2.25C45.63-.6,46.455,0,47.91,0h1.23V-1.155H48.135c-.84,0-1.14-.285-1.14-1.095V-7.1H49.14V-8.22H46.995v-2.07H45.63v2.07H44.565V-7.1H45.63ZM-50.437,14.51V10.67h2.01c1.56,0,2.22.72,2.22,1.935,0,1.17-.66,1.905-2.22,1.905Zm5.625-1.905c0-1.71-1.155-3.06-3.615-3.06H-51.8V20h1.365V15.635h2.01C-45.832,15.635-44.812,14.195-44.812,12.6Zm1.185,3.255a3.953,3.953,0,0,0,3.885,4.275,3.433,3.433,0,0,0,3.075-1.665V20h1.38V11.78h-1.38v1.5a3.411,3.411,0,0,0-3.06-1.635A3.9,3.9,0,0,0-43.627,15.86Zm6.96.015a2.813,2.813,0,0,1-2.79,3.06,2.815,2.815,0,0,1-2.775-3.075,2.775,2.775,0,0,1,2.775-3.03A2.816,2.816,0,0,1-36.667,15.875Zm5.055-.345c0-1.9.99-2.49,2.3-2.49h.36V11.63a2.768,2.768,0,0,0-2.655,1.485V11.78h-1.365V20h1.365Zm4.53,2.22c0,1.65.825,2.25,2.28,2.25h1.23V18.845h-1.005c-.84,0-1.14-.285-1.14-1.095V12.9h2.145V11.78h-2.145V9.71h-1.365v2.07h-1.065V12.9h1.065Zm5.16,2.25h1.365V11.78h-1.365Zm.7-9.555a.91.91,0,0,0,.9-.93.91.91,0,0,0-.9-.93.916.916,0,0,0-.93.93A.916.916,0,0,0-21.217,10.445Zm3.285,7.305c0,1.65.825,2.25,2.28,2.25h1.23V18.845h-1.005c-.84,0-1.14-.285-1.14-1.095V12.9h2.145V11.78h-2.145V9.71h-1.365v2.07H-19V12.9h1.065Zm5.16,2.25h1.365V11.78h-1.365Zm.705-9.555a.91.91,0,0,0,.9-.93.91.91,0,0,0-.9-.93.916.916,0,0,0-.93.93A.916.916,0,0,0-12.068,10.445Zm10.785,5.43a4.012,4.012,0,0,0-4.155-4.23,4.02,4.02,0,0,0-4.155,4.23A3.991,3.991,0,0,0-5.5,20.135,4.076,4.076,0,0,0-1.283,15.875Zm-6.915,0A2.725,2.725,0,0,1-5.453,12.83a2.762,2.762,0,0,1,2.775,3.045,2.791,2.791,0,0,1-2.82,3.06C-6.923,18.935-8.2,17.96-8.2,15.875ZM6.532,20h1.35V15.155a3.189,3.189,0,0,0-3.36-3.525,3.037,3.037,0,0,0-2.64,1.32V11.78H.517V20H1.882V15.455c0-1.77.96-2.64,2.355-2.64,1.38,0,2.295.855,2.295,2.535Zm9.7.015L17.752,20l2.52-8.415L22.7,20h1.53l3.03-10.455h-1.47L23.5,18.38,21.1,9.545h-1.53l-2.52,8.865-2.28-8.865H13.312ZM28.252,15.86a3.953,3.953,0,0,0,3.885,4.275,3.433,3.433,0,0,0,3.075-1.665V20h1.38V11.78h-1.38v1.5a3.411,3.411,0,0,0-3.06-1.635A3.9,3.9,0,0,0,28.252,15.86Zm6.96.015a2.8,2.8,0,1,1-5.565-.015,2.775,2.775,0,0,1,2.775-3.03A2.816,2.816,0,0,1,35.212,15.875ZM38.9,20h1.365V8.9H38.9Zm3.69,0h1.365V8.9H42.592Zm9.6-2.235c-.06-2.94-4.83-1.875-4.83-3.825,0-.66.6-1.14,1.6-1.14a1.581,1.581,0,0,1,1.785,1.425h1.365c-.09-1.605-1.29-2.58-3.105-2.58S46,12.68,46,13.94c0,3.06,4.86,1.995,4.86,3.825,0,.675-.6,1.215-1.68,1.215-1.155,0-1.86-.6-1.935-1.4h-1.41c.09,1.5,1.44,2.55,3.36,2.55C51.007,20.135,52.192,19.115,52.192,17.765Z" transform="translate(9069.495 -2862.5)" fill="#333"/>
  </g>
</svg>
