<svg xmlns="http://www.w3.org/2000/svg" width="192.047" height="192" viewBox="0 0 192.047 192">
  <g id="flat-by-artis" transform="translate(-8990.995 2986)">
    <rect id="Rectangle_455" data-name="Rectangle 455" width="192" height="192" transform="translate(8991 -2986)" fill="none"/>
    <g id="FlatbyArtis-01" transform="translate(8991 -2960.08)">
      <path id="Path_13" data-name="Path 13" d="M295.05,168.789c0,3.674-.014,7.345,0,11.019a16.821,16.821,0,0,0,1.083,5.913,20.949,20.949,0,0,0,1.121,2.152,8.05,8.05,0,0,1,.4.81,1.334,1.334,0,0,1-.622,1.827c-1.093.666-2.19,1.326-3.288,1.99-.323.2-.638.4-.97.577a1.688,1.688,0,0,1-2.254-.332,6.165,6.165,0,0,1-1.071-1.517,25.744,25.744,0,0,1-1.286-2.89c-.236-.605-.294-.624-.749-.2a20.359,20.359,0,0,1-4.251,3.064,17.454,17.454,0,0,1-7.6,2.148,15.329,15.329,0,0,1-5.028-.53,11.283,11.283,0,0,1-7.873-7.609,17.788,17.788,0,0,1-.233-10.79,13.478,13.478,0,0,1,5.4-7.446,22.589,22.589,0,0,1,7.39-3.3,40,40,0,0,1,6.672-1.142c1.182-.106,2.362-.212,3.549-.221a3.621,3.621,0,0,0,.5-.052.385.385,0,0,0,.37-.419,25.655,25.655,0,0,0-.283-5.572,7.439,7.439,0,0,0-.261-.864,4.736,4.736,0,0,0-3.125-2.96,10.54,10.54,0,0,0-2.718-.485,21.85,21.85,0,0,0-10.616,2.225c-.445.2-.888.414-1.347.584a1.467,1.467,0,0,1-2.082-.94c-.454-1.177-.9-2.36-1.316-3.549a1.837,1.837,0,0,1,.714-2.475,8.792,8.792,0,0,1,2.112-1.185,32.925,32.925,0,0,1,6.613-1.9,30.4,30.4,0,0,1,7.3-.584,19.654,19.654,0,0,1,6.453,1.276,10.7,10.7,0,0,1,6.6,7.442,18.98,18.98,0,0,1,.652,5.025c.017,3.636,0,7.272,0,10.906a.147.147,0,0,0,.044,0Zm-8.723,6.384v-4.745c0-.151,0-.3-.007-.452a.326.326,0,0,0-.4-.36c-.3.021-.6.064-.9.071a34.17,34.17,0,0,0-5,.487,17.764,17.764,0,0,0-5.468,1.729,8.535,8.535,0,0,0-2.739,2.232,6.945,6.945,0,0,0-1.455,3.735,8.571,8.571,0,0,0,1.2,5.525,5.457,5.457,0,0,0,5.108,2.647,9,9,0,0,0,3.532-.909,22.58,22.58,0,0,0,5.708-4.1,1.227,1.227,0,0,0,.419-.991c-.007-1.631,0-3.249,0-4.869Z" transform="translate(-203.44 -122.488)" fill="#003b79"/>
      <path id="Path_14" data-name="Path 14" d="M21.51,101.665V83.411c0-.831,0-.831-.838-.831H15.981c-1.17,0-1.677-.464-1.7-1.618q-.035-2.091,0-4.182a1.394,1.394,0,0,1,1.59-1.557c1.564-.019,3.127-.009,4.691,0,1.036,0,.942,0,.944-.966,0-2.449-.033-4.9.021-7.345a21.527,21.527,0,0,1,1.2-6.872,11.653,11.653,0,0,1,2.654-4.291,10.483,10.483,0,0,1,4.039-2.525,16.773,16.773,0,0,1,4.644-.878,23.707,23.707,0,0,1,9.3,1.484,8.449,8.449,0,0,1,1.823.9,3.44,3.44,0,0,1,.845.742,1.345,1.345,0,0,1,.243,1.427q-.841,2.035-1.7,4.067a2.745,2.745,0,0,1-.363.57,1.416,1.416,0,0,1-1.451.546,12.217,12.217,0,0,1-2.31-.737,17.541,17.541,0,0,0-3.737-1.081A9.593,9.593,0,0,0,33.4,60.3a3.372,3.372,0,0,0-2.583,2.284,10.966,10.966,0,0,0-.568,2.873c-.141,1.6-.108,3.2-.111,4.8v4.182c0,.151,0,.3.009.452a.31.31,0,0,0,.32.323c.188.012.377.014.565.014H42.449a4.82,4.82,0,0,1,1.177.12,1.312,1.312,0,0,1,1.041,1.568,5.932,5.932,0,0,1-.243,1.043c-.349,1.015-.695,2.032-1.015,3.057A2.219,2.219,0,0,1,41.2,82.6c-3.429-.028-6.855-.012-10.284-.009-.777,0-.779,0-.779.779v36c0,.264.007.528-.009.791a1.743,1.743,0,0,1-1.721,1.747c-.151.012-.3.009-.452.009h-4.3a3.279,3.279,0,0,1-.787-.066,1.648,1.648,0,0,1-1.368-1.639c-.012-.207,0-.414,0-.622Q21.508,110.619,21.51,101.665Z" transform="translate(-14.269 -52.309)" fill="#003b79"/>
      <path id="Path_15" data-name="Path 15" d="M427.58,121.2V107.8c0-1.281.122-1.13-1.163-1.135-1.62-.007-3.24,0-4.861,0a1.433,1.433,0,0,1-1.651-1.561c-.04-1.429-.04-2.864,0-4.293.028-1.015.56-1.491,1.6-1.5,1.733-.016,3.467,0,5.2-.007.876,0,.878,0,.878-.869V87.584a1.955,1.955,0,0,1,1.641-2.23c1.79-.52,3.563-1.1,5.391-1.481.951-.2,1.477.212,1.592,1.175a11.291,11.291,0,0,1,.08,1.352q-.007,5.991,0,11.982c0,.923,0,.923.947.923h11.7a4.988,4.988,0,0,1,1.123.1,1.34,1.34,0,0,1,1.1,1.535,2.27,2.27,0,0,1-.045.337,32.269,32.269,0,0,1-1.408,4.229,1.957,1.957,0,0,1-1.969,1.166c-3.5-.009-7.008,0-10.512,0-.928,0-.93,0-.93.928v26.448a11.256,11.256,0,0,0,.226,2.414,3.476,3.476,0,0,0,3.5,2.951,13.4,13.4,0,0,0,5.932-.867c.956-.353,1.886-.761,2.814-1.175a5.663,5.663,0,0,1,1.006-.372,1.412,1.412,0,0,1,1.733.973c.393,1.316.749,2.647,1.154,3.959a1.667,1.667,0,0,1-.622,1.95,8.07,8.07,0,0,1-1.9,1.119,29.888,29.888,0,0,1-7.157,2.028,17.963,17.963,0,0,1-3.09.278,15.945,15.945,0,0,1-5.638-1.027,9.609,9.609,0,0,1-6.052-6.818,17.984,17.984,0,0,1-.6-4.693c-.033-4.521-.012-9.043-.012-13.562Z" transform="translate(-324.355 -76.402)" fill="#003b79"/>
      <path id="Path_16" data-name="Path 16" d="M176.709,82.253q0,13.476.007,26.952a35.046,35.046,0,0,0,.207,3.945,3.408,3.408,0,0,0,.318,1.079,2.85,2.85,0,0,0,3.05,1.67,9.787,9.787,0,0,0,3-.751,9.675,9.675,0,0,1,1.119-.389,1.329,1.329,0,0,1,1.764.956q.65,1.837,1.293,3.676a1.486,1.486,0,0,1-.645,2,9.4,9.4,0,0,1-3.243,1.269,19.359,19.359,0,0,1-4.524.612,12.521,12.521,0,0,1-6.667-1.615,7.379,7.379,0,0,1-3.5-4.856,28.132,28.132,0,0,1-.589-3.735c-.323-3.417-.325-6.841-.323-10.27q.007-23.335,0-46.673a4.728,4.728,0,0,1,.094-1.18,1.61,1.61,0,0,1,1.232-1.265q2.554-.618,5.11-1.218a3.838,3.838,0,0,1,.617-.071,1.341,1.341,0,0,1,1.54,1.168,5.933,5.933,0,0,1,.108,1.293v27.4a.124.124,0,0,0,.032.008Z" transform="translate(-131.781 -52.364)" fill="#003b79"/>
      <path id="Path_17" data-name="Path 17" d="M479.59,437.8c-.193-.132-.2-.334-.257-.506q-2.07-6.517-4.131-13.037-.827-2.614-1.66-5.223l-2.31-7.27c-.016-.054-.038-.108-.049-.162-.085-.36-.04-.422.349-.452.113-.009.226,0,.339,0H487.3c.728,0,.742.009.537.681-.52,1.693-1.055,3.379-1.585,5.07q-2.02,6.443-4.039,12.886-1.219,3.882-2.444,7.762A.335.335,0,0,1,479.59,437.8Z" transform="translate(-363.554 -326.641)" fill="#00a0d1"/>
      <path id="Path_18" data-name="Path 18" d="M530.835,494.294H523.15c-.883,0-.89-.017-.631-.845q1.265-4.016,2.522-8.03c.057-.179.122-.356.179-.535a.414.414,0,0,1,.424-.306q.226-.007.452-.007h9.662c.558.012.594.028.763.553.344,1.057.678,2.117,1.013,3.174l1.632,5.171c.033.108.073.214.1.323.1.393.054.464-.356.495-.17.012-.339,0-.509,0Q534.624,494.3,530.835,494.294Z" transform="translate(-402.716 -382.775)" fill="#003b79"/>
      <path id="Path_19" data-name="Path 19" d="M664.655,432.66V426.5c-.021-.41-.059-.462-.462-.469-.659-.012-1.319,0-1.978,0-.815,0-.822-.007-.824-.812,0-.358-.009-.716.007-1.074.019-.41.1-.495.509-.511.452-.019.9-.007,1.357-.007.283,0,.565.007.848,0,.49-.014.542-.061.544-.568.007-1.413,0-2.826,0-4.239,0-.961-.113-.942.916-1.22.49-.132.975-.287,1.467-.417s.568-.085.579.424c.009.4,0,.791,0,1.187v4.126c0,.678.031.709.7.709H673.4c.549.021.608.094.445.6-.137.431-.283.86-.433,1.286-.174.487-.2.513-.735.513h-4.239c-.817,0-.82,0-.82.8v10.793a6.164,6.164,0,0,0,.113,1.347,1.851,1.851,0,0,0,1.849,1.59,6.37,6.37,0,0,0,2.92-.523c.349-.141.69-.3,1.039-.447s.429-.118.546.231c.144.429.257.867.384,1.3a.735.735,0,0,1-.341.876,2.022,2.022,0,0,1-.294.167,10.767,10.767,0,0,1-4.595,1.022,5.517,5.517,0,0,1-2.19-.49,3.746,3.746,0,0,1-2.164-2.6,7.142,7.142,0,0,1-.231-1.787v-5.652S664.657,432.66,664.655,432.66Z" transform="translate(-508.992 -331.204)" fill="#003b79"/>
      <path id="Path_20" data-name="Path 20" d="M783.511,462.6a15.227,15.227,0,0,1-5.247-1.232,2.154,2.154,0,0,1-.438-.257c-.351-.271-.389-.462-.2-.876s.365-.827.565-1.232c.181-.365.247-.389.617-.238.4.162.791.351,1.192.518a10.365,10.365,0,0,0,3.17.77,4.447,4.447,0,0,0,2.046-.306,2.769,2.769,0,0,0,.923-4.321,5.619,5.619,0,0,0-1.448-1.067c-.636-.33-1.283-.633-1.929-.94a12.724,12.724,0,0,1-3.177-1.922,4.907,4.907,0,0,1-1.121-5.7,5.352,5.352,0,0,1,4.5-3.243,10.6,10.6,0,0,1,5.534,1.036c.017.007.033.019.049.026.57.306.608.391.349.966-.17.377-.353.749-.546,1.116-.226.431-.3.464-.756.257a10.532,10.532,0,0,0-2.4-.817,5.971,5.971,0,0,0-2.025-.045,2.322,2.322,0,0,0-2.016,1.594,2.71,2.71,0,0,0,.459,2.713,6.247,6.247,0,0,0,2.214,1.528,35.889,35.889,0,0,1,3.441,1.7,4.736,4.736,0,0,1,2.456,3.537,5.266,5.266,0,0,1-4.255,6.172,7.5,7.5,0,0,1-1.957.263Z" transform="translate(-597.774 -350.602)" fill="#003b79"/>
      <path id="Path_21" data-name="Path 21" d="M365.017,448.982a1.15,1.15,0,0,0,.511-.294,4.306,4.306,0,0,1,3.156-.789,2.8,2.8,0,0,1,2.459,2.628,10.449,10.449,0,0,1-.422,4.291,16.62,16.62,0,0,1-1.512,3.7,4.8,4.8,0,0,1-2.645,2.419,5.285,5.285,0,0,1-3.116.087,9.039,9.039,0,0,1-2.374-1.039c-.572-.344-.619-.454-.483-1.107q.717-3.4,1.444-6.794c.633-2.984,1.274-5.965,1.893-8.951a.944.944,0,0,1,.81-.874c.334-.057.659-.16.994-.217.4-.068.56.075.546.487a2.615,2.615,0,0,1-.071.445q-.579,2.762-1.156,5.527A.688.688,0,0,0,365.017,448.982Zm2.324,1.034a2.339,2.339,0,0,0-1.707.7,5.429,5.429,0,0,0-1.67,2.944c-.294,1.321-.57,2.647-.843,3.97-.2.977-.17,1.022.77,1.326a2.418,2.418,0,0,0,2.986-.921,6.771,6.771,0,0,0,.749-1.258,14.169,14.169,0,0,0,1.1-3.836,6.711,6.711,0,0,0,.141-1.455,1.421,1.421,0,0,0-1.526-1.47Z" transform="translate(-278.985 -350.254)" fill="#00a0d1"/>
      <path id="Path_22" data-name="Path 22" d="M404.522,478.337a16.675,16.675,0,0,0,.831-1.794q1.78-4.091,3.549-8.19c.045-.1.092-.207.144-.306.214-.4.327-.454.772-.3a10.68,10.68,0,0,1,.991.407c.358.167.419.306.271.674-.233.575-.492,1.142-.747,1.707q-1.752,3.921-3.507,7.837c-.483,1.083-.9,2.2-1.46,3.245a11.014,11.014,0,0,1-1.957,2.751,4.492,4.492,0,0,1-5.2,1.01,2.334,2.334,0,0,1-.791-.532.458.458,0,0,1-.085-.612c.2-.339.407-.678.617-1.013a.456.456,0,0,1,.638-.177c.221.1.438.221.659.325a2.275,2.275,0,0,0,2.93-.671,13.866,13.866,0,0,0,1.116-1.83c.17-.287.127-.344-.191-.4-.546-.1-.631-.184-.709-.7q-.745-5.027-1.488-10.056c-.047-.316-.1-.634-.148-.949a.475.475,0,0,1,.344-.572c.48-.17.958-.341,1.446-.483.334-.1.485,0,.561.365.08.386.113.782.165,1.173q.576,4.451,1.154,8.9a1.7,1.7,0,0,0,.1.2Z" transform="translate(-307.064 -369.849)" fill="#00a0d1"/>
      <path id="Path_23" data-name="Path 23" d="M609.137,445.371c.233-.071.278-.254.379-.382a5.644,5.644,0,0,1,4.891-2.331,4.057,4.057,0,0,1,1.2.283c.252.092.377.226.252.511-.311.706-.615,1.415-.918,2.126-.1.243-.261.266-.5.188a3.461,3.461,0,0,0-4,1.382,4.263,4.263,0,0,0-.779,2.487c.021,3.879.009,7.76.007,11.638,0,.881,0,.881-.869.883-.528,0-1.055.009-1.583,0-.426-.012-.483-.075-.506-.5-.009-.17,0-.339,0-.509v-12.6a7.518,7.518,0,0,0-.916-3.907c-.367-.631-.337-.652.287-1.046.445-.28.893-.563,1.347-.829.339-.2.41-.181.657.134a4.65,4.65,0,0,1,.69,1.415C608.9,444.664,609.02,445.015,609.137,445.371Z" transform="translate(-466.314 -350.716)" fill="#003b79"/>
      <path id="Path_24" data-name="Path 24" d="M543.629,411.62c.212.059.2.238.247.37q2.1,6.591,4.18,13.183c.012.035.024.071.035.108.153.532.106.612-.429.615q-4.009.007-8.016,0c-.485,0-.539-.075-.4-.539q.643-2.105,1.307-4.2,1.413-4.5,2.831-8.991a1.065,1.065,0,0,1,.245-.546Z" transform="translate(-415.567 -327.004)" fill="#003b79"/>
      <path id="Path_25" data-name="Path 25" d="M735.68,454.3v8.819c-.014.591-.054.636-.655.643s-1.206.009-1.809,0c-.422-.009-.478-.08-.5-.5-.009-.17,0-.339,0-.509V447.992c0-.841,0-.841-.831-.841h-2.148c-.537,0-.6-.059-.61-.57q-.018-.622,0-1.243c.014-.5.089-.579.61-.586.81-.009,1.62,0,2.43,0h2.769c.69,0,.744.054.747.737Q735.681,449.893,735.68,454.3Z" transform="translate(-560.771 -352.327)" fill="#003b79"/>
      <path id="Path_26" data-name="Path 26" d="M742.884,410.989a2.1,2.1,0,0,1-2.145-2.084,2.156,2.156,0,0,1,2.1-2.145,2.184,2.184,0,0,1,2.178,2.131,2.1,2.1,0,0,1-2.133,2.1Z" transform="translate(-569.658 -323.288)" fill="#003b79"/>
    </g>
    <text id="A_New_Look_at_Partition_Walls" data-name="A New Look at Partition Walls" transform="translate(9001.994 -2824)" fill="#333" font-size="12" font-family="Poppins-Regular, Poppins"><tspan x="0" y="0">A New Look at Partition Walls</tspan></text>
  </g>
</svg>
