<svg xmlns="http://www.w3.org/2000/svg" width="160" height="160" viewBox="0 0 160 160">
  <g id="fremgroup" transform="translate(-9448 2986)">
    <rect id="Rectangle_456" data-name="Rectangle 456" width="160" height="160" transform="translate(9448 -2986)" fill="none"/>
    <g id="Layer_1" transform="translate(9472.959 -2954.846)">
      <g id="Group_41" data-name="Group 41" transform="translate(0.972 39.554)">
        <path id="Path_27" data-name="Path 27" d="M29.8,271.488a1.648,1.648,0,0,1-.129.491,1.367,1.367,0,0,1-.258.4,1.156,1.156,0,0,1-.87.366,1.416,1.416,0,0,1-.669-.147,1.34,1.34,0,0,1-.458-.392,1.66,1.66,0,0,1-.263-.555,2.379,2.379,0,0,1,0-1.265,1.744,1.744,0,0,1,.263-.553,1.339,1.339,0,0,1,.458-.392,1.418,1.418,0,0,1,.669-.147,1.307,1.307,0,0,1,.409.065,1.21,1.21,0,0,1,.357.184,1.1,1.1,0,0,1,.274.3,1.276,1.276,0,0,1,.162.4v.013h.407v-.017a1.348,1.348,0,0,0-.189-.555,1.47,1.47,0,0,0-.371-.407,1.623,1.623,0,0,0-.493-.249,2,2,0,0,0-1.382.087,1.7,1.7,0,0,0-.591.46,1.984,1.984,0,0,0-.352.662,2.7,2.7,0,0,0,0,1.574,1.939,1.939,0,0,0,.352.659,1.712,1.712,0,0,0,.591.456,1.906,1.906,0,0,0,.826.171,1.751,1.751,0,0,0,.64-.112,1.5,1.5,0,0,0,.5-.323,1.648,1.648,0,0,0,.347-.5,2.152,2.152,0,0,0,.173-.664v-.017h-.4Z" transform="translate(-26.654 -268.942)"/>
        <path id="Path_28" data-name="Path 28" d="M53.553,276.315a1.292,1.292,0,0,0-.43-.332,1.453,1.453,0,0,0-1.173,0,1.292,1.292,0,0,0-.43.332,1.422,1.422,0,0,0-.263.485,1.888,1.888,0,0,0-.089.589,1.938,1.938,0,0,0,.089.589,1.476,1.476,0,0,0,.263.485,1.243,1.243,0,0,0,.43.328,1.358,1.358,0,0,0,.586.12,1.379,1.379,0,0,0,.586-.12,1.242,1.242,0,0,0,.43-.328,1.421,1.421,0,0,0,.263-.485,1.89,1.89,0,0,0,.089-.589,1.94,1.94,0,0,0-.089-.589,1.449,1.449,0,0,0-.262-.485Zm-1.016,2.279a.88.88,0,0,1-.431-.1.946.946,0,0,1-.309-.273,1.215,1.215,0,0,1-.185-.388,1.6,1.6,0,0,1-.065-.442,1.553,1.553,0,0,1,.065-.442,1.25,1.25,0,0,1,.185-.388.931.931,0,0,1,.309-.273.953.953,0,0,1,.862,0,.965.965,0,0,1,.309.273,1.215,1.215,0,0,1,.185.388,1.614,1.614,0,0,1,.065.442,1.552,1.552,0,0,1-.065.442,1.249,1.249,0,0,1-.185.388.946.946,0,0,1-.309.273A.885.885,0,0,1,52.537,278.594Z" transform="translate(-47.281 -274.764)"/>
        <path id="Path_29" data-name="Path 29" d="M74.482,275.86a1.1,1.1,0,0,0-.54.141.886.886,0,0,0-.366.392.688.688,0,0,0-.3-.392,1,1,0,0,0-.522-.141,1.034,1.034,0,0,0-.582.152,1.119,1.119,0,0,0-.355.4v-.466H71.46v2.894h.382V277.22a1.642,1.642,0,0,1,.049-.416.96.96,0,0,1,.151-.328.7.7,0,0,1,.259-.217.856.856,0,0,1,.379-.079.653.653,0,0,1,.276.054.457.457,0,0,1,.179.147.626.626,0,0,1,.1.222,1.162,1.162,0,0,1,.03.271v1.957h.382v-1.636a2.005,2.005,0,0,1,.036-.382.982.982,0,0,1,.122-.323.647.647,0,0,1,.233-.225.74.74,0,0,1,.369-.084.63.63,0,0,1,.517.181.84.84,0,0,1,.146.531v1.939h.382v-1.957C75.447,276.2,75.122,275.86,74.482,275.86Z" transform="translate(-64.356 -274.764)"/>
        <path id="Path_30" data-name="Path 30" d="M102.852,276.318a1.2,1.2,0,0,0-.407-.334,1.261,1.261,0,0,0-.575-.123,1.212,1.212,0,0,0-.632.166.943.943,0,0,0-.383.427v-.509H100.5v3.948h.382v-1.557a.9.9,0,0,0,.141.227.942.942,0,0,0,.239.194,1.114,1.114,0,0,0,.293.119,1.26,1.26,0,0,0,.314.039,1.3,1.3,0,0,0,.575-.12,1.153,1.153,0,0,0,.407-.331,1.437,1.437,0,0,0,.241-.488,2.137,2.137,0,0,0,.078-.582,2.181,2.181,0,0,0-.078-.582A1.415,1.415,0,0,0,102.852,276.318Zm-.984,2.275a.941.941,0,0,1-.461-.106.916.916,0,0,1-.306-.276,1.163,1.163,0,0,1-.169-.388,1.864,1.864,0,0,1-.052-.438,2.288,2.288,0,0,1,.046-.463,1.024,1.024,0,0,1,.162-.382.844.844,0,0,1,.3-.259,1.041,1.041,0,0,1,.476-.1.792.792,0,0,1,.418.106.917.917,0,0,1,.287.276,1.213,1.213,0,0,1,.165.388,1.854,1.854,0,0,1,0,.875,1.213,1.213,0,0,1-.165.388.917.917,0,0,1-.287.276A.8.8,0,0,1,101.867,278.594Z" transform="translate(-88.794 -274.765)"/>
        <rect id="Rectangle_445" data-name="Rectangle 445" width="0.382" height="3.992" transform="translate(14.875 0.079)"/>
        <path id="Path_31" data-name="Path 31" d="M128.307,276.368a1.152,1.152,0,0,0-1-.509,1.267,1.267,0,0,0-.593.129,1.164,1.164,0,0,0-.407.348,1.5,1.5,0,0,0-.233.49,2.083,2.083,0,0,0-.076.56,2.178,2.178,0,0,0,.076.582,1.452,1.452,0,0,0,.233.488,1.1,1.1,0,0,0,.407.332,1.345,1.345,0,0,0,.593.12,1.228,1.228,0,0,0,.851-.271,1.418,1.418,0,0,0,.412-.763l0-.019H128.2v.013a1.034,1.034,0,0,1-.295.525.84.84,0,0,1-.588.194.806.806,0,0,1-.418-.1.952.952,0,0,1-.288-.258,1.061,1.061,0,0,1-.166-.358,1.555,1.555,0,0,1-.052-.371h2.2v-.016a2.263,2.263,0,0,0-.056-.595,1.517,1.517,0,0,0-.222-.517Zm-1-.184a.8.8,0,0,1,.369.084.871.871,0,0,1,.277.224,1.015,1.015,0,0,1,.178.323,1.258,1.258,0,0,1,.065.361h-1.818a1.556,1.556,0,0,1,.089-.358,1.15,1.15,0,0,1,.183-.323.905.905,0,0,1,.277-.224.824.824,0,0,1,.377-.087Z" transform="translate(-110.253 -274.764)"/>
        <path id="Path_32" data-name="Path 32" d="M143.681,270.96H143.3v.861h-.5v.323h.5v1.939a.532.532,0,0,0,.637.655,1.281,1.281,0,0,0,.157-.006,1.219,1.219,0,0,1,.154,0h.016V274.4h-.017a2.662,2.662,0,0,1-.3.017c-.119-.006-.194-.039-.222-.1a.614.614,0,0,1-.046-.258v-1.914h.582v-.323h-.582Z" transform="translate(-124.391 -270.641)"/>
        <path id="Path_33" data-name="Path 33" d="M155.477,276.368a1.152,1.152,0,0,0-1-.509,1.266,1.266,0,0,0-.593.129,1.162,1.162,0,0,0-.407.348,1.5,1.5,0,0,0-.233.49,2.079,2.079,0,0,0-.076.56,2.182,2.182,0,0,0,.076.582,1.45,1.45,0,0,0,.233.488,1.1,1.1,0,0,0,.407.332,1.344,1.344,0,0,0,.593.12,1.228,1.228,0,0,0,.851-.271,1.419,1.419,0,0,0,.412-.763l0-.019h-.382v.013a1.034,1.034,0,0,1-.295.525.84.84,0,0,1-.588.194.806.806,0,0,1-.418-.1.953.953,0,0,1-.288-.258,1.063,1.063,0,0,1-.166-.358,1.56,1.56,0,0,1-.052-.371h2.2v-.016a2.258,2.258,0,0,0-.055-.595A1.583,1.583,0,0,0,155.477,276.368Zm-1-.184a.8.8,0,0,1,.369.084.871.871,0,0,1,.277.224,1.016,1.016,0,0,1,.178.323,1.258,1.258,0,0,1,.065.361h-1.818a1.56,1.56,0,0,1,.089-.358,1.152,1.152,0,0,1,.184-.323.905.905,0,0,1,.277-.224.82.82,0,0,1,.38-.087Z" transform="translate(-133.117 -274.764)"/>
        <path id="Path_34" data-name="Path 34" d="M172.488,291.36h.234a.58.58,0,0,1-.01.123.655.655,0,0,1-.046.152.621.621,0,0,1-.081.133.233.233,0,0,1-.109.078h-.011v.271l.021,0a.584.584,0,0,0,.22-.114.721.721,0,0,0,.155-.184.865.865,0,0,0,.094-.227,1,1,0,0,0,.032-.246v-.6h-.5v.618Z" transform="translate(-149.358 -287.286)"/>
        <rect id="Rectangle_446" data-name="Rectangle 446" width="0.382" height="2.894" transform="translate(25.769 1.177)"/>
        <rect id="Rectangle_447" data-name="Rectangle 447" width="0.382" height="0.591" transform="translate(25.769 0.079)"/>
        <path id="Path_35" data-name="Path 35" d="M197.641,276.152a.812.812,0,0,0-.332-.224,1.431,1.431,0,0,0-.507-.079,1.067,1.067,0,0,0-.569.16.868.868,0,0,0-.343.381v-.456h-.382v2.894h.382v-1.685a1.273,1.273,0,0,1,.065-.388.936.936,0,0,1,.175-.306.809.809,0,0,1,.273-.2.87.87,0,0,1,.368-.073.819.819,0,0,1,.346.065.552.552,0,0,1,.218.178.729.729,0,0,1,.114.268,1.615,1.615,0,0,1,.033.337v1.8h.382v-1.857a1.977,1.977,0,0,0-.05-.464.828.828,0,0,0-.176-.351Z" transform="translate(-168.747 -274.756)"/>
        <path id="Path_36" data-name="Path 36" d="M215.23,277.5a1.018,1.018,0,0,0-.265-.155,1.3,1.3,0,0,0-.3-.081l-.466-.1c-.059-.014-.124-.035-.194-.059a.917.917,0,0,1-.19-.09.493.493,0,0,1-.143-.129.315.315,0,0,1-.056-.187.4.4,0,0,1,.059-.225.461.461,0,0,1,.155-.147.7.7,0,0,1,.214-.081,1.089,1.089,0,0,1,.512.011.673.673,0,0,1,.23.111.549.549,0,0,1,.158.194.64.64,0,0,1,.065.274v.016h.382v-.016a1.04,1.04,0,0,0-.1-.41.871.871,0,0,0-.228-.293.916.916,0,0,0-.333-.174,1.581,1.581,0,0,0-.791-.011,1.208,1.208,0,0,0-.352.141.778.778,0,0,0-.259.255.793.793,0,0,0-.036.7.607.607,0,0,0,.172.215.961.961,0,0,0,.259.146,2.507,2.507,0,0,0,.318.1l.449.1q.116.028.228.065a.85.85,0,0,1,.2.1.437.437,0,0,1,.136.14.385.385,0,0,1,.05.206.4.4,0,0,1-.071.242.573.573,0,0,1-.187.165.842.842,0,0,1-.247.092,1.359,1.359,0,0,1-.259.027.925.925,0,0,1-.575-.178.68.68,0,0,1-.252-.523v-.014h-.382v.017a1.034,1.034,0,0,0,.364.776,1.339,1.339,0,0,0,.827.242,1.917,1.917,0,0,0,.409-.045,1.147,1.147,0,0,0,.374-.149.875.875,0,0,0,.274-.271.736.736,0,0,0,.108-.406.712.712,0,0,0-.074-.334A.671.671,0,0,0,215.23,277.5Z" transform="translate(-183.578 -274.791)"/>
        <path id="Path_37" data-name="Path 37" d="M233.322,276.318a1.2,1.2,0,0,0-.407-.334,1.261,1.261,0,0,0-.575-.123,1.212,1.212,0,0,0-.632.166.945.945,0,0,0-.383.427v-.509h-.353v3.948h.382v-1.557a.894.894,0,0,0,.141.227.943.943,0,0,0,.239.194,1.116,1.116,0,0,0,.293.119,1.26,1.26,0,0,0,.314.039,1.3,1.3,0,0,0,.575-.12,1.15,1.15,0,0,0,.407-.331,1.431,1.431,0,0,0,.241-.488,2.141,2.141,0,0,0,.078-.582,2.178,2.178,0,0,0-.078-.582A1.415,1.415,0,0,0,233.322,276.318Zm-.982,2.275a.941.941,0,0,1-.461-.106.918.918,0,0,1-.306-.276,1.169,1.169,0,0,1-.169-.388,1.862,1.862,0,0,1-.052-.438,2.287,2.287,0,0,1,.046-.463,1.024,1.024,0,0,1,.161-.382.843.843,0,0,1,.3-.259,1.041,1.041,0,0,1,.476-.1.792.792,0,0,1,.418.106.915.915,0,0,1,.287.276,1.214,1.214,0,0,1,.165.388,1.853,1.853,0,0,1,0,.875,1.213,1.213,0,0,1-.165.388.915.915,0,0,1-.287.276A.8.8,0,0,1,232.34,278.594Z" transform="translate(-198.588 -274.765)"/>
        <rect id="Rectangle_448" data-name="Rectangle 448" width="0.382" height="0.591" transform="translate(35.552 0.079)"/>
        <rect id="Rectangle_449" data-name="Rectangle 449" width="0.382" height="2.894" transform="translate(35.552 1.177)"/>
        <path id="Path_38" data-name="Path 38" d="M258.033,276.3a1.105,1.105,0,0,0-.4.5v-.632h-.353v2.894h.382v-1.541a1.085,1.085,0,0,1,.076-.412.945.945,0,0,1,.545-.536,1.053,1.053,0,0,1,.426-.065h.016v-.382h-.016a1.089,1.089,0,0,0-.677.176Z" transform="translate(-220.729 -274.99)"/>
        <path id="Path_39" data-name="Path 39" d="M269.207,276.368a1.152,1.152,0,0,0-1-.509,1.268,1.268,0,0,0-.593.129,1.164,1.164,0,0,0-.407.348,1.506,1.506,0,0,0-.233.49,2.087,2.087,0,0,0-.076.56,2.178,2.178,0,0,0,.076.582,1.45,1.45,0,0,0,.233.488,1.1,1.1,0,0,0,.407.332,1.344,1.344,0,0,0,.593.12,1.228,1.228,0,0,0,.851-.271,1.418,1.418,0,0,0,.412-.763l0-.019H269.1v.013a1.034,1.034,0,0,1-.295.525.84.84,0,0,1-.588.194.807.807,0,0,1-.418-.1.952.952,0,0,1-.288-.258,1.059,1.059,0,0,1-.166-.358,1.545,1.545,0,0,1-.052-.371h2.2v-.016a2.249,2.249,0,0,0-.056-.595,1.515,1.515,0,0,0-.224-.518Zm-1-.184a.8.8,0,0,1,.369.084.872.872,0,0,1,.277.224,1.016,1.016,0,0,1,.178.323,1.251,1.251,0,0,1,.068.361h-1.815a1.564,1.564,0,0,1,.089-.358,1.148,1.148,0,0,1,.184-.323.9.9,0,0,1,.277-.224.816.816,0,0,1,.374-.087Z" transform="translate(-228.824 -274.764)"/>
        <path id="Path_40" data-name="Path 40" d="M287.588,271.052a.894.894,0,0,0-.141-.227,1,1,0,0,0-.239-.2,1.061,1.061,0,0,0-.29-.12,1.357,1.357,0,0,0-.893.084,1.2,1.2,0,0,0-.407.334,1.437,1.437,0,0,0-.241.488,2.14,2.14,0,0,0-.078.582,2.21,2.21,0,0,0,.078.582,1.437,1.437,0,0,0,.241.488,1.154,1.154,0,0,0,.407.332,1.282,1.282,0,0,0,.575.12,1.158,1.158,0,0,0,.317-.045,1.336,1.336,0,0,0,.3-.129,1.094,1.094,0,0,0,.25-.2.837.837,0,0,0,.147-.215v.509h.354V269.45h-.382Zm-.987-.258a.941.941,0,0,1,.461.106.915.915,0,0,1,.306.276,1.161,1.161,0,0,1,.169.388,1.858,1.858,0,0,1,0,.875,1.151,1.151,0,0,1-.169.388.917.917,0,0,1-.306.276.936.936,0,0,1-.461.106.793.793,0,0,1-.418-.106.917.917,0,0,1-.287-.276,1.219,1.219,0,0,1-.165-.388,1.863,1.863,0,0,1,0-.875,1.229,1.229,0,0,1,.165-.388.914.914,0,0,1,.287-.276.807.807,0,0,1,.418-.109Z" transform="translate(-244.308 -269.371)"/>
        <path id="Path_41" data-name="Path 41" d="M315.838,271.052a.9.9,0,0,0-.141-.227,1,1,0,0,0-.239-.2,1.056,1.056,0,0,0-.29-.12,1.357,1.357,0,0,0-.892.084,1.2,1.2,0,0,0-.407.334,1.435,1.435,0,0,0-.241.488,2.124,2.124,0,0,0-.077.582,2.2,2.2,0,0,0,.077.582,1.435,1.435,0,0,0,.241.488,1.151,1.151,0,0,0,.407.332,1.282,1.282,0,0,0,.575.12,1.158,1.158,0,0,0,.317-.045,1.332,1.332,0,0,0,.3-.129,1.091,1.091,0,0,0,.25-.2.841.841,0,0,0,.147-.215v.509h.354V269.45h-.382v1.6Zm-.989-.258a.941.941,0,0,1,.462.106.915.915,0,0,1,.305.276,1.158,1.158,0,0,1,.17.388,1.863,1.863,0,0,1,0,.875,1.148,1.148,0,0,1-.17.388.916.916,0,0,1-.305.276.937.937,0,0,1-.462.106.793.793,0,0,1-.418-.106.919.919,0,0,1-.287-.276,1.219,1.219,0,0,1-.165-.388,1.859,1.859,0,0,1,0-.875,1.225,1.225,0,0,1,.165-.388.919.919,0,0,1,.287-.276.807.807,0,0,1,.418-.109Z" transform="translate(-268.081 -269.371)"/>
        <path id="Path_42" data-name="Path 42" d="M335.767,276.368a1.152,1.152,0,0,0-1-.509,1.267,1.267,0,0,0-.593.129,1.164,1.164,0,0,0-.407.348,1.51,1.51,0,0,0-.233.49,2.087,2.087,0,0,0-.076.56,2.179,2.179,0,0,0,.076.582,1.461,1.461,0,0,0,.233.488,1.1,1.1,0,0,0,.407.332,1.345,1.345,0,0,0,.593.12,1.228,1.228,0,0,0,.851-.271,1.418,1.418,0,0,0,.412-.763l0-.019h-.382v.013a1.032,1.032,0,0,1-.295.525.839.839,0,0,1-.588.194.807.807,0,0,1-.418-.1.955.955,0,0,1-.288-.258,1.059,1.059,0,0,1-.166-.358,1.554,1.554,0,0,1-.052-.371h2.2v-.016a2.257,2.257,0,0,0-.055-.595,1.522,1.522,0,0,0-.226-.517Zm-1-.184a.8.8,0,0,1,.369.084.873.873,0,0,1,.277.224,1.013,1.013,0,0,1,.178.323,1.251,1.251,0,0,1,.068.361h-1.818a1.555,1.555,0,0,1,.089-.358,1.155,1.155,0,0,1,.183-.323.908.908,0,0,1,.277-.224A.814.814,0,0,1,334.771,276.185Z" transform="translate(-284.836 -274.764)"/>
        <path id="Path_43" data-name="Path 43" d="M353.71,277.5a1.016,1.016,0,0,0-.265-.155,1.292,1.292,0,0,0-.3-.081l-.466-.1c-.059-.014-.123-.035-.194-.059a.921.921,0,0,1-.19-.09.491.491,0,0,1-.143-.129.314.314,0,0,1-.056-.187.4.4,0,0,1,.059-.225.46.46,0,0,1,.155-.147.7.7,0,0,1,.214-.081,1.089,1.089,0,0,1,.512.011.674.674,0,0,1,.23.111.553.553,0,0,1,.158.194.644.644,0,0,1,.065.274v.016h.382v-.016a1.047,1.047,0,0,0-.1-.41.872.872,0,0,0-.228-.293.918.918,0,0,0-.333-.174,1.583,1.583,0,0,0-.791-.011,1.211,1.211,0,0,0-.351.141.783.783,0,0,0-.259.255.793.793,0,0,0-.036.7.6.6,0,0,0,.173.215.954.954,0,0,0,.258.146,2.509,2.509,0,0,0,.318.1l.449.1q.116.028.228.065a.839.839,0,0,1,.2.1.442.442,0,0,1,.137.14.391.391,0,0,1,.05.206.4.4,0,0,1-.071.242.571.571,0,0,1-.187.165.84.84,0,0,1-.248.092,1.356,1.356,0,0,1-.258.027.924.924,0,0,1-.575-.178.679.679,0,0,1-.252-.523v-.014h-.382v.017a1.034,1.034,0,0,0,.364.776,1.339,1.339,0,0,0,.827.242,1.92,1.92,0,0,0,.409-.045,1.148,1.148,0,0,0,.374-.149.882.882,0,0,0,.274-.271.74.74,0,0,0,.108-.406.715.715,0,0,0-.074-.334A.655.655,0,0,0,353.71,277.5Z" transform="translate(-300.112 -274.791)"/>
        <rect id="Rectangle_450" data-name="Rectangle 450" width="0.382" height="2.894" transform="translate(54.327 1.177)"/>
        <rect id="Rectangle_451" data-name="Rectangle 451" width="0.382" height="0.591" transform="translate(54.327 0.079)"/>
        <path id="Path_44" data-name="Path 44" d="M377.165,276.4a.9.9,0,0,0-.125-.184,1.136,1.136,0,0,0-.211-.189,1,1,0,0,0-.258-.129,1.017,1.017,0,0,0-.308-.045,1.289,1.289,0,0,0-.56.116,1.171,1.171,0,0,0-.41.315,1.392,1.392,0,0,0-.252.466,1.821,1.821,0,0,0-.087.563,2.193,2.193,0,0,0,.073.582,1.272,1.272,0,0,0,.233.474,1.125,1.125,0,0,0,.407.319,1.415,1.415,0,0,0,.595.116.986.986,0,0,0,.561-.163,1.024,1.024,0,0,0,.343-.395v.342a1.271,1.271,0,0,1-.212.789.828.828,0,0,1-.693.271,1.253,1.253,0,0,1-.279-.03.873.873,0,0,1-.247-.1.61.61,0,0,1-.189-.171.6.6,0,0,1-.1-.259v-.013h-.381v.017a.825.825,0,0,0,.129.4.945.945,0,0,0,.276.274,1.2,1.2,0,0,0,.374.157,1.8,1.8,0,0,0,.425.05,1.642,1.642,0,0,0,.6-.095.98.98,0,0,0,.4-.276,1.115,1.115,0,0,0,.222-.439,2.224,2.224,0,0,0,.07-.575v-2.645h-.382v.452Zm-.9,2.074a.845.845,0,0,1-.414-.1.882.882,0,0,1-.288-.25,1.071,1.071,0,0,1-.169-.358,1.605,1.605,0,0,1-.056-.417,1.786,1.786,0,0,1,.052-.431,1.115,1.115,0,0,1,.166-.374.887.887,0,0,1,.288-.265.832.832,0,0,1,.42-.1.8.8,0,0,1,.417.1.853.853,0,0,1,.281.273,1.212,1.212,0,0,1,.158.377,1.808,1.808,0,0,1,.049.418,1.536,1.536,0,0,1-.057.417,1.1,1.1,0,0,1-.172.358.9.9,0,0,1-.284.25.8.8,0,0,1-.392.1Z" transform="translate(-319.753 -274.763)"/>
        <path id="Path_45" data-name="Path 45" d="M397.321,276.152a.811.811,0,0,0-.331-.224,1.432,1.432,0,0,0-.507-.079,1.067,1.067,0,0,0-.569.16.87.87,0,0,0-.342.381v-.456h-.382v2.894h.382v-1.685a1.262,1.262,0,0,1,.065-.388.938.938,0,0,1,.174-.306.81.81,0,0,1,.273-.2.87.87,0,0,1,.367-.073.819.819,0,0,1,.346.065.55.55,0,0,1,.219.178.724.724,0,0,1,.115.27,1.61,1.61,0,0,1,.033.337v1.8h.381v-1.857a2,2,0,0,0-.05-.465.819.819,0,0,0-.175-.352Z" transform="translate(-336.784 -274.756)"/>
        <path id="Path_46" data-name="Path 46" d="M423.229,277.5a1,1,0,0,0-.265-.155,1.291,1.291,0,0,0-.3-.081l-.466-.1a2.014,2.014,0,0,1-.194-.059.932.932,0,0,1-.194-.09.493.493,0,0,1-.143-.129.316.316,0,0,1-.056-.187.419.419,0,0,1,.059-.225.481.481,0,0,1,.155-.147.694.694,0,0,1,.214-.081,1.088,1.088,0,0,1,.512.011.673.673,0,0,1,.23.111.549.549,0,0,1,.158.194.642.642,0,0,1,.065.274v.016h.382v-.016a1.081,1.081,0,0,0-.1-.41.869.869,0,0,0-.228-.293.916.916,0,0,0-.333-.174,1.582,1.582,0,0,0-.791-.011,1.21,1.21,0,0,0-.351.141.775.775,0,0,0-.259.259.792.792,0,0,0-.036.7.607.607,0,0,0,.172.215.961.961,0,0,0,.259.146,2.326,2.326,0,0,0,.318.1l.449.1c.078.019.153.04.228.065a.84.84,0,0,1,.2.1.418.418,0,0,1,.136.14.389.389,0,0,1,.051.206.4.4,0,0,1-.071.242.569.569,0,0,1-.187.165.837.837,0,0,1-.247.092,1.359,1.359,0,0,1-.259.027.924.924,0,0,1-.575-.178.68.68,0,0,1-.253-.523v-.014h-.382v.017a1.033,1.033,0,0,0,.365.776,1.338,1.338,0,0,0,.827.242,1.924,1.924,0,0,0,.409-.045,1.149,1.149,0,0,0,.374-.149.876.876,0,0,0,.274-.271.74.74,0,0,0,.108-.406.715.715,0,0,0-.075-.334.655.655,0,0,0-.186-.246Z" transform="translate(-358.614 -274.791)"/>
        <path id="Path_47" data-name="Path 47" d="M440.345,276.315a1.3,1.3,0,0,0-.43-.332,1.453,1.453,0,0,0-1.173,0,1.292,1.292,0,0,0-.43.332,1.422,1.422,0,0,0-.263.485,1.974,1.974,0,0,0,0,1.179,1.455,1.455,0,0,0,.263.485,1.244,1.244,0,0,0,.43.328,1.357,1.357,0,0,0,.586.12,1.379,1.379,0,0,0,.586-.12,1.24,1.24,0,0,0,.43-.328,1.415,1.415,0,0,0,.263-.485,1.886,1.886,0,0,0,.089-.589,1.944,1.944,0,0,0-.089-.589A1.428,1.428,0,0,0,440.345,276.315Zm-1.016,2.279a.88.88,0,0,1-.431-.1.946.946,0,0,1-.309-.273,1.264,1.264,0,0,1-.187-.388,1.617,1.617,0,0,1-.064-.442,1.559,1.559,0,0,1,.064-.442,1.223,1.223,0,0,1,.187-.388.926.926,0,0,1,.309-.273.953.953,0,0,1,.862,0,.965.965,0,0,1,.309.273,1.253,1.253,0,0,1,.186.388,1.619,1.619,0,0,1,.065.442,1.561,1.561,0,0,1-.065.442,1.253,1.253,0,0,1-.186.388.934.934,0,0,1-.309.273A.884.884,0,0,1,439.329,278.594Z" transform="translate(-372.776 -274.764)"/>
        <rect id="Rectangle_452" data-name="Rectangle 452" width="0.381" height="3.992" transform="translate(68.41 0.079)"/>
        <path id="Path_48" data-name="Path 48" d="M466.566,277.9a1.87,1.87,0,0,1-.049.42,1.163,1.163,0,0,1-.154.364.812.812,0,0,1-.258.253.889.889,0,0,1-.954-.1.92.92,0,0,1-.176-.582v-1.879h-.381v1.874a1.772,1.772,0,0,0,.056.459.886.886,0,0,0,.178.344.806.806,0,0,0,.317.218,1.286,1.286,0,0,0,.469.076,1.163,1.163,0,0,0,.593-.155,1.015,1.015,0,0,0,.388-.41v.487h.354v-2.892h-.381Z" transform="translate(-395.187 -275.202)"/>
        <path id="Path_49" data-name="Path 49" d="M482.419,270.96h-.381v.861h-.5v.323h.5v1.939a.532.532,0,0,0,.637.655,1.28,1.28,0,0,0,.157-.006,1.22,1.22,0,0,1,.154,0H483V274.4h-.017a2.663,2.663,0,0,1-.3.017c-.119-.006-.194-.041-.222-.1a.616.616,0,0,1-.046-.258v-1.914H483v-.323h-.582v-.859Z" transform="translate(-409.45 -270.641)"/>
        <rect id="Rectangle_453" data-name="Rectangle 453" width="0.381" height="2.894" transform="translate(73.955 1.177)"/>
        <rect id="Rectangle_454" data-name="Rectangle 454" width="0.381" height="0.591" transform="translate(73.955 0.079)"/>
        <path id="Path_50" data-name="Path 50" d="M501.2,276.315a1.29,1.29,0,0,0-.43-.332,1.452,1.452,0,0,0-1.173,0,1.292,1.292,0,0,0-.43.332,1.421,1.421,0,0,0-.263.485,1.968,1.968,0,0,0,0,1.179,1.447,1.447,0,0,0,.263.485,1.243,1.243,0,0,0,.43.328,1.357,1.357,0,0,0,.586.12,1.379,1.379,0,0,0,.586-.12,1.24,1.24,0,0,0,.43-.328,1.423,1.423,0,0,0,.263-.485,1.886,1.886,0,0,0,.088-.589,1.921,1.921,0,0,0-.088-.589,1.482,1.482,0,0,0-.262-.485Zm-1.017,2.279a.88.88,0,0,1-.431-.1.941.941,0,0,1-.309-.273,1.246,1.246,0,0,1-.187-.388,1.6,1.6,0,0,1-.064-.442,1.546,1.546,0,0,1,.064-.442,1.216,1.216,0,0,1,.187-.388.929.929,0,0,1,.309-.273.954.954,0,0,1,.862,0,.964.964,0,0,1,.309.273,1.25,1.25,0,0,1,.185.388,1.6,1.6,0,0,1,.065.442,1.56,1.56,0,0,1-.064.442,1.261,1.261,0,0,1-.186.388.933.933,0,0,1-.309.273A.876.876,0,0,1,500.187,278.594Z" transform="translate(-423.991 -274.764)"/>
        <path id="Path_51" data-name="Path 51" d="M521.233,276.152a.815.815,0,0,0-.332-.224,1.431,1.431,0,0,0-.507-.079,1.069,1.069,0,0,0-.569.16.871.871,0,0,0-.342.379v-.456H519.1v2.894h.38v-1.685a1.275,1.275,0,0,1,.065-.388.936.936,0,0,1,.174-.306.81.81,0,0,1,.273-.2.868.868,0,0,1,.367-.073.823.823,0,0,1,.346.065.549.549,0,0,1,.218.178.715.715,0,0,1,.115.268,1.631,1.631,0,0,1,.033.337v1.8h.381v-1.857a2.015,2.015,0,0,0-.05-.464A.821.821,0,0,0,521.233,276.152Z" transform="translate(-441.058 -274.756)"/>
        <path id="Path_52" data-name="Path 52" d="M539,277.735a.758.758,0,0,0-.19-.238,1.006,1.006,0,0,0-.265-.155,1.292,1.292,0,0,0-.3-.081l-.466-.1a2,2,0,0,1-.194-.059.937.937,0,0,1-.194-.091.5.5,0,0,1-.143-.129.312.312,0,0,1-.055-.187.409.409,0,0,1,.059-.225.462.462,0,0,1,.155-.147.694.694,0,0,1,.214-.081,1.089,1.089,0,0,1,.512.011.678.678,0,0,1,.23.111.554.554,0,0,1,.158.194.641.641,0,0,1,.064.274v.016h.382v-.016a1.068,1.068,0,0,0-.1-.41.87.87,0,0,0-.228-.293.914.914,0,0,0-.333-.174,1.581,1.581,0,0,0-.791-.011,1.212,1.212,0,0,0-.352.141.738.738,0,0,0-.294.951.6.6,0,0,0,.172.215.965.965,0,0,0,.259.146,2.362,2.362,0,0,0,.318.1l.449.1c.078.019.153.041.228.065a.853.853,0,0,1,.2.095.424.424,0,0,1,.136.14.447.447,0,0,1-.021.449.57.57,0,0,1-.186.165.843.843,0,0,1-.248.092,1.355,1.355,0,0,1-.258.027.923.923,0,0,1-.575-.178.681.681,0,0,1-.252-.523v-.014h-.382v.017a1.036,1.036,0,0,0,.364.775,1.34,1.34,0,0,0,.828.242,1.926,1.926,0,0,0,.409-.045,1.148,1.148,0,0,0,.374-.149.877.877,0,0,0,.274-.271.743.743,0,0,0,.108-.406A.706.706,0,0,0,539,277.735Z" transform="translate(-455.877 -274.791)"/>
      </g>
      <path id="Path_53" data-name="Path 53" d="M201.117,36.346l.463-.344c.152-.114.342-.253.569-.421l.792-.569c1.2-.851,2.986-2.084,5.364-3.485a86.769,86.769,0,0,1,8.832-4.585,91.657,91.657,0,0,1,12.131-4.477c2.281-.661,4.683-1.263,7.2-1.764a73.168,73.168,0,0,1,7.871-1.121,59.228,59.228,0,0,1,8.432-.149,38.862,38.862,0,0,1,8.759,1.459,25.68,25.68,0,0,1,4.31,1.688,18.3,18.3,0,0,1,3.968,2.659,13.761,13.761,0,0,1,3.065,3.862c.1.184.187.375.279.563s.166.388.25.577l.03.073s.034.081.038.1l.049.134.1.271.049.136.049.157.1.314a13.178,13.178,0,0,1,.477,2.484,15.684,15.684,0,0,1-.364,4.976,22.179,22.179,0,0,1-1.671,4.632,35.691,35.691,0,0,1-5.493,7.988c-1.071,1.2-2.206,2.341-3.381,3.43s-2.391,2.127-3.635,3.116a75.447,75.447,0,0,1-7.786,5.4q-2.009,1.219-4.063,2.319t-4.142,2.063c-2.775,1.3-5.591,2.45-8.379,3.444-.705.246-1.408.5-2.107.728l-1.048.346-1.048.328c-1.393.441-2.787.827-4.171,1.19-2.769.724-5.507,1.307-8.19,1.781s-5.309.834-7.86,1.059-5.027.343-7.405.35a65.978,65.978,0,0,1-6.816-.328,43.854,43.854,0,0,1-6.075-1.055c-.936-.246-1.848-.517-2.689-.823s-1.664-.61-2.434-.924a44.969,44.969,0,0,1-4.152-1.939,22.119,22.119,0,0,1-5.235-3.688,10.652,10.652,0,0,1-1.106-1.272c-.117-.151-.194-.274-.249-.354l-.083-.12.089.116c.06.076.141.194.266.339a10.626,10.626,0,0,0,1.163,1.2,17.246,17.246,0,0,0,2.158,1.616,29.533,29.533,0,0,0,3.2,1.757,44.794,44.794,0,0,0,4.184,1.724,42.99,42.99,0,0,0,5.089,1.515,54.439,54.439,0,0,0,12.666.924c2.336-.078,4.765-.263,7.269-.56s5.081-.693,7.707-1.214a105.812,105.812,0,0,0,16.181-4.58q4.124-1.528,8.171-3.48,2.025-.977,4.019-2.068t3.951-2.277A73.4,73.4,0,0,0,258.35,56.3c1.2-.962,2.37-1.967,3.49-3.019s2.2-2.147,3.22-3.3a33.43,33.43,0,0,0,5.18-7.453,19.957,19.957,0,0,0,1.521-4.155A13.466,13.466,0,0,0,272.1,34.1a11.2,11.2,0,0,0-.381-2.054l-.071-.238-.035-.119-.049-.136-.1-.271-.049-.136-.041-.1c-.129-.323-.276-.64-.431-.951a11.6,11.6,0,0,0-2.555-3.3,16.3,16.3,0,0,0-3.49-2.4,23.7,23.7,0,0,0-3.954-1.6,32.988,32.988,0,0,0-4.136-.986q-2.087-.357-4.171-.522a57.5,57.5,0,0,0-8.176-.025,76.054,76.054,0,0,0-7.724.924c-2.482.418-4.864.942-7.129,1.528s-4.413,1.241-6.441,1.917-3.932,1.387-5.694,2.1a95.631,95.631,0,0,0-8.952,4.179c-1.212.642-2.274,1.254-3.2,1.786s-1.694,1.014-2.316,1.409l-.821.525q-.355.227-.591.388Z" transform="translate(-150.271 -19.348)"/>
      <g id="Group_42" data-name="Group 42" transform="translate(0 18.226)">
        <path id="Path_54" data-name="Path 54" d="M20.5,140.557v-1.995h1.784v-.84a3.254,3.254,0,0,1,.9-2.374,3.658,3.658,0,0,1,2.73-.924q.4,0,.8.032t.775.052v2.223a9.009,9.009,0,0,0-1.092-.065,1.145,1.145,0,0,0-.872.284,1.387,1.387,0,0,0-.263.956v.651h2.058v1.995H25.269v8.863H22.286v-8.859Z" transform="translate(-20.5 -134.412)"/>
        <path id="Path_55" data-name="Path 55" d="M72.585,158.974v2.016h.041a3.748,3.748,0,0,1,1.387-1.671,4.01,4.01,0,0,1,.987-.472,3.55,3.55,0,0,1,1.092-.168,2.34,2.34,0,0,1,.651.1v2.772c-.14-.028-.308-.052-.5-.073a5.446,5.446,0,0,0-.567-.032,3.2,3.2,0,0,0-1.387.273,2.4,2.4,0,0,0-.913.745,2.966,2.966,0,0,0-.493,1.1,5.988,5.988,0,0,0-.147,1.364v4.893H69.75V158.972h2.835Z" transform="translate(-61.945 -154.825)"/>
        <path id="Path_56" data-name="Path 56" d="M120.365,167.236a3.057,3.057,0,0,0,3.487.2,1.874,1.874,0,0,0,.8-.956h2.626a4.991,4.991,0,0,1-1.932,2.794,5.7,5.7,0,0,1-3.15.84,6.213,6.213,0,0,1-2.31-.409,4.775,4.775,0,0,1-1.745-1.163,5.267,5.267,0,0,1-1.1-1.81,6.6,6.6,0,0,1-.388-2.31,6.334,6.334,0,0,1,.4-2.268,5.3,5.3,0,0,1,1.135-1.816,5.351,5.351,0,0,1,1.755-1.208,5.606,5.606,0,0,1,2.258-.441,5.17,5.17,0,0,1,2.415.536,4.811,4.811,0,0,1,1.691,1.439,5.931,5.931,0,0,1,.956,2.058,7.619,7.619,0,0,1,.209,2.415h-7.833a3,3,0,0,0,.732,2.1Zm3.371-5.713a2.1,2.1,0,0,0-1.627-.588,2.611,2.611,0,0,0-1.187.241,2.262,2.262,0,0,0-.756.6,2.206,2.206,0,0,0-.4.756,3.388,3.388,0,0,0-.136.715h4.851a3.438,3.438,0,0,0-.744-1.724Z" transform="translate(-101.412 -154.833)"/>
        <path id="Path_57" data-name="Path 57" d="M194.246,158.983v1.471h.043a4.247,4.247,0,0,1,1.422-1.3,3.846,3.846,0,0,1,1.9-.461,4.368,4.368,0,0,1,1.879.4,2.638,2.638,0,0,1,1.292,1.408,4.63,4.63,0,0,1,1.312-1.26,3.49,3.49,0,0,1,1.963-.547,5.808,5.808,0,0,1,1.6.209,3.216,3.216,0,0,1,1.26.672,3.087,3.087,0,0,1,.819,1.208,4.889,4.889,0,0,1,.295,1.8v7.266h-2.983v-6.154q0-.547-.043-1.028a2.182,2.182,0,0,0-.231-.84,1.408,1.408,0,0,0-.556-.567,2.021,2.021,0,0,0-1-.209,1.916,1.916,0,0,0-1.019.241,1.731,1.731,0,0,0-.609.631,2.521,2.521,0,0,0-.295.883,6.753,6.753,0,0,0-.073,1v6.049h-2.985v-6.09c0-.323-.008-.64-.021-.956a2.658,2.658,0,0,0-.179-.872,1.336,1.336,0,0,0-.525-.64,1.992,1.992,0,0,0-1.083-.241,2.228,2.228,0,0,0-.556.1,1.861,1.861,0,0,0-.672.357,2.1,2.1,0,0,0-.556.756,3.072,3.072,0,0,0-.231,1.293v6.3H191.43V158.989h2.816Z" transform="translate(-164.342 -154.834)"/>
        <path id="Path_58" data-name="Path 58" d="M316.544,159.591v10.228a7.333,7.333,0,0,1-.209,1.755,3.9,3.9,0,0,1-.723,1.5,3.553,3.553,0,0,1-1.415,1.04,5.809,5.809,0,0,1-2.284.388,7,7,0,0,1-1.616-.179,3.905,3.905,0,0,1-1.32-.567,2.893,2.893,0,0,1-.911-1.028,3.67,3.67,0,0,1-.388-1.587h.8a2.907,2.907,0,0,0,.357,1.219,2.56,2.56,0,0,0,.767.828,3.241,3.241,0,0,0,1.06.472,5.162,5.162,0,0,0,1.259.147,4.539,4.539,0,0,0,1.859-.336,3.216,3.216,0,0,0,1.187-.872,3.154,3.154,0,0,0,.619-1.219,5.409,5.409,0,0,0,.179-1.376v-2.478h-.06a4.028,4.028,0,0,1-3.9,2.456,4.808,4.808,0,0,1-2.064-.409,3.971,3.971,0,0,1-1.445-1.135,4.892,4.892,0,0,1-.859-1.691,7.439,7.439,0,0,1-.284-2.1,6.751,6.751,0,0,1,.3-2.038,5.09,5.09,0,0,1,.893-1.691,4.294,4.294,0,0,1,1.46-1.157,4.731,4.731,0,0,1,4.369.22,3.619,3.619,0,0,1,1.543,1.848h.043v-2.243h.776Zm-4.726.441a3.492,3.492,0,0,0-1.711.4,3.593,3.593,0,0,0-1.2,1.051,4.768,4.768,0,0,0-.715,1.48,6,6,0,0,0-.241,1.691,6.574,6.574,0,0,0,.241,1.8,4.221,4.221,0,0,0,.735,1.48,3.585,3.585,0,0,0,1.219,1,3.636,3.636,0,0,0,1.671.368,3.723,3.723,0,0,0,1.722-.379,3.557,3.557,0,0,0,1.228-1.028,4.511,4.511,0,0,0,.736-1.48,6.47,6.47,0,0,0,0-3.5,4.377,4.377,0,0,0-.736-1.48,3.634,3.634,0,0,0-1.228-1.019A3.726,3.726,0,0,0,311.819,160.032Z" transform="translate(-261.731 -155.379)"/>
        <path id="Path_59" data-name="Path 59" d="M378,162.974h.065a2.631,2.631,0,0,1,.536-.987,3.785,3.785,0,0,1,.944-.8,4.685,4.685,0,0,1,1.239-.517,5.006,5.006,0,0,1,1.422-.157v.8a3.769,3.769,0,0,0-1.439.129,3.489,3.489,0,0,0-1.543.924,7.816,7.816,0,0,0-.517.609,2.97,2.97,0,0,0-.367.651,4.044,4.044,0,0,0-.231.8,6.843,6.843,0,0,0-.1,1.051v5.9h-.8V160.585h.8Z" transform="translate(-320.673 -156.369)"/>
        <path id="Path_60" data-name="Path 60" d="M408.24,165a7.107,7.107,0,0,1,.323-2.174,5.471,5.471,0,0,1,.956-1.8,4.537,4.537,0,0,1,1.555-1.228,5.207,5.207,0,0,1,4.243,0,4.548,4.548,0,0,1,1.555,1.228,5.464,5.464,0,0,1,.956,1.8A7.1,7.1,0,0,1,418.15,165a7.192,7.192,0,0,1-.323,2.184,5.314,5.314,0,0,1-.956,1.8,4.58,4.58,0,0,1-1.555,1.219,5.207,5.207,0,0,1-4.243,0,4.585,4.585,0,0,1-1.555-1.219,5.314,5.314,0,0,1-.956-1.8A7.193,7.193,0,0,1,408.24,165Zm.8,0a6.3,6.3,0,0,0,.273,1.859,5.046,5.046,0,0,0,.8,1.587,3.889,3.889,0,0,0,1.3,1.1,4.1,4.1,0,0,0,3.568,0,3.879,3.879,0,0,0,1.3-1.1,5.048,5.048,0,0,0,.8-1.587,6.3,6.3,0,0,0,.273-1.859,6.364,6.364,0,0,0-.273-1.859,5.064,5.064,0,0,0-.8-1.587,3.9,3.9,0,0,0-1.3-1.1,4.1,4.1,0,0,0-3.568,0,3.879,3.879,0,0,0-1.3,1.1,5.027,5.027,0,0,0-.8,1.587A6.3,6.3,0,0,0,409.039,165Z" transform="translate(-346.794 -155.39)"/>
        <path id="Path_61" data-name="Path 61" d="M486.969,171.735h-.8v-2.31h-.043a3.446,3.446,0,0,1-.6,1.082,3.978,3.978,0,0,1-2.027,1.312,4.617,4.617,0,0,1-1.239.168,4.914,4.914,0,0,1-1.607-.231,3.14,3.14,0,0,1-1.081-.609,2.949,2.949,0,0,1-.662-.851,3.976,3.976,0,0,1-.347-.956,5.517,5.517,0,0,1-.125-.935c-.014-.3-.021-.563-.021-.788V160.94h.8v6.824a9.856,9.856,0,0,0,.064,1.019,3.075,3.075,0,0,0,.368,1.156,2.7,2.7,0,0,0,.913.956,3.13,3.13,0,0,0,1.723.4,3.831,3.831,0,0,0,1.627-.336,3.5,3.5,0,0,0,1.228-.935,4.138,4.138,0,0,0,.767-1.428,6,6,0,0,0,.263-1.816v-5.838h.8Z" transform="translate(-405.852 -156.727)"/>
        <path id="Path_62" data-name="Path 62" d="M541.888,162.069h.065a4.136,4.136,0,0,1,.42-.883,3.707,3.707,0,0,1,.776-.892,4.135,4.135,0,0,1,2.73-.956,4.7,4.7,0,0,1,2.152.463,4.359,4.359,0,0,1,1.511,1.24,5.32,5.32,0,0,1,.893,1.81,7.81,7.81,0,0,1,.294,2.163,8.222,8.222,0,0,1-.294,2.268,4.979,4.979,0,0,1-.9,1.775,4.111,4.111,0,0,1-1.515,1.163,5.127,5.127,0,0,1-2.159.42,4.847,4.847,0,0,1-2.4-.588,3.431,3.431,0,0,1-1.537-1.911h-.041v6.112h-.776V159.594h.776v2.475Zm3.981,7.876a3.9,3.9,0,0,0,1.821-.4,3.61,3.61,0,0,0,1.263-1.071,4.69,4.69,0,0,0,.737-1.564,7.4,7.4,0,0,0,.011-3.716,5.022,5.022,0,0,0-.716-1.6,3.685,3.685,0,0,0-1.254-1.135,4.225,4.225,0,0,0-3.7-.011,3.561,3.561,0,0,0-1.231,1.112,4.724,4.724,0,0,0-.684,1.587,8.036,8.036,0,0,0-.211,1.859,8.961,8.961,0,0,0,.189,1.859,4.537,4.537,0,0,0,.642,1.575,3.288,3.288,0,0,0,1.222,1.092A4.037,4.037,0,0,0,545.87,169.945Z" transform="translate(-458.608 -155.38)"/>
      </g>
    </g>
    <text id="_Find_Your_Privacy" data-name=" Find Your Privacy" transform="translate(9458.83 -2873.5)" fill="#333" font-size="15" font-family="Poppins-Regular, Poppins"><tspan x="0" y="0" xml:space="preserve"> Find Your Privacy</tspan></text>
  </g>
</svg>
