<svg xmlns="http://www.w3.org/2000/svg" width="192" height="192" viewBox="0 0 192 192">
  <g id="fremgroup" transform="translate(-9448 2986)">
    <rect id="Rectangle_456" data-name="Rectangle 456" width="192" height="192" transform="translate(9448 -2986)" fill="none"/>
    <g id="Layer_1" transform="translate(9448 -2952.64)">
      <g id="Group_41" data-name="Group 41" transform="translate(1.511 61.205)">
        <path id="Path_27" data-name="Path 27" d="M31.518,272.881a2.55,2.55,0,0,1-.2.76,2.115,2.115,0,0,1-.4.616,1.789,1.789,0,0,1-1.346.566,2.192,2.192,0,0,1-1.035-.228,2.074,2.074,0,0,1-.709-.606,2.569,2.569,0,0,1-.407-.858,3.681,3.681,0,0,1,0-1.957,2.7,2.7,0,0,1,.407-.856,2.074,2.074,0,0,1,.709-.606,2.194,2.194,0,0,1,1.035-.228,2.02,2.02,0,0,1,.633.1,1.871,1.871,0,0,1,.552.284,1.7,1.7,0,0,1,.424.461,1.975,1.975,0,0,1,.25.623v.02h.63v-.027a2.086,2.086,0,0,0-.292-.858,2.274,2.274,0,0,0-.574-.63,2.51,2.51,0,0,0-.763-.385,3.088,3.088,0,0,0-2.138.135,2.632,2.632,0,0,0-.915.711,3.07,3.07,0,0,0-.544,1.025,4.175,4.175,0,0,0,0,2.435,3,3,0,0,0,.544,1.02,2.648,2.648,0,0,0,.915.706,2.949,2.949,0,0,0,1.278.265,2.71,2.71,0,0,0,.991-.174,2.314,2.314,0,0,0,.777-.5,2.551,2.551,0,0,0,.537-.78,3.33,3.33,0,0,0,.267-1.027v-.027H31.52Z" transform="translate(-26.66 -268.94)"/>
        <path id="Path_28" data-name="Path 28" d="M54.858,276.564a2,2,0,0,0-.665-.513,2.248,2.248,0,0,0-1.815,0,2,2,0,0,0-.665.513,2.2,2.2,0,0,0-.407.75,2.923,2.923,0,0,0-.137.912,3,3,0,0,0,.137.912,2.285,2.285,0,0,0,.407.75,1.922,1.922,0,0,0,.665.508,2.1,2.1,0,0,0,.907.186,2.134,2.134,0,0,0,.907-.186,1.922,1.922,0,0,0,.665-.508,2.2,2.2,0,0,0,.407-.75,2.923,2.923,0,0,0,.137-.912,3,3,0,0,0-.137-.912,2.242,2.242,0,0,0-.406-.75Zm-1.572,3.526a1.362,1.362,0,0,1-.667-.159,1.465,1.465,0,0,1-.478-.422,1.879,1.879,0,0,1-.287-.6,2.481,2.481,0,0,1-.1-.684,2.4,2.4,0,0,1,.1-.684,1.933,1.933,0,0,1,.287-.6,1.44,1.44,0,0,1,.478-.422,1.475,1.475,0,0,1,1.334,0,1.493,1.493,0,0,1,.478.422,1.88,1.88,0,0,1,.287.6,2.494,2.494,0,0,1,.1.684,2.4,2.4,0,0,1-.1.684,1.933,1.933,0,0,1-.287.6,1.464,1.464,0,0,1-.478.422,1.369,1.369,0,0,1-.667.159Z" transform="translate(-45.16 -274.163)"/>
        <path id="Path_29" data-name="Path 29" d="M76.136,275.86a1.7,1.7,0,0,0-.836.218,1.372,1.372,0,0,0-.566.606,1.065,1.065,0,0,0-.468-.606,1.543,1.543,0,0,0-.807-.218,1.6,1.6,0,0,0-.9.235,1.731,1.731,0,0,0-.549.613v-.721h-.55v4.478h.591v-2.5a2.537,2.537,0,0,1,.076-.643,1.486,1.486,0,0,1,.233-.508,1.076,1.076,0,0,1,.4-.336,1.323,1.323,0,0,1,.586-.123,1.01,1.01,0,0,1,.427.083.706.706,0,0,1,.277.228.969.969,0,0,1,.15.343,1.8,1.8,0,0,1,.047.419v3.028h.591v-2.531a3.1,3.1,0,0,1,.056-.591,1.519,1.519,0,0,1,.189-.5,1,1,0,0,1,.36-.348,1.145,1.145,0,0,1,.571-.13.974.974,0,0,1,.8.28,1.3,1.3,0,0,1,.226.821v3h.591v-3.028C77.63,276.39,77.127,275.86,76.136,275.86Z" transform="translate(-60.474 -274.163)"/>
        <path id="Path_30" data-name="Path 30" d="M104.139,276.569a1.852,1.852,0,0,0-.63-.517,1.952,1.952,0,0,0-.89-.191,1.875,1.875,0,0,0-.978.257,1.46,1.46,0,0,0-.593.66v-.787H100.5V282.1h.591v-2.41a1.384,1.384,0,0,0,.218.351,1.459,1.459,0,0,0,.37.3,1.725,1.725,0,0,0,.454.184,1.952,1.952,0,0,0,.486.061,2.01,2.01,0,0,0,.89-.186,1.784,1.784,0,0,0,.63-.512,2.222,2.222,0,0,0,.373-.755,3.305,3.305,0,0,0,.12-.9,3.37,3.37,0,0,0-.12-.9,2.191,2.191,0,0,0-.373-.764Zm-1.523,3.521a1.456,1.456,0,0,1-.714-.164,1.419,1.419,0,0,1-.473-.427,1.8,1.8,0,0,1-.262-.6,2.885,2.885,0,0,1-.081-.677,3.546,3.546,0,0,1,.071-.716,1.584,1.584,0,0,1,.25-.591,1.306,1.306,0,0,1,.471-.4,1.611,1.611,0,0,1,.736-.152,1.226,1.226,0,0,1,.647.164,1.419,1.419,0,0,1,.444.427,1.878,1.878,0,0,1,.255.6,2.87,2.87,0,0,1,0,1.354,1.877,1.877,0,0,1-.255.6,1.418,1.418,0,0,1-.444.427,1.233,1.233,0,0,1-.645.155Z" transform="translate(-82.393 -274.163)"/>
        <rect id="Rectangle_445" data-name="Rectangle 445" width="0.591" height="6.177" transform="translate(23.011 0.125)"/>
        <path id="Path_31" data-name="Path 31" d="M129.57,276.647a1.783,1.783,0,0,0-1.545-.787,1.961,1.961,0,0,0-.917.2,1.8,1.8,0,0,0-.63.539,2.328,2.328,0,0,0-.36.758,3.218,3.218,0,0,0-.118.866,3.37,3.37,0,0,0,.118.9,2.246,2.246,0,0,0,.36.755,1.7,1.7,0,0,0,.63.513,2.082,2.082,0,0,0,.917.186,1.9,1.9,0,0,0,1.317-.419,2.194,2.194,0,0,0,.638-1.18l.007-.029H129.4v.02a1.6,1.6,0,0,1-.456.812,1.3,1.3,0,0,1-.91.3,1.248,1.248,0,0,1-.647-.159,1.474,1.474,0,0,1-.446-.4,1.643,1.643,0,0,1-.257-.554,2.4,2.4,0,0,1-.081-.574H130v-.025a3.5,3.5,0,0,0-.086-.92,2.349,2.349,0,0,0-.344-.8Zm-1.545-.284a1.241,1.241,0,0,1,.571.13,1.349,1.349,0,0,1,.429.346,1.571,1.571,0,0,1,.275.5,1.947,1.947,0,0,1,.1.559h-2.813a2.413,2.413,0,0,1,.137-.554,1.782,1.782,0,0,1,.284-.5,1.4,1.4,0,0,1,.429-.346,1.275,1.275,0,0,1,.583-.135Z" transform="translate(-101.64 -274.163)"/>
        <path id="Path_32" data-name="Path 32" d="M144.163,270.96h-.591v1.332H142.8v.5h.772v3a.823.823,0,0,0,.986,1.013,1.973,1.973,0,0,0,.243-.01,1.891,1.891,0,0,1,.238-.007h.025v-.508h-.027a4.134,4.134,0,0,1-.459.027c-.184-.01-.3-.061-.343-.155a.95.95,0,0,1-.071-.4V272.79h.9v-.5h-.9Z" transform="translate(-114.32 -270.465)"/>
        <path id="Path_33" data-name="Path 33" d="M156.74,276.647a1.783,1.783,0,0,0-1.545-.787,1.961,1.961,0,0,0-.917.2,1.8,1.8,0,0,0-.63.539,2.328,2.328,0,0,0-.36.758,3.218,3.218,0,0,0-.118.866,3.37,3.37,0,0,0,.118.9,2.246,2.246,0,0,0,.36.755,1.7,1.7,0,0,0,.63.513,2.081,2.081,0,0,0,.917.186,1.9,1.9,0,0,0,1.317-.419,2.194,2.194,0,0,0,.638-1.18l.007-.029h-.591v.02a1.6,1.6,0,0,1-.456.812,1.3,1.3,0,0,1-.91.3,1.248,1.248,0,0,1-.647-.159,1.474,1.474,0,0,1-.446-.4,1.643,1.643,0,0,1-.257-.554,2.4,2.4,0,0,1-.081-.574h3.406v-.025a3.494,3.494,0,0,0-.086-.92A2.448,2.448,0,0,0,156.74,276.647Zm-1.545-.284a1.241,1.241,0,0,1,.571.13,1.348,1.348,0,0,1,.429.346,1.571,1.571,0,0,1,.275.5,1.947,1.947,0,0,1,.1.559h-2.813a2.412,2.412,0,0,1,.137-.554,1.783,1.783,0,0,1,.284-.5,1.4,1.4,0,0,1,.429-.346,1.267,1.267,0,0,1,.588-.135Z" transform="translate(-122.147 -274.163)"/>
        <path id="Path_34" data-name="Path 34" d="M172.5,291.7h.363a.9.9,0,0,1-.015.191,1,1,0,0,1-.071.235.963.963,0,0,1-.125.206.361.361,0,0,1-.169.12h-.017v.419l.032-.007a.905.905,0,0,0,.341-.177,1.115,1.115,0,0,0,.24-.284,1.34,1.34,0,0,0,.145-.351,1.539,1.539,0,0,0,.049-.38v-.934h-.77v.956Z" transform="translate(-136.715 -285.394)"/>
        <rect id="Rectangle_446" data-name="Rectangle 446" width="0.591" height="4.478" transform="translate(39.868 1.824)"/>
        <rect id="Rectangle_447" data-name="Rectangle 447" width="0.591" height="0.915" transform="translate(39.868 0.125)"/>
        <path id="Path_35" data-name="Path 35" d="M198.808,276.318a1.255,1.255,0,0,0-.513-.346,2.215,2.215,0,0,0-.785-.123,1.652,1.652,0,0,0-.88.248,1.343,1.343,0,0,0-.53.589v-.706h-.591v4.478h.591v-2.607a1.962,1.962,0,0,1,.1-.6,1.445,1.445,0,0,1,.27-.473,1.252,1.252,0,0,1,.422-.311,1.347,1.347,0,0,1,.569-.113,1.268,1.268,0,0,1,.535.1.856.856,0,0,1,.338.275,1.129,1.129,0,0,1,.177.414,2.5,2.5,0,0,1,.051.522v2.788h.591v-2.874a3.07,3.07,0,0,0-.078-.718,1.282,1.282,0,0,0-.272-.543Z" transform="translate(-154.105 -274.156)"/>
        <path id="Path_36" data-name="Path 36" d="M216.377,278.376a1.579,1.579,0,0,0-.41-.24,2,2,0,0,0-.463-.125l-.721-.162c-.091-.022-.191-.054-.3-.091a1.414,1.414,0,0,1-.294-.14.762.762,0,0,1-.221-.2.487.487,0,0,1-.086-.289.624.624,0,0,1,.091-.348.713.713,0,0,1,.24-.228,1.075,1.075,0,0,1,.331-.125,1.686,1.686,0,0,1,.792.017,1.041,1.041,0,0,1,.356.172.852.852,0,0,1,.245.3.993.993,0,0,1,.1.424v.025h.591v-.025a1.614,1.614,0,0,0-.15-.635,1.349,1.349,0,0,0-.353-.454,1.419,1.419,0,0,0-.515-.27,2.449,2.449,0,0,0-1.224-.017,1.873,1.873,0,0,0-.544.218,1.205,1.205,0,0,0-.4.395,1.226,1.226,0,0,0-.056,1.077.937.937,0,0,0,.267.333,1.487,1.487,0,0,0,.4.226,3.873,3.873,0,0,0,.493.159l.694.154q.18.044.353.1a1.317,1.317,0,0,1,.307.147.68.68,0,0,1,.211.216.6.6,0,0,1,.078.319.618.618,0,0,1-.11.375.883.883,0,0,1-.289.255,1.3,1.3,0,0,1-.383.142,2.1,2.1,0,0,1-.4.042,1.431,1.431,0,0,1-.89-.275,1.052,1.052,0,0,1-.39-.809v-.022h-.591v.027a1.6,1.6,0,0,0,.564,1.2,2.072,2.072,0,0,0,1.28.375,2.969,2.969,0,0,0,.633-.069,1.777,1.777,0,0,0,.579-.23,1.357,1.357,0,0,0,.424-.419,1.141,1.141,0,0,0,.167-.628,1.1,1.1,0,0,0-.115-.517,1.038,1.038,0,0,0-.291-.38Z" transform="translate(-167.404 -274.185)"/>
        <path id="Path_37" data-name="Path 37" d="M234.609,276.569a1.852,1.852,0,0,0-.63-.517,1.951,1.951,0,0,0-.89-.191,1.875,1.875,0,0,0-.978.257,1.46,1.46,0,0,0-.593.66v-.787h-.547V282.1h.591v-2.41a1.383,1.383,0,0,0,.218.351,1.459,1.459,0,0,0,.37.3,1.727,1.727,0,0,0,.454.184,1.952,1.952,0,0,0,.486.061,2.01,2.01,0,0,0,.89-.186,1.784,1.784,0,0,0,.63-.512,2.221,2.221,0,0,0,.373-.755,3.3,3.3,0,0,0,.12-.9,3.368,3.368,0,0,0-.12-.9,2.19,2.19,0,0,0-.374-.764Zm-1.52,3.521a1.455,1.455,0,0,1-.714-.164,1.419,1.419,0,0,1-.473-.427,1.8,1.8,0,0,1-.262-.6,2.883,2.883,0,0,1-.081-.677,3.548,3.548,0,0,1,.071-.716,1.583,1.583,0,0,1,.25-.591,1.306,1.306,0,0,1,.471-.4,1.611,1.611,0,0,1,.736-.152,1.226,1.226,0,0,1,.647.164,1.419,1.419,0,0,1,.444.427,1.879,1.879,0,0,1,.255.6,2.87,2.87,0,0,1,0,1.354,1.877,1.877,0,0,1-.255.6,1.418,1.418,0,0,1-.444.427A1.245,1.245,0,0,1,233.089,280.09Z" transform="translate(-180.869 -274.163)"/>
        <rect id="Rectangle_448" data-name="Rectangle 448" width="0.591" height="0.915" transform="translate(55.007 0.125)"/>
        <rect id="Rectangle_449" data-name="Rectangle 449" width="0.591" height="4.478" transform="translate(55.007 1.824)"/>
        <path id="Path_38" data-name="Path 38" d="M258.445,276.4a1.712,1.712,0,0,0-.618.77v-.978h-.547v4.478h.591v-2.384a1.677,1.677,0,0,1,.118-.638,1.463,1.463,0,0,1,.844-.829,1.631,1.631,0,0,1,.66-.1h.025v-.591h-.025a1.686,1.686,0,0,0-1.048.272Z" transform="translate(-200.728 -274.367)"/>
        <path id="Path_39" data-name="Path 39" d="M270.47,276.647a1.783,1.783,0,0,0-1.545-.787,1.961,1.961,0,0,0-.917.2,1.8,1.8,0,0,0-.63.539,2.328,2.328,0,0,0-.36.758,3.22,3.22,0,0,0-.118.866,3.371,3.371,0,0,0,.118.9,2.245,2.245,0,0,0,.36.755,1.7,1.7,0,0,0,.63.513,2.082,2.082,0,0,0,.917.186,1.9,1.9,0,0,0,1.317-.419,2.194,2.194,0,0,0,.638-1.18l.007-.029H270.3v.02a1.6,1.6,0,0,1-.456.812,1.3,1.3,0,0,1-.91.3,1.248,1.248,0,0,1-.647-.159,1.474,1.474,0,0,1-.446-.4,1.644,1.644,0,0,1-.257-.554,2.4,2.4,0,0,1-.081-.574h3.4v-.025a3.5,3.5,0,0,0-.086-.92A2.348,2.348,0,0,0,270.47,276.647Zm-1.542-.284a1.24,1.24,0,0,1,.571.13,1.348,1.348,0,0,1,.429.346,1.572,1.572,0,0,1,.275.5,1.945,1.945,0,0,1,.105.559H267.5a2.411,2.411,0,0,1,.137-.554,1.784,1.784,0,0,1,.284-.5,1.4,1.4,0,0,1,.429-.346A1.26,1.26,0,0,1,268.928,276.363Z" transform="translate(-207.989 -274.163)"/>
        <path id="Path_40" data-name="Path 40" d="M288.841,271.929a1.384,1.384,0,0,0-.218-.351,1.543,1.543,0,0,0-.37-.309,1.64,1.64,0,0,0-.449-.186,2.1,2.1,0,0,0-1.381.13,1.853,1.853,0,0,0-.63.517,2.222,2.222,0,0,0-.373.755,3.3,3.3,0,0,0-.12.9,3.414,3.414,0,0,0,.12.9,2.221,2.221,0,0,0,.373.755,1.785,1.785,0,0,0,.63.513,1.984,1.984,0,0,0,.89.186,1.793,1.793,0,0,0,.49-.069,2.058,2.058,0,0,0,.466-.2,1.691,1.691,0,0,0,.387-.309,1.3,1.3,0,0,0,.228-.333v.787h.547V269.45h-.591Zm-1.528-.4a1.455,1.455,0,0,1,.714.164,1.416,1.416,0,0,1,.473.427,1.794,1.794,0,0,1,.262.6,2.87,2.87,0,0,1,0,1.354,1.772,1.772,0,0,1-.262.6,1.419,1.419,0,0,1-.473.427,1.448,1.448,0,0,1-.714.164,1.226,1.226,0,0,1-.647-.164,1.418,1.418,0,0,1-.444-.427,1.888,1.888,0,0,1-.255-.6,2.87,2.87,0,0,1,0-1.354,1.9,1.9,0,0,1,.255-.6,1.418,1.418,0,0,1,.444-.427,1.249,1.249,0,0,1,.647-.169Z" transform="translate(-221.877 -269.325)"/>
        <path id="Path_41" data-name="Path 41" d="M317.091,271.929a1.384,1.384,0,0,0-.218-.351,1.543,1.543,0,0,0-.37-.309,1.639,1.639,0,0,0-.449-.186,2.1,2.1,0,0,0-1.381.13,1.852,1.852,0,0,0-.63.517,2.222,2.222,0,0,0-.373.755,3.3,3.3,0,0,0-.12.9,3.418,3.418,0,0,0,.12.9,2.222,2.222,0,0,0,.373.755,1.784,1.784,0,0,0,.63.513,1.984,1.984,0,0,0,.89.186,1.793,1.793,0,0,0,.49-.069,2.058,2.058,0,0,0,.466-.2,1.693,1.693,0,0,0,.387-.309,1.3,1.3,0,0,0,.228-.333v.787h.547V269.45h-.591v2.479Zm-1.53-.4a1.455,1.455,0,0,1,.714.164,1.416,1.416,0,0,1,.473.427,1.794,1.794,0,0,1,.262.6,2.87,2.87,0,0,1,0,1.354,1.772,1.772,0,0,1-.262.6,1.418,1.418,0,0,1-.473.427,1.448,1.448,0,0,1-.714.164,1.226,1.226,0,0,1-.647-.164,1.419,1.419,0,0,1-.444-.427,1.888,1.888,0,0,1-.255-.6,2.87,2.87,0,0,1,0-1.354,1.9,1.9,0,0,1,.255-.6,1.418,1.418,0,0,1,.444-.427,1.249,1.249,0,0,1,.647-.169Z" transform="translate(-243.199 -269.325)"/>
        <path id="Path_42" data-name="Path 42" d="M337.03,276.647a1.783,1.783,0,0,0-1.545-.787,1.961,1.961,0,0,0-.917.2,1.8,1.8,0,0,0-.63.539,2.327,2.327,0,0,0-.36.758,3.217,3.217,0,0,0-.118.866,3.367,3.367,0,0,0,.118.9,2.245,2.245,0,0,0,.36.755,1.7,1.7,0,0,0,.63.513,2.082,2.082,0,0,0,.917.186,1.9,1.9,0,0,0,1.317-.419,2.194,2.194,0,0,0,.638-1.18l.007-.029h-.591v.02a1.6,1.6,0,0,1-.456.812,1.3,1.3,0,0,1-.91.3,1.248,1.248,0,0,1-.647-.159,1.474,1.474,0,0,1-.446-.4,1.643,1.643,0,0,1-.257-.554,2.4,2.4,0,0,1-.081-.574h3.406v-.025a3.493,3.493,0,0,0-.086-.92,2.347,2.347,0,0,0-.349-.8Zm-1.542-.284a1.24,1.24,0,0,1,.571.13,1.348,1.348,0,0,1,.429.346,1.57,1.57,0,0,1,.275.5,1.945,1.945,0,0,1,.105.559h-2.813a2.411,2.411,0,0,1,.137-.554,1.782,1.782,0,0,1,.284-.5,1.4,1.4,0,0,1,.429-.346,1.26,1.26,0,0,1,.583-.135Z" transform="translate(-258.227 -274.163)"/>
        <path id="Path_43" data-name="Path 43" d="M354.857,278.376a1.579,1.579,0,0,0-.41-.24,2,2,0,0,0-.463-.125l-.721-.162c-.091-.022-.191-.054-.3-.091a1.413,1.413,0,0,1-.294-.14.763.763,0,0,1-.221-.2.487.487,0,0,1-.086-.289.624.624,0,0,1,.091-.348.713.713,0,0,1,.24-.228,1.077,1.077,0,0,1,.331-.125,1.686,1.686,0,0,1,.792.017,1.041,1.041,0,0,1,.356.172.852.852,0,0,1,.245.3.994.994,0,0,1,.1.424v.025h.591v-.025a1.614,1.614,0,0,0-.15-.635,1.348,1.348,0,0,0-.353-.454,1.419,1.419,0,0,0-.515-.27,2.449,2.449,0,0,0-1.224-.017,1.875,1.875,0,0,0-.544.218,1.206,1.206,0,0,0-.4.395,1.226,1.226,0,0,0-.056,1.077.937.937,0,0,0,.267.333,1.485,1.485,0,0,0,.4.226,3.871,3.871,0,0,0,.493.159l.694.154q.18.044.353.1a1.317,1.317,0,0,1,.307.147.681.681,0,0,1,.211.216.6.6,0,0,1,.078.319.618.618,0,0,1-.11.375.884.884,0,0,1-.289.255,1.3,1.3,0,0,1-.383.142,2.1,2.1,0,0,1-.4.042,1.431,1.431,0,0,1-.89-.275,1.052,1.052,0,0,1-.39-.809v-.022h-.591v.027a1.6,1.6,0,0,0,.564,1.2,2.072,2.072,0,0,0,1.28.375,2.969,2.969,0,0,0,.633-.069,1.777,1.777,0,0,0,.579-.23,1.358,1.358,0,0,0,.424-.419,1.141,1.141,0,0,0,.167-.628,1.1,1.1,0,0,0-.115-.517A1.012,1.012,0,0,0,354.857,278.376Z" transform="translate(-271.926 -274.185)"/>
        <rect id="Rectangle_450" data-name="Rectangle 450" width="0.591" height="4.478" transform="translate(84.058 1.824)"/>
        <rect id="Rectangle_451" data-name="Rectangle 451" width="0.591" height="0.915" transform="translate(84.058 0.125)"/>
        <path id="Path_44" data-name="Path 44" d="M378.376,276.7a1.393,1.393,0,0,0-.194-.284,1.759,1.759,0,0,0-.326-.292,1.548,1.548,0,0,0-.4-.2,1.571,1.571,0,0,0-.476-.069,1.994,1.994,0,0,0-.866.179,1.814,1.814,0,0,0-.635.488,2.151,2.151,0,0,0-.39.721,2.822,2.822,0,0,0-.135.871,3.389,3.389,0,0,0,.113.9,1.973,1.973,0,0,0,.36.733,1.745,1.745,0,0,0,.63.493,2.188,2.188,0,0,0,.92.179,1.524,1.524,0,0,0,.868-.253,1.583,1.583,0,0,0,.532-.611v.53a1.968,1.968,0,0,1-.329,1.221,1.281,1.281,0,0,1-1.072.419,1.939,1.939,0,0,1-.432-.047,1.349,1.349,0,0,1-.383-.147.941.941,0,0,1-.292-.265.925.925,0,0,1-.162-.4v-.02h-.589v.027a1.279,1.279,0,0,0,.2.618,1.464,1.464,0,0,0,.427.424,1.853,1.853,0,0,0,.579.243,2.788,2.788,0,0,0,.657.078,2.543,2.543,0,0,0,.922-.147,1.519,1.519,0,0,0,.616-.427,1.725,1.725,0,0,0,.343-.679,3.443,3.443,0,0,0,.108-.89V276h-.591v.7Zm-1.4,3.21a1.306,1.306,0,0,1-.64-.147,1.361,1.361,0,0,1-.446-.387,1.654,1.654,0,0,1-.262-.554,2.477,2.477,0,0,1-.086-.645,2.758,2.758,0,0,1,.081-.667,1.725,1.725,0,0,1,.257-.579,1.373,1.373,0,0,1,.446-.41,1.287,1.287,0,0,1,.65-.157,1.245,1.245,0,0,1,.645.159,1.321,1.321,0,0,1,.434.422,1.877,1.877,0,0,1,.245.584,2.778,2.778,0,0,1,.076.647,2.366,2.366,0,0,1-.088.645,1.71,1.71,0,0,1-.267.554,1.388,1.388,0,0,1-.439.387,1.23,1.23,0,0,1-.606.149Z" transform="translate(-289.543 -274.163)"/>
        <path id="Path_45" data-name="Path 45" d="M398.488,276.318a1.255,1.255,0,0,0-.512-.346,2.215,2.215,0,0,0-.785-.123,1.652,1.652,0,0,0-.88.248,1.343,1.343,0,0,0-.53.589v-.706h-.591v4.478h.591v-2.607a1.96,1.96,0,0,1,.1-.6,1.446,1.446,0,0,1,.27-.473,1.252,1.252,0,0,1,.422-.311,1.347,1.347,0,0,1,.569-.113,1.268,1.268,0,0,1,.535.1.855.855,0,0,1,.338.275,1.123,1.123,0,0,1,.177.417,2.5,2.5,0,0,1,.051.522v2.788h.589v-2.874a3.067,3.067,0,0,0-.078-.719,1.274,1.274,0,0,0-.271-.545Z" transform="translate(-304.82 -274.156)"/>
        <path id="Path_46" data-name="Path 46" d="M424.377,278.376a1.539,1.539,0,0,0-.41-.24,2,2,0,0,0-.463-.125l-.721-.162a3.1,3.1,0,0,1-.3-.091,1.437,1.437,0,0,1-.3-.14.763.763,0,0,1-.221-.2.487.487,0,0,1-.086-.289.644.644,0,0,1,.091-.348.738.738,0,0,1,.24-.228,1.077,1.077,0,0,1,.331-.125,1.687,1.687,0,0,1,.792.017,1.041,1.041,0,0,1,.356.172.852.852,0,0,1,.245.3.993.993,0,0,1,.1.424v.025h.591v-.025a1.658,1.658,0,0,0-.147-.635,1.348,1.348,0,0,0-.353-.454,1.419,1.419,0,0,0-.515-.27,2.449,2.449,0,0,0-1.224-.017,1.874,1.874,0,0,0-.544.218,1.2,1.2,0,0,0-.4.4,1.226,1.226,0,0,0-.056,1.077.937.937,0,0,0,.267.333,1.485,1.485,0,0,0,.4.226,3.628,3.628,0,0,0,.493.159l.694.154q.18.044.353.1a1.314,1.314,0,0,1,.307.147.656.656,0,0,1,.211.216.6.6,0,0,1,.078.319.618.618,0,0,1-.11.375.883.883,0,0,1-.289.255,1.3,1.3,0,0,1-.383.142,2.1,2.1,0,0,1-.4.042,1.431,1.431,0,0,1-.89-.275,1.052,1.052,0,0,1-.39-.809v-.022h-.591v.027a1.6,1.6,0,0,0,.564,1.2,2.072,2.072,0,0,0,1.28.375,2.969,2.969,0,0,0,.633-.069,1.776,1.776,0,0,0,.579-.23,1.358,1.358,0,0,0,.424-.419,1.141,1.141,0,0,0,.167-.628,1.1,1.1,0,0,0-.115-.517,1.011,1.011,0,0,0-.288-.38Z" transform="translate(-324.399 -274.185)"/>
        <path id="Path_47" data-name="Path 47" d="M441.651,276.564a2,2,0,0,0-.665-.513,2.248,2.248,0,0,0-1.815,0,2,2,0,0,0-.665.513,2.2,2.2,0,0,0-.407.75,3.047,3.047,0,0,0,0,1.824,2.241,2.241,0,0,0,.407.75,1.922,1.922,0,0,0,.665.508,2.1,2.1,0,0,0,.907.186,2.134,2.134,0,0,0,.907-.186,1.922,1.922,0,0,0,.665-.508,2.2,2.2,0,0,0,.407-.75,2.924,2.924,0,0,0,.137-.912,3,3,0,0,0-.137-.912A2.2,2.2,0,0,0,441.651,276.564Zm-1.572,3.526a1.362,1.362,0,0,1-.667-.159,1.463,1.463,0,0,1-.478-.422,1.937,1.937,0,0,1-.289-.6,2.483,2.483,0,0,1-.1-.684,2.4,2.4,0,0,1,.1-.684,1.884,1.884,0,0,1,.289-.6,1.44,1.44,0,0,1,.478-.422,1.475,1.475,0,0,1,1.334,0,1.493,1.493,0,0,1,.478.422,1.935,1.935,0,0,1,.287.6,2.5,2.5,0,0,1,.1.684,2.406,2.406,0,0,1-.1.684,1.933,1.933,0,0,1-.287.6,1.44,1.44,0,0,1-.478.422A1.369,1.369,0,0,1,440.079,280.09Z" transform="translate(-337.102 -274.163)"/>
        <rect id="Rectangle_452" data-name="Rectangle 452" width="0.589" height="6.177" transform="translate(105.851 0.125)"/>
        <path id="Path_48" data-name="Path 48" d="M467.645,278.732a2.871,2.871,0,0,1-.076.65,1.794,1.794,0,0,1-.238.564,1.261,1.261,0,0,1-.4.392,1.375,1.375,0,0,1-1.476-.152,1.425,1.425,0,0,1-.272-.9v-2.908h-.589v2.9a2.732,2.732,0,0,0,.086.711,1.372,1.372,0,0,0,.275.532,1.254,1.254,0,0,0,.49.338,1.992,1.992,0,0,0,.726.118,1.8,1.8,0,0,0,.917-.24,1.57,1.57,0,0,0,.6-.635v.753h.547V276.38h-.589Z" transform="translate(-357.202 -274.556)"/>
        <path id="Path_49" data-name="Path 49" d="M482.9,270.96h-.589v1.332h-.772v.5h.772v3a.823.823,0,0,0,.986,1.013,1.973,1.973,0,0,0,.243-.01,1.891,1.891,0,0,1,.238-.007h.025v-.508h-.027a4.135,4.135,0,0,1-.459.027c-.184-.01-.3-.064-.343-.155a.951.951,0,0,1-.071-.4V272.79h.9v-.5h-.9v-1.33Z" transform="translate(-369.995 -270.465)"/>
        <rect id="Rectangle_453" data-name="Rectangle 453" width="0.589" height="4.478" transform="translate(114.431 1.824)"/>
        <rect id="Rectangle_454" data-name="Rectangle 454" width="0.589" height="0.915" transform="translate(114.431 0.125)"/>
        <path id="Path_50" data-name="Path 50" d="M502.51,276.564a2,2,0,0,0-.665-.513,2.248,2.248,0,0,0-1.815,0,2,2,0,0,0-.665.513,2.2,2.2,0,0,0-.407.75,3.045,3.045,0,0,0,0,1.824,2.24,2.24,0,0,0,.407.75,1.921,1.921,0,0,0,.665.508,2.1,2.1,0,0,0,.907.186,2.134,2.134,0,0,0,.907-.186,1.922,1.922,0,0,0,.665-.508,2.2,2.2,0,0,0,.407-.75,2.924,2.924,0,0,0,.137-.912,3,3,0,0,0-.137-.912,2.286,2.286,0,0,0-.406-.75Zm-1.574,3.526a1.362,1.362,0,0,1-.667-.159,1.464,1.464,0,0,1-.478-.422,1.937,1.937,0,0,1-.289-.6,2.48,2.48,0,0,1-.1-.684,2.4,2.4,0,0,1,.1-.684,1.883,1.883,0,0,1,.289-.6,1.44,1.44,0,0,1,.478-.422,1.475,1.475,0,0,1,1.334,0,1.492,1.492,0,0,1,.478.422,1.934,1.934,0,0,1,.287.6,2.5,2.5,0,0,1,.1.684,2.4,2.4,0,0,1-.1.684,1.934,1.934,0,0,1-.287.6,1.44,1.44,0,0,1-.478.422A1.355,1.355,0,0,1,500.936,280.09Z" transform="translate(-383.038 -274.163)"/>
        <path id="Path_51" data-name="Path 51" d="M522.4,276.318a1.253,1.253,0,0,0-.513-.346,2.215,2.215,0,0,0-.785-.123,1.652,1.652,0,0,0-.88.248,1.35,1.35,0,0,0-.53.586v-.706H519.1v4.478h.589v-2.607a1.961,1.961,0,0,1,.1-.6,1.447,1.447,0,0,1,.27-.473,1.253,1.253,0,0,1,.422-.311,1.347,1.347,0,0,1,.569-.113,1.27,1.27,0,0,1,.535.1.856.856,0,0,1,.338.275,1.1,1.1,0,0,1,.177.414,2.508,2.508,0,0,1,.052.522v2.788h.589v-2.874a3.085,3.085,0,0,0-.078-.718A1.254,1.254,0,0,0,522.4,276.318Z" transform="translate(-398.345 -274.156)"/>
        <path id="Path_52" data-name="Path 52" d="M540.251,278.743a1.175,1.175,0,0,0-.294-.368,1.543,1.543,0,0,0-.41-.24,2,2,0,0,0-.464-.125l-.721-.162a3.1,3.1,0,0,1-.3-.091,1.436,1.436,0,0,1-.3-.14.762.762,0,0,1-.221-.2.487.487,0,0,1-.086-.289.644.644,0,0,1,.091-.348.713.713,0,0,1,.24-.228,1.074,1.074,0,0,1,.331-.125,1.687,1.687,0,0,1,.792.017,1.04,1.04,0,0,1,.356.172.853.853,0,0,1,.245.3.991.991,0,0,1,.1.424v.025h.591v-.025a1.658,1.658,0,0,0-.147-.635,1.349,1.349,0,0,0-.353-.454,1.419,1.419,0,0,0-.515-.27,2.448,2.448,0,0,0-1.224-.017,1.876,1.876,0,0,0-.544.218,1.206,1.206,0,0,0-.4.395,1.226,1.226,0,0,0-.056,1.077.936.936,0,0,0,.267.333,1.484,1.484,0,0,0,.4.226,3.625,3.625,0,0,0,.493.159l.694.154q.18.044.353.1a1.317,1.317,0,0,1,.307.147.655.655,0,0,1,.211.216.6.6,0,0,1,.078.319.618.618,0,0,1-.11.375.883.883,0,0,1-.289.255,1.3,1.3,0,0,1-.383.142,2.1,2.1,0,0,1-.4.042,1.431,1.431,0,0,1-.89-.275,1.052,1.052,0,0,1-.39-.809v-.022h-.591v.027a1.6,1.6,0,0,0,.564,1.2,2.072,2.072,0,0,0,1.28.375,2.971,2.971,0,0,0,.633-.069,1.777,1.777,0,0,0,.579-.23,1.358,1.358,0,0,0,.424-.419,1.141,1.141,0,0,0,.167-.628,1.089,1.089,0,0,0-.108-.529Z" transform="translate(-411.636 -274.185)"/>
      </g>
      <path id="Path_53" data-name="Path 53" d="M215.573,45.65l.716-.532c.235-.177.53-.392.88-.652l1.226-.88c1.864-1.317,4.62-3.225,8.3-5.392A134.255,134.255,0,0,1,240.362,31.1a141.823,141.823,0,0,1,18.771-6.927c3.529-1.023,7.246-1.954,11.14-2.729a113.218,113.218,0,0,1,12.18-1.734,91.648,91.648,0,0,1,13.047-.23,60.133,60.133,0,0,1,13.553,2.258,39.735,39.735,0,0,1,6.67,2.612,28.314,28.314,0,0,1,6.14,4.115,21.3,21.3,0,0,1,4.743,5.976c.152.284.289.581.432.871s.257.6.387.893l.047.113s.052.125.059.15l.076.208.152.419.076.211.076.243.15.486a20.4,20.4,0,0,1,.738,3.843,24.266,24.266,0,0,1-.564,7.7,34.325,34.325,0,0,1-2.585,7.168,55.22,55.22,0,0,1-8.5,12.361c-1.658,1.861-3.413,3.622-5.231,5.307s-3.7,3.291-5.625,4.821a116.762,116.762,0,0,1-12.048,8.355q-3.108,1.887-6.287,3.588t-6.41,3.193c-4.294,2.006-8.651,3.791-12.965,5.329-1.091.38-2.178.777-3.261,1.126l-1.621.535-1.621.508c-2.155.682-4.313,1.28-6.454,1.842-4.284,1.121-8.521,2.023-12.673,2.756s-8.215,1.29-12.163,1.638-7.778.53-11.459.542a102.092,102.092,0,0,1-10.547-.508,67.859,67.859,0,0,1-9.4-1.633c-1.449-.38-2.859-.8-4.161-1.273q-1.979-.7-3.767-1.43a69.6,69.6,0,0,1-6.425-3,34.226,34.226,0,0,1-8.1-5.706,16.471,16.471,0,0,1-1.712-1.969c-.181-.233-.3-.424-.385-.547l-.128-.186.137.179c.093.118.218.3.412.525a16.44,16.44,0,0,0,1.8,1.859,26.7,26.7,0,0,0,3.34,2.5,45.713,45.713,0,0,0,4.944,2.719,69.318,69.318,0,0,0,6.474,2.668,66.518,66.518,0,0,0,7.874,2.344,84.24,84.24,0,0,0,19.6,1.43c3.615-.12,7.374-.407,11.248-.866s7.862-1.072,11.925-1.878A163.732,163.732,0,0,0,267.5,96.788q6.382-2.365,12.643-5.385,3.134-1.512,6.219-3.2t6.113-3.524a113.554,113.554,0,0,0,11.66-8.158c1.859-1.488,3.668-3.043,5.4-4.671s3.409-3.323,4.983-5.1a51.719,51.719,0,0,0,8.016-11.533,30.865,30.865,0,0,0,2.354-6.43,20.832,20.832,0,0,0,.52-6.609,17.313,17.313,0,0,0-.59-3.178l-.11-.368-.054-.184-.076-.211-.15-.419-.076-.211-.064-.15c-.2-.5-.427-.991-.667-1.471a17.945,17.945,0,0,0-3.953-5.1,25.231,25.231,0,0,0-5.4-3.713,36.668,36.668,0,0,0-6.118-2.482,51.051,51.051,0,0,0-6.4-1.525q-3.23-.552-6.454-.807a88.985,88.985,0,0,0-12.651-.039,117.68,117.68,0,0,0-11.952,1.43c-3.84.647-7.526,1.457-11.032,2.364s-6.829,1.92-9.966,2.967-6.084,2.146-8.811,3.252A147.987,147.987,0,0,0,227.032,38.8c-1.876.993-3.519,1.94-4.948,2.764s-2.621,1.569-3.583,2.18l-1.27.812q-.549.352-.915.6Z" transform="translate(-136.895 -19.347)"/>
      <g id="Group_42" data-name="Group 42" transform="translate(0 28.221)">
        <path id="Path_54" data-name="Path 54" d="M20.5,143.92v-3.087h2.761v-1.3a5.035,5.035,0,0,1,1.4-3.673,5.66,5.66,0,0,1,4.225-1.43q.618,0,1.236.049t1.2.081V138a13.942,13.942,0,0,0-1.69-.1,1.772,1.772,0,0,0-1.349.439,2.146,2.146,0,0,0-.407,1.479v1.008h3.185v3.087H27.879v13.715H23.264V143.92Z" transform="translate(-20.5 -134.43)"/>
        <path id="Path_55" data-name="Path 55" d="M74.137,159.136v3.119H74.2a5.8,5.8,0,0,1,2.146-2.585,6.21,6.21,0,0,1,1.528-.731,5.493,5.493,0,0,1,1.69-.26,3.622,3.622,0,0,1,1.008.162v4.289c-.216-.044-.476-.081-.78-.113a8.422,8.422,0,0,0-.878-.049,4.951,4.951,0,0,0-2.146.422,3.706,3.706,0,0,0-1.412,1.153,4.589,4.589,0,0,0-.763,1.707,9.258,9.258,0,0,0-.228,2.111v7.572H69.75v-16.8h4.387Z" transform="translate(-57.673 -152.733)"/>
        <path id="Path_56" data-name="Path 56" d="M122.4,171.915a4.73,4.73,0,0,0,5.395.309,2.9,2.9,0,0,0,1.236-1.479h4.063a7.724,7.724,0,0,1-2.989,4.323,8.814,8.814,0,0,1-4.875,1.3,9.614,9.614,0,0,1-3.575-.633,7.389,7.389,0,0,1-2.7-1.8,8.15,8.15,0,0,1-1.707-2.8,10.205,10.205,0,0,1-.6-3.575,9.8,9.8,0,0,1,.618-3.509,8.194,8.194,0,0,1,1.756-2.81,8.28,8.28,0,0,1,2.715-1.869,8.676,8.676,0,0,1,3.494-.682,8,8,0,0,1,3.737.829,7.444,7.444,0,0,1,2.616,2.227,9.178,9.178,0,0,1,1.479,3.185,11.793,11.793,0,0,1,.324,3.737h-12.12a4.639,4.639,0,0,0,1.133,3.247Zm5.216-8.84a3.244,3.244,0,0,0-2.518-.91,4.041,4.041,0,0,0-1.837.373,3.5,3.5,0,0,0-1.17.927,3.414,3.414,0,0,0-.618,1.17,5.253,5.253,0,0,0-.211,1.106h7.506a5.32,5.32,0,0,0-1.152-2.667Z" transform="translate(-93.072 -152.741)"/>
        <path id="Path_57" data-name="Path 57" d="M195.788,159.144v2.276h.066a6.572,6.572,0,0,1,2.2-2.016,5.952,5.952,0,0,1,2.94-.714,6.758,6.758,0,0,1,2.908.618,4.082,4.082,0,0,1,2,2.178,7.164,7.164,0,0,1,2.03-1.949,5.4,5.4,0,0,1,3.038-.846,8.991,8.991,0,0,1,2.469.324,4.977,4.977,0,0,1,1.949,1.04,4.774,4.774,0,0,1,1.268,1.869,7.56,7.56,0,0,1,.456,2.778v11.243h-4.615v-9.522q0-.846-.066-1.591a3.372,3.372,0,0,0-.358-1.3,2.179,2.179,0,0,0-.861-.878,3.127,3.127,0,0,0-1.545-.324,2.966,2.966,0,0,0-1.577.373,2.679,2.679,0,0,0-.942.976,3.9,3.9,0,0,0-.456,1.366,10.44,10.44,0,0,0-.113,1.545v9.36H201.96v-9.424c0-.5-.012-.991-.032-1.479a4.114,4.114,0,0,0-.277-1.349,2.068,2.068,0,0,0-.812-.991,3.082,3.082,0,0,0-1.675-.373,3.445,3.445,0,0,0-.861.147,2.877,2.877,0,0,0-1.04.552,3.243,3.243,0,0,0-.861,1.17,4.756,4.756,0,0,0-.358,2v9.75H191.43v-16.8h4.358Z" transform="translate(-149.515 -152.741)"/>
        <path id="Path_58" data-name="Path 58" d="M321.684,159.732v15.826a11.331,11.331,0,0,1-.324,2.715,6.029,6.029,0,0,1-1.118,2.325,5.5,5.5,0,0,1-2.19,1.609,8.989,8.989,0,0,1-3.534.6,10.83,10.83,0,0,1-2.5-.277,6.043,6.043,0,0,1-2.043-.878,4.476,4.476,0,0,1-1.41-1.591,5.69,5.69,0,0,1-.6-2.455H309.2a4.5,4.5,0,0,0,.552,1.886,3.965,3.965,0,0,0,1.187,1.282,5.019,5.019,0,0,0,1.641.731,7.988,7.988,0,0,0,1.949.228,7.023,7.023,0,0,0,2.876-.52,4.977,4.977,0,0,0,1.837-1.349,4.882,4.882,0,0,0,.959-1.886,8.382,8.382,0,0,0,.277-2.129v-3.835h-.093a6.233,6.233,0,0,1-6.032,3.8,7.438,7.438,0,0,1-3.193-.633,6.148,6.148,0,0,1-2.236-1.756,7.58,7.58,0,0,1-1.329-2.616,11.513,11.513,0,0,1-.439-3.249,10.442,10.442,0,0,1,.471-3.154,7.875,7.875,0,0,1,1.381-2.616A6.646,6.646,0,0,1,311.267,160a7.321,7.321,0,0,1,6.761.341,5.6,5.6,0,0,1,2.388,2.859h.066V159.73h1.2Zm-7.312.682a5.406,5.406,0,0,0-2.648.618,5.561,5.561,0,0,0-1.851,1.626,7.383,7.383,0,0,0-1.106,2.29,9.282,9.282,0,0,0-.373,2.616,10.177,10.177,0,0,0,.373,2.778,6.538,6.538,0,0,0,1.138,2.29,5.544,5.544,0,0,0,1.886,1.542,5.626,5.626,0,0,0,2.585.569,5.763,5.763,0,0,0,2.665-.586,5.506,5.506,0,0,0,1.9-1.591,6.987,6.987,0,0,0,1.138-2.29,10.009,10.009,0,0,0,0-5.412,6.777,6.777,0,0,0-1.138-2.29,5.626,5.626,0,0,0-1.9-1.577,5.766,5.766,0,0,0-2.669-.583Z" transform="translate(-236.866 -153.232)"/>
        <path id="Path_59" data-name="Path 59" d="M378.436,164.322h.1a4.068,4.068,0,0,1,.829-1.528,5.859,5.859,0,0,1,1.461-1.236,7.244,7.244,0,0,1,1.918-.8,7.743,7.743,0,0,1,2.2-.243v1.236a5.833,5.833,0,0,0-2.227.2,5.4,5.4,0,0,0-2.388,1.43,12.018,12.018,0,0,0-.8.942,4.6,4.6,0,0,0-.569,1.008,6.268,6.268,0,0,0-.358,1.236,10.658,10.658,0,0,0-.162,1.626v9.132H377.2v-16.7h1.236Z" transform="translate(-289.731 -154.119)"/>
        <path id="Path_60" data-name="Path 60" d="M408.24,168.092a10.992,10.992,0,0,1,.5-3.364,8.464,8.464,0,0,1,1.479-2.778,7.014,7.014,0,0,1,2.406-1.9,8.057,8.057,0,0,1,6.565,0,7.043,7.043,0,0,1,2.406,1.9,8.464,8.464,0,0,1,1.479,2.778,10.992,10.992,0,0,1,.5,3.364,11.133,11.133,0,0,1-.5,3.379,8.226,8.226,0,0,1-1.479,2.778,7.093,7.093,0,0,1-2.406,1.886,8.057,8.057,0,0,1-6.565,0,7.092,7.092,0,0,1-2.406-1.886,8.225,8.225,0,0,1-1.479-2.778,11.132,11.132,0,0,1-.5-3.379Zm1.236,0a9.779,9.779,0,0,0,.422,2.876,7.81,7.81,0,0,0,1.236,2.455,6.024,6.024,0,0,0,2.016,1.707,6.342,6.342,0,0,0,5.522,0,6,6,0,0,0,2.016-1.707,7.81,7.81,0,0,0,1.236-2.455,9.753,9.753,0,0,0,.422-2.876,9.858,9.858,0,0,0-.422-2.876,7.835,7.835,0,0,0-1.236-2.455,6.025,6.025,0,0,0-2.016-1.707,6.342,6.342,0,0,0-5.522,0,6,6,0,0,0-2.016,1.707,7.785,7.785,0,0,0-1.236,2.455,9.754,9.754,0,0,0-.422,2.876Z" transform="translate(-313.159 -153.239)"/>
        <path id="Path_61" data-name="Path 61" d="M491.649,177.644h-1.236v-3.575h-.066a5.335,5.335,0,0,1-.927,1.675,6.157,6.157,0,0,1-3.136,2.03,7.145,7.145,0,0,1-1.918.26,7.6,7.6,0,0,1-2.487-.358,4.844,4.844,0,0,1-1.672-.942,4.556,4.556,0,0,1-1.025-1.317,6.145,6.145,0,0,1-.537-1.479,8.546,8.546,0,0,1-.194-1.447c-.022-.466-.032-.871-.032-1.219V160.94h1.236V171.5a15.106,15.106,0,0,0,.1,1.577,4.75,4.75,0,0,0,.569,1.788,4.173,4.173,0,0,0,1.412,1.479,4.843,4.843,0,0,0,2.666.618,5.93,5.93,0,0,0,2.518-.52,5.427,5.427,0,0,0,1.9-1.447,6.4,6.4,0,0,0,1.187-2.209,9.309,9.309,0,0,0,.407-2.81v-9.034h1.236Z" transform="translate(-366.13 -154.439)"/>
        <path id="Path_62" data-name="Path 62" d="M542.314,163.565h.1a6.381,6.381,0,0,1,.65-1.366,5.729,5.729,0,0,1,1.2-1.381,6.4,6.4,0,0,1,4.225-1.479,7.27,7.27,0,0,1,3.33.716,6.752,6.752,0,0,1,2.339,1.918,8.24,8.24,0,0,1,1.381,2.8,12.1,12.1,0,0,1,.456,3.347,12.7,12.7,0,0,1-.456,3.509,7.694,7.694,0,0,1-1.385,2.746,6.36,6.36,0,0,1-2.344,1.8,7.933,7.933,0,0,1-3.34.65,7.5,7.5,0,0,1-3.715-.91,5.311,5.311,0,0,1-2.379-2.957h-.064v9.458h-1.2V159.735h1.2v3.83Zm6.16,12.187a6.031,6.031,0,0,0,2.818-.618,5.582,5.582,0,0,0,1.954-1.658,7.26,7.26,0,0,0,1.14-2.42,11.457,11.457,0,0,0,.017-5.75,7.775,7.775,0,0,0-1.108-2.469,5.713,5.713,0,0,0-1.94-1.756,6.538,6.538,0,0,0-5.719-.017,5.508,5.508,0,0,0-1.905,1.721,7.3,7.3,0,0,0-1.059,2.455,12.447,12.447,0,0,0-.326,2.876,13.919,13.919,0,0,0,.292,2.876,7.009,7.009,0,0,0,.993,2.437,5.091,5.091,0,0,0,1.891,1.69A6.246,6.246,0,0,0,548.474,175.752Z" transform="translate(-413.447 -153.232)"/>
      </g>
    </g>
    <text id="_Find_Your_Privacy" data-name=" Find Your Privacy" transform="translate(9491 -2838)" fill="#333" font-size="12" font-family="Poppins-Regular, Poppins"><tspan x="0" y="0" xml:space="preserve"> Find Your Privacy</tspan></text>
  </g>
</svg>
