<svg xmlns="http://www.w3.org/2000/svg" width="160" height="160" viewBox="0 0 160 160">
  <g id="martela" transform="translate(-9919 2986)">
    <rect id="Rectangle_457" data-name="Rectangle 457" width="160" height="160" transform="translate(9919 -2986)" fill="none"/>
    <g id="Martela_Logo" data-name="Martela Logo" transform="translate(9937.5 -2937.072)">
      <path id="Path_63" data-name="Path 63" d="M49.37,56.06l-.289.289-6.3,18.084h-.308l-6.3-18.085-.289-.289H28.5l-.289.289V81.525l.289.288H32.8l.288-.288v-19.7H33.4l7.073,19.7.288.288h3.729l.289-.288,7.071-20.007h.307V81.525l.289.288h4.3l.289-.288V56.348l-.289-.289Z" transform="translate(-28.21 -56.059)"/>
      <path id="Path_64" data-name="Path 64" d="M755.588,56.06l-.288.289V81.526l.288.288h4.036l.288-.288V56.349l-.288-.289Z" transform="translate(-656.708 -56.059)"/>
      <g id="Group_43" data-name="Group 43" transform="translate(31.402)">
        <path id="Path_65" data-name="Path 65" d="M427.767,62.133V56.348l-.289-.289h-3.421l-.289.289-.616,5.785h-4.918a5.894,5.894,0,0,0-4.305,1.846h-.307l-1.23-1.846H409.76l-.289.289v19.1l.289.289H413.8l.289-.289V70.743a4.157,4.157,0,0,1,4.458-4.305h4.612v10.3c0,3.075,1.846,5.074,4.919,5.074h4.94l.289-.289V77.8l-.289-.289h-4.171c-.614,0-1.077-.308-1.077-.922V66.438h5.246l.289-.289V62.42l-.289-.289h-5.246Z" transform="translate(-389.174 -56.059)"/>
        <path id="Path_66" data-name="Path 66" d="M817.227,96.31c-4.766,0-7.226,2.921-7.687,5.228v1.249l.289.289h4.017c.153-1.383,1.384-2.46,3.536-2.46,2,0,3.536.922,3.536,2.614,0,1.538-.769,1.691-1.846,1.691h-2.614c-5.688,0-8.148,2.613-8.148,6.15a6.207,6.207,0,0,0,6.457,6.112,6.983,6.983,0,0,0,5.843-2.575h.308l1.23,2h3.094l.289-.289V103.689c0-5.226-3.384-7.379-8.3-7.379m3.689,12.761c0,2.921-2.921,4.151-4.919,4.151-1.846,0-3.075-.922-3.075-2.306,0-1.23,1.077-2.306,3.536-2.306H818c1.077,0,2.614-.308,2.921-.922Z" transform="translate(-733.932 -90.852)"/>
        <path id="Path_67" data-name="Path 67" d="M268.717,96.31c-4.766,0-7.226,2.921-7.688,5.228v1.249l.289.289h4.016c.153-1.383,1.384-2.46,3.536-2.46,2,0,3.536.922,3.536,2.614,0,1.538-.769,1.691-1.846,1.691h-2.614c-5.688,0-8.149,2.613-8.149,6.15a6.207,6.207,0,0,0,6.457,6.112,6.986,6.986,0,0,0,5.844-2.575h.307l1.23,2h3.094l.289-.289V103.689c0-5.226-3.383-7.379-8.3-7.379m3.689,12.761c0,2.921-2.921,4.151-4.919,4.151-1.846,0-3.075-.922-3.075-2.306,0-1.23,1.077-2.306,3.536-2.306h1.538c1.077,0,2.614-.308,2.921-.922Z" transform="translate(-259.798 -90.852)"/>
        <path id="Path_68" data-name="Path 68" d="M609.628,96.31c-6.15,0-9.378,4.613-9.378,10.454s3.382,10.417,9.378,10.417c3.844,0,6.919-1.653,8.148-5.036v-1.4l-.289-.289h-4.171c-.153,1.691-1.537,2.46-3.689,2.46-2.768,0-4.459-1.691-4.613-4.613H618.1l.289-.289v-3.094c-.153-4.3-2.919-8.606-8.762-8.606m-4.613,8.611c.308-2.613,1.846-4.305,4.613-4.305a4.294,4.294,0,0,1,4.305,4.305Z" transform="translate(-554.084 -90.852)"/>
      </g>
    </g>
    <path id="Inspiring_Spaces" data-name="Inspiring Spaces" d="M1.155,0H2.52V-10.455H1.155Zm9.7,0h1.35V-4.845A3.189,3.189,0,0,0,8.85-8.37,3.037,3.037,0,0,0,6.21-7.05V-8.22H4.845V0H6.21V-4.545c0-1.77.96-2.64,2.355-2.64,1.38,0,2.295.855,2.295,2.535Zm9.495-2.235c-.06-2.94-4.83-1.875-4.83-3.825,0-.66.6-1.14,1.6-1.14a1.581,1.581,0,0,1,1.785,1.425H20.28c-.09-1.605-1.29-2.58-3.1-2.58S14.16-7.32,14.16-6.06c0,3.06,4.86,1.995,4.86,3.825,0,.675-.6,1.215-1.68,1.215-1.155,0-1.86-.6-1.935-1.4h-1.41c.09,1.5,1.44,2.55,3.36,2.55C19.17.135,20.355-.885,20.355-2.235Zm3.285-4.47V-8.22H22.275V3.9H23.64V-1.515A3.556,3.556,0,0,0,26.715.135a3.956,3.956,0,0,0,3.9-4.275,3.9,3.9,0,0,0-3.9-4.215A3.472,3.472,0,0,0,23.64-6.705ZM29.22-4.14a2.818,2.818,0,0,1-2.79,3.075,2.821,2.821,0,0,1-2.79-3.06A2.825,2.825,0,0,1,26.43-7.17,2.778,2.778,0,0,1,29.22-4.14ZM32.415,0H33.78V-8.22H32.415Zm.705-9.555a.91.91,0,0,0,.9-.93.91.91,0,0,0-.9-.93.916.916,0,0,0-.93.93A.916.916,0,0,0,33.12-9.555ZM37.47-4.47c0-1.9.99-2.49,2.295-2.49h.36V-8.37A2.768,2.768,0,0,0,37.47-6.885V-8.22H36.1V0H37.47ZM41.7,0h1.365V-8.22H41.7ZM42.4-9.555a.91.91,0,0,0,.9-.93.91.91,0,0,0-.9-.93.916.916,0,0,0-.93.93A.916.916,0,0,0,42.4-9.555ZM51.4,0h1.35V-4.845a3.189,3.189,0,0,0-3.36-3.525,3.037,3.037,0,0,0-2.64,1.32V-8.22H45.39V0h1.365V-4.545c0-1.77.96-2.64,2.355-2.64s2.3.855,2.3,2.535ZM54.48-4.14A3.956,3.956,0,0,0,58.38.135a3.435,3.435,0,0,0,3.06-1.68V.18a2.44,2.44,0,0,1-2.55,2.685A2.552,2.552,0,0,1,56.265,1.2h-1.35c.27,1.755,1.815,2.85,3.975,2.85A3.685,3.685,0,0,0,62.82.18v-8.4H61.44v1.5a3.388,3.388,0,0,0-3.06-1.635A3.9,3.9,0,0,0,54.48-4.14Zm6.96.015a2.813,2.813,0,0,1-2.79,3.06A2.815,2.815,0,0,1,55.875-4.14,2.775,2.775,0,0,1,58.65-7.17,2.816,2.816,0,0,1,61.44-4.125ZM75.93-2.85c0-3.87-5.64-2.19-5.64-4.89,0-1.125.885-1.71,2.01-1.68a1.894,1.894,0,0,1,2.025,1.515h1.5c-.165-1.59-1.47-2.685-3.465-2.685-2.07,0-3.465,1.17-3.465,2.895,0,3.885,5.655,2.085,5.655,4.905,0,.99-.78,1.74-2.1,1.74a1.937,1.937,0,0,1-2.16-1.74H68.835C68.865-1.065,70.35.105,72.45.105,74.715.105,75.93-1.365,75.93-2.85ZM79.3-6.705V-8.22H77.94V3.9H79.3V-1.515A3.556,3.556,0,0,0,82.38.135a3.956,3.956,0,0,0,3.9-4.275,3.9,3.9,0,0,0-3.9-4.215A3.472,3.472,0,0,0,79.3-6.705Zm5.58,2.565a2.818,2.818,0,0,1-2.79,3.075,2.821,2.821,0,0,1-2.79-3.06,2.825,2.825,0,0,1,2.79-3.045A2.778,2.778,0,0,1,84.885-4.14Zm2.685,0A3.953,3.953,0,0,0,91.455.135,3.433,3.433,0,0,0,94.53-1.53V0h1.38V-8.22H94.53v1.5a3.411,3.411,0,0,0-3.06-1.635A3.9,3.9,0,0,0,87.57-4.14Zm6.96.015a2.813,2.813,0,0,1-2.79,3.06A2.815,2.815,0,0,1,88.965-4.14,2.775,2.775,0,0,1,91.74-7.17,2.816,2.816,0,0,1,94.53-4.125Zm3.18,0a3.915,3.915,0,0,0,4.005,4.26A3.656,3.656,0,0,0,105.51-2.64h-1.47a2.205,2.205,0,0,1-2.325,1.62c-1.5,0-2.61-1.065-2.61-3.1,0-2.01,1.11-3.075,2.61-3.075a2.239,2.239,0,0,1,2.325,1.62h1.47a3.572,3.572,0,0,0-3.795-2.775A3.905,3.905,0,0,0,97.71-4.125ZM110.82-7.2a2.412,2.412,0,0,1,2.6,2.49h-5.19A2.546,2.546,0,0,1,110.82-7.2Zm3.84,4.665h-1.47a2.259,2.259,0,0,1-2.31,1.515,2.584,2.584,0,0,1-2.67-2.58h6.57a7.4,7.4,0,0,0,.045-.825,3.768,3.768,0,0,0-3.945-3.93,3.911,3.911,0,0,0-4.065,4.23A3.96,3.96,0,0,0,110.88.135,3.7,3.7,0,0,0,114.66-2.535Zm7.875.3c-.06-2.94-4.83-1.875-4.83-3.825,0-.66.6-1.14,1.6-1.14A1.581,1.581,0,0,1,121.1-5.775h1.365c-.09-1.605-1.29-2.58-3.1-2.58-1.83,0-3.015,1.035-3.015,2.3,0,3.06,4.86,1.995,4.86,3.825,0,.675-.6,1.215-1.68,1.215-1.155,0-1.86-.6-1.935-1.4h-1.41c.09,1.5,1.44,2.55,3.36,2.55C121.35.135,122.535-.885,122.535-2.235Z" transform="translate(9937.5 -2885.833)" fill="#333"/>
  </g>
</svg>
