<svg xmlns="http://www.w3.org/2000/svg" width="160" height="160" viewBox="0 0 160 160">
  <g id="martela" transform="translate(-9919 2986)">
    <rect id="Rectangle_457" data-name="Rectangle 457" width="160" height="160" transform="translate(9919 -2986)" fill="none"/>
    <g id="Martela_Logo" data-name="Martela Logo" transform="translate(9937.5 -2937.072)">
      <path id="Path_63" data-name="Path 63" d="M49.37,56.06l-.289.289-6.3,18.084h-.308l-6.3-18.085-.289-.289H28.5l-.289.289V81.525l.289.288H32.8l.288-.288v-19.7H33.4l7.073,19.7.288.288h3.729l.289-.288,7.071-20.007h.307V81.525l.289.288h4.3l.289-.288V56.348l-.289-.289Z" transform="translate(-28.21 -56.059)"/>
      <path id="Path_64" data-name="Path 64" d="M755.588,56.06l-.288.289V81.526l.288.288h4.036l.288-.288V56.349l-.288-.289Z" transform="translate(-656.708 -56.059)"/>
      <g id="Group_43" data-name="Group 43" transform="translate(31.402)">
        <path id="Path_65" data-name="Path 65" d="M427.767,62.133V56.348l-.289-.289h-3.421l-.289.289-.616,5.785h-4.918a5.894,5.894,0,0,0-4.305,1.846h-.307l-1.23-1.846H409.76l-.289.289v19.1l.289.289H413.8l.289-.289V70.743a4.157,4.157,0,0,1,4.458-4.305h4.612v10.3c0,3.075,1.846,5.074,4.919,5.074h4.94l.289-.289V77.8l-.289-.289h-4.171c-.614,0-1.077-.308-1.077-.922V66.438h5.246l.289-.289V62.42l-.289-.289h-5.246Z" transform="translate(-389.174 -56.059)"/>
        <path id="Path_66" data-name="Path 66" d="M817.227,96.31c-4.766,0-7.226,2.921-7.687,5.228v1.249l.289.289h4.017c.153-1.383,1.384-2.46,3.536-2.46,2,0,3.536.922,3.536,2.614,0,1.538-.769,1.691-1.846,1.691h-2.614c-5.688,0-8.148,2.613-8.148,6.15a6.207,6.207,0,0,0,6.457,6.112,6.983,6.983,0,0,0,5.843-2.575h.308l1.23,2h3.094l.289-.289V103.689c0-5.226-3.384-7.379-8.3-7.379m3.689,12.761c0,2.921-2.921,4.151-4.919,4.151-1.846,0-3.075-.922-3.075-2.306,0-1.23,1.077-2.306,3.536-2.306H818c1.077,0,2.614-.308,2.921-.922Z" transform="translate(-733.932 -90.852)"/>
        <path id="Path_67" data-name="Path 67" d="M268.717,96.31c-4.766,0-7.226,2.921-7.688,5.228v1.249l.289.289h4.016c.153-1.383,1.384-2.46,3.536-2.46,2,0,3.536.922,3.536,2.614,0,1.538-.769,1.691-1.846,1.691h-2.614c-5.688,0-8.149,2.613-8.149,6.15a6.207,6.207,0,0,0,6.457,6.112,6.986,6.986,0,0,0,5.844-2.575h.307l1.23,2h3.094l.289-.289V103.689c0-5.226-3.383-7.379-8.3-7.379m3.689,12.761c0,2.921-2.921,4.151-4.919,4.151-1.846,0-3.075-.922-3.075-2.306,0-1.23,1.077-2.306,3.536-2.306h1.538c1.077,0,2.614-.308,2.921-.922Z" transform="translate(-259.798 -90.852)"/>
        <path id="Path_68" data-name="Path 68" d="M609.628,96.31c-6.15,0-9.378,4.613-9.378,10.454s3.382,10.417,9.378,10.417c3.844,0,6.919-1.653,8.148-5.036v-1.4l-.289-.289h-4.171c-.153,1.691-1.537,2.46-3.689,2.46-2.768,0-4.459-1.691-4.613-4.613H618.1l.289-.289v-3.094c-.153-4.3-2.919-8.606-8.762-8.606m-4.613,8.611c.308-2.613,1.846-4.305,4.613-4.305a4.294,4.294,0,0,1,4.305,4.305Z" transform="translate(-554.084 -90.852)"/>
      </g>
    </g>
    <text id="Inspiring_Spaces" data-name="Inspiring Spaces" transform="translate(9937.5 -2885.833)" fill="#333" font-size="15" font-family="Poppins-Regular, Poppins"><tspan x="0" y="0">Inspiring Spaces</tspan></text>
  </g>
</svg>
