<svg xmlns="http://www.w3.org/2000/svg" width="192" height="192" viewBox="0 0 192 192">
  <g id="martela" transform="translate(-9919 2986)">
    <rect id="Rectangle_457" data-name="Rectangle 457" width="192" height="192" transform="translate(9919 -2986)" fill="none"/>
    <g id="Martela_Logo" data-name="Martela Logo" transform="translate(9919 -2910.64)">
      <path id="Path_63" data-name="Path 63" d="M61.24,56.06l-.451.451L50.951,84.74h-.48l-9.84-28.23-.451-.451H28.661l-.451.451v39.3l.451.449h6.72l.449-.449V65.06h.48l11.04,30.75.449.449H53.62l.451-.449L65.109,64.579h.48V95.81l.451.449h6.718l.451-.449v-39.3l-.451-.451Z" transform="translate(-28.21 -56.06)"/>
      <path id="Path_64" data-name="Path 64" d="M755.749,56.06l-.449.451v39.3l.449.449h6.3l.449-.449v-39.3l-.449-.451Z" transform="translate(-601.401 -56.06)"/>
      <g id="Group_43" data-name="Group 43" transform="translate(49.019)">
        <path id="Path_65" data-name="Path 65" d="M438.03,65.54v-9.03l-.451-.451h-5.34l-.451.451-.961,9.03H423.15a9.2,9.2,0,0,0-6.72,2.881h-.48l-1.92-2.881h-4.108l-.451.451V95.81l.451.451h6.3l.451-.451V78.981c0-3.84,2.639-6.72,6.959-6.72h7.2v16.08c0,4.8,2.881,7.92,7.679,7.92h7.711l.451-.451V89.99l-.451-.451h-6.511c-.959,0-1.681-.48-1.681-1.439V72.261h8.189l.451-.451V65.989l-.451-.451H438.03Z" transform="translate(-377.79 -56.06)"/>
        <path id="Path_66" data-name="Path 66" d="M822.229,96.31c-7.44,0-11.28,4.559-12,8.16v1.949l.451.451h6.27c.239-2.159,2.161-3.84,5.52-3.84,3.12,0,5.52,1.439,5.52,4.081,0,2.4-1.2,2.639-2.881,2.639h-4.081c-8.879,0-12.719,4.079-12.719,9.6s4.559,9.54,10.079,9.54a10.9,10.9,0,0,0,9.121-4.02h.481l1.92,3.12h4.83l.451-.451v-19.71c0-8.158-5.283-11.519-12.962-11.519m5.759,19.92c0,4.559-4.559,6.479-7.679,6.479-2.881,0-4.8-1.439-4.8-3.6,0-1.92,1.681-3.6,5.52-3.6h2.4c1.681,0,4.081-.48,4.559-1.439Z" transform="translate(-692.211 -87.791)"/>
        <path id="Path_67" data-name="Path 67" d="M273.721,96.31c-7.44,0-11.28,4.559-12,8.16v1.949l.451.451h6.269c.239-2.159,2.161-3.84,5.52-3.84,3.12,0,5.52,1.439,5.52,4.081,0,2.4-1.2,2.639-2.881,2.639h-4.081c-8.879,0-12.721,4.079-12.721,9.6s4.559,9.54,10.079,9.54A10.905,10.905,0,0,0,279,124.87h.48l1.92,3.12h4.83l.451-.451v-19.71c0-8.158-5.281-11.519-12.96-11.519m5.759,19.92c0,4.559-4.559,6.479-7.679,6.479-2.881,0-4.8-1.439-4.8-3.6,0-1.92,1.681-3.6,5.52-3.6h2.4c1.681,0,4.081-.48,4.559-1.439Z" transform="translate(-259.8 -87.791)"/>
        <path id="Path_68" data-name="Path 68" d="M614.889,96.31c-9.6,0-14.639,7.2-14.639,16.319s5.279,16.26,14.639,16.26c6,0,10.8-2.58,12.719-7.861v-2.191l-.451-.451h-6.511c-.239,2.639-2.4,3.84-5.759,3.84-4.32,0-6.96-2.639-7.2-7.2h20.43l.451-.451v-4.83c-.239-6.714-4.557-13.434-13.678-13.434m-7.2,13.441c.48-4.079,2.881-6.72,7.2-6.72,3.6,0,6.479,2.639,6.72,6.72Z" transform="translate(-528.189 -87.791)"/>
      </g>
    </g>
  </g>
</svg>
