<svg xmlns="http://www.w3.org/2000/svg" width="160" height="160" viewBox="0 0 160 160">
  <g id="nook" transform="translate(-12220 2986)">
    <rect id="Rectangle_462" data-name="Rectangle 462" width="160" height="160" transform="translate(12220 -2986)" fill="none"/>
    <g id="nook-01" transform="translate(12252 -2972.259)">
      <g id="aw" transform="translate(0 0)">
        <g id="Group_47" data-name="Group 47">
          <path id="Path_131" data-name="Path 131" d="M96.181,4.28,80.566-.019a.6.6,0,0,0-.3,0L64.643,4.28a.55.55,0,0,0-.417.544V32.066a.574.574,0,0,0,.569.564H95.989a.574.574,0,0,0,.569-.564l.025-27.242A.561.561,0,0,0,96.181,4.28Zm-15.756.508L91.767,7.9v8.959h-22.7V7.9Z" transform="translate(-31.591 0.038)" fill="#302f2b"/>
          <g id="Group_46" data-name="Group 46" transform="translate(0 41.052)">
            <path id="Path_132" data-name="Path 132" d="M208.086,87.69H206.81V89.1h1.276a.692.692,0,0,0,.717-.666V88.39a.676.676,0,0,0-.65-.7Z" transform="translate(-101.72 -84.163)" fill="none"/>
            <path id="Path_133" data-name="Path 133" d="M204.373,82.73a4.152,4.152,0,1,0,.01,0Zm1.977,6.375a.263.263,0,0,1-.1.356.247.247,0,0,1-.147.03h-.646a.3.3,0,0,1-.254-.2L204.49,87.6H203.6v1.621a.279.279,0,0,1-.274.269h-.508a.279.279,0,0,1-.274-.269v-4.7a.279.279,0,0,1,.274-.269h2.119a1.683,1.683,0,0,1,1.763,1.6v.092a1.573,1.573,0,0,1-1.087,1.575c.238.529.5,1.075.736,1.591Z" transform="translate(-98.48 -81.724)" fill="none"/>
            <path id="Path_134" data-name="Path 134" d="M203.4,80.75a5.155,5.155,0,1,0,3.651,1.51A5.155,5.155,0,0,0,203.4,80.75Zm0,9.319a4.157,4.157,0,1,1,4.157-4.157A4.157,4.157,0,0,1,203.4,90.069Z" transform="translate(-97.513 -80.75)" fill="#302f2b"/>
            <path id="Path_135" data-name="Path 135" d="M208.907,87.412a1.681,1.681,0,0,0-1.671-1.692h-2.211a.279.279,0,0,0-.274.269v4.7a.279.279,0,0,0,.274.269h.508a.279.279,0,0,0,.274-.269V89.074h.889l.722,1.692a.3.3,0,0,0,.254.2h.646a.256.256,0,0,0,.274-.239.3.3,0,0,0-.03-.147c-.244-.508-.508-1.062-.757-1.591a1.566,1.566,0,0,0,1.1-1.575Zm-1.836.717H205.8V86.721h1.276a.681.681,0,0,1,.717.635v.066a.692.692,0,0,1-.676.706Z" transform="translate(-100.708 -83.194)" fill="#302f2b"/>
            <path id="Path_136" data-name="Path 136" d="M18.852,100.357h0a1.244,1.244,0,0,0-1.238,1.238v11.264l-15.242-12.5a1.574,1.574,0,0,0-1.321-.345A1.226,1.226,0,0,0,0,101.226v23.542a1.238,1.238,0,1,0,2.476,0V103.64l15.117,12.4h.025v8.71a1.243,1.243,0,0,0,1.238,1.238h0a1.243,1.243,0,0,0,1.238-1.238V101.582A1.244,1.244,0,0,0,18.852,100.357Z" transform="translate(0 -90.21)" fill="#302f2b"/>
            <path id="Path_137" data-name="Path 137" d="M173.845,101.076a1.238,1.238,0,0,0-1.743-.173l-14.04,11.511a.545.545,0,0,0-.092.1V101.844a1.24,1.24,0,0,0-2.476-.158.816.816,0,0,0,0,.158v23.174a1.238,1.238,0,0,0,2.476,0V114.343a1.281,1.281,0,0,0,.092.092L172.1,125.95a1.238,1.238,0,0,0,1.57-1.911h0l-12.963-10.57,12.963-10.67A1.238,1.238,0,0,0,173.845,101.076Z" transform="translate(-76.479 -90.476)" fill="#302f2b"/>
            <g id="Group_44" data-name="Group 44" transform="translate(23.28 10.204)">
              <path id="Path_138" data-name="Path 138" d="M62.748,121.759a1.025,1.025,0,0,1,1.485-1.413,5.113,5.113,0,0,0,4.573,1.189,11.062,11.062,0,0,0,1.428-5.493c0-5.59-4.2-10.163-9.563-10.163a9.9,9.9,0,0,0-9.631,10.163c0,5.788,4.2,10.356,9.629,10.356a9.136,9.136,0,0,0,6.5-2.719,6.994,6.994,0,0,1-4.42-1.919Z" transform="translate(-48.384 -103.314)" fill="none"/>
              <path id="Path_139" data-name="Path 139" d="M58.059,100.83a12.473,12.473,0,0,0-12.246,12.734c0,7.114,5.361,12.856,12.246,12.856S70.3,120.694,70.3,113.564A12.511,12.511,0,0,0,58.059,100.83Zm-9.611,12.734A9.851,9.851,0,0,1,58.078,103.4c5.427,0,9.563,4.573,9.563,10.163a11.062,11.062,0,0,1-1.428,5.493,5.113,5.113,0,0,1-4.573-1.189,1.017,1.017,0,1,0-1.469,1.407,7.042,7.042,0,0,0,4.38,1.926,9.136,9.136,0,0,1-6.5,2.719C52.631,123.92,48.448,119.352,48.448,113.564Z" transform="translate(-45.813 -100.83)" fill="#302f2b"/>
            </g>
            <g id="Group_45" data-name="Group 45" transform="translate(50.957 10.204)">
              <path id="Path_140" data-name="Path 140" d="M115.118,105.86c-5.361,0-9.568,4.573-9.568,10.163a11.047,11.047,0,0,0,1.433,5.488,5.089,5.089,0,0,0,4.548-1.184,1.018,1.018,0,0,1,1.438,0h0a1.016,1.016,0,0,1,.03,1.428,7.067,7.067,0,0,1-4.386,1.926,9.147,9.147,0,0,0,6.5,2.719c5.422,0,9.655-4.573,9.655-10.356C124.748,110.433,120.54,105.86,115.118,105.86Z" transform="translate(-102.872 -103.304)" fill="none"/>
              <path id="Path_141" data-name="Path 141" d="M112.526,100.83a12.513,12.513,0,0,0-12.246,12.734c0,7.114,5.422,12.856,12.246,12.856s12.246-5.727,12.246-12.856A12.473,12.473,0,0,0,112.526,100.83Zm0,23.09a9.147,9.147,0,0,1-6.5-2.719,7.067,7.067,0,0,0,4.386-1.926,1.024,1.024,0,1,0-1.469-1.428h0a5.089,5.089,0,0,1-4.548,1.184,11.048,11.048,0,0,1-1.433-5.488c0-5.59,4.209-10.163,9.568-10.163a9.915,9.915,0,0,1,9.655,10.163C122.156,119.352,117.948,123.92,112.526,123.92Z" transform="translate(-100.28 -100.83)" fill="#302f2b"/>
            </g>
          </g>
        </g>
      </g>
    </g>
    <path id="Big_Things_Happen_in_Small_Spaces" data-name="Big Things Happen in Small Spaces" d="M-62.752-2.94c0,1.14-.81,1.815-2.16,1.815h-2.415v-3.69h2.37C-63.622-4.815-62.752-4.1-62.752-2.94Zm-.27-4.7c0,1.065-.735,1.695-2.01,1.695h-2.3V-9.33h2.265C-63.727-9.33-63.022-8.67-63.022-7.635Zm1.635,4.83a2.61,2.61,0,0,0-2.07-2.58A2.446,2.446,0,0,0-61.627-7.8c0-1.455-1.11-2.655-3.315-2.655h-3.75V0h3.9C-62.632,0-61.387-1.23-61.387-2.805ZM-59.5,0h1.365V-8.22H-59.5Zm.705-9.555a.91.91,0,0,0,.9-.93.91.91,0,0,0-.9-.93.916.916,0,0,0-.93.93A.916.916,0,0,0-58.792-9.555Zm2.475,5.415a3.956,3.956,0,0,0,3.9,4.275,3.435,3.435,0,0,0,3.06-1.68V.18a2.44,2.44,0,0,1-2.55,2.685A2.552,2.552,0,0,1-54.532,1.2h-1.35c.27,1.755,1.815,2.85,3.975,2.85A3.685,3.685,0,0,0-47.977.18v-8.4h-1.38v1.5a3.388,3.388,0,0,0-3.06-1.635A3.9,3.9,0,0,0-56.317-4.14Zm6.96.015a2.813,2.813,0,0,1-2.79,3.06A2.815,2.815,0,0,1-54.922-4.14a2.775,2.775,0,0,1,2.775-3.03A2.816,2.816,0,0,1-49.357-4.125Zm7.05-5.22h2.865V0h1.365V-9.345h2.85v-1.11h-7.08ZM-33.548,0h1.365V-4.545c0-1.77.96-2.64,2.355-2.64s2.3.855,2.3,2.535V0h1.35V-4.845A3.171,3.171,0,0,0-29.467-8.37a3.093,3.093,0,0,0-2.715,1.335V-11.1h-1.365Zm9.6,0h1.365V-8.22h-1.365Zm.7-9.555a.91.91,0,0,0,.9-.93.91.91,0,0,0-.9-.93.916.916,0,0,0-.93.93A.916.916,0,0,0-23.243-9.555Zm9,9.555h1.35V-4.845a3.189,3.189,0,0,0-3.36-3.525,3.037,3.037,0,0,0-2.64,1.32V-8.22h-1.365V0h1.365V-4.545c0-1.77.96-2.64,2.355-2.64s2.3.855,2.3,2.535Zm3.075-4.14A3.956,3.956,0,0,0-7.268.135a3.435,3.435,0,0,0,3.06-1.68V.18a2.44,2.44,0,0,1-2.55,2.685A2.552,2.552,0,0,1-9.383,1.2h-1.35c.27,1.755,1.815,2.85,3.975,2.85A3.685,3.685,0,0,0-2.828.18v-8.4h-1.38v1.5a3.388,3.388,0,0,0-3.06-1.635A3.9,3.9,0,0,0-11.168-4.14Zm6.96.015A2.813,2.813,0,0,1-7-1.065,2.815,2.815,0,0,1-9.773-4.14,2.775,2.775,0,0,1-7-7.17,2.816,2.816,0,0,1-4.208-4.125Zm9.6,1.89C5.332-5.175.562-4.11.562-6.06c0-.66.6-1.14,1.605-1.14A1.581,1.581,0,0,1,3.952-5.775H5.317c-.09-1.605-1.29-2.58-3.105-2.58S-.8-7.32-.8-6.06c0,3.06,4.86,1.995,4.86,3.825,0,.675-.6,1.215-1.68,1.215-1.155,0-1.86-.6-1.935-1.4H-.968c.09,1.5,1.44,2.55,3.36,2.55C4.207.135,5.392-.885,5.392-2.235ZM18.007,0h1.365V-10.455H18.007v4.59H12.682v-4.59H11.317V0h1.365V-4.74h5.325Zm3.165-4.14A3.953,3.953,0,0,0,25.057.135,3.433,3.433,0,0,0,28.132-1.53V0h1.38V-8.22h-1.38v1.5a3.411,3.411,0,0,0-3.06-1.635A3.9,3.9,0,0,0,21.172-4.14Zm6.96.015a2.813,2.813,0,0,1-2.79,3.06A2.815,2.815,0,0,1,22.567-4.14a2.775,2.775,0,0,1,2.775-3.03A2.816,2.816,0,0,1,28.132-4.125Zm5.055-2.58V-8.22H31.822V3.9h1.365V-1.515A3.556,3.556,0,0,0,36.262.135a3.956,3.956,0,0,0,3.9-4.275,3.9,3.9,0,0,0-3.9-4.215A3.472,3.472,0,0,0,33.187-6.705Zm5.58,2.565a2.818,2.818,0,0,1-2.79,3.075,2.821,2.821,0,0,1-2.79-3.06,2.825,2.825,0,0,1,2.79-3.045A2.778,2.778,0,0,1,38.767-4.14Zm4.56-2.565V-8.22H41.962V3.9h1.365V-1.515A3.556,3.556,0,0,0,46.4.135,3.956,3.956,0,0,0,50.3-4.14a3.9,3.9,0,0,0-3.9-4.215A3.472,3.472,0,0,0,43.327-6.705Zm5.58,2.565a2.818,2.818,0,0,1-2.79,3.075,2.821,2.821,0,0,1-2.79-3.06,2.825,2.825,0,0,1,2.79-3.045A2.778,2.778,0,0,1,48.907-4.14ZM55.6-7.2a2.412,2.412,0,0,1,2.595,2.49H53A2.546,2.546,0,0,1,55.6-7.2Zm3.84,4.665h-1.47a2.259,2.259,0,0,1-2.31,1.515,2.584,2.584,0,0,1-2.67-2.58h6.57a7.4,7.4,0,0,0,.045-.825,3.768,3.768,0,0,0-3.945-3.93,3.911,3.911,0,0,0-4.065,4.23A3.96,3.96,0,0,0,55.657.135,3.7,3.7,0,0,0,59.437-2.535ZM67.417,0h1.35V-4.845a3.189,3.189,0,0,0-3.36-3.525,3.037,3.037,0,0,0-2.64,1.32V-8.22H61.4V0h1.365V-4.545c0-1.77.96-2.64,2.355-2.64,1.38,0,2.295.855,2.295,2.535ZM-56.04,20h1.365V11.78H-56.04Zm.705-9.555a.91.91,0,0,0,.9-.93.91.91,0,0,0-.9-.93.916.916,0,0,0-.93.93A.916.916,0,0,0-55.335,10.445Zm9,9.555h1.35V15.155a3.189,3.189,0,0,0-3.36-3.525,3.037,3.037,0,0,0-2.64,1.32V11.78H-52.35V20h1.365V15.455c0-1.77.96-2.64,2.355-2.64s2.295.855,2.295,2.535Zm14.385-2.85c0-3.87-5.64-2.19-5.64-4.89,0-1.125.885-1.71,2.01-1.68a1.894,1.894,0,0,1,2.025,1.515h1.5c-.165-1.59-1.47-2.685-3.465-2.685-2.07,0-3.465,1.17-3.465,2.9,0,3.885,5.655,2.085,5.655,4.9,0,.99-.78,1.74-2.1,1.74a1.937,1.937,0,0,1-2.16-1.74h-1.455c.03,1.725,1.515,2.9,3.615,2.9C-33.165,20.1-31.95,18.635-31.95,17.15ZM-18.075,20h1.35V15.155a3.182,3.182,0,0,0-3.33-3.525,3.043,3.043,0,0,0-2.91,1.83,3.093,3.093,0,0,0-3.015-1.83,2.972,2.972,0,0,0-2.595,1.335V11.78H-29.94V20h1.365V15.47c0-1.77.945-2.655,2.325-2.655,1.35,0,2.25.855,2.25,2.535V20h1.35V15.47c0-1.77.945-2.655,2.325-2.655,1.35,0,2.25.855,2.25,2.535ZM-15,15.86a3.953,3.953,0,0,0,3.885,4.275A3.433,3.433,0,0,0-8.04,18.47V20h1.38V11.78H-8.04v1.5a3.411,3.411,0,0,0-3.06-1.635A3.9,3.9,0,0,0-15,15.86Zm6.96.015a2.813,2.813,0,0,1-2.79,3.06A2.815,2.815,0,0,1-13.6,15.86a2.775,2.775,0,0,1,2.775-3.03A2.816,2.816,0,0,1-8.04,15.875ZM-4.35,20h1.365V8.9H-4.35Zm3.69,0H.705V8.9H-.66Zm14.49-2.85c0-3.87-5.64-2.19-5.64-4.89,0-1.125.885-1.71,2.01-1.68a1.894,1.894,0,0,1,2.025,1.515h1.5c-.165-1.59-1.47-2.685-3.465-2.685-2.07,0-3.465,1.17-3.465,2.9,0,3.885,5.655,2.085,5.655,4.9,0,.99-.78,1.74-2.1,1.74a1.937,1.937,0,0,1-2.16-1.74H6.735c.03,1.725,1.515,2.9,3.615,2.9C12.615,20.1,13.83,18.635,13.83,17.15ZM17.2,13.3V11.78H15.84V23.9H17.2V18.485a3.556,3.556,0,0,0,3.075,1.65,3.956,3.956,0,0,0,3.9-4.275,3.9,3.9,0,0,0-3.9-4.215A3.472,3.472,0,0,0,17.2,13.3Zm5.58,2.565a2.8,2.8,0,1,1-5.58.015,2.825,2.825,0,0,1,2.79-3.045A2.778,2.778,0,0,1,22.785,15.86Zm2.685,0a3.953,3.953,0,0,0,3.885,4.275A3.433,3.433,0,0,0,32.43,18.47V20h1.38V11.78H32.43v1.5a3.411,3.411,0,0,0-3.06-1.635A3.9,3.9,0,0,0,25.47,15.86Zm6.96.015a2.8,2.8,0,1,1-5.565-.015,2.775,2.775,0,0,1,2.775-3.03A2.816,2.816,0,0,1,32.43,15.875Zm3.18,0a3.915,3.915,0,0,0,4.005,4.26A3.656,3.656,0,0,0,43.41,17.36H41.94a2.205,2.205,0,0,1-2.325,1.62c-1.5,0-2.61-1.065-2.61-3.1,0-2.01,1.11-3.075,2.61-3.075a2.239,2.239,0,0,1,2.325,1.62h1.47a3.572,3.572,0,0,0-3.795-2.775A3.905,3.905,0,0,0,35.61,15.875ZM48.72,12.8a2.412,2.412,0,0,1,2.595,2.49h-5.19A2.546,2.546,0,0,1,48.72,12.8Zm3.84,4.665H51.09a2.259,2.259,0,0,1-2.31,1.515,2.584,2.584,0,0,1-2.67-2.58h6.57a7.4,7.4,0,0,0,.045-.825,3.768,3.768,0,0,0-3.945-3.93,3.911,3.911,0,0,0-4.065,4.23,3.96,3.96,0,0,0,4.065,4.26A3.7,3.7,0,0,0,52.56,17.465Zm7.875.3c-.06-2.94-4.83-1.875-4.83-3.825,0-.66.6-1.14,1.6-1.14a1.581,1.581,0,0,1,1.785,1.425H60.36c-.09-1.605-1.29-2.58-3.105-2.58s-3.015,1.035-3.015,2.3c0,3.06,4.86,1.995,4.86,3.825,0,.675-.6,1.215-1.68,1.215-1.155,0-1.86-.6-1.935-1.4h-1.41c.09,1.5,1.44,2.55,3.36,2.55C59.25,20.135,60.435,19.115,60.435,17.765Z" transform="translate(12300 -2867)" fill="#333"/>
  </g>
</svg>
