<svg xmlns="http://www.w3.org/2000/svg" width="160" height="160" viewBox="0 0 160 160">
  <g id="nook" transform="translate(-12220 2986)">
    <rect id="Rectangle_462" data-name="Rectangle 462" width="160" height="160" transform="translate(12220 -2986)" fill="none"/>
    <g id="nook-01" transform="translate(12252 -2972.259)">
      <g id="aw" transform="translate(0 0)">
        <g id="Group_47" data-name="Group 47">
          <path id="Path_131" data-name="Path 131" d="M96.181,4.28,80.566-.019a.6.6,0,0,0-.3,0L64.643,4.28a.55.55,0,0,0-.417.544V32.066a.574.574,0,0,0,.569.564H95.989a.574.574,0,0,0,.569-.564l.025-27.242A.561.561,0,0,0,96.181,4.28Zm-15.756.508L91.767,7.9v8.959h-22.7V7.9Z" transform="translate(-31.591 0.038)" fill="#302f2b"/>
          <g id="Group_46" data-name="Group 46" transform="translate(0 41.052)">
            <path id="Path_132" data-name="Path 132" d="M208.086,87.69H206.81V89.1h1.276a.692.692,0,0,0,.717-.666V88.39a.676.676,0,0,0-.65-.7Z" transform="translate(-101.72 -84.163)" fill="none"/>
            <path id="Path_133" data-name="Path 133" d="M204.373,82.73a4.152,4.152,0,1,0,.01,0Zm1.977,6.375a.263.263,0,0,1-.1.356.247.247,0,0,1-.147.03h-.646a.3.3,0,0,1-.254-.2L204.49,87.6H203.6v1.621a.279.279,0,0,1-.274.269h-.508a.279.279,0,0,1-.274-.269v-4.7a.279.279,0,0,1,.274-.269h2.119a1.683,1.683,0,0,1,1.763,1.6v.092a1.573,1.573,0,0,1-1.087,1.575c.238.529.5,1.075.736,1.591Z" transform="translate(-98.48 -81.724)" fill="none"/>
            <path id="Path_134" data-name="Path 134" d="M203.4,80.75a5.155,5.155,0,1,0,3.651,1.51A5.155,5.155,0,0,0,203.4,80.75Zm0,9.319a4.157,4.157,0,1,1,4.157-4.157A4.157,4.157,0,0,1,203.4,90.069Z" transform="translate(-97.513 -80.75)" fill="#302f2b"/>
            <path id="Path_135" data-name="Path 135" d="M208.907,87.412a1.681,1.681,0,0,0-1.671-1.692h-2.211a.279.279,0,0,0-.274.269v4.7a.279.279,0,0,0,.274.269h.508a.279.279,0,0,0,.274-.269V89.074h.889l.722,1.692a.3.3,0,0,0,.254.2h.646a.256.256,0,0,0,.274-.239.3.3,0,0,0-.03-.147c-.244-.508-.508-1.062-.757-1.591a1.566,1.566,0,0,0,1.1-1.575Zm-1.836.717H205.8V86.721h1.276a.681.681,0,0,1,.717.635v.066a.692.692,0,0,1-.676.706Z" transform="translate(-100.708 -83.194)" fill="#302f2b"/>
            <path id="Path_136" data-name="Path 136" d="M18.852,100.357h0a1.244,1.244,0,0,0-1.238,1.238v11.264l-15.242-12.5a1.574,1.574,0,0,0-1.321-.345A1.226,1.226,0,0,0,0,101.226v23.542a1.238,1.238,0,1,0,2.476,0V103.64l15.117,12.4h.025v8.71a1.243,1.243,0,0,0,1.238,1.238h0a1.243,1.243,0,0,0,1.238-1.238V101.582A1.244,1.244,0,0,0,18.852,100.357Z" transform="translate(0 -90.21)" fill="#302f2b"/>
            <path id="Path_137" data-name="Path 137" d="M173.845,101.076a1.238,1.238,0,0,0-1.743-.173l-14.04,11.511a.545.545,0,0,0-.092.1V101.844a1.24,1.24,0,0,0-2.476-.158.816.816,0,0,0,0,.158v23.174a1.238,1.238,0,0,0,2.476,0V114.343a1.281,1.281,0,0,0,.092.092L172.1,125.95a1.238,1.238,0,0,0,1.57-1.911h0l-12.963-10.57,12.963-10.67A1.238,1.238,0,0,0,173.845,101.076Z" transform="translate(-76.479 -90.476)" fill="#302f2b"/>
            <g id="Group_44" data-name="Group 44" transform="translate(23.28 10.204)">
              <path id="Path_138" data-name="Path 138" d="M62.748,121.759a1.025,1.025,0,0,1,1.485-1.413,5.113,5.113,0,0,0,4.573,1.189,11.062,11.062,0,0,0,1.428-5.493c0-5.59-4.2-10.163-9.563-10.163a9.9,9.9,0,0,0-9.631,10.163c0,5.788,4.2,10.356,9.629,10.356a9.136,9.136,0,0,0,6.5-2.719,6.994,6.994,0,0,1-4.42-1.919Z" transform="translate(-48.384 -103.314)" fill="none"/>
              <path id="Path_139" data-name="Path 139" d="M58.059,100.83a12.473,12.473,0,0,0-12.246,12.734c0,7.114,5.361,12.856,12.246,12.856S70.3,120.694,70.3,113.564A12.511,12.511,0,0,0,58.059,100.83Zm-9.611,12.734A9.851,9.851,0,0,1,58.078,103.4c5.427,0,9.563,4.573,9.563,10.163a11.062,11.062,0,0,1-1.428,5.493,5.113,5.113,0,0,1-4.573-1.189,1.017,1.017,0,1,0-1.469,1.407,7.042,7.042,0,0,0,4.38,1.926,9.136,9.136,0,0,1-6.5,2.719C52.631,123.92,48.448,119.352,48.448,113.564Z" transform="translate(-45.813 -100.83)" fill="#302f2b"/>
            </g>
            <g id="Group_45" data-name="Group 45" transform="translate(50.957 10.204)">
              <path id="Path_140" data-name="Path 140" d="M115.118,105.86c-5.361,0-9.568,4.573-9.568,10.163a11.047,11.047,0,0,0,1.433,5.488,5.089,5.089,0,0,0,4.548-1.184,1.018,1.018,0,0,1,1.438,0h0a1.016,1.016,0,0,1,.03,1.428,7.067,7.067,0,0,1-4.386,1.926,9.147,9.147,0,0,0,6.5,2.719c5.422,0,9.655-4.573,9.655-10.356C124.748,110.433,120.54,105.86,115.118,105.86Z" transform="translate(-102.872 -103.304)" fill="none"/>
              <path id="Path_141" data-name="Path 141" d="M112.526,100.83a12.513,12.513,0,0,0-12.246,12.734c0,7.114,5.422,12.856,12.246,12.856s12.246-5.727,12.246-12.856A12.473,12.473,0,0,0,112.526,100.83Zm0,23.09a9.147,9.147,0,0,1-6.5-2.719,7.067,7.067,0,0,0,4.386-1.926,1.024,1.024,0,1,0-1.469-1.428h0a5.089,5.089,0,0,1-4.548,1.184,11.048,11.048,0,0,1-1.433-5.488c0-5.59,4.209-10.163,9.568-10.163a9.915,9.915,0,0,1,9.655,10.163C122.156,119.352,117.948,123.92,112.526,123.92Z" transform="translate(-100.28 -100.83)" fill="#302f2b"/>
            </g>
          </g>
        </g>
      </g>
    </g>
    <text id="Big_Things_Happen_in_Small_Spaces" data-name="Big Things Happen in Small Spaces" transform="translate(12300 -2867)" fill="#333" font-size="15" font-family="Poppins-Regular, Poppins"><tspan x="-69.847" y="0">Big Things Happen</tspan><tspan x="-61.2" y="20" xml:space="preserve"> in Small Spaces</tspan></text>
  </g>
</svg>
