<svg xmlns="http://www.w3.org/2000/svg" width="192" height="192" viewBox="0 0 192 192">
  <g id="nook" transform="translate(-12220 2986)">
    <rect id="Rectangle_462" data-name="Rectangle 462" width="192" height="192" transform="translate(12220 -2986)" fill="none"/>
    <g id="nook-01" transform="translate(12227.24 -2968.92)">
      <g id="aw">
        <g id="Group_47" data-name="Group 47">
          <path id="Path_131" data-name="Path 131" d="M115.858,6.939,90.627-.007a.968.968,0,0,0-.484,0L64.9,6.939a.889.889,0,0,0-.673.879V51.834a.927.927,0,0,0,.92.911h50.4a.927.927,0,0,0,.92-.911l.041-44.017A.906.906,0,0,0,115.858,6.939ZM90.4,7.76l18.326,5.025V27.26H72.055V12.785Z" transform="translate(-11.494 0.038)" fill="#302f2b"/>
          <g id="Group_46" data-name="Group 46" transform="translate(0 66.331)">
            <path id="Path_132" data-name="Path 132" d="M208.871,87.69H206.81v2.274h2.061a1.118,1.118,0,0,0,1.158-1.076v-.066a1.092,1.092,0,0,0-1.051-1.133Z" transform="translate(-37.008 -81.992)" fill="none"/>
            <path id="Path_133" data-name="Path 133" d="M206.926,82.73a6.708,6.708,0,1,0,.016,0Zm3.194,10.3a.425.425,0,0,1-.156.575.4.4,0,0,1-.238.049h-1.043a.492.492,0,0,1-.411-.32L207.115,90.6h-1.437v2.619a.451.451,0,0,1-.443.435h-.821a.451.451,0,0,1-.443-.435v-7.6a.451.451,0,0,1,.443-.435h3.424a2.719,2.719,0,0,1,2.849,2.586v.148a2.542,2.542,0,0,1-1.757,2.545c.385.855.8,1.737,1.19,2.571Z" transform="translate(-35.827 -81.104)" fill="none"/>
            <path id="Path_134" data-name="Path 134" d="M206.575,80.75a8.329,8.329,0,1,0,5.9,2.439,8.334,8.334,0,0,0-5.9-2.439Zm0,15.058a6.716,6.716,0,1,1,6.716-6.716A6.716,6.716,0,0,1,206.575,95.808Z" transform="translate(-35.477 -80.75)" fill="#302f2b"/>
            <path id="Path_135" data-name="Path 135" d="M211.466,88.454a2.716,2.716,0,0,0-2.7-2.734h-3.572a.451.451,0,0,0-.443.435v7.6a.451.451,0,0,0,.443.435h.821a.451.451,0,0,0,.443-.435V91.139h1.437l1.166,2.734a.492.492,0,0,0,.411.32h1.043a.414.414,0,0,0,.443-.386.479.479,0,0,0-.049-.238c-.394-.821-.821-1.716-1.223-2.57a2.53,2.53,0,0,0,1.78-2.545ZM208.5,89.612h-2.061V87.337H208.5a1.1,1.1,0,0,1,1.158,1.026v.107a1.118,1.118,0,0,1-1.092,1.141Z" transform="translate(-36.64 -81.639)" fill="#302f2b"/>
            <path id="Path_136" data-name="Path 136" d="M30.461,100.588h0a2.01,2.01,0,0,0-2,2v18.2l-24.627-20.2A2.544,2.544,0,0,0,1.7,100.03,1.981,1.981,0,0,0,0,101.992v38.039a2,2,0,0,0,4,0V105.892l24.426,20.042h.041v14.073a2.008,2.008,0,0,0,2,2h0a2.008,2.008,0,0,0,2-2v-37.44A2.01,2.01,0,0,0,30.461,100.588Z" transform="translate(0 -84.192)" fill="#302f2b"/>
            <path id="Path_137" data-name="Path 137" d="M185.147,101.416a2,2,0,0,0-2.816-.279l-22.686,18.6a.879.879,0,0,0-.148.156V102.656a2,2,0,0,0-4-.255,1.318,1.318,0,0,0,0,.255V140.1a2,2,0,0,0,4,0V122.853a2.065,2.065,0,0,0,.148.148l22.686,18.605a2,2,0,0,0,2.537-3.087h0l-20.945-17.078L184.868,104.2a2,2,0,0,0,.279-2.784Z" transform="translate(-27.825 -84.289)" fill="#302f2b"/>
            <g id="Group_44" data-name="Group 44" transform="translate(37.612 16.487)">
              <path id="Path_138" data-name="Path 138" d="M69.957,131.538a1.656,1.656,0,1,1,2.4-2.283,8.261,8.261,0,0,0,7.389,1.921,17.873,17.873,0,0,0,2.307-8.876c0-9.032-6.79-16.421-15.452-16.421S51.04,113.269,51.04,122.3c0,9.352,6.79,16.733,15.559,16.733a14.761,14.761,0,0,0,10.5-4.393,11.3,11.3,0,0,1-7.142-3.1Z" transform="translate(-46.746 -101.734)" fill="none"/>
              <path id="Path_139" data-name="Path 139" d="M65.6,100.83c-11.125,0-19.787,9.352-19.787,20.576,0,11.495,8.662,20.773,19.787,20.773s19.779-9.253,19.779-20.773C85.376,110.182,76.624,100.83,65.6,100.83ZM50.071,121.406c0-9.032,6.79-16.421,15.559-16.421s15.452,7.389,15.452,16.421a17.873,17.873,0,0,1-2.307,8.876,8.261,8.261,0,0,1-7.389-1.921,1.643,1.643,0,1,0-2.373,2.274,11.378,11.378,0,0,0,7.077,3.112,14.761,14.761,0,0,1-10.5,4.393C56.829,138.139,50.071,130.757,50.071,121.406Z" transform="translate(-45.81 -100.83)" fill="#302f2b"/>
            </g>
            <g id="Group_45" data-name="Group 45" transform="translate(82.335 16.487)">
              <path id="Path_140" data-name="Path 140" d="M121.01,105.86c-8.662,0-15.46,7.389-15.46,16.421a17.85,17.85,0,0,0,2.315,8.867,8.223,8.223,0,0,0,7.348-1.913,1.645,1.645,0,0,1,2.324,0h0a1.641,1.641,0,0,1,.049,2.307,11.419,11.419,0,0,1-7.086,3.112,14.78,14.78,0,0,0,10.509,4.393c8.761,0,15.6-7.389,15.6-16.733C136.569,113.249,129.771,105.86,121.01,105.86Z" transform="translate(-101.223 -101.73)" fill="none"/>
              <path id="Path_141" data-name="Path 141" d="M120.067,100.83c-11.027,0-19.787,9.352-19.787,20.576,0,11.495,8.761,20.773,19.787,20.773s19.787-9.253,19.787-20.773C139.855,110.182,131.193,100.83,120.067,100.83Zm0,37.309a14.78,14.78,0,0,1-10.509-4.393,11.419,11.419,0,0,0,7.086-3.112,1.655,1.655,0,1,0-2.373-2.307h0a8.223,8.223,0,0,1-7.348,1.913,17.851,17.851,0,0,1-2.315-8.867c0-9.032,6.8-16.421,15.46-16.421s15.6,7.389,15.6,16.421C135.626,130.757,128.828,138.139,120.067,138.139Z" transform="translate(-100.28 -100.83)" fill="#302f2b"/>
            </g>
          </g>
        </g>
      </g>
    </g>
    <text id="Big_Things_Happen_in_Small_Spaces" data-name="Big Things Happen in Small Spaces" transform="translate(12227 -2822)" fill="#333" font-size="10" font-family="Poppins-Regular, Poppins"><tspan x="0" y="0">Big Things Happen in Small Spaces</tspan></text>
  </g>
</svg>
