<svg xmlns="http://www.w3.org/2000/svg" width="192" height="192" viewBox="0 0 192 192">
  <g id="noti" transform="translate(-10390 2986)">
    <rect id="Rectangle_458" data-name="Rectangle 458" width="192" height="192" transform="translate(10390 -2986)" fill="none"/>
    <g id="NOTI_LOGO-01" data-name="NOTI LOGO-01" transform="translate(10397.2 -2978.8)">
      <path id="Path_69" data-name="Path 69" d="M144.382,50.86a88.8,88.8,0,1,1-88.812,88.8,88.815,88.815,0,0,1,88.812-88.8" transform="translate(-55.57 -50.86)" fill-rule="evenodd"/>
      <path id="Path_70" data-name="Path 70" d="M162.775,305.967h6.084v0a1.305,1.305,0,0,0,1.293-1.112v-30.98c.018-3.366,4.113-3.36,4.107-.006v4.776a4.929,4.929,0,0,0,.365,1.739l11.442,24.929a1.307,1.307,0,0,0,1.13.651v0h3.275v0a1.309,1.309,0,0,0,1.3-1.139V248.976a1.308,1.308,0,0,0-1.3-1.22v-.006h-6.075v.006a1.311,1.311,0,0,0-1.3,1.2v30.534h-.048v.2c-.012,3.212-4.062,3.092-4.047,0v-5.074a4.989,4.989,0,0,0-.341-1.684l-11.065-24.556a1.306,1.306,0,0,0-1.061-.621h-3.755v.006a1.309,1.309,0,0,0-1.3,1.2v55.735a1.309,1.309,0,0,0,1.3,1.275Zm37.956-14.3c0,9.863,7.488,14.823,14.554,14.823s14.554-4.951,14.554-14.823V262.048c0-9.872-7.488-14.808-14.554-14.808s-14.554,4.942-14.554,14.808Zm8.681-29.624c0-4.17,2.724-6.126,5.873-6.126s5.873,1.965,5.873,6.126v29.624c0,4.161-2.724,6.126-5.873,6.126s-5.873-1.959-5.873-6.126Zm35.163,43.919h6.084v0a1.3,1.3,0,0,0,1.29-1.1V255.918h7.789a1.307,1.307,0,0,0,1.2-1.269v-5.686a1.309,1.309,0,0,0-1.3-1.208v-.006H235.571v.006a1.307,1.307,0,0,0-1.308,1.308v5.554a1.31,1.31,0,0,0,1.2,1.3h7.8v48.786a1.306,1.306,0,0,0,1.3,1.257v0Zm23.323,0h6.084v0a1.307,1.307,0,0,0,1.293-1.106V249a1.308,1.308,0,0,0-1.22-1.254h-6.244a1.3,1.3,0,0,0-1.217,1.235v55.738a1.307,1.307,0,0,0,1.3,1.238Z" transform="translate(-129.559 -188.064)" fill="#fff" fill-rule="evenodd"/>
    </g>
  </g>
</svg>
