<svg xmlns="http://www.w3.org/2000/svg" width="160" height="160" viewBox="0 0 160 160">
  <g id="noti" transform="translate(-10411 2989)">
    <rect id="Rectangle_458" data-name="Rectangle 458" width="160" height="160" transform="translate(10411 -2989)" fill="none"/>
    <path id="The_best_of_Polish_designs" data-name="The best of Polish designs" d="M-66.187-9.345h2.865V0h1.365V-9.345h2.85v-1.11h-7.08ZM-57.428,0h1.365V-4.545c0-1.77.96-2.64,2.355-2.64s2.295.855,2.295,2.535V0h1.35V-4.845A3.171,3.171,0,0,0-53.348-8.37a3.093,3.093,0,0,0-2.715,1.335V-11.1h-1.365Zm13.1-7.2a2.412,2.412,0,0,1,2.595,2.49h-5.19A2.546,2.546,0,0,1-44.333-7.2Zm3.84,4.665h-1.47a2.259,2.259,0,0,1-2.31,1.515,2.584,2.584,0,0,1-2.67-2.58h6.57a7.4,7.4,0,0,0,.045-.825,3.768,3.768,0,0,0-3.945-3.93,3.911,3.911,0,0,0-4.065,4.23A3.96,3.96,0,0,0-44.273.135,3.7,3.7,0,0,0-40.493-2.535Zm7.335-4.155V-11.1h-1.365V0h1.365V-1.515A3.43,3.43,0,0,0-30.083.135a3.956,3.956,0,0,0,3.9-4.275,3.887,3.887,0,0,0-3.9-4.215A3.482,3.482,0,0,0-33.158-6.69Zm5.58,2.55a2.818,2.818,0,0,1-2.79,3.075,2.821,2.821,0,0,1-2.79-3.06,2.825,2.825,0,0,1,2.79-3.045A2.778,2.778,0,0,1-27.578-4.14Zm6.69-3.06a2.412,2.412,0,0,1,2.6,2.49h-5.19A2.546,2.546,0,0,1-20.888-7.2Zm3.84,4.665h-1.47a2.259,2.259,0,0,1-2.31,1.515A2.584,2.584,0,0,1-23.5-3.6h6.57a7.4,7.4,0,0,0,.045-.825,3.768,3.768,0,0,0-3.945-3.93,3.911,3.911,0,0,0-4.065,4.23A3.96,3.96,0,0,0-20.828.135,3.7,3.7,0,0,0-17.048-2.535Zm7.875.3C-9.233-5.175-14-4.11-14-6.06c0-.66.6-1.14,1.6-1.14a1.581,1.581,0,0,1,1.785,1.425h1.365c-.09-1.605-1.29-2.58-3.1-2.58s-3.015,1.035-3.015,2.3c0,3.06,4.86,1.995,4.86,3.825,0,.675-.6,1.215-1.68,1.215-1.155,0-1.86-.6-1.935-1.4h-1.41c.09,1.5,1.44,2.55,3.36,2.55C-10.358.135-9.173-.885-9.173-2.235Zm2.22-.015C-6.953-.6-6.128,0-4.673,0h1.23V-1.155H-4.448c-.84,0-1.14-.285-1.14-1.095V-7.1h2.145V-8.22H-5.588v-2.07H-6.953v2.07H-8.018V-7.1h1.065ZM10.012-4.125a4.012,4.012,0,0,0-4.155-4.23A4.02,4.02,0,0,0,1.7-4.125,3.991,3.991,0,0,0,5.8.135,4.076,4.076,0,0,0,10.012-4.125Zm-6.915,0A2.725,2.725,0,0,1,5.842-7.17,2.762,2.762,0,0,1,8.617-4.125,2.791,2.791,0,0,1,5.8-1.065C4.372-1.065,3.1-2.04,3.1-4.125ZM12.067,0h1.365V-7.1h1.725V-8.22H13.432v-.585c0-1.065.405-1.515,1.635-1.515v-1.14c-2.1,0-3,.825-3,2.655v.585H11V-7.1h1.065Zm10.05-5.49V-9.33h2.01c1.56,0,2.22.72,2.22,1.935,0,1.17-.66,1.905-2.22,1.905ZM27.742-7.4c0-1.71-1.155-3.06-3.615-3.06H20.752V0h1.365V-4.365h2.01C26.722-4.365,27.742-5.805,27.742-7.4Zm9.495,3.27a4.012,4.012,0,0,0-4.155-4.23,4.02,4.02,0,0,0-4.155,4.23,3.991,3.991,0,0,0,4.1,4.26A4.076,4.076,0,0,0,37.237-4.125Zm-6.915,0A2.725,2.725,0,0,1,33.067-7.17a2.762,2.762,0,0,1,2.775,3.045,2.791,2.791,0,0,1-2.82,3.06C31.6-1.065,30.322-2.04,30.322-4.125ZM39.037,0H40.4V-11.1H39.037Zm3.69,0h1.365V-8.22H42.727Zm.705-9.555a.91.91,0,0,0,.9-.93.91.91,0,0,0-.9-.93.916.916,0,0,0-.93.93A.916.916,0,0,0,43.432-9.555Zm8.9,7.32c-.06-2.94-4.83-1.875-4.83-3.825,0-.66.6-1.14,1.6-1.14a1.581,1.581,0,0,1,1.785,1.425h1.365c-.09-1.605-1.29-2.58-3.105-2.58s-3.015,1.035-3.015,2.3c0,3.06,4.86,1.995,4.86,3.825,0,.675-.6,1.215-1.68,1.215-1.155,0-1.86-.6-1.935-1.4h-1.41c.09,1.5,1.44,2.55,3.36,2.55C51.142.135,52.327-.885,52.327-2.235ZM54.247,0h1.365V-4.545c0-1.77.96-2.64,2.355-2.64s2.295.855,2.295,2.535V0h1.35V-4.845A3.171,3.171,0,0,0,58.327-8.37a3.093,3.093,0,0,0-2.715,1.335V-11.1H54.247ZM-28.62,15.86a3.956,3.956,0,0,0,3.9,4.275,3.376,3.376,0,0,0,3.06-1.68V20h1.38V8.9h-1.38v4.35A3.585,3.585,0,0,0-24.7,11.645,3.9,3.9,0,0,0-28.62,15.86Zm6.96.015a2.813,2.813,0,0,1-2.79,3.06,2.815,2.815,0,0,1-2.775-3.075,2.775,2.775,0,0,1,2.775-3.03A2.816,2.816,0,0,1-21.66,15.875Zm7.185-3.075a2.412,2.412,0,0,1,2.6,2.49h-5.19A2.546,2.546,0,0,1-14.475,12.8Zm3.84,4.665H-12.1a2.259,2.259,0,0,1-2.31,1.515,2.584,2.584,0,0,1-2.67-2.58h6.57a7.4,7.4,0,0,0,.045-.825,3.768,3.768,0,0,0-3.945-3.93,3.911,3.911,0,0,0-4.065,4.23,3.96,3.96,0,0,0,4.065,4.26A3.7,3.7,0,0,0-10.635,17.465Zm7.875.3c-.06-2.94-4.83-1.875-4.83-3.825,0-.66.6-1.14,1.605-1.14A1.581,1.581,0,0,1-4.2,14.225h1.365c-.09-1.605-1.29-2.58-3.105-2.58s-3.015,1.035-3.015,2.3c0,3.06,4.86,1.995,4.86,3.825,0,.675-.6,1.215-1.68,1.215-1.155,0-1.86-.6-1.935-1.4H-9.12c.09,1.5,1.44,2.55,3.36,2.55C-3.945,20.135-2.76,19.115-2.76,17.765ZM-.84,20H.525V11.78H-.84Zm.705-9.555a.91.91,0,0,0,.9-.93.91.91,0,0,0-.9-.93.916.916,0,0,0-.93.93A.916.916,0,0,0-.135,10.445ZM2.34,15.86a3.956,3.956,0,0,0,3.9,4.275,3.435,3.435,0,0,0,3.06-1.68V20.18a2.44,2.44,0,0,1-2.55,2.685A2.552,2.552,0,0,1,4.125,21.2H2.775c.27,1.755,1.815,2.85,3.975,2.85a3.685,3.685,0,0,0,3.93-3.87v-8.4H9.3v1.5a3.388,3.388,0,0,0-3.06-1.635A3.9,3.9,0,0,0,2.34,15.86Zm6.96.015a2.8,2.8,0,1,1-5.565-.015A2.775,2.775,0,0,1,6.51,12.83,2.816,2.816,0,0,1,9.3,15.875ZM19,20h1.35V15.155a3.189,3.189,0,0,0-3.36-3.525,3.037,3.037,0,0,0-2.64,1.32V11.78H12.99V20h1.365V15.455c0-1.77.96-2.64,2.355-2.64S19,13.67,19,15.35ZM28.5,17.765c-.06-2.94-4.83-1.875-4.83-3.825,0-.66.6-1.14,1.6-1.14a1.581,1.581,0,0,1,1.785,1.425h1.365c-.09-1.605-1.29-2.58-3.1-2.58S22.3,12.68,22.3,13.94c0,3.06,4.86,1.995,4.86,3.825,0,.675-.6,1.215-1.68,1.215-1.155,0-1.86-.6-1.935-1.4H22.14c.09,1.5,1.44,2.55,3.36,2.55C27.315,20.135,28.5,19.115,28.5,17.765Z" transform="translate(10491 -2862.833)" fill="#333"/>
    <g id="NOTI_LOGO-01" data-name="NOTI LOGO-01" transform="translate(10447.432 -2982.071)">
      <g id="Ellipse_5" data-name="Ellipse 5" transform="translate(-0.432 8.071)" stroke="#000" stroke-width="1">
        <circle cx="44" cy="44" r="44" stroke="none"/>
        <circle cx="44" cy="44" r="43.5" fill="none"/>
      </g>
      <path id="Path_70" data-name="Path 70" d="M162.162,278.046h3.191a.685.685,0,0,0,.678-.583V261.21c.01-1.766,2.157-1.763,2.153,0v2.505a2.586,2.586,0,0,0,.191.912l6,13.078a.686.686,0,0,0,.593.342h1.718a.687.687,0,0,0,.682-.6v-29.3a.686.686,0,0,0-.682-.64v0H173.5v0a.688.688,0,0,0-.682.629v16.018H172.8v.1a1.074,1.074,0,1,1-2.123,0V261.6a2.618,2.618,0,0,0-.179-.883l-5.8-12.882a.685.685,0,0,0-.557-.326h-1.97v0a.687.687,0,0,0-.682.629v29.238a.687.687,0,0,0,.682.669Zm19.912-7.5a7.635,7.635,0,1,0,15.271,0V255.007a7.639,7.639,0,1,0-15.27,0ZM186.627,255a3.084,3.084,0,1,1,6.162,0v15.541a3.084,3.084,0,1,1-6.162,0Zm18.446,23.04h3.193a.682.682,0,0,0,.676-.577V251.791h4.086a.685.685,0,0,0,.63-.666v-2.983a.687.687,0,0,0-.682-.634v0H200.35v0a.685.685,0,0,0-.686.686v2.913a.687.687,0,0,0,.63.682h4.092v25.593a.685.685,0,0,0,.682.658h0Zm12.235,0H220.5a.685.685,0,0,0,.678-.58v-29.3a.686.686,0,0,0-.64-.658h-3.276a.682.682,0,0,0-.638.648v29.24a.685.685,0,0,0,.682.65Z" transform="translate(-147.751 -210.844)" fill="#fff" fill-rule="evenodd"/>
    </g>
  </g>
</svg>
