<svg xmlns="http://www.w3.org/2000/svg" width="192" height="192" viewBox="0 0 192 192">
  <g id="noti" transform="translate(-10390 2986)">
    <rect id="Rectangle_458" data-name="Rectangle 458" width="192" height="192" transform="translate(10390 -2986)" fill="none"/>
    <g id="NOTI_LOGO-01" data-name="NOTI LOGO-01" transform="translate(10408.114 -2978.885)">
      <path id="Path_69" data-name="Path 69" d="M133.466,50.86a78.015,78.015,0,1,1-.01,0" transform="translate(-55.57 -50.86)" fill-rule="evenodd"/>
      <path id="Path_70" data-name="Path 70" d="M162.616,298.749h5.336a1.145,1.145,0,0,0,1.134-.975V270.6c.016-2.952,3.607-2.947,3.6-.005v4.189a4.323,4.323,0,0,0,.32,1.525l10.036,21.865a1.147,1.147,0,0,0,.991.571h2.872a1.148,1.148,0,0,0,1.14-1V248.763a1.147,1.147,0,0,0-1.14-1.07v-.005h-5.328v.005a1.15,1.15,0,0,0-1.14,1.052v26.781H180.4v.175c-.011,2.817-3.563,2.712-3.55,0v-4.45a4.377,4.377,0,0,0-.3-1.477l-9.7-21.538a1.146,1.146,0,0,0-.931-.545h-3.293v.005a1.148,1.148,0,0,0-1.14,1.052v48.885a1.148,1.148,0,0,0,1.14,1.118Zm33.291-12.542a12.767,12.767,0,1,0,25.53,0V260.228c0-8.659-6.568-12.988-12.765-12.988a12.468,12.468,0,0,0-12.765,12.988Zm7.614-25.983c0-3.657,2.389-5.373,5.151-5.373s5.151,1.723,5.151,5.373v25.983c0,3.65-2.389,5.373-5.151,5.373s-5.151-1.718-5.151-5.373Zm30.841,38.521H239.7a1.14,1.14,0,0,0,1.131-.965V254.851h6.832a1.146,1.146,0,0,0,1.053-1.113v-4.987a1.148,1.148,0,0,0-1.14-1.06v-.005H226.464v.005a1.146,1.146,0,0,0-1.147,1.147v4.871a1.149,1.149,0,0,0,1.053,1.14h6.841v42.79a1.145,1.145,0,0,0,1.14,1.1h0Zm20.456,0h5.336a1.146,1.146,0,0,0,1.134-.97V248.784a1.147,1.147,0,0,0-1.07-1.1h-5.477a1.14,1.14,0,0,0-1.067,1.083v48.887a1.146,1.146,0,0,0,1.14,1.086Z" transform="translate(-133.482 -195.337)" fill="#fff" fill-rule="evenodd"/>
    </g>
    <text id="The_best_of_Polish_designs" data-name="The best of Polish designs" transform="translate(10410 -2806)" fill="#333" font-size="12" font-family="Poppins-Regular, Poppins"><tspan x="0" y="0">The best of Polish designs</tspan></text>
  </g>
</svg>
