<svg xmlns="http://www.w3.org/2000/svg" width="160" height="160" viewBox="0 0 160 160">
  <g id="noti" transform="translate(-10411 2989)">
    <rect id="Rectangle_458" data-name="Rectangle 458" width="160" height="160" transform="translate(10411 -2989)" fill="none"/>
    <text id="The_best_of_Polish_designs" data-name="The best of Polish designs" transform="translate(10491 -2862.833)" fill="#333" font-size="15" font-family="Poppins-Regular, Poppins"><tspan x="-66.698" y="0">The best of Polish </tspan><tspan x="-29.265" y="20">designs</tspan></text>
    <g id="NOTI_LOGO-01" data-name="NOTI LOGO-01" transform="translate(10447.432 -2982.071)">
      <g id="Ellipse_5" data-name="Ellipse 5" transform="translate(-0.432 8.071)" stroke="#000" stroke-width="1">
        <circle cx="44" cy="44" r="44" stroke="none"/>
        <circle cx="44" cy="44" r="43.5" fill="none"/>
      </g>
      <path id="Path_70" data-name="Path 70" d="M162.162,278.046h3.191a.685.685,0,0,0,.678-.583V261.21c.01-1.766,2.157-1.763,2.153,0v2.505a2.586,2.586,0,0,0,.191.912l6,13.078a.686.686,0,0,0,.593.342h1.718a.687.687,0,0,0,.682-.6v-29.3a.686.686,0,0,0-.682-.64v0H173.5v0a.688.688,0,0,0-.682.629v16.018H172.8v.1a1.074,1.074,0,1,1-2.123,0V261.6a2.618,2.618,0,0,0-.179-.883l-5.8-12.882a.685.685,0,0,0-.557-.326h-1.97v0a.687.687,0,0,0-.682.629v29.238a.687.687,0,0,0,.682.669Zm19.912-7.5a7.635,7.635,0,1,0,15.271,0V255.007a7.639,7.639,0,1,0-15.27,0ZM186.627,255a3.084,3.084,0,1,1,6.162,0v15.541a3.084,3.084,0,1,1-6.162,0Zm18.446,23.04h3.193a.682.682,0,0,0,.676-.577V251.791h4.086a.685.685,0,0,0,.63-.666v-2.983a.687.687,0,0,0-.682-.634v0H200.35v0a.685.685,0,0,0-.686.686v2.913a.687.687,0,0,0,.63.682h4.092v25.593a.685.685,0,0,0,.682.658h0Zm12.235,0H220.5a.685.685,0,0,0,.678-.58v-29.3a.686.686,0,0,0-.64-.658h-3.276a.682.682,0,0,0-.638.648v29.24a.685.685,0,0,0,.682.65Z" transform="translate(-147.751 -210.844)" fill="#fff" fill-rule="evenodd"/>
    </g>
  </g>
</svg>
