<svg xmlns="http://www.w3.org/2000/svg" width="192" height="192" viewBox="0 0 192 192">
  <g id="ofs" transform="translate(-10832 2986)">
    <rect id="Rectangle_459" data-name="Rectangle 459" width="192" height="192" transform="translate(10832 -2986)" fill="none"/>
    <g id="OFS-01" transform="translate(10839.2 -2916.88)">
      <path id="Path_71" data-name="Path 71" d="M547.411,271.784a26.883,26.883,0,1,1,.229-53.764,26.938,26.938,0,0,1,26.785,27.028C574.579,259.462,562.068,272.362,547.411,271.784Zm21.452-26.825c.614-10.213-8.007-21.538-21.259-21.555-12.418-.017-21.478,9.353-21.681,21.511-.2,11.77,9.9,21.724,21.638,21.654A21.518,21.518,0,0,0,568.863,244.959Z" transform="translate(-397.246 -218.016)" fill="#796e65"/>
      <path id="Path_72" data-name="Path 72" d="M361.91,218.176c15.145,0,26.653,11.7,26.868,26.859.213,14.925-12.813,27.333-27.343,26.928-14.56-.405-26.7-12.026-26.626-26.832C334.9,228.02,349.177,217.549,361.91,218.176Zm-21.677,26.855c.492,12.445,9.5,21.405,21.734,21.561,11.754.149,21.455-9.877,21.445-21.574-.013-11.714-9.718-21.727-21.458-21.561C349.628,223.633,340.7,232.687,340.233,245.031Z" transform="translate(-273.247 -218.105)" fill="#796e65"/>
      <path id="Path_73" data-name="Path 73" d="M176.622,218.175c14.148-.541,26.971,12.335,26.789,27.214-.173,14.052-12.5,26.766-27.29,26.616-13.952-.139-26.789-12.3-26.673-27.234C149.561,230.427,162.089,217.475,176.622,218.175Zm21.438,26.8A22.025,22.025,0,0,0,176.5,223.39c-11.614-.1-21.77,10.04-21.7,21.677a22.025,22.025,0,0,0,21.565,21.588C188,266.728,198.127,256.615,198.061,244.977Z" transform="translate(-149.448 -218.104)" fill="#796e65"/>
      <path id="Path_74" data-name="Path 74" d="M583.709,286.18a17.629,17.629,0,0,1-8.712-2.86c-1.265-.79-1.292-1.611-.392-2.763,1.943-2.488,1.9-2.508,4.783-.953a8.792,8.792,0,0,0,5.633,1.249c1.04-.169,2.116-.565,2.2-1.91.073-1.212-.82-1.75-1.76-2.076-1.78-.618-3.62-1.059-5.394-1.69-4.168-1.485-5.732-3.683-5.467-7.5.256-3.637,2.617-6.078,6.725-6.808a14.142,14.142,0,0,1,9.572,1.873c1.342.747,1.571,1.544.654,2.883-1.78,2.594-1.707,2.62-4.5,1.319a7.314,7.314,0,0,0-4.567-.97c-.986.2-1.973.621-2.079,1.783-.1,1.056.741,1.624,1.6,1.966.973.392,2.016.611,3.016.943,1.358.452,2.737.863,4.052,1.421a6.328,6.328,0,0,1,4.185,6.151,7.012,7.012,0,0,1-4.059,6.782A11.95,11.95,0,0,1,583.709,286.18Z" transform="translate(-432.986 -246.501)" fill="#796e65"/>
      <path id="Path_75" data-name="Path 75" d="M391.514,274.161c0-3.318.04-6.636-.017-9.95-.027-1.558.428-2.375,2.172-2.351q7.463.1,14.929.007c2.1-.027,1.979,1.345,2.006,2.743.027,1.431-.189,2.524-2.052,2.474-3.012-.076-6.031.05-9.047-.033-1.847-.05-2.059.976-2.069,2.441-.01,1.508.319,2.464,2.119,2.4,2.411-.083,4.826.053,7.237-.027,2.013-.066,2.106,1.162,2.106,2.654,0,1.531.03,2.919-2.139,2.856-2.411-.07-4.826.023-7.237-.007-1.411-.017-2.089.578-2.062,2.019.03,1.734-.03,3.467-.013,5.2.023,2.468-1.793,1.9-3.212,1.963s-2.767.093-2.73-1.989c.066-3.467.017-6.935.017-10.405Z" transform="translate(-311.107 -247.298)" fill="#796e65"/>
      <path id="Path_76" data-name="Path 76" d="M205.351,260.646a12.763,12.763,0,1,1-13.089,12.312A12.8,12.8,0,0,1,205.351,260.646Zm-.173,5.546a7.217,7.217,0,1,0,7.054,7.486A7.1,7.1,0,0,0,205.178,266.192Z" transform="translate(-178.04 -246.486)" fill="#796e65"/>
    </g>
  </g>
</svg>
