<svg xmlns="http://www.w3.org/2000/svg" width="160" height="160" viewBox="0 0 160 160">
  <g id="ofs" transform="translate(-10832 2986)">
    <rect id="Rectangle_459" data-name="Rectangle 459" width="160" height="160" transform="translate(10832 -2986)" fill="none"/>
    <text id="Creating_Place_Where_People_Feel_Welcome_" data-name="Creating Place 
Where People Feel
Welcome " transform="translate(10910.969 -2892.333)" fill="#333" font-size="15" font-family="Poppins-Regular, Poppins"><tspan x="-57.217" y="0">Creating Place </tspan><tspan x="-68.505" y="20">Where People Feel</tspan><tspan x="-37.545" y="40">Welcome </tspan></text>
    <g id="OFS-01" transform="translate(10845 -2958.731)">
      <path id="Path_71" data-name="Path 71" d="M542.952,262.823a22.4,22.4,0,1,1,22.512-22.28C565.592,252.555,555.167,263.3,542.952,262.823Zm17.877-22.354c.512-8.511-6.673-17.948-17.716-17.963-10.348-.014-17.9,7.794-18.068,17.926a17.891,17.891,0,1,0,35.782.037Z" transform="translate(-432.132 -218.018)" fill="#796e65"/>
      <path id="Path_72" data-name="Path 72" d="M357.393,218.172c12.621,0,22.211,9.75,22.39,22.382.178,12.438-10.677,22.778-22.786,22.44-12.133-.333-22.25-10.022-22.188-22.36C334.885,226.375,346.782,217.649,357.393,218.172Zm-18.064,22.379c.41,10.371,7.917,17.838,18.112,17.967,9.8.124,17.879-8.231,17.871-17.978s-8.1-18.106-17.882-17.967c-10.272.147-17.712,7.692-18.1,17.978Z" transform="translate(-290.661 -218.114)" fill="#796e65"/>
      <path id="Path_73" data-name="Path 73" d="M172.093,218.17c11.79-.451,22.476,10.279,22.324,22.678-.144,11.71-10.417,22.3-22.742,22.18-11.627-.116-22.324-10.25-22.228-22.695C149.542,228.38,159.982,217.587,172.093,218.17ZM189.958,240.5a18.025,18.025,0,1,0-18.079,18.067A18.354,18.354,0,0,0,189.958,240.5Z" transform="translate(-149.447 -218.113)" fill="#796e65"/>
      <path id="Path_74" data-name="Path 74" d="M582.088,281.932a14.691,14.691,0,0,1-7.257-2.383c-1.054-.658-1.077-1.342-.327-2.3,1.619-2.073,1.583-2.09,3.986-.794a7.327,7.327,0,0,0,4.694,1.041c.867-.141,1.763-.471,1.833-1.592.061-1.01-.683-1.458-1.467-1.73-1.483-.515-3.017-.882-4.495-1.408-3.473-1.237-4.777-3.069-4.556-6.25.213-3.031,2.181-5.065,5.6-5.673a11.785,11.785,0,0,1,7.977,1.561c1.118.622,1.309,1.287.545,2.4-1.483,2.162-1.422,2.183-3.75,1.1a6.1,6.1,0,0,0-3.806-.808c-.822.167-1.644.518-1.732,1.486-.083.88.618,1.353,1.333,1.638.811.327,1.68.509,2.513.786,1.132.377,2.281.719,3.377,1.184a5.273,5.273,0,0,1,3.487,5.126,5.843,5.843,0,0,1-3.383,5.652A9.959,9.959,0,0,1,582.088,281.932Z" transform="translate(-470.803 -248.868)" fill="#796e65"/>
      <path id="Path_75" data-name="Path 75" d="M391.511,272.111c0-2.765.033-5.53-.014-8.292-.023-1.3.357-1.979,1.81-1.959q6.219.083,12.441.006c1.75-.023,1.649,1.121,1.672,2.286.023,1.193-.157,2.1-1.71,2.062-2.51-.063-5.026.042-7.539-.027-1.539-.042-1.716.813-1.724,2.034-.008,1.257.266,2.053,1.766,2,2.009-.069,4.022.044,6.031-.023,1.677-.055,1.755.968,1.755,2.212,0,1.276.025,2.432-1.783,2.38-2.009-.058-4.022.019-6.031-.006-1.176-.014-1.741.482-1.718,1.682.025,1.445-.025,2.889-.011,4.333.019,2.057-1.494,1.583-2.677,1.636s-2.306.078-2.275-1.658c.055-2.889.014-5.779.014-8.667Z" transform="translate(-331.786 -249.727)" fill="#796e65"/>
      <path id="Path_76" data-name="Path 76" d="M203.168,260.645a10.636,10.636,0,1,1-10.907,10.26,10.636,10.636,0,0,1,10.907-10.26Zm-.144,4.622a6.014,6.014,0,1,0,5.878,6.238,5.917,5.917,0,0,0-5.878-6.238Z" transform="translate(-180.408 -248.847)" fill="#796e65"/>
    </g>
  </g>
</svg>
