<svg xmlns="http://www.w3.org/2000/svg" width="160" height="160" viewBox="0 0 160 160">
  <g id="ofs" transform="translate(-10832 2986)">
    <rect id="Rectangle_459" data-name="Rectangle 459" width="160" height="160" transform="translate(10832 -2986)" fill="none"/>
    <path id="Path_13" data-name="Path 13" d="M-56.572-5.235A5.129,5.129,0,0,0-51.352.09a4.917,4.917,0,0,0,4.845-3.135h-1.635a3.3,3.3,0,0,1-3.21,1.95,3.792,3.792,0,0,1-3.825-4.14c0-2.565,1.635-4.155,3.825-4.155a3.289,3.289,0,0,1,3.21,1.965h1.635a4.921,4.921,0,0,0-4.845-3.165A5.154,5.154,0,0,0-56.572-5.235Zm13.455.765c0-1.9.99-2.49,2.295-2.49h.36V-8.37a2.768,2.768,0,0,0-2.655,1.485V-8.22h-1.365V0h1.365Zm7.725-2.73A2.412,2.412,0,0,1-32.8-4.71h-5.19A2.546,2.546,0,0,1-35.392-7.2Zm3.84,4.665h-1.47a2.259,2.259,0,0,1-2.31,1.515A2.584,2.584,0,0,1-38-3.6h6.57a7.4,7.4,0,0,0,.045-.825,3.768,3.768,0,0,0-3.945-3.93A3.911,3.911,0,0,0-39.4-4.125,3.96,3.96,0,0,0-35.332.135,3.7,3.7,0,0,0-31.552-2.535ZM-30.1-4.14A3.953,3.953,0,0,0-26.212.135,3.433,3.433,0,0,0-23.137-1.53V0h1.38V-8.22h-1.38v1.5A3.411,3.411,0,0,0-26.2-8.355,3.9,3.9,0,0,0-30.1-4.14Zm6.96.015a2.813,2.813,0,0,1-2.79,3.06A2.815,2.815,0,0,1-28.7-4.14a2.775,2.775,0,0,1,2.775-3.03A2.816,2.816,0,0,1-23.137-4.125Zm3.99,1.875c0,1.65.825,2.25,2.28,2.25h1.23V-1.155h-1.005c-.84,0-1.14-.285-1.14-1.095V-7.1h2.145V-8.22h-2.145v-2.07h-1.365v2.07h-1.065V-7.1h1.065ZM-13.987,0h1.365V-8.22h-1.365Zm.705-9.555a.91.91,0,0,0,.9-.93.91.91,0,0,0-.9-.93.916.916,0,0,0-.93.93A.916.916,0,0,0-13.282-9.555Zm9,9.555h1.35V-4.845A3.189,3.189,0,0,0-6.292-8.37a3.037,3.037,0,0,0-2.64,1.32V-8.22H-10.3V0h1.365V-4.545c0-1.77.96-2.64,2.355-2.64,1.38,0,2.295.855,2.295,2.535Zm3.075-4.14A3.956,3.956,0,0,0,2.692.135a3.435,3.435,0,0,0,3.06-1.68V.18A2.44,2.44,0,0,1,3.2,2.865,2.552,2.552,0,0,1,.577,1.2H-.773C-.5,2.955,1.042,4.05,3.2,4.05A3.685,3.685,0,0,0,7.132.18v-8.4H5.752v1.5a3.388,3.388,0,0,0-3.06-1.635A3.9,3.9,0,0,0-1.208-4.14Zm6.96.015a2.813,2.813,0,0,1-2.79,3.06A2.815,2.815,0,0,1,.187-4.14,2.775,2.775,0,0,1,2.962-7.17,2.816,2.816,0,0,1,5.752-4.125Zm9.06-1.365V-9.33h2.01c1.56,0,2.22.72,2.22,1.935,0,1.17-.66,1.905-2.22,1.905ZM20.437-7.4c0-1.71-1.155-3.06-3.615-3.06H13.447V0h1.365V-4.365h2.01C19.417-4.365,20.437-5.805,20.437-7.4ZM22.132,0H23.5V-11.1H22.132Zm3.18-4.14A3.953,3.953,0,0,0,29.2.135,3.433,3.433,0,0,0,32.272-1.53V0h1.38V-8.22h-1.38v1.5a3.411,3.411,0,0,0-3.06-1.635A3.9,3.9,0,0,0,25.312-4.14Zm6.96.015a2.813,2.813,0,0,1-2.79,3.06A2.815,2.815,0,0,1,26.707-4.14a2.775,2.775,0,0,1,2.775-3.03A2.816,2.816,0,0,1,32.272-4.125Zm3.18,0A3.915,3.915,0,0,0,39.457.135,3.656,3.656,0,0,0,43.252-2.64h-1.47a2.205,2.205,0,0,1-2.325,1.62c-1.5,0-2.61-1.065-2.61-3.1,0-2.01,1.11-3.075,2.61-3.075a2.239,2.239,0,0,1,2.325,1.62h1.47a3.572,3.572,0,0,0-3.795-2.775A3.905,3.905,0,0,0,35.452-4.125ZM48.562-7.2a2.412,2.412,0,0,1,2.595,2.49h-5.19A2.546,2.546,0,0,1,48.562-7.2ZM52.4-2.535h-1.47a2.259,2.259,0,0,1-2.31,1.515,2.584,2.584,0,0,1-2.67-2.58h6.57a7.4,7.4,0,0,0,.045-.825,3.768,3.768,0,0,0-3.945-3.93,3.911,3.911,0,0,0-4.065,4.23A3.96,3.96,0,0,0,48.622.135,3.7,3.7,0,0,0,52.4-2.535ZM-65.235,20.015-63.72,20l2.52-8.415L-58.77,20h1.53l3.03-10.455h-1.47l-2.3,8.835-2.4-8.835h-1.53l-2.52,8.865-2.28-8.865H-68.16ZM-52.71,20h1.365V15.455c0-1.77.96-2.64,2.355-2.64s2.295.855,2.295,2.535V20h1.35V15.155A3.171,3.171,0,0,0-48.63,11.63a3.093,3.093,0,0,0-2.715,1.335V8.9H-52.71Zm13.1-7.2a2.412,2.412,0,0,1,2.595,2.49h-5.19A2.546,2.546,0,0,1-39.615,12.8Zm3.84,4.665h-1.47a2.259,2.259,0,0,1-2.31,1.515,2.584,2.584,0,0,1-2.67-2.58h6.57a7.4,7.4,0,0,0,.045-.825,3.768,3.768,0,0,0-3.945-3.93,3.911,3.911,0,0,0-4.065,4.23,3.96,3.96,0,0,0,4.065,4.26A3.7,3.7,0,0,0-35.775,17.465Zm3.33-1.935c0-1.9.99-2.49,2.3-2.49h.36V11.63a2.768,2.768,0,0,0-2.655,1.485V11.78H-33.81V20h1.365Zm7.725-2.73a2.412,2.412,0,0,1,2.6,2.49h-5.19A2.546,2.546,0,0,1-24.72,12.8Zm3.84,4.665h-1.47a2.259,2.259,0,0,1-2.31,1.515,2.584,2.584,0,0,1-2.67-2.58h6.57a7.4,7.4,0,0,0,.045-.825,3.768,3.768,0,0,0-3.945-3.93,3.911,3.911,0,0,0-4.065,4.23,3.96,3.96,0,0,0,4.065,4.26A3.7,3.7,0,0,0-20.88,17.465Zm7.335-2.955V10.67h2.01c1.56,0,2.22.72,2.22,1.935,0,1.17-.66,1.905-2.22,1.905ZM-7.92,12.6c0-1.71-1.155-3.06-3.615-3.06H-14.91V20h1.365V15.635h2.01C-8.94,15.635-7.92,14.195-7.92,12.6Zm5.19.195a2.412,2.412,0,0,1,2.6,2.49h-5.19A2.546,2.546,0,0,1-2.73,12.8Zm3.84,4.665H-.36A2.259,2.259,0,0,1-2.67,18.98,2.584,2.584,0,0,1-5.34,16.4H1.23a7.4,7.4,0,0,0,.045-.825,3.768,3.768,0,0,0-3.945-3.93,3.911,3.911,0,0,0-4.065,4.23,3.96,3.96,0,0,0,4.065,4.26A3.7,3.7,0,0,0,1.11,17.465Zm9.765-1.59a4.012,4.012,0,0,0-4.155-4.23,4.02,4.02,0,0,0-4.155,4.23,3.991,3.991,0,0,0,4.1,4.26A4.076,4.076,0,0,0,10.875,15.875Zm-6.915,0A2.725,2.725,0,0,1,6.7,12.83,2.762,2.762,0,0,1,9.48,15.875a2.791,2.791,0,0,1-2.82,3.06C5.235,18.935,3.96,17.96,3.96,15.875ZM14.04,13.3V11.78H12.675V23.9H14.04V18.485a3.556,3.556,0,0,0,3.075,1.65,3.956,3.956,0,0,0,3.9-4.275,3.9,3.9,0,0,0-3.9-4.215A3.472,3.472,0,0,0,14.04,13.3Zm5.58,2.565a2.8,2.8,0,1,1-5.58.015,2.825,2.825,0,0,1,2.79-3.045A2.778,2.778,0,0,1,19.62,15.86ZM22.815,20H24.18V8.9H22.815ZM30,12.8a2.412,2.412,0,0,1,2.595,2.49H27.4A2.546,2.546,0,0,1,30,12.8Zm3.84,4.665H32.37a2.259,2.259,0,0,1-2.31,1.515,2.584,2.584,0,0,1-2.67-2.58h6.57A7.4,7.4,0,0,0,34,15.575a3.768,3.768,0,0,0-3.945-3.93,3.911,3.911,0,0,0-4.065,4.23,3.96,3.96,0,0,0,4.065,4.26A3.7,3.7,0,0,0,33.84,17.465ZM39.81,20h1.365V15.29h3.69V14.18h-3.69V10.655H45.72V9.545H39.81Zm11.055-7.2a2.412,2.412,0,0,1,2.595,2.49H48.27A2.546,2.546,0,0,1,50.865,12.8Zm3.84,4.665h-1.47a2.259,2.259,0,0,1-2.31,1.515,2.584,2.584,0,0,1-2.67-2.58h6.57a7.4,7.4,0,0,0,.045-.825,3.768,3.768,0,0,0-3.945-3.93,3.911,3.911,0,0,0-4.065,4.23,3.96,3.96,0,0,0,4.065,4.26A3.7,3.7,0,0,0,54.7,17.465Zm5.46-4.665a2.412,2.412,0,0,1,2.595,2.49H57.57A2.546,2.546,0,0,1,60.165,12.8ZM64,17.465h-1.47a2.259,2.259,0,0,1-2.31,1.515,2.584,2.584,0,0,1-2.67-2.58h6.57a7.4,7.4,0,0,0,.045-.825,3.768,3.768,0,0,0-3.945-3.93,3.911,3.911,0,0,0-4.065,4.23,3.96,3.96,0,0,0,4.065,4.26A3.7,3.7,0,0,0,64,17.465ZM65.97,20h1.365V8.9H65.97ZM-34.275,40.015-32.76,40l2.52-8.415L-27.81,40h1.53l3.03-10.455h-1.47l-2.3,8.835-2.4-8.835h-1.53l-2.52,8.865-2.28-8.865H-37.2Zm16.02-7.215a2.412,2.412,0,0,1,2.6,2.49h-5.19A2.546,2.546,0,0,1-18.255,32.8Zm3.84,4.665h-1.47a2.259,2.259,0,0,1-2.31,1.515,2.584,2.584,0,0,1-2.67-2.58h6.57a7.4,7.4,0,0,0,.045-.825,3.768,3.768,0,0,0-3.945-3.93,3.911,3.911,0,0,0-4.065,4.23,3.96,3.96,0,0,0,4.065,4.26A3.7,3.7,0,0,0-14.415,37.465ZM-12.45,40h1.365V28.9H-12.45Zm3.18-4.125a3.915,3.915,0,0,0,4,4.26,3.656,3.656,0,0,0,3.8-2.775H-2.94a2.205,2.205,0,0,1-2.325,1.62c-1.5,0-2.61-1.065-2.61-3.1,0-2.01,1.11-3.075,2.61-3.075A2.239,2.239,0,0,1-2.94,34.42h1.47a3.572,3.572,0,0,0-3.8-2.775A3.905,3.905,0,0,0-9.27,35.875Zm17.415,0a4.012,4.012,0,0,0-4.155-4.23,4.02,4.02,0,0,0-4.155,4.23,3.991,3.991,0,0,0,4.1,4.26A4.076,4.076,0,0,0,8.145,35.875Zm-6.915,0A2.725,2.725,0,0,1,3.975,32.83,2.762,2.762,0,0,1,6.75,35.875a2.791,2.791,0,0,1-2.82,3.06C2.505,38.935,1.23,37.96,1.23,35.875ZM21.81,40h1.35V35.155a3.182,3.182,0,0,0-3.33-3.525,3.043,3.043,0,0,0-2.91,1.83,3.093,3.093,0,0,0-3.015-1.83,2.972,2.972,0,0,0-2.595,1.335V31.78H9.945V40H11.31V35.47c0-1.77.945-2.655,2.325-2.655,1.35,0,2.25.855,2.25,2.535V40h1.35V35.47c0-1.77.945-2.655,2.325-2.655,1.35,0,2.25.855,2.25,2.535Zm7.08-7.2a2.412,2.412,0,0,1,2.6,2.49H26.3A2.546,2.546,0,0,1,28.89,32.8Zm3.84,4.665H31.26a2.259,2.259,0,0,1-2.31,1.515,2.584,2.584,0,0,1-2.67-2.58h6.57a7.4,7.4,0,0,0,.045-.825,3.768,3.768,0,0,0-3.945-3.93,3.911,3.911,0,0,0-4.065,4.23,3.96,3.96,0,0,0,4.065,4.26A3.7,3.7,0,0,0,32.73,37.465Z" transform="translate(10910.969 -2892.333)" fill="#333"/>
    <g id="OFS-01" transform="translate(10845 -2958.731)">
      <path id="Path_71" data-name="Path 71" d="M542.952,262.823a22.4,22.4,0,1,1,22.512-22.28C565.592,252.555,555.167,263.3,542.952,262.823Zm17.877-22.354c.512-8.511-6.673-17.948-17.716-17.963-10.348-.014-17.9,7.794-18.068,17.926a17.891,17.891,0,1,0,35.782.037Z" transform="translate(-432.132 -218.018)" fill="#796e65"/>
      <path id="Path_72" data-name="Path 72" d="M357.393,218.172c12.621,0,22.211,9.75,22.39,22.382.178,12.438-10.677,22.778-22.786,22.44-12.133-.333-22.25-10.022-22.188-22.36C334.885,226.375,346.782,217.649,357.393,218.172Zm-18.064,22.379c.41,10.371,7.917,17.838,18.112,17.967,9.8.124,17.879-8.231,17.871-17.978s-8.1-18.106-17.882-17.967c-10.272.147-17.712,7.692-18.1,17.978Z" transform="translate(-290.661 -218.114)" fill="#796e65"/>
      <path id="Path_73" data-name="Path 73" d="M172.093,218.17c11.79-.451,22.476,10.279,22.324,22.678-.144,11.71-10.417,22.3-22.742,22.18-11.627-.116-22.324-10.25-22.228-22.695C149.542,228.38,159.982,217.587,172.093,218.17ZM189.958,240.5a18.025,18.025,0,1,0-18.079,18.067A18.354,18.354,0,0,0,189.958,240.5Z" transform="translate(-149.447 -218.113)" fill="#796e65"/>
      <path id="Path_74" data-name="Path 74" d="M582.088,281.932a14.691,14.691,0,0,1-7.257-2.383c-1.054-.658-1.077-1.342-.327-2.3,1.619-2.073,1.583-2.09,3.986-.794a7.327,7.327,0,0,0,4.694,1.041c.867-.141,1.763-.471,1.833-1.592.061-1.01-.683-1.458-1.467-1.73-1.483-.515-3.017-.882-4.495-1.408-3.473-1.237-4.777-3.069-4.556-6.25.213-3.031,2.181-5.065,5.6-5.673a11.785,11.785,0,0,1,7.977,1.561c1.118.622,1.309,1.287.545,2.4-1.483,2.162-1.422,2.183-3.75,1.1a6.1,6.1,0,0,0-3.806-.808c-.822.167-1.644.518-1.732,1.486-.083.88.618,1.353,1.333,1.638.811.327,1.68.509,2.513.786,1.132.377,2.281.719,3.377,1.184a5.273,5.273,0,0,1,3.487,5.126,5.843,5.843,0,0,1-3.383,5.652A9.959,9.959,0,0,1,582.088,281.932Z" transform="translate(-470.803 -248.868)" fill="#796e65"/>
      <path id="Path_75" data-name="Path 75" d="M391.511,272.111c0-2.765.033-5.53-.014-8.292-.023-1.3.357-1.979,1.81-1.959q6.219.083,12.441.006c1.75-.023,1.649,1.121,1.672,2.286.023,1.193-.157,2.1-1.71,2.062-2.51-.063-5.026.042-7.539-.027-1.539-.042-1.716.813-1.724,2.034-.008,1.257.266,2.053,1.766,2,2.009-.069,4.022.044,6.031-.023,1.677-.055,1.755.968,1.755,2.212,0,1.276.025,2.432-1.783,2.38-2.009-.058-4.022.019-6.031-.006-1.176-.014-1.741.482-1.718,1.682.025,1.445-.025,2.889-.011,4.333.019,2.057-1.494,1.583-2.677,1.636s-2.306.078-2.275-1.658c.055-2.889.014-5.779.014-8.667Z" transform="translate(-331.786 -249.727)" fill="#796e65"/>
      <path id="Path_76" data-name="Path 76" d="M203.168,260.645a10.636,10.636,0,1,1-10.907,10.26,10.636,10.636,0,0,1,10.907-10.26Zm-.144,4.622a6.014,6.014,0,1,0,5.878,6.238,5.917,5.917,0,0,0-5.878-6.238Z" transform="translate(-180.408 -248.847)" fill="#796e65"/>
    </g>
  </g>
</svg>
