<svg xmlns="http://www.w3.org/2000/svg" width="160" height="160" viewBox="0 0 160 160">
  <g id="scale" transform="translate(-11287 2986)">
    <rect id="Rectangle_460" data-name="Rectangle 460" width="160" height="160" transform="translate(11287 -2986)" fill="none"/>
    <g id="Scale_1to1-01" data-name="Scale+1to1-01" transform="translate(11307 -2955.192)">
      <path id="Path_126" data-name="Path 126" d="M22.263,37.507c0-1.941,1.108-2.8,3.793-2.8a63.839,63.839,0,0,1,6.77.284l.524-2.456s-2.745-.284-7.53-.284c-3.735,0-6.535,1.657-6.535,5.534,0,7.48,12.373,5.255,12.373,11.25,0,2.627-1.809,4.284-5.255,4.284a16.6,16.6,0,0,1-6.476-1.142l-.758,2.4s2.391,1.2,7.181,1.2c5.487,0,8.407-3.142,8.407-6.966,0-7.993-12.5-6.1-12.5-11.3M47.885,53.268c-5.373,0-8.289-4-8.289-9.077,0-7.137,2.569-9.483,7.586-9.483,4.083,0,6.77.284,6.77.284l.524-2.456a70.941,70.941,0,0,0-7.294-.284c-6.77,0-10.681,3.309-10.681,12.216,0,6.113,4.089,11.312,10.973,11.312,5.137,0,7.471-1.2,7.471-1.2l-.7-2.342s-1.8,1.03-6.358,1.03m20.779-21.01a75.639,75.639,0,0,0-9.921.686l.348,2.284a79.2,79.2,0,0,1,9.1-.456c3.093,0,3.618.456,3.618,3.427v4.456H64.753c-4.377,0-7.18,2.514-7.18,6.853a5.984,5.984,0,0,0,6.245,6.279A12.878,12.878,0,0,0,71.811,52.7v2.627h3.035V37.908c0-4.51-1.225-5.652-6.186-5.652m3.155,18.27s-3.907,2.8-7.18,2.8c-2.569,0-4.083-1.427-4.083-3.941,0-2.971,1.809-4.451,4.613-4.451h6.652Zm8.289,4.8h3.035v-35.4H80.1ZM97.85,32.256c-6.068,0-10.039,3.539-10.039,10.736,0,8.907,4.731,12.789,11.147,12.789,5.367,0,7.878-1.2,7.878-1.2l-.7-2.338a18.978,18.978,0,0,1-6.887,1.03c-4.666,0-8.172-2.971-8.172-9.593h16.167a19.043,19.043,0,0,0,.235-3.024c0-5.426-3.265-8.4-9.627-8.4m6.711,9.137H91.077c0-4.335,2.858-6.853,6.887-6.853,4.731,0,6.892,2.284,6.6,6.853m16.7-21.572h-1.019L113.9,23.6a.291.291,0,0,0-.186.318,3.234,3.234,0,0,0,.8,1.319c.108.108.289.035.4-.035l4.335-2.284V43.108a.376.376,0,0,0,.255.358,7.558,7.558,0,0,0,.872.068c.147,0,.73-.035.948-.068.147-.035.215-.215.215-.358V20.213c0-.211-.1-.392-.289-.392m7.377,17.255a1.231,1.231,0,1,0,0,2.46,1.263,1.263,0,0,0,1.26-1.23,1.247,1.247,0,0,0-1.26-1.23m0-8.647a1.206,1.206,0,0,0-1.26,1.236,1.235,1.235,0,0,0,1.26,1.23,1.267,1.267,0,0,0,1.26-1.23,1.232,1.232,0,0,0-1.26-1.236m10.183-8.609h-1.019L131.45,23.6a.287.287,0,0,0-.182.318,3.225,3.225,0,0,0,.8,1.319c.108.108.289.035.4-.035l4.335-2.284V43.108a.376.376,0,0,0,.255.358,7.554,7.554,0,0,0,.881.068c.147,0,.73-.035.948-.068a.358.358,0,0,0,.221-.358V20.213c0-.211-.112-.392-.294-.392" transform="translate(-19.17 -19.82)"/>
    </g>
    <path id="Work_Together_play_together" data-name="Work Together play together" d="M-53.07.015-51.555,0l2.52-8.415L-46.6,0h1.53l3.03-10.455h-1.47L-45.81-1.62l-2.4-8.835h-1.53L-52.26-1.59l-2.28-8.865h-1.455Zm20.325-4.14A4.012,4.012,0,0,0-36.9-8.355a4.02,4.02,0,0,0-4.155,4.23,3.991,3.991,0,0,0,4.1,4.26A4.076,4.076,0,0,0-32.745-4.125Zm-6.915,0A2.725,2.725,0,0,1-36.915-7.17,2.762,2.762,0,0,1-34.14-4.125a2.791,2.791,0,0,1-2.82,3.06C-38.385-1.065-39.66-2.04-39.66-4.125Zm10.08-.345c0-1.9.99-2.49,2.3-2.49h.36V-8.37A2.768,2.768,0,0,0-29.58-6.885V-8.22h-1.365V0h1.365ZM-25.35,0h1.365V-3.63L-20.76,0h1.86l-3.885-4.125,3.87-4.1H-20.82l-3.165,3.645V-11.1H-25.35Zm11.085-9.345H-11.4V0h1.365V-9.345h2.85v-1.11h-7.08ZM2.3-4.125A4.012,4.012,0,0,0-1.86-8.355a4.02,4.02,0,0,0-4.155,4.23A3.991,3.991,0,0,0-1.92.135,4.076,4.076,0,0,0,2.3-4.125Zm-6.915,0A2.725,2.725,0,0,1-1.875-7.17,2.762,2.762,0,0,1,.9-4.125a2.791,2.791,0,0,1-2.82,3.06C-3.345-1.065-4.62-2.04-4.62-4.125Zm8.2-.015A3.956,3.956,0,0,0,7.485.135a3.435,3.435,0,0,0,3.06-1.68V.18a2.44,2.44,0,0,1-2.55,2.685A2.552,2.552,0,0,1,5.37,1.2H4.02c.27,1.755,1.815,2.85,3.975,2.85A3.685,3.685,0,0,0,11.925.18v-8.4h-1.38v1.5a3.388,3.388,0,0,0-3.06-1.635A3.9,3.9,0,0,0,3.585-4.14Zm6.96.015a2.813,2.813,0,0,1-2.79,3.06A2.815,2.815,0,0,1,4.98-4.14,2.775,2.775,0,0,1,7.755-7.17,2.816,2.816,0,0,1,10.545-4.125ZM17.73-7.2a2.412,2.412,0,0,1,2.6,2.49h-5.19A2.546,2.546,0,0,1,17.73-7.2Zm3.84,4.665H20.1A2.259,2.259,0,0,1,17.79-1.02,2.584,2.584,0,0,1,15.12-3.6h6.57a7.4,7.4,0,0,0,.045-.825,3.768,3.768,0,0,0-3.945-3.93,3.911,3.911,0,0,0-4.065,4.23A3.96,3.96,0,0,0,17.79.135,3.7,3.7,0,0,0,21.57-2.535Zm2.265.285c0,1.65.825,2.25,2.28,2.25h1.23V-1.155H26.34c-.84,0-1.14-.285-1.14-1.095V-7.1h2.145V-8.22H25.2v-2.07H23.835v2.07H22.77V-7.1h1.065ZM29,0H30.36V-4.545c0-1.77.96-2.64,2.355-2.64s2.3.855,2.3,2.535V0h1.35V-4.845A3.171,3.171,0,0,0,33.075-8.37,3.093,3.093,0,0,0,30.36-7.035V-11.1H29ZM42.09-7.2a2.412,2.412,0,0,1,2.595,2.49h-5.19A2.546,2.546,0,0,1,42.09-7.2Zm3.84,4.665H44.46A2.259,2.259,0,0,1,42.15-1.02,2.584,2.584,0,0,1,39.48-3.6h6.57a7.4,7.4,0,0,0,.045-.825,3.768,3.768,0,0,0-3.945-3.93,3.911,3.911,0,0,0-4.065,4.23A3.96,3.96,0,0,0,42.15.135,3.7,3.7,0,0,0,45.93-2.535ZM49.26-4.47c0-1.9.99-2.49,2.295-2.49h.36V-8.37A2.768,2.768,0,0,0,49.26-6.885V-8.22H47.9V0H49.26ZM-47.917,16.3V14.78h-1.365V26.9h1.365V21.485a3.556,3.556,0,0,0,3.075,1.65,3.956,3.956,0,0,0,3.9-4.275,3.9,3.9,0,0,0-3.9-4.215A3.472,3.472,0,0,0-47.917,16.3Zm5.58,2.565a2.818,2.818,0,0,1-2.79,3.075,2.821,2.821,0,0,1-2.79-3.06,2.825,2.825,0,0,1,2.79-3.045A2.778,2.778,0,0,1-42.338,18.86ZM-39.143,23h1.365V11.9h-1.365Zm3.18-4.14a3.953,3.953,0,0,0,3.885,4.275A3.433,3.433,0,0,0-29,21.47V23h1.38V14.78H-29v1.5a3.411,3.411,0,0,0-3.06-1.635A3.9,3.9,0,0,0-35.963,18.86Zm6.96.015a2.813,2.813,0,0,1-2.79,3.06,2.815,2.815,0,0,1-2.775-3.075,2.775,2.775,0,0,1,2.775-3.03A2.816,2.816,0,0,1-29,18.875Zm6.81,2.565-2.58-6.66h-1.515l3.315,8.13-1.62,3.96h1.41l4.95-12.09h-1.41Zm9.63-.69c0,1.65.825,2.25,2.28,2.25h1.23V21.845h-1.005c-.84,0-1.14-.285-1.14-1.095V15.9h2.145V14.78H-11.2V12.71h-1.365v2.07h-1.065V15.9h1.065ZM.4,18.875a4.012,4.012,0,0,0-4.155-4.23,4.02,4.02,0,0,0-4.155,4.23,3.991,3.991,0,0,0,4.1,4.26A4.076,4.076,0,0,0,.4,18.875Zm-6.915,0A2.725,2.725,0,0,1-3.773,15.83,2.762,2.762,0,0,1-1,18.875a2.791,2.791,0,0,1-2.82,3.06C-5.243,21.935-6.518,20.96-6.518,18.875Zm8.2-.015a3.956,3.956,0,0,0,3.9,4.275,3.435,3.435,0,0,0,3.06-1.68V23.18A2.44,2.44,0,0,1,6.1,25.865,2.552,2.552,0,0,1,3.472,24.2H2.122c.27,1.755,1.815,2.85,3.975,2.85a3.685,3.685,0,0,0,3.93-3.87v-8.4H8.647v1.5a3.388,3.388,0,0,0-3.06-1.635A3.9,3.9,0,0,0,1.687,18.86Zm6.96.015a2.8,2.8,0,1,1-5.565-.015,2.775,2.775,0,0,1,2.775-3.03A2.816,2.816,0,0,1,8.647,18.875ZM15.832,15.8a2.412,2.412,0,0,1,2.6,2.49h-5.19A2.546,2.546,0,0,1,15.832,15.8Zm3.84,4.665H18.2a2.259,2.259,0,0,1-2.31,1.515,2.584,2.584,0,0,1-2.67-2.58h6.57a7.4,7.4,0,0,0,.045-.825,3.768,3.768,0,0,0-3.945-3.93,3.911,3.911,0,0,0-4.065,4.23,3.96,3.96,0,0,0,4.065,4.26A3.7,3.7,0,0,0,19.672,20.465Zm2.265.285c0,1.65.825,2.25,2.28,2.25h1.23V21.845H24.442c-.84,0-1.14-.285-1.14-1.095V15.9h2.145V14.78H23.3V12.71H21.937v2.07H20.872V15.9h1.065ZM27.1,23h1.365V18.455c0-1.77.96-2.64,2.355-2.64s2.295.855,2.295,2.535V23h1.35V18.155a3.171,3.171,0,0,0-3.285-3.525,3.093,3.093,0,0,0-2.715,1.335V11.9H27.1Zm13.095-7.2a2.412,2.412,0,0,1,2.595,2.49H37.6A2.546,2.546,0,0,1,40.192,15.8Zm3.84,4.665h-1.47a2.259,2.259,0,0,1-2.31,1.515,2.584,2.584,0,0,1-2.67-2.58h6.57a7.4,7.4,0,0,0,.045-.825,3.768,3.768,0,0,0-3.945-3.93,3.911,3.911,0,0,0-4.065,4.23,3.96,3.96,0,0,0,4.065,4.26A3.7,3.7,0,0,0,44.032,20.465Zm3.33-1.935c0-1.9.99-2.49,2.295-2.49h.36V14.63a2.768,2.768,0,0,0-2.655,1.485V14.78H46V23h1.365Z" transform="translate(11367 -2885.333)" fill="#333"/>
  </g>
</svg>
