<svg xmlns="http://www.w3.org/2000/svg" width="160" height="160" viewBox="0 0 160 160">
  <g id="scale" transform="translate(-11287 2986)">
    <rect id="Rectangle_460" data-name="Rectangle 460" width="160" height="160" transform="translate(11287 -2986)" fill="none"/>
    <g id="Scale_1to1-01" data-name="Scale+1to1-01" transform="translate(11307 -2955.192)">
      <path id="Path_126" data-name="Path 126" d="M22.263,37.507c0-1.941,1.108-2.8,3.793-2.8a63.839,63.839,0,0,1,6.77.284l.524-2.456s-2.745-.284-7.53-.284c-3.735,0-6.535,1.657-6.535,5.534,0,7.48,12.373,5.255,12.373,11.25,0,2.627-1.809,4.284-5.255,4.284a16.6,16.6,0,0,1-6.476-1.142l-.758,2.4s2.391,1.2,7.181,1.2c5.487,0,8.407-3.142,8.407-6.966,0-7.993-12.5-6.1-12.5-11.3M47.885,53.268c-5.373,0-8.289-4-8.289-9.077,0-7.137,2.569-9.483,7.586-9.483,4.083,0,6.77.284,6.77.284l.524-2.456a70.941,70.941,0,0,0-7.294-.284c-6.77,0-10.681,3.309-10.681,12.216,0,6.113,4.089,11.312,10.973,11.312,5.137,0,7.471-1.2,7.471-1.2l-.7-2.342s-1.8,1.03-6.358,1.03m20.779-21.01a75.639,75.639,0,0,0-9.921.686l.348,2.284a79.2,79.2,0,0,1,9.1-.456c3.093,0,3.618.456,3.618,3.427v4.456H64.753c-4.377,0-7.18,2.514-7.18,6.853a5.984,5.984,0,0,0,6.245,6.279A12.878,12.878,0,0,0,71.811,52.7v2.627h3.035V37.908c0-4.51-1.225-5.652-6.186-5.652m3.155,18.27s-3.907,2.8-7.18,2.8c-2.569,0-4.083-1.427-4.083-3.941,0-2.971,1.809-4.451,4.613-4.451h6.652Zm8.289,4.8h3.035v-35.4H80.1ZM97.85,32.256c-6.068,0-10.039,3.539-10.039,10.736,0,8.907,4.731,12.789,11.147,12.789,5.367,0,7.878-1.2,7.878-1.2l-.7-2.338a18.978,18.978,0,0,1-6.887,1.03c-4.666,0-8.172-2.971-8.172-9.593h16.167a19.043,19.043,0,0,0,.235-3.024c0-5.426-3.265-8.4-9.627-8.4m6.711,9.137H91.077c0-4.335,2.858-6.853,6.887-6.853,4.731,0,6.892,2.284,6.6,6.853m16.7-21.572h-1.019L113.9,23.6a.291.291,0,0,0-.186.318,3.234,3.234,0,0,0,.8,1.319c.108.108.289.035.4-.035l4.335-2.284V43.108a.376.376,0,0,0,.255.358,7.558,7.558,0,0,0,.872.068c.147,0,.73-.035.948-.068.147-.035.215-.215.215-.358V20.213c0-.211-.1-.392-.289-.392m7.377,17.255a1.231,1.231,0,1,0,0,2.46,1.263,1.263,0,0,0,1.26-1.23,1.247,1.247,0,0,0-1.26-1.23m0-8.647a1.206,1.206,0,0,0-1.26,1.236,1.235,1.235,0,0,0,1.26,1.23,1.267,1.267,0,0,0,1.26-1.23,1.232,1.232,0,0,0-1.26-1.236m10.183-8.609h-1.019L131.45,23.6a.287.287,0,0,0-.182.318,3.225,3.225,0,0,0,.8,1.319c.108.108.289.035.4-.035l4.335-2.284V43.108a.376.376,0,0,0,.255.358,7.554,7.554,0,0,0,.881.068c.147,0,.73-.035.948-.068a.358.358,0,0,0,.221-.358V20.213c0-.211-.112-.392-.294-.392" transform="translate(-19.17 -19.82)"/>
    </g>
    <text id="Work_Together_play_together" data-name="Work Together play together" transform="translate(11367 -2885.333)" fill="#333" font-size="15" font-family="Poppins-Regular, Poppins"><tspan x="-56.34" y="0">Work Together </tspan><tspan x="-50.438" y="23">play together</tspan></text>
  </g>
</svg>
