<svg xmlns="http://www.w3.org/2000/svg" width="192" height="192" viewBox="0 0 192 192">
  <g id="scale" transform="translate(-11287 2986)">
    <rect id="Rectangle_460" data-name="Rectangle 460" width="192" height="192" transform="translate(11287 -2986)" fill="none"/>
    <g id="Scale_1to1-01" data-name="Scale+1to1-01" transform="translate(11294.68 -2916.4)">
      <path id="Path_126" data-name="Path 126" d="M23.736,45.931c0-2.866,1.636-4.132,5.6-4.132a94.247,94.247,0,0,1,9.994.42l.774-3.626s-4.053-.42-11.116-.42c-5.514,0-9.647,2.446-9.647,8.17,0,11.043,18.266,7.758,18.266,16.609,0,3.879-2.67,6.325-7.758,6.325a24.508,24.508,0,0,1-9.56-1.686L19.17,71.129S22.7,72.9,29.772,72.9c8.1,0,12.411-4.639,12.411-10.284-.007-11.8-18.447-9.01-18.447-16.688M61.563,69.2c-7.932,0-12.237-5.9-12.237-13.4,0-10.537,3.792-14,11.2-14,6.028,0,9.994.42,9.994.42l.774-3.626a104.726,104.726,0,0,0-10.768-.42c-9.994,0-15.769,4.885-15.769,18.034,0,9.024,6.036,16.7,16.2,16.7,7.584,0,11.029-1.773,11.029-1.773L70.95,67.677c.007.007-2.663,1.52-9.386,1.52M92.24,38.18a111.669,111.669,0,0,0-14.647,1.013l.514,3.372a116.929,116.929,0,0,1,13.439-.673c4.566,0,5.341.673,5.341,5.059v6.578H86.465c-6.462,0-10.595,3.712-10.595,10.117a8.835,8.835,0,0,0,9.22,9.27,19.012,19.012,0,0,0,11.8-4.552v3.879h4.48V46.524c0-6.658-1.809-8.344-9.133-8.344m4.653,26.972s-5.768,4.132-10.6,4.132c-3.792,0-6.028-2.106-6.028-5.818,0-4.386,2.67-6.571,6.81-6.571h9.82Zm12.237,7.085h4.48V19.972h-4.48Zm26.2-34.057c-8.959,0-14.821,5.225-14.821,15.849,0,13.149,6.984,18.881,16.457,18.881,7.924,0,11.63-1.773,11.63-1.773l-1.035-3.452s-3.539,1.52-10.168,1.52c-6.889,0-12.064-4.386-12.064-14.162h23.867a28.115,28.115,0,0,0,.347-4.465c.007-8.011-4.82-12.4-14.213-12.4m9.907,13.489H125.327c0-6.4,4.219-10.117,10.168-10.117,6.984,0,10.175,3.372,9.741,10.117M169.884,19.82h-1.505l-9.364,5.587a.429.429,0,0,0-.275.47,4.774,4.774,0,0,0,1.187,1.947c.159.159.427.051.593-.051l6.4-3.372V54.2a.555.555,0,0,0,.376.528,11.154,11.154,0,0,0,1.288.1c.217,0,1.078-.051,1.4-.1.217-.051.318-.318.318-.528V20.4c.007-.311-.152-.579-.427-.579m10.891,25.474a1.8,1.8,0,0,0-1.86,1.816,1.818,1.818,0,0,0,1.86,1.816,1.865,1.865,0,0,0,1.86-1.816,1.841,1.841,0,0,0-1.86-1.816m0-12.766a1.781,1.781,0,0,0-1.86,1.824,1.823,1.823,0,0,0,1.86,1.816,1.87,1.87,0,0,0,1.86-1.816,1.819,1.819,0,0,0-1.86-1.824M195.8,19.82h-1.505l-9.364,5.587a.423.423,0,0,0-.268.47,4.761,4.761,0,0,0,1.18,1.947c.159.159.427.051.593-.051l6.4-3.372V54.2a.555.555,0,0,0,.376.528,11.152,11.152,0,0,0,1.3.1c.217,0,1.078-.051,1.4-.1a.528.528,0,0,0,.326-.528V20.4c0-.311-.166-.579-.434-.579" transform="translate(-19.17 -19.82)"/>
    </g>
  </g>
</svg>
