<svg xmlns="http://www.w3.org/2000/svg" width="192" height="192" viewBox="0 0 192 192">
  <g id="slalom" transform="translate(-13130 2986)">
    <rect id="Rectangle_464" data-name="Rectangle 464" width="192" height="192" transform="translate(13130 -2986)" fill="none"/>
    <g id="SLALOM_LOGO-01" data-name="SLALOM LOGO-01" transform="translate(13131.92 -2938.56)">
      <path id="Path_78" data-name="Path 78" d="M1716.2,115.736c-.152-.01-.305-.028-.458-.029h-9.309a.95.95,0,0,1-.464-.047,1.527,1.527,0,0,1-.028-.182c0-.128,0-.257,0-.385V95.628a14.239,14.239,0,0,0-.2-2.6,7.851,7.851,0,0,0-.712-2.185,5.063,5.063,0,0,0-3.981-2.8,7.564,7.564,0,0,0-3.089.152,5.227,5.227,0,0,0-3.37,2.659,7.714,7.714,0,0,0-.777,2.283,13.621,13.621,0,0,0-.2,2.526v19.5a1.385,1.385,0,0,1-.039.514,1.97,1.97,0,0,1-.253.033h-9.541a1.334,1.334,0,0,1-.474-.038c-.009-.075-.022-.147-.025-.22V95.332a12.568,12.568,0,0,0-.242-2.56,7.367,7.367,0,0,0-.748-2.091,4.963,4.963,0,0,0-3.47-2.564,7.328,7.328,0,0,0-3.944.208,5.134,5.134,0,0,0-2.781,2.25,7.239,7.239,0,0,0-.9,2.36,11.381,11.381,0,0,0-.231,2.292q0,9.964,0,19.927v.51a2.172,2.172,0,0,1-.24.046c-.089.007-.18,0-.269,0h-9.309c-.152,0-.3-.007-.475-.011-.014-.094-.03-.165-.034-.238-.006-.09,0-.18,0-.269V79.755c0-.151.006-.3.009-.475.092-.013.165-.028.237-.032.09-.006.179,0,.269,0h9.309c.151,0,.3.006.455.009a.871.871,0,0,1,.048.433v4.569c.144.039.174-.069.224-.131a21.56,21.56,0,0,1,1.665-1.864,13.13,13.13,0,0,1,3.612-2.58,11.687,11.687,0,0,1,3.835-1.052,14.51,14.51,0,0,1,3.071.016,11.253,11.253,0,0,1,5.675,2.165,10.247,10.247,0,0,1,2.731,3.142c.063.11.128.218.208.353.087-.086.159-.151.223-.224a18.711,18.711,0,0,1,3.086-2.825,14.117,14.117,0,0,1,6.169-2.518,16.94,16.94,0,0,1,3.988-.118,13.662,13.662,0,0,1,3.343.678,10.168,10.168,0,0,1,6.327,6.039,14.462,14.462,0,0,1,.933,3.56c.038.279.049.561.079.841.014.124.046.246.07.369Q1716.2,102.926,1716.2,115.736Z" transform="translate(-1527.704 -72.336)" fill-rule="evenodd"/>
      <path id="Path_79" data-name="Path 79" d="M403.748.96V44.283c-.1.018-.168.039-.241.046-.089.007-.18,0-.269,0H393.93c-.151,0-.3-.007-.475-.011-.014-.1-.03-.166-.034-.239-.006-.115,0-.231,0-.346V1.46c0-.167.008-.333.013-.5Z" transform="translate(-362.066 -0.959)" fill-rule="evenodd"/>
      <path id="Path_80" data-name="Path 80" d="M1009.67.96c.008.127.022.255.022.382V43.885c0,.127-.007.253-.011.4a2.047,2.047,0,0,1-.231.044c-.089.007-.18,0-.269,0H999.87c-.152,0-.3-.007-.479-.011a2.305,2.305,0,0,1-.031-.236V.959Z" transform="translate(-919.432 -0.959)" fill-rule="evenodd"/>
      <path id="Path_81" data-name="Path 81" d="M1753.81,738.822c-.1-.123-.254-.1-.384-.144-.242-.083-.486-.16-.727-.243a.773.773,0,0,1-.143-.093,9.634,9.634,0,0,1,.363-.9,1.734,1.734,0,0,1,.225.059,2.794,2.794,0,0,0,1.128.192,1.3,1.3,0,0,0,1.037-.5,3.552,3.552,0,0,0,.583-1.043l-3.681-8.07a3.421,3.421,0,0,1,1.285-.047,1.3,1.3,0,0,1,.22.429q1.285,2.94,2.565,5.883c.056.128.117.254.176.381.157-.046.15-.185.188-.284q.746-1.915,1.48-3.836l.842-2.187c.05-.13.107-.257.167-.4.408-.021.8-.015,1.182-.006.084.148,0,.246-.041.346q-.764,1.888-1.533,3.774c-.569,1.4-1.133,2.8-1.71,4.2a12.022,12.022,0,0,1-.537,1.1,2.776,2.776,0,0,1-.542.7,2.18,2.18,0,0,1-.957.547c-.119.032-.258.028-.342.146Z" transform="translate(-1611.941 -669.722)" fill-rule="evenodd"/>
      <path id="Path_82" data-name="Path 82" d="M2277.59,4.952a.366.366,0,0,0-.057.1,3.1,3.1,0,0,1-2.049,2.4A3.32,3.32,0,0,1,2271,4.93a3.329,3.329,0,0,1,2.533-3.876c.172-.042.362,0,.521-.1h.461a1.946,1.946,0,0,0,.254.066,3.255,3.255,0,0,1,2.76,2.54c.007.032.042.059.063.087Zm-3.282-3.306a2.676,2.676,0,1,0,2.659,2.676,2.676,2.676,0,0,0-2.659-2.676Z" transform="translate(-2089.094 -0.95)" fill-rule="evenodd"/>
      <path id="Path_83" data-name="Path 83" d="M2318.6,3.653c-.021-.029-.056-.055-.063-.087a3.255,3.255,0,0,0-2.761-2.54,1.929,1.929,0,0,1-.254-.066h3.078Z" transform="translate(-2130.1 -0.959)" fill="#fff" fill-rule="evenodd"/>
      <path id="Path_84" data-name="Path 84" d="M1151.22,97.494a18.418,18.418,0,0,1,4.344-11.864,18.972,18.972,0,0,1,8.672-5.88,20.324,20.324,0,0,1,4.231-.939,22.4,22.4,0,0,1,4.3-.077,19.753,19.753,0,0,1,8.467,2.548,18.259,18.259,0,0,1,8.86,11.542,17.91,17.91,0,0,1,.525,3.221,19.281,19.281,0,0,1-.033,3.457,18.339,18.339,0,0,1-3.731,9.5,19.066,19.066,0,0,1-9.9,6.751,20.461,20.461,0,0,1-4.3.79,21.7,21.7,0,0,1-3.88-.027,19.486,19.486,0,0,1-11.844-5.3,18.08,18.08,0,0,1-5.35-9.8,20.754,20.754,0,0,1-.361-3.922Zm29.254.415a10.454,10.454,0,0,0-.178-2.264,10.066,10.066,0,0,0-1.9-4.366,9.1,9.1,0,0,0-6.548-3.662,10.029,10.029,0,0,0-2.911.13,8.843,8.843,0,0,0-3.892,1.739,9.214,9.214,0,0,0-3.063,4.47,11.6,11.6,0,0,0-.483,4.9,9.992,9.992,0,0,0,1.464,4.334,9.117,9.117,0,0,0,7.615,4.5,9.638,9.638,0,0,0,3.492-.432,8.754,8.754,0,0,0,5.444-4.879,10.486,10.486,0,0,0,.956-4.469Z" transform="translate(-1059.123 -72.437)" fill-rule="evenodd"/>
      <path id="Path_85" data-name="Path 85" d="M563.649,98.092a.382.382,0,0,0,.038-.108,8.858,8.858,0,0,0-.293-2.741,5.466,5.466,0,0,0-3.069-3.547,8.6,8.6,0,0,0-2.468-.7,16.852,16.852,0,0,0-3.108-.112,26.254,26.254,0,0,0-2.946.282,24.821,24.821,0,0,0-3.659.874c-.671.215-1.335.446-2,.67l-.285.1c-.138-.1-.142-.252-.184-.381q-1.057-3.213-2.106-6.428c-.087-.268-.178-.535-.264-.8-.022-.071-.033-.147-.051-.236.1-.05.184-.1.275-.14A32.934,32.934,0,0,1,549.2,82.9a31.406,31.406,0,0,1,3.48-.608,39.555,39.555,0,0,1,5.527-.246,23.413,23.413,0,0,1,4.763.572,15.559,15.559,0,0,1,4.256,1.625,11.7,11.7,0,0,1,5.128,5.985,17.134,17.134,0,0,1,1.017,3.856,24.569,24.569,0,0,1,.253,3.679V118.45c0,.127-.008.253-.014.4a2.041,2.041,0,0,1-.228.046c-.089.008-.18,0-.269,0h-8.963c-.151,0-.3-.007-.448-.01a.767.767,0,0,1-.06-.436v-3c0-.125-.008-.25-.013-.377-.135-.033-.173.069-.228.127a14.386,14.386,0,0,1-1.958,1.729,13.487,13.487,0,0,1-5.316,2.308,17.76,17.76,0,0,1-4.746.29,14.119,14.119,0,0,1-5.326-1.37,10.537,10.537,0,0,1-3.972-3.262,10.007,10.007,0,0,1-1.812-4.4,13.62,13.62,0,0,1,.137-5.12,9.771,9.771,0,0,1,4.778-6.537,14.3,14.3,0,0,1,3.841-1.532,21.7,21.7,0,0,1,3.448-.558,29.477,29.477,0,0,1,4.265-.037,25.281,25.281,0,0,1,6.4,1.246,1.46,1.46,0,0,0,.514.135Zm.162,6.107a10.092,10.092,0,0,0-1.478-.582,16.518,16.518,0,0,0-3.572-.713,17.69,17.69,0,0,0-2.267-.052,10.718,10.718,0,0,0-2.539.389,6.173,6.173,0,0,0-2.317,1.165,4.173,4.173,0,0,0-1.387,2.166,5.546,5.546,0,0,0-.138,1.869,3.778,3.778,0,0,0,1.075,2.406,4.488,4.488,0,0,0,1.311.928,6.786,6.786,0,0,0,2.289.611,11,11,0,0,0,1.881.011,10.241,10.241,0,0,0,2.739-.561,7.273,7.273,0,0,0,2.474-1.443,5.629,5.629,0,0,0,1.94-4.2c.013-.6,0-1.2,0-1.807a1.62,1.62,0,0,0-.012-.186Z" transform="translate(-496.971 -75.527)" fill-rule="evenodd"/>
      <path id="Path_86" data-name="Path 86" d="M2.22,112.523c.818-1.355,4.183-6.491,4.437-6.767.111.075.228.151.342.23a25.306,25.306,0,0,0,5.543,2.968,17.919,17.919,0,0,0,3.442.94,11.67,11.67,0,0,0,3.447.1,5.2,5.2,0,0,0,1.41-.364,4.473,4.473,0,0,0,.479-.242,2.363,2.363,0,0,0,1.1-2.647,1.945,1.945,0,0,0-.523-.927,3.929,3.929,0,0,0-.847-.66,9.875,9.875,0,0,0-1.673-.771c-1.033-.384-2.093-.685-3.148-1-1.375-.41-2.755-.8-4.1-1.309a19.657,19.657,0,0,1-3.091-1.456A11.2,11.2,0,0,1,6.2,98.287a8.725,8.725,0,0,1-2.01-4.422,12.309,12.309,0,0,1,.269-5.147,10.273,10.273,0,0,1,4.034-5.78,13.183,13.183,0,0,1,4.37-2.023,16.952,16.952,0,0,1,4.757-.561,24.975,24.975,0,0,1,13.026,3.992c.107.067.207.143.326.227q-1.939,3.511-3.859,6.984a.94.94,0,0,1-.1.124c-.119-.066-.232-.127-.342-.19a29.856,29.856,0,0,0-5.2-2.373A16.432,16.432,0,0,0,18.56,88.4a7.912,7.912,0,0,0-2.868.047,3.832,3.832,0,0,0-1.278.511,2.191,2.191,0,0,0-1.052,2.123,1.8,1.8,0,0,0,.374.954,3.4,3.4,0,0,0,.783.733,8.354,8.354,0,0,0,1.377.761c.981.445,2,.792,3.016,1.145,1.4.488,2.811.963,4.206,1.472a21.289,21.289,0,0,1,3.576,1.686,12.651,12.651,0,0,1,2.531,1.932,8.482,8.482,0,0,1,2.409,4.55,10.528,10.528,0,0,1,.16,2.221,14.151,14.151,0,0,1-.354,2.9,10,10,0,0,1-4.649,6.426,13.7,13.7,0,0,1-3.936,1.6,19.914,19.914,0,0,1-4.493.559,24.286,24.286,0,0,1-2.958-.114,25.74,25.74,0,0,1-12.87-5.132C2.436,112.7,2.338,112.616,2.22,112.523Z" transform="translate(-2.22 -73.986)" fill-rule="evenodd"/>
      <path id="Path_87" data-name="Path 87" d="M758.754,694.528c-.1-.129-.174-.231-.252-.331a4.719,4.719,0,0,1-.574-.908,2.758,2.758,0,0,1-.22-1.689,2.437,2.437,0,0,1,1.32-1.791,3.113,3.113,0,0,1,2.46-.236,2.5,2.5,0,0,1,1.035,4.2,4.283,4.283,0,0,1-1.175.789c-.2.092-.4.175-.619.272a.768.768,0,0,0,.091.159q1.142,1.169,2.289,2.333a.956.956,0,0,0,.083.06,1.585,1.585,0,0,0,.165-.186,14.086,14.086,0,0,0,1.008-1.856c.053-.115.11-.228.172-.358a5.911,5.911,0,0,1,.977.44,12.726,12.726,0,0,1-1.525,2.785c.049.06.1.131.158.192.491.507.984,1.01,1.475,1.516.079.081.151.167.24.268a9.514,9.514,0,0,1-.9.708c-.079-.067-.16-.125-.228-.2-.43-.439-.858-.882-1.288-1.322-.07-.071-.147-.137-.236-.22-.087.077-.164.14-.234.209a5.519,5.519,0,0,1-1.087.851,4.383,4.383,0,0,1-3.663.422,3.1,3.1,0,0,1-1.072-.588,2.841,2.841,0,0,1-1.036-1.99,2.93,2.93,0,0,1,1.136-2.675,5.112,5.112,0,0,1,1.111-.681Zm3.653,3.832c-.222-.293-2.7-2.841-2.959-3.039a3.583,3.583,0,0,0-1.626,1.085,2.153,2.153,0,0,0-.212.319,2.035,2.035,0,0,0,.79,2.761,2.426,2.426,0,0,0,1.1.312,3.573,3.573,0,0,0,2.906-1.438Zm-2.458-4.257a3.541,3.541,0,0,0,1.708-.931,1.7,1.7,0,0,0,.448-.955,1.512,1.512,0,0,0-1.113-1.7,1.79,1.79,0,0,0-1.27.127,1.47,1.47,0,0,0-.809,1.015,1.844,1.844,0,0,0,.162,1.3,5.231,5.231,0,0,0,.874,1.141Z" transform="translate(-695.676 -634.237)" fill-rule="evenodd"/>
      <path id="Path_88" data-name="Path 88" d="M2105.89,726.066a3.162,3.162,0,0,1,1.152,0,2.885,2.885,0,0,1,.028.6,2.813,2.813,0,0,0,.022.553c.091.035.11-.028.139-.062.117-.135.224-.281.346-.411a2.831,2.831,0,0,1,2.511-.882,2.707,2.707,0,0,1,2.115,1.363c.038.063.084.121.141.2.1-.121.176-.218.253-.317a3.318,3.318,0,0,1,3.73-1.1,2.577,2.577,0,0,1,1.616,1.492,3.681,3.681,0,0,1,.307,1.457c.006.68,0,1.359,0,2.038v2.769c0,.126-.007.253-.011.371a3.216,3.216,0,0,1-1.168.02.882.882,0,0,1-.036-.4v-4.231a3.408,3.408,0,0,0-.088-.954,3.674,3.674,0,0,0-.188-.543,1.759,1.759,0,0,0-1.2-1,2.362,2.362,0,0,0-1.254,0,2.166,2.166,0,0,0-1.59,1.8,4.3,4.3,0,0,0-.072.841c-.007,1.359,0,2.718,0,4.077a1.256,1.256,0,0,1-.034.434,5.5,5.5,0,0,1-1.1.009.883.883,0,0,1-.048-.429q0-2.134,0-4.269a3.644,3.644,0,0,0-.145-1.1,1.852,1.852,0,0,0-1.342-1.355,2.174,2.174,0,0,0-2.436.878,2.526,2.526,0,0,0-.442,1.214c-.02.216-.022.435-.022.653v3.961c0,.139-.01.277-.015.437a5.625,5.625,0,0,1-1.172.006c-.01-.091-.024-.165-.026-.239C2105.81,732.232,2105.83,726.416,2105.89,726.066Z" transform="translate(-1937.218 -667.735)" fill-rule="evenodd"/>
      <path id="Path_89" data-name="Path 89" d="M1147.43,699.71a3.151,3.151,0,0,1,1.183-.02,2.783,2.783,0,0,1,.026.634c.006.205,0,.41,0,.616v.643c.112.016.127-.058.156-.109a4.262,4.262,0,0,1,.568-.821,3.218,3.218,0,0,1,2.275-1.138.433.433,0,0,1,.363.075.217.217,0,0,0,.14.049c.293,0,.587-.015.88-.025.01,0,.018-.015.054-.047.035-.37.007-.765.015-1.16s-.012-.791.01-1.179a3.207,3.207,0,0,1,1.175-.01,7.984,7.984,0,0,1,.029,1.175c.009.4,0,.792,0,1.159a.341.341,0,0,0,.314.091h1.846c.126,0,.252.01.37.015a2.724,2.724,0,0,1,.006,1.029,3.368,3.368,0,0,1-.6.02h-1.27c-.2,0-.406,0-.607.007a.758.758,0,0,0-.061.432v4.27a3.065,3.065,0,0,0,.013.345,1.111,1.111,0,0,0,1.09,1.084,2.5,2.5,0,0,0,1.172-.146,2.756,2.756,0,0,1,.269-.076v.967a1.614,1.614,0,0,1-.208.127,3.148,3.148,0,0,1-2,.163,1.909,1.909,0,0,1-1.54-1.83,5.3,5.3,0,0,1-.016-.576v-4.308a1.082,1.082,0,0,0-.034-.426,1.8,1.8,0,0,0-.574-.031.913.913,0,0,0-.56.078.447.447,0,0,1-.225.031,3.051,3.051,0,0,0-2.911,2.515,4.946,4.946,0,0,0-.141,1.142v2.885c0,.139-.006.277-.008.408a3.331,3.331,0,0,1-1.186.015c-.008-.1-.023-.215-.023-.326V700.11C1147.43,699.979,1147.43,699.84,1147.43,699.71Z" transform="translate(-1055.633 -641.364)" fill-rule="evenodd"/>
      <path id="Path_90" data-name="Path 90" d="M932.576,732.718c-.012,1.387-.023,2.681-.035,3.975,0,.01-.015.018-.023.028a3.153,3.153,0,0,1-1.145-.009.74.74,0,0,1-.025-.139q0-5.229,0-10.459a1.148,1.148,0,0,1,.615-.066,1.384,1.384,0,0,1,.585.046c.042.482-.007.967.028,1.444.1.035.122-.037.16-.082.107-.127.209-.26.321-.384a3.542,3.542,0,0,1,4.211-.858,3.762,3.762,0,0,1,2.066,2.264,4.85,4.85,0,0,1-.006,3.318,3.792,3.792,0,0,1-2.21,2.323A3.622,3.622,0,0,1,933,733.2C932.876,733.063,932.754,732.92,932.576,732.718Zm5.782-2.548a3.253,3.253,0,0,0-.565-1.989,2.673,2.673,0,0,0-2.469-1.21,2.861,2.861,0,0,0-2.46,1.658,3.243,3.243,0,0,0-.287,2.167,3,3,0,0,0,1.728,2.256,2.807,2.807,0,0,0,3.868-1.665,3.658,3.658,0,0,0,.186-1.217Z" transform="translate(-856.874 -667.762)" fill-rule="evenodd"/>
      <path id="Path_91" data-name="Path 91" d="M21.469,730.077a2.507,2.507,0,0,0-.121-1.138,1.889,1.889,0,0,0-1.533-1.246,4.771,4.771,0,0,0-2.425.2c-.255.081-.5.183-.776.282a4.451,4.451,0,0,1-.375-.932,1.935,1.935,0,0,1,.194-.119,6.533,6.533,0,0,1,3.293-.582,3.9,3.9,0,0,1,1.084.239,2.736,2.736,0,0,1,1.818,2.284,5.584,5.584,0,0,1,.062.842c.006,1.5,0,3,0,4.5,0,.125-.01.251-.017.4a8.165,8.165,0,0,1-1.137.028,1.378,1.378,0,0,1-.047-.229v-.838c-.139-.06-.172.054-.225.11a3.492,3.492,0,0,1-1.735,1.011,3.9,3.9,0,0,1-2.306-.116,3.12,3.12,0,0,1-.586-.285,2.471,2.471,0,0,1,.274-4.321,4.143,4.143,0,0,1,1.594-.392,8.608,8.608,0,0,1,2.631.233C21.233,730.026,21.333,730.047,21.469,730.077Zm-.007.99a.848.848,0,0,0-.131-.058,8.134,8.134,0,0,0-2.082-.3,5.978,5.978,0,0,0-.878.063,2.246,2.246,0,0,0-1.058.42,1.48,1.48,0,0,0-.115,2.28,2,2,0,0,0,.836.449,3.116,3.116,0,0,0,1.256.063,2.861,2.861,0,0,0,1.375-.544,2.047,2.047,0,0,0,.8-1.185,4.017,4.017,0,0,0,0-1.188Z" transform="translate(-14.427 -668.361)" fill-rule="evenodd"/>
      <path id="Path_92" data-name="Path 92" d="M2005.2,730.652h-6.385a.528.528,0,0,0-.031.132,2.8,2.8,0,0,0,2.273,2.534,3.194,3.194,0,0,0,2.648-.628c.172-.132.332-.281.511-.432a5.134,5.134,0,0,1,.738.635,1.845,1.845,0,0,1-.135.18,4.172,4.172,0,0,1-3.383,1.351,3.9,3.9,0,0,1-3.279-1.909,4.015,4.015,0,0,1-.579-1.657,4.69,4.69,0,0,1,.514-2.942,3.728,3.728,0,0,1,2.475-1.92,3.613,3.613,0,0,1,4.29,2.133,5.149,5.149,0,0,1,.39,2.405A.718.718,0,0,1,2005.2,730.652Zm-6.435-1.023c.316.039,4.618.063,5.092.034a.843.843,0,0,0,.142-.034,2.93,2.93,0,0,0-1.163-2.288,2.184,2.184,0,0,0-.617-.3,2.451,2.451,0,0,0-2.682.761,3.085,3.085,0,0,0-.684,1.36c-.033.148-.053.3-.083.468Z" transform="translate(-1837.599 -667.782)" fill-rule="evenodd"/>
      <path id="Path_93" data-name="Path 93" d="M1046.12,730.067a1.669,1.669,0,0,0-.018-.823,1.907,1.907,0,0,0-1.622-1.537,4.851,4.851,0,0,0-2.425.2c-.254.082-.5.181-.765.276a1.2,1.2,0,0,1-.212-.45c-.062-.152-.11-.311-.17-.485.074-.043.135-.086.2-.116a6.568,6.568,0,0,1,3.256-.582,4,4,0,0,1,1.159.256,2.7,2.7,0,0,1,1.75,2.123,4.74,4.74,0,0,1,.082.878c.008,1.551,0,3.1,0,4.653,0,.112-.013.224-.02.354a7.874,7.874,0,0,1-1.112.023,1.115,1.115,0,0,1-.067-.547,2.407,2.407,0,0,0-.033-.546c-.135.026-.19.136-.265.212a3.457,3.457,0,0,1-1.651.935,3.866,3.866,0,0,1-2.306-.111,3.3,3.3,0,0,1-.684-.344,2.277,2.277,0,0,1-1.052-2.1,2.364,2.364,0,0,1,1.514-2.213,4.168,4.168,0,0,1,1.489-.347,8.6,8.6,0,0,1,2.631.232c.087.022.174.038.261.057a.249.249,0,0,0,.06,0Zm.058,1.03a1.774,1.774,0,0,0-.177-.075,8.162,8.162,0,0,0-1.93-.293,6.876,6.876,0,0,0-.994.056,2.364,2.364,0,0,0-1,.361,1.494,1.494,0,0,0-.111,2.426,2.2,2.2,0,0,0,.715.36,3.056,3.056,0,0,0,1.294.069,2.819,2.819,0,0,0,1.464-.621,1.952,1.952,0,0,0,.737-1.383c.014-.292,0-.586,0-.9Z" transform="translate(-956.971 -668.376)" fill-rule="evenodd"/>
      <path id="Path_94" data-name="Path 94" d="M215.879,734.486a4.161,4.161,0,0,1-4.25-4.228,4.266,4.266,0,1,1,4.25,4.228Zm-3-4.315a3.306,3.306,0,0,0,.546,1.9,2.972,2.972,0,0,0,4.9.085,3.419,3.419,0,0,0-.208-4.109,2.949,2.949,0,0,0-4.925.682,3.271,3.271,0,0,0-.312,1.443Z" transform="translate(-194.844 -667.838)" fill-rule="evenodd"/>
      <path id="Path_95" data-name="Path 95" d="M1419.3,730.212a4.261,4.261,0,1,1-4.25-4.272,4.179,4.179,0,0,1,4.25,4.272Zm-7.269-.058a3.224,3.224,0,0,0,.57,1.949,2.972,2.972,0,0,0,4.877.044,3.427,3.427,0,0,0-.189-4.08,2.951,2.951,0,0,0-4.982.733,3.188,3.188,0,0,0-.277,1.354Z" transform="translate(-1297.878 -667.829)" fill-rule="evenodd"/>
      <path id="Path_96" data-name="Path 96" d="M335.2,728.1a3.422,3.422,0,0,1,1.133-.017c.013.063.03.134.04.205a1.223,1.223,0,0,1,0,.154v7.383a.586.586,0,0,1-.06.39,6.319,6.319,0,0,1-1.109,0c-.077-.424,0-.845-.046-1.248-.09-.03-.11.03-.139.065-.091.108-.172.224-.264.329a3,3,0,0,1-2.08,1.031,3.579,3.579,0,0,1-1.221-.1,2.79,2.79,0,0,1-2.127-2.282,3.893,3.893,0,0,1-.085-.8c-.008-1.628,0-3.256,0-4.883,0-.076.012-.151.018-.224a3.165,3.165,0,0,1,1.163-.014.917.917,0,0,1,.034.4v4.191a4.794,4.794,0,0,0,.075.878,2.067,2.067,0,0,0,2.353,1.731,2.382,2.382,0,0,0,2.281-2.361c.008-.14,0-.282,0-.423v-4a1.137,1.137,0,0,1,.034-.405Z" transform="translate(-303.021 -669.763)" fill-rule="evenodd"/>
      <path id="Path_97" data-name="Path 97" d="M1530.94,726.068c.076.415-.006.826.064,1.294l.281-.343a2.967,2.967,0,0,1,1.612-1.053,3.594,3.594,0,0,1,2.046.073,2.691,2.691,0,0,1,1.686,1.577,3.747,3.747,0,0,1,.283,1.463c.008,1.6,0,3.205,0,4.808a2.878,2.878,0,0,1-.031.308,7.044,7.044,0,0,1-1.132.008.782.782,0,0,1-.05-.419v-4.269a4.055,4.055,0,0,0-.076-.8,2.817,2.817,0,0,0-.241-.685,1.828,1.828,0,0,0-1.117-.941,2.665,2.665,0,0,0-1.48-.045,2.334,2.334,0,0,0-1.773,2.043,6.7,6.7,0,0,0-.036.729v3.924c0,.139-.006.279-.01.418a1.19,1.19,0,0,1-.582.059,2.019,2.019,0,0,1-.585-.028c-.01-.083-.025-.157-.027-.23-.046-1.6-.02-7.535.034-7.878A3.551,3.551,0,0,1,1530.94,726.068Z" transform="translate(-1407.304 -667.748)" fill-rule="evenodd"/>
      <path id="Path_98" data-name="Path 98" d="M429.49,733.661a7.784,7.784,0,0,1,.6-.845c.114.073.22.139.324.208a4.95,4.95,0,0,0,1.723.729,3.564,3.564,0,0,0,1.185.05,1.776,1.776,0,0,0,.717-.256,1.159,1.159,0,0,0,.527-.684.962.962,0,0,0-.333-1.1,2.637,2.637,0,0,0-.632-.356c-.369-.143-.753-.248-1.129-.373s-.783-.243-1.161-.4a3.608,3.608,0,0,1-.73-.418,1.7,1.7,0,0,1-.717-1.42,2.151,2.151,0,0,1,1.093-1.985,3.17,3.17,0,0,1,1.731-.424,5.464,5.464,0,0,1,2.669.754,1.39,1.39,0,0,1,.128.084.48.48,0,0,1,.064.077,4.774,4.774,0,0,1-.523.87c-.16-.086-.3-.166-.453-.241a4.189,4.189,0,0,0-2.1-.52,1.832,1.832,0,0,0-.878.246,1.069,1.069,0,0,0-.555.83.79.79,0,0,0,.255.73,2.277,2.277,0,0,0,.542.356c.326.145.668.258,1.006.374.375.129.757.237,1.129.375a4.99,4.99,0,0,1,.73.338,1.991,1.991,0,0,1,.933,2.536,2.165,2.165,0,0,1-1.1,1.276,3.473,3.473,0,0,1-1.857.391,5.639,5.639,0,0,1-2.912-.982c-.053-.036-.1-.075-.155-.113Z" transform="translate(-395.243 -668.238)" fill-rule="evenodd"/>
      <path id="Path_99" data-name="Path 99" d="M2277.28,727.346a6.985,6.985,0,0,1-.536.862c-.167-.091-.322-.18-.482-.259a4.174,4.174,0,0,0-2.1-.5,1.759,1.759,0,0,0-.9.284,1.042,1.042,0,0,0-.5.863.8.8,0,0,0,.312.709,3.2,3.2,0,0,0,.626.368c.292.127.6.217.9.32.376.127.757.239,1.129.378a4.862,4.862,0,0,1,.695.325,1.994,1.994,0,0,1,.924,2.572,2.157,2.157,0,0,1-1.123,1.258,3.516,3.516,0,0,1-1.862.374,5.613,5.613,0,0,1-2.842-.959.681.681,0,0,1-.29-.268c.035-.058.07-.124.114-.185.147-.208.3-.414.455-.636.113.07.208.129.3.19a5.006,5.006,0,0,0,1.755.75,3.525,3.525,0,0,0,1.185.051,1.7,1.7,0,0,0,.843-.345,1.15,1.15,0,0,0,.431-1.127.76.76,0,0,0-.275-.494,2.45,2.45,0,0,0-.542-.355c-.34-.146-.695-.257-1.047-.374-.4-.133-.807-.248-1.206-.385a3.369,3.369,0,0,1-.853-.436,1.8,1.8,0,0,1-.8-1.65,2.152,2.152,0,0,1,1.192-1.888,2.731,2.731,0,0,1,1.019-.327,5.268,5.268,0,0,1,3.412.8.714.714,0,0,1,.077.084Z" transform="translate(-2089.36 -668.276)" fill-rule="evenodd"/>
      <path id="Path_100" data-name="Path 100" d="M1858.28,727.28l-.528.877c-.115-.058-.217-.106-.314-.16a4.76,4.76,0,0,0-1.584-.566,2.651,2.651,0,0,0-1.181.045,1.418,1.418,0,0,0-.654.385.942.942,0,0,0,.135,1.468,3.276,3.276,0,0,0,.715.366c.394.149.8.258,1.2.4.338.117.677.237,1,.381a3.287,3.287,0,0,1,.6.346,1.85,1.85,0,0,1,.781,1.809,2.244,2.244,0,0,1-1.438,1.93,3.5,3.5,0,0,1-1.614.288,5.648,5.648,0,0,1-3.011-1.037c-.042-.03-.083-.061-.122-.094a.44.44,0,0,1-.05-.058,2.894,2.894,0,0,1,.593-.844l.316.2a4.947,4.947,0,0,0,1.725.725,3.461,3.461,0,0,0,1.185.044,1.736,1.736,0,0,0,.779-.305,1.151,1.151,0,0,0,.48-.759.938.938,0,0,0-.343-.961,2.546,2.546,0,0,0-.592-.349c-.306-.127-.627-.22-.944-.322-.4-.131-.81-.243-1.206-.389a4.1,4.1,0,0,1-.722-.354,1.848,1.848,0,0,1-.871-2.118,2.105,2.105,0,0,1,1.056-1.444,3.2,3.2,0,0,1,1.7-.416,5.455,5.455,0,0,1,2.739.784C1858.16,727.185,1858.21,727.227,1858.28,727.28Z" transform="translate(-1703.935 -668.223)" fill-rule="evenodd"/>
      <path id="Path_101" data-name="Path 101" d="M1679.18,727.226a8.7,8.7,0,0,1-.558.893c-.16-.086-.3-.166-.45-.24a4.181,4.181,0,0,0-2.14-.519,1.81,1.81,0,0,0-.874.263,1.069,1.069,0,0,0-.487.621.881.881,0,0,0,.269.976,1.977,1.977,0,0,0,.627.367c.372.137.75.259,1.125.388s.753.251,1.123.392a3.09,3.09,0,0,1,.8.454,1.821,1.821,0,0,1,.737,1.454,2.267,2.267,0,0,1-1.434,2.246,3.579,3.579,0,0,1-1.613.291,5.637,5.637,0,0,1-3.044-1.052c-.06-.042-.111-.1-.186-.162l.594-.842.336.216a5,5,0,0,0,1.723.73,3.5,3.5,0,0,0,1.185.05,1.74,1.74,0,0,0,.813-.321,1.12,1.12,0,0,0,.457-.73.971.971,0,0,0-.447-1.063,3.716,3.716,0,0,0-.721-.355c-.4-.143-.808-.247-1.208-.38-.352-.117-.7-.243-1.044-.383a2.391,2.391,0,0,1-.766-.5,1.738,1.738,0,0,1-.531-1.2,2.268,2.268,0,0,1,1.833-2.37,4.047,4.047,0,0,1,1.642-.064,5.582,5.582,0,0,1,1.851.614C1678.91,727.062,1679.03,727.137,1679.18,727.226Z" transform="translate(-1539.145 -668.188)" fill-rule="evenodd"/>
      <path id="Path_102" data-name="Path 102" d="M123.252,732.151l.739.689a1.574,1.574,0,0,1-.131.186,4.262,4.262,0,1,1,.056-5.688,1.68,1.68,0,0,1-.358.427,4.17,4.17,0,0,1-.41.418c-.1-.092-.182-.173-.269-.243a7.463,7.463,0,0,0-.7-.539,2.837,2.837,0,0,0-3.85.8,3.2,3.2,0,0,0-.587,1.682,3.5,3.5,0,0,0,.311,1.758,2.95,2.95,0,0,0,4.2,1.3,6.863,6.863,0,0,0,.709-.524C123.052,732.344,123.131,732.261,123.252,732.151Z" transform="translate(-107.323 -667.788)" fill-rule="evenodd"/>
      <path id="Path_103" data-name="Path 103" d="M622.032,732.188a7.326,7.326,0,0,1,.742.664,4.147,4.147,0,0,1-4.327,1.486,4.208,4.208,0,0,1-3.156-3.824,4.277,4.277,0,0,1,2.728-4.337,4.232,4.232,0,0,1,4.692,1.2,2.734,2.734,0,0,1-.371.421c-.119.133-.246.259-.382.4-.078-.067-.142-.124-.208-.178a8.072,8.072,0,0,0-.784-.615,2.838,2.838,0,0,0-3.867.847,3.471,3.471,0,0,0-.053,3.743,2.944,2.944,0,0,0,3.78,1.078,3.808,3.808,0,0,0,.915-.628Z" transform="translate(-566.141 -667.806)" fill-rule="evenodd"/>
      <path id="Path_104" data-name="Path 104" d="M1308.19,697.165a9.4,9.4,0,0,1,.027,1.2c.007.4,0,.791,0,1.164a.411.411,0,0,0,.354.086h1.846a.533.533,0,0,1,.38.066,7.385,7.385,0,0,1,.012.964,3.085,3.085,0,0,1-.318.033h-1.846c-.126,0-.252.01-.4.017a2.13,2.13,0,0,0-.029.236q0,2.288,0,4.576a1.826,1.826,0,0,0,.041.381,1.087,1.087,0,0,0,1.034.924,2.467,2.467,0,0,0,1.173-.131c.082-.032.167-.056.272-.091a4.361,4.361,0,0,1,.028.978,1.734,1.734,0,0,1-.225.132,3.2,3.2,0,0,1-2.071.126,1.831,1.831,0,0,1-1.4-1.521,4.278,4.278,0,0,1-.07-.8c-.006-1.448,0-2.9,0-4.345,0-.139,0-.28-.006-.43a10.439,10.439,0,0,0-1.074-.071,2.276,2.276,0,0,1-.028-1c.341-.1.7,0,1.079-.074.01-.1.028-.193.029-.292v-1.73c0-.125.011-.25.018-.394a5.449,5.449,0,0,1,1.174,0Z" transform="translate(-1201.362 -641.334)" fill-rule="evenodd"/>
      <path id="Path_105" data-name="Path 105" d="M1933.86,699.627a7.274,7.274,0,0,0,.021-.846c0-.256,0-.513,0-.769s0-.535.006-.8a1.385,1.385,0,0,1,.585-.055c.19-.006.38,0,.592,0a2.71,2.71,0,0,1,.034.279v1.769c0,.125.01.25.018.4.148.008.272.019.4.02h1.769a.818.818,0,0,1,.386.044,1.637,1.637,0,0,1,.031.492v.427c-.1.128-.21.1-.308.1h-1.885a.614.614,0,0,0-.39.058c-.006.09-.019.19-.019.29v4.384a2.347,2.347,0,0,0,.048.5,1.074,1.074,0,0,0,1.008.9,2.481,2.481,0,0,0,1.174-.122c.093-.035.191-.059.3-.094.01.1.024.171.025.246v.733a2.836,2.836,0,0,1-.287.147,3.228,3.228,0,0,1-2,.108,1.835,1.835,0,0,1-1.42-1.545,4.69,4.69,0,0,1-.069-.841c-.006-1.436,0-2.871,0-4.307a.9.9,0,0,0-.047-.438c-.34-.059-.7.01-1.06-.042a4.558,4.558,0,0,1-.02-1,1.586,1.586,0,0,1,.255-.047C1933.27,699.623,1933.54,699.627,1933.86,699.627Z" transform="translate(-1777.994 -641.344)" fill-rule="evenodd"/>
      <path id="Path_106" data-name="Path 106" d="M510.573,699.632c.4-.078.746.013,1.094-.07a3.069,3.069,0,0,0,.039-.8c.008-.256,0-.513,0-.77s0-.536.007-.806a1.154,1.154,0,0,1,.578-.06,1.872,1.872,0,0,1,.583.03,3.675,3.675,0,0,1,.033.8c.006.256,0,.513,0,.769s0,.535.006.77a.328.328,0,0,0,.313.1h1.847c.126,0,.253.01.4.016a4.655,4.655,0,0,1,.02,1.019c-.114.011-.212.028-.31.029h-1.847c-.125,0-.25.01-.393.017a1.9,1.9,0,0,0-.033.242q0,2.251,0,4.5a2.373,2.373,0,0,0,.038.382,1.1,1.1,0,0,0,1.052,1,2.456,2.456,0,0,0,1.173-.135c.081-.032.165-.055.271-.091a1.58,1.58,0,0,1,.036.506v.442a.934.934,0,0,1-.491.256,3.262,3.262,0,0,1-1.672.076,1.908,1.908,0,0,1-1.583-1.751,5.9,5.9,0,0,1-.028-.653v-4.309c0-.139-.006-.277-.01-.416a1.152,1.152,0,0,0-.547-.059c-.177-.01-.354-.006-.547-.008a5.48,5.48,0,0,1-.029-1.026Z" transform="translate(-469.819 -641.316)" fill-rule="evenodd"/>
      <path id="Path_107" data-name="Path 107" d="M585.778,728.111a3.114,3.114,0,0,1,1.144-.016.245.245,0,0,1,.025.026.077.077,0,0,1,.012.036q.006,3.846.011,7.692a2.655,2.655,0,0,1-.009.268.4.4,0,0,1-.036.091,8.233,8.233,0,0,1-1.119.03.984.984,0,0,1-.052-.448q0-1.635,0-3.27v-4a1.4,1.4,0,0,1,.024-.409Z" transform="translate(-538.978 -669.77)" fill-rule="evenodd"/>
      <path id="Path_108" data-name="Path 108" d="M1278.81,728.1a3.909,3.909,0,0,1,1.143.014c.008.067.023.141.025.215.046,1.763.021,7.518-.034,7.874a3.246,3.246,0,0,1-1.148.007q-.02-.106-.03-.214C1278.71,734.418,1278.74,728.458,1278.81,728.1Z" transform="translate(-1176.419 -669.783)" fill-rule="evenodd"/>
      <path id="Path_109" data-name="Path 109" d="M1382.53,736.163q-.1.017-.2.024h-.937a1.721,1.721,0,0,1-.042-.236c-.006-.192,0-.385,0-.577v-7.309a1.213,1.213,0,0,1,.614-.062,1.382,1.382,0,0,1,.559.037c.063.355.092,6.275.041,7.89A2.311,2.311,0,0,1,1382.53,736.163Z" transform="translate(-1270.806 -669.718)" fill-rule="evenodd"/>
      <path id="Path_110" data-name="Path 110" d="M586.128,689.063c.026.427.011.833.012,1.246a1.684,1.684,0,0,1-.688.051,3.058,3.058,0,0,1-.641-.017,4.1,4.1,0,0,1-.015-1.255,4.641,4.641,0,0,1,1.332-.025Z" transform="translate(-538.062 -633.877)" fill-rule="evenodd"/>
      <path id="Path_111" data-name="Path 111" d="M1380.4,690.376c-.017-.461-.008-.866-.008-1.292a10.569,10.569,0,0,1,1.313-.027,3.471,3.471,0,0,1,.045,1.286,2.138,2.138,0,0,1-.668.036C1380.87,690.387,1380.65,690.378,1380.4,690.376Z" transform="translate(-1269.925 -633.896)" fill-rule="evenodd"/>
      <path id="Path_112" data-name="Path 112" d="M1278.08,689.26h1.273a3.475,3.475,0,0,1,.047,1.269,1.7,1.7,0,0,1-.671.043,2.821,2.821,0,0,1-.643-.019,4.1,4.1,0,0,1-.006-1.293Z" transform="translate(-1175.773 -634.089)" fill-rule="evenodd"/>
      <path id="Path_124" data-name="Path 124" d="M2297.58,23.676h-.912c-.047-.077-.1-.148-.139-.226-.111-.216-.219-.434-.322-.654a.68.68,0,0,0-.828-.418c-.083.41,0,.834-.054,1.261a2.13,2.13,0,0,1-.844.031.683.683,0,0,1-.036-.151q0-1.574,0-3.148a1.3,1.3,0,0,1,.024-.168c.082-.008.155-.021.228-.022.4,0,.793-.01,1.19,0a2.856,2.856,0,0,1,.606.08.794.794,0,0,1,.656.829.843.843,0,0,1-.447.864,1.514,1.514,0,0,0-.141.1,1.43,1.43,0,0,1,.584.7C2297.28,23.048,2297.44,23.325,2297.58,23.676Zm-2.218-1.95c.2,0,.352.006.5,0a.363.363,0,0,0,.356-.242.5.5,0,0,0-.066-.507.321.321,0,0,0-.121-.09,1.09,1.09,0,0,0-.679.018,5.066,5.066,0,0,0,.009.821Z" transform="translate(-2110.713 -18.638)" fill-rule="evenodd"/>
      <path id="Path_125" data-name="Path 125" d="M2305.69,29.313a5.05,5.05,0,0,1-.006-.822,1.089,1.089,0,0,1,.679-.018.316.316,0,0,1,.122.09.5.5,0,0,1,.066.507.363.363,0,0,1-.356.242C2306.04,29.318,2305.88,29.313,2305.69,29.313Z" transform="translate(-2121.035 -26.224)" fill="#fff" fill-rule="evenodd"/>
    </g>
    <text id="The_Art_of_Designing_Silence" data-name="The Art of Designing Silence" transform="translate(13228 -2845)" fill="#333" font-size="12" font-family="Poppins-Regular, Poppins"><tspan x="-82.728" y="0">The Art of Designing Silence</tspan></text>
  </g>
</svg>
