<svg xmlns="http://www.w3.org/2000/svg" width="160" height="160" viewBox="0 0 160 160">
  <g id="slalom" transform="translate(-13130 2986)">
    <rect id="Rectangle_464" data-name="Rectangle 464" width="160" height="160" transform="translate(13130 -2986)" fill="none"/>
    <g id="SLALOM_LOGO-01" data-name="SLALOM LOGO-01" transform="translate(13149.713 -2949.826)">
      <path id="Path_78" data-name="Path 78" d="M1696.26,102.394c-.1-.006-.2-.018-.294-.019H1690a.609.609,0,0,1-.3-.03.991.991,0,0,1-.018-.117c0-.082,0-.165,0-.247V89.5a9.123,9.123,0,0,0-.128-1.667,5.033,5.033,0,0,0-.457-1.4,3.246,3.246,0,0,0-2.552-1.8,4.85,4.85,0,0,0-1.98.1,3.351,3.351,0,0,0-2.161,1.7,4.943,4.943,0,0,0-.5,1.464,8.728,8.728,0,0,0-.128,1.62v12.5a.9.9,0,0,1-.025.33,1.268,1.268,0,0,1-.162.021h-6.117a.855.855,0,0,1-.3-.024c-.006-.048-.014-.094-.016-.141v-12.9a8.053,8.053,0,0,0-.155-1.641,4.727,4.727,0,0,0-.48-1.341,3.182,3.182,0,0,0-2.225-1.644,4.7,4.7,0,0,0-2.529.133,3.292,3.292,0,0,0-1.783,1.443,4.646,4.646,0,0,0-.577,1.513,7.3,7.3,0,0,0-.148,1.47v13.1a1.394,1.394,0,0,1-.154.029c-.057,0-.115,0-.172,0h-5.969c-.1,0-.192,0-.3-.007-.009-.06-.019-.106-.022-.153s0-.115,0-.172V79.325c0-.1,0-.192.006-.3.059-.008.106-.018.152-.021s.115,0,.173,0h5.968c.1,0,.192,0,.292.006a.559.559,0,0,1,.031.278v2.929c.092.025.111-.044.144-.084a13.835,13.835,0,0,1,1.068-1.2,8.421,8.421,0,0,1,2.316-1.654,7.492,7.492,0,0,1,2.459-.674,9.3,9.3,0,0,1,1.969.01A7.215,7.215,0,0,1,1678.851,80a6.57,6.57,0,0,1,1.751,2.014c.04.071.082.14.133.226.056-.055.1-.1.143-.144a11.994,11.994,0,0,1,1.979-1.811,9.05,9.05,0,0,1,3.955-1.614,10.862,10.862,0,0,1,2.557-.076,8.759,8.759,0,0,1,2.143.435,6.519,6.519,0,0,1,4.057,3.872,9.27,9.27,0,0,1,.6,2.282c.024.179.031.36.051.539.009.08.03.158.045.237Q1696.26,94.181,1696.26,102.394Z" transform="translate(-1575.406 -74.568)" fill-rule="evenodd"/>
      <path id="Path_79" data-name="Path 79" d="M400.041.96V28.736c-.064.012-.108.025-.154.029s-.115,0-.172,0h-5.968c-.1,0-.192,0-.3-.007-.009-.064-.019-.106-.022-.153,0-.074,0-.148,0-.222V1.281c0-.107.005-.214.008-.321Z" transform="translate(-373.317 -0.959)" fill-rule="evenodd"/>
      <path id="Path_80" data-name="Path 80" d="M1005.97.96c.005.081.014.163.014.245V28.481c0,.081,0,.162-.007.256a1.317,1.317,0,0,1-.148.028c-.057,0-.115,0-.172,0h-5.97c-.1,0-.192,0-.307-.007a1.468,1.468,0,0,1-.02-.151V.959Z" transform="translate(-948.114 -0.959)" fill-rule="evenodd"/>
      <path id="Path_81" data-name="Path 81" d="M1753.236,734.936c-.064-.079-.163-.064-.246-.092-.155-.053-.312-.1-.466-.156a.5.5,0,0,1-.092-.06,6.192,6.192,0,0,1,.233-.577,1.1,1.1,0,0,1,.144.038,1.791,1.791,0,0,0,.723.123.833.833,0,0,0,.665-.321,2.279,2.279,0,0,0,.374-.669l-2.36-5.174a2.193,2.193,0,0,1,.824-.03.826.826,0,0,1,.141.275q.824,1.885,1.645,3.772c.036.082.075.163.113.244.1-.029.1-.119.121-.182q.478-1.228.949-2.459l.54-1.4c.032-.083.069-.165.107-.256.261-.013.513-.01.758,0,.054.095,0,.158-.026.222q-.49,1.211-.983,2.42c-.365.9-.727,1.8-1.1,2.693a7.718,7.718,0,0,1-.344.705,1.784,1.784,0,0,1-.348.449,1.4,1.4,0,0,1-.614.351c-.076.021-.166.018-.219.094Z" transform="translate(-1662.277 -690.633)" fill-rule="evenodd"/>
      <path id="Path_82" data-name="Path 82" d="M2275.2,3.517a.233.233,0,0,0-.037.064,1.987,1.987,0,0,1-1.314,1.539,2.128,2.128,0,0,1-2.875-1.617,2.134,2.134,0,0,1,1.624-2.485c.11-.027.232,0,.334-.064h.3a1.239,1.239,0,0,0,.163.042,2.087,2.087,0,0,1,1.77,1.628c0,.021.027.038.04.056Zm-2.1-2.12a1.716,1.716,0,1,0,1.7,1.716,1.716,1.716,0,0,0-1.7-1.716Z" transform="translate(-2154.35 -0.951)" fill-rule="evenodd"/>
      <path id="Path_83" data-name="Path 83" d="M2317.5,2.687c-.014-.019-.036-.035-.041-.056A2.087,2.087,0,0,0,2315.685,1a1.224,1.224,0,0,1-.163-.042h1.973Z" transform="translate(-2196.639 -0.959)" fill="#fff" fill-rule="evenodd"/>
      <path id="Path_84" data-name="Path 84" d="M1151.22,90.737a11.809,11.809,0,0,1,2.785-7.607,12.164,12.164,0,0,1,5.56-3.77,13.032,13.032,0,0,1,2.713-.6,14.363,14.363,0,0,1,2.757-.049,12.665,12.665,0,0,1,5.429,1.634,11.707,11.707,0,0,1,5.681,7.4,11.48,11.48,0,0,1,.337,2.065,12.355,12.355,0,0,1-.021,2.216,11.757,11.757,0,0,1-2.392,6.091,12.224,12.224,0,0,1-6.347,4.328,13.118,13.118,0,0,1-2.757.507,13.915,13.915,0,0,1-2.488-.017,12.493,12.493,0,0,1-7.594-3.4,11.592,11.592,0,0,1-3.43-6.283A13.307,13.307,0,0,1,1151.22,90.737Zm18.756.266a6.7,6.7,0,0,0-.114-1.452,6.453,6.453,0,0,0-1.218-2.8,5.834,5.834,0,0,0-4.2-2.348,6.43,6.43,0,0,0-1.866.083,5.669,5.669,0,0,0-2.5,1.115,5.907,5.907,0,0,0-1.964,2.866,7.438,7.438,0,0,0-.31,3.142,6.407,6.407,0,0,0,.939,2.779,5.845,5.845,0,0,0,4.882,2.885A6.179,6.179,0,0,0,1165.87,97a5.613,5.613,0,0,0,3.49-3.128,6.72,6.72,0,0,0,.613-2.865Z" transform="translate(-1092.172 -74.672)" fill-rule="evenodd"/>
      <path id="Path_85" data-name="Path 85" d="M555.2,92.329a.245.245,0,0,0,.024-.069,5.678,5.678,0,0,0-.188-1.757,3.5,3.5,0,0,0-1.968-2.274,5.514,5.514,0,0,0-1.582-.449,10.8,10.8,0,0,0-1.993-.072,16.837,16.837,0,0,0-1.889.181,15.916,15.916,0,0,0-2.346.56c-.43.138-.856.286-1.282.43l-.183.064c-.088-.064-.091-.162-.118-.244q-.678-2.06-1.35-4.121c-.056-.172-.114-.343-.169-.513-.014-.046-.021-.094-.033-.151.064-.032.118-.064.176-.09a21.115,21.115,0,0,1,3.636-1.234,20.137,20.137,0,0,1,2.231-.39,25.362,25.362,0,0,1,3.544-.158,15.011,15.011,0,0,1,3.054.367,9.975,9.975,0,0,1,2.729,1.042,7.5,7.5,0,0,1,3.288,3.837,10.986,10.986,0,0,1,.652,2.472,15.755,15.755,0,0,1,.162,2.359v13.263c0,.081-.005.162-.009.256a1.309,1.309,0,0,1-.146.029c-.057.005-.115,0-.172,0h-5.747c-.1,0-.192,0-.287-.006a.492.492,0,0,1-.038-.28v-1.923c0-.08-.005-.16-.008-.242-.087-.021-.111.044-.146.081a9.223,9.223,0,0,1-1.255,1.109,8.647,8.647,0,0,1-3.408,1.48,11.386,11.386,0,0,1-3.043.186,9.053,9.053,0,0,1-3.415-.878,6.756,6.756,0,0,1-2.547-2.091,6.414,6.414,0,0,1-1.162-2.821A8.733,8.733,0,0,1,540.295,97a6.265,6.265,0,0,1,3.063-4.191,9.169,9.169,0,0,1,2.463-.982,13.912,13.912,0,0,1,2.211-.358,18.9,18.9,0,0,1,2.735-.024,16.209,16.209,0,0,1,4.1.8.936.936,0,0,0,.33.087Zm.1,3.915a6.472,6.472,0,0,0-.948-.373,10.589,10.589,0,0,0-2.29-.457,11.342,11.342,0,0,0-1.453-.033,6.872,6.872,0,0,0-1.628.249,3.958,3.958,0,0,0-1.486.747,2.676,2.676,0,0,0-.889,1.389,3.555,3.555,0,0,0-.089,1.2,2.422,2.422,0,0,0,.689,1.543,2.878,2.878,0,0,0,.841.595,4.352,4.352,0,0,0,1.468.392,7.052,7.052,0,0,0,1.206.007,6.565,6.565,0,0,0,1.756-.36,4.663,4.663,0,0,0,1.586-.925,3.609,3.609,0,0,0,1.244-2.693c.008-.385,0-.769,0-1.159a1.052,1.052,0,0,0-.008-.119Z" transform="translate(-512.445 -77.862)" fill-rule="evenodd"/>
      <path id="Path_86" data-name="Path 86" d="M2.22,100.977c.524-.869,2.682-4.162,2.845-4.339.071.048.146.1.219.147a16.225,16.225,0,0,0,3.554,1.9,11.488,11.488,0,0,0,2.207.6,7.482,7.482,0,0,0,2.21.064,3.334,3.334,0,0,0,.9-.233,2.87,2.87,0,0,0,.307-.155,1.515,1.515,0,0,0,.705-1.7,1.247,1.247,0,0,0-.335-.594,2.52,2.52,0,0,0-.543-.423,6.332,6.332,0,0,0-1.073-.494c-.662-.246-1.342-.439-2.018-.641-.882-.263-1.766-.513-2.629-.839a12.6,12.6,0,0,1-1.982-.934,7.18,7.18,0,0,1-1.82-1.495,5.594,5.594,0,0,1-1.289-2.835,7.892,7.892,0,0,1,.172-3.3,6.587,6.587,0,0,1,2.586-3.706,8.452,8.452,0,0,1,2.8-1.3,10.869,10.869,0,0,1,3.05-.36,16.013,16.013,0,0,1,8.352,2.559c.069.043.133.092.209.146L18.18,87.535a.6.6,0,0,1-.064.079c-.076-.042-.149-.081-.219-.122a19.143,19.143,0,0,0-3.334-1.521,10.537,10.537,0,0,0-1.866-.46,5.073,5.073,0,0,0-1.839.03,2.457,2.457,0,0,0-.819.328,1.4,1.4,0,0,0-.674,1.361,1.154,1.154,0,0,0,.24.612,2.18,2.18,0,0,0,.5.47,5.356,5.356,0,0,0,.883.488c.629.285,1.282.508,1.934.734.9.313,1.8.617,2.7.944a13.65,13.65,0,0,1,2.293,1.081A8.112,8.112,0,0,1,19.534,92.8a5.438,5.438,0,0,1,1.545,2.917,6.75,6.75,0,0,1,.1,1.424A9.073,9.073,0,0,1,20.954,99a6.411,6.411,0,0,1-2.981,4.12,8.784,8.784,0,0,1-2.524,1.026,12.768,12.768,0,0,1-2.881.358,15.571,15.571,0,0,1-1.9-.073,16.5,16.5,0,0,1-8.252-3.29C2.358,101.091,2.3,101.037,2.22,100.977Z" transform="translate(-2.22 -76.269)" fill-rule="evenodd"/>
      <path id="Path_87" data-name="Path 87" d="M757.8,692.7c-.064-.083-.112-.148-.161-.212a3.026,3.026,0,0,1-.368-.582,1.768,1.768,0,0,1-.141-1.083,1.562,1.562,0,0,1,.846-1.148,2,2,0,0,1,1.577-.151,1.6,1.6,0,0,1,.664,2.693,2.746,2.746,0,0,1-.753.506c-.128.059-.256.112-.4.174a.491.491,0,0,0,.058.1q.732.749,1.467,1.5a.621.621,0,0,0,.053.038,1.027,1.027,0,0,0,.106-.119,9.042,9.042,0,0,0,.646-1.19c.034-.074.07-.146.11-.229a3.782,3.782,0,0,1,.626.282,8.165,8.165,0,0,1-.978,1.786c.031.039.064.084.1.123.315.325.631.648.946.972.051.052.1.107.154.172a6.1,6.1,0,0,1-.577.454,1.5,1.5,0,0,1-.146-.128c-.276-.281-.55-.565-.826-.848-.045-.046-.094-.088-.151-.141-.056.049-.105.09-.15.134a3.53,3.53,0,0,1-.7.546,2.81,2.81,0,0,1-2.349.271,1.986,1.986,0,0,1-.687-.377,1.821,1.821,0,0,1-.664-1.276,1.879,1.879,0,0,1,.728-1.715,3.278,3.278,0,0,1,.712-.437Zm2.342,2.457c-.142-.188-1.731-1.821-1.9-1.948a2.3,2.3,0,0,0-1.042.7,1.378,1.378,0,0,0-.136.2,1.3,1.3,0,0,0,.507,1.77,1.555,1.555,0,0,0,.705.2,2.291,2.291,0,0,0,1.863-.922Zm-1.576-2.729a2.27,2.27,0,0,0,1.1-.6,1.091,1.091,0,0,0,.287-.612.97.97,0,0,0-.714-1.09,1.148,1.148,0,0,0-.814.081.943.943,0,0,0-.519.651,1.182,1.182,0,0,0,.1.833,3.352,3.352,0,0,0,.56.732Z" transform="translate(-717.358 -654.04)" fill-rule="evenodd"/>
      <path id="Path_88" data-name="Path 88" d="M2105.869,725.978a2.028,2.028,0,0,1,.739,0,1.877,1.877,0,0,1,.018.385,1.777,1.777,0,0,0,.014.355c.058.022.071-.018.089-.04.075-.087.144-.18.222-.264a1.815,1.815,0,0,1,1.61-.565,1.736,1.736,0,0,1,1.356.874c.024.04.054.078.09.128.064-.078.113-.14.162-.2a2.127,2.127,0,0,1,2.391-.705,1.652,1.652,0,0,1,1.036.957,2.361,2.361,0,0,1,.2.934c0,.436,0,.871,0,1.307v1.775c0,.081,0,.162-.007.238a2.062,2.062,0,0,1-.749.013.567.567,0,0,1-.023-.256V728.2a2.184,2.184,0,0,0-.056-.612,2.315,2.315,0,0,0-.121-.348,1.127,1.127,0,0,0-.769-.641,1.515,1.515,0,0,0-.8,0,1.388,1.388,0,0,0-1.019,1.154,2.755,2.755,0,0,0-.046.539c0,.871,0,1.743,0,2.614a.8.8,0,0,1-.022.278,3.528,3.528,0,0,1-.705.006.568.568,0,0,1-.031-.275v-2.737a2.328,2.328,0,0,0-.093-.705,1.188,1.188,0,0,0-.86-.869,1.394,1.394,0,0,0-1.562.563,1.618,1.618,0,0,0-.283.778c-.013.138-.014.279-.014.419v2.54c0,.089-.006.178-.01.28a3.6,3.6,0,0,1-.751,0c-.007-.058-.015-.106-.017-.153C2105.818,729.931,2105.831,726.2,2105.869,725.978Z" transform="translate(-1997.725 -688.579)" fill-rule="evenodd"/>
      <path id="Path_89" data-name="Path 89" d="M1147.426,698.8a2.02,2.02,0,0,1,.759-.013,1.784,1.784,0,0,1,.017.406c0,.131,0,.263,0,.395V700c.072.01.082-.037.1-.07a2.727,2.727,0,0,1,.364-.526,2.063,2.063,0,0,1,1.458-.73.278.278,0,0,1,.233.048.139.139,0,0,0,.09.031c.188,0,.376-.01.564-.016.007,0,.012-.01.035-.03.022-.237,0-.49.01-.744s-.008-.507.006-.756a2.056,2.056,0,0,1,.753-.006,5.09,5.09,0,0,1,.019.753c.006.256,0,.508,0,.743a.219.219,0,0,0,.2.058h1.184c.081,0,.162.006.237.01a1.748,1.748,0,0,1,0,.66,2.159,2.159,0,0,1-.385.013h-.814c-.128,0-.26,0-.389,0a.487.487,0,0,0-.039.277v2.738a1.939,1.939,0,0,0,.008.221.712.712,0,0,0,.7.7,1.6,1.6,0,0,0,.752-.094,1.763,1.763,0,0,1,.172-.049v.62a1.035,1.035,0,0,1-.133.081,2.018,2.018,0,0,1-1.282.1,1.224,1.224,0,0,1-.987-1.173,3.359,3.359,0,0,1-.01-.369v-2.762a.693.693,0,0,0-.022-.273,1.154,1.154,0,0,0-.368-.02.586.586,0,0,0-.359.05.287.287,0,0,1-.144.02,1.956,1.956,0,0,0-1.866,1.612,3.169,3.169,0,0,0-.09.732v1.85c0,.089,0,.178-.005.262a2.134,2.134,0,0,1-.76.01c-.005-.064-.015-.138-.015-.209v-4.711C1147.426,698.97,1147.426,698.881,1147.426,698.8Z" transform="translate(-1088.571 -661.39)" fill-rule="evenodd"/>
      <path id="Path_90" data-name="Path 90" d="M932.135,730.257c-.008.889-.015,1.719-.022,2.549,0,.006-.01.012-.015.018a2.022,2.022,0,0,1-.734-.006.48.48,0,0,1-.016-.089q0-3.353,0-6.706a.737.737,0,0,1,.394-.042.887.887,0,0,1,.375.029c.027.309,0,.62.018.926.064.022.078-.024.1-.053.069-.081.134-.167.206-.246a2.271,2.271,0,0,1,2.7-.55,2.412,2.412,0,0,1,1.325,1.451,3.11,3.11,0,0,1,0,2.127,2.431,2.431,0,0,1-1.417,1.489,2.322,2.322,0,0,1-2.64-.589C932.328,730.478,932.249,730.387,932.135,730.257Zm3.707-1.634a2.086,2.086,0,0,0-.362-1.275,1.714,1.714,0,0,0-1.583-.776,1.834,1.834,0,0,0-1.577,1.063,2.079,2.079,0,0,0-.184,1.389,1.924,1.924,0,0,0,1.108,1.446,1.8,1.8,0,0,0,2.48-1.067,2.345,2.345,0,0,0,.119-.78Z" transform="translate(-883.599 -688.611)" fill-rule="evenodd"/>
      <path id="Path_91" data-name="Path 91" d="M19.324,728.8a1.608,1.608,0,0,0-.078-.73,1.211,1.211,0,0,0-.983-.8,3.06,3.06,0,0,0-1.555.128c-.164.052-.321.117-.5.181a2.854,2.854,0,0,1-.24-.6,1.262,1.262,0,0,1,.124-.076,4.188,4.188,0,0,1,2.111-.373,2.5,2.5,0,0,1,.7.153,1.754,1.754,0,0,1,1.166,1.464,3.58,3.58,0,0,1,.04.54c0,.962,0,1.924,0,2.885,0,.08-.006.161-.011.257a5.237,5.237,0,0,1-.729.018.884.884,0,0,1-.03-.147v-.537c-.089-.039-.11.035-.144.07a2.238,2.238,0,0,1-1.112.648,2.5,2.5,0,0,1-1.478-.074,2.007,2.007,0,0,1-.376-.183,1.584,1.584,0,0,1,.176-2.77,2.657,2.657,0,0,1,1.022-.251,5.522,5.522,0,0,1,1.687.149C19.173,728.768,19.237,728.781,19.324,728.8Zm0,.635a.536.536,0,0,0-.084-.037,5.213,5.213,0,0,0-1.335-.192,3.827,3.827,0,0,0-.563.04,1.44,1.44,0,0,0-.678.269.949.949,0,0,0-.074,1.462,1.283,1.283,0,0,0,.536.288,2,2,0,0,0,.805.04,1.834,1.834,0,0,0,.882-.349,1.312,1.312,0,0,0,.513-.76,2.575,2.575,0,0,0,0-.762Z" transform="translate(-14.809 -689.231)" fill-rule="evenodd"/>
      <path id="Path_92" data-name="Path 92" d="M2002.445,728.936h-4.094a.336.336,0,0,0-.02.085,1.8,1.8,0,0,0,1.457,1.625,2.048,2.048,0,0,0,1.7-.4c.11-.085.213-.18.328-.277a3.3,3.3,0,0,1,.473.407,1.212,1.212,0,0,1-.087.115,2.675,2.675,0,0,1-2.169.866,2.5,2.5,0,0,1-2.1-1.224,2.575,2.575,0,0,1-.371-1.062,3.007,3.007,0,0,1,.329-1.886,2.391,2.391,0,0,1,1.587-1.231,2.317,2.317,0,0,1,2.75,1.368,3.3,3.3,0,0,1,.25,1.542A.454.454,0,0,1,2002.445,728.936Zm-4.126-.656c.2.025,2.961.04,3.265.022a.544.544,0,0,0,.091-.022,1.878,1.878,0,0,0-.745-1.467,1.4,1.4,0,0,0-.4-.192,1.572,1.572,0,0,0-1.72.488,1.977,1.977,0,0,0-.439.872c-.021.095-.034.192-.053.3Z" transform="translate(-1894.988 -688.627)" fill-rule="evenodd"/>
      <path id="Path_93" data-name="Path 93" d="M1043.981,728.8a1.071,1.071,0,0,0-.012-.528,1.223,1.223,0,0,0-1.04-.985,3.112,3.112,0,0,0-1.555.128c-.163.053-.32.116-.49.177a.769.769,0,0,1-.136-.289c-.04-.1-.071-.2-.109-.311.047-.028.087-.055.128-.074a4.21,4.21,0,0,1,2.088-.373,2.567,2.567,0,0,1,.743.164,1.731,1.731,0,0,1,1.122,1.361,3.035,3.035,0,0,1,.053.563c.005.994,0,1.988,0,2.983,0,.072-.008.144-.013.227a5.063,5.063,0,0,1-.713.015.716.716,0,0,1-.043-.351,1.558,1.558,0,0,0-.021-.35c-.087.017-.122.087-.17.136a2.219,2.219,0,0,1-1.059.6,2.48,2.48,0,0,1-1.479-.071,2.12,2.12,0,0,1-.438-.221,1.46,1.46,0,0,1-.674-1.346,1.516,1.516,0,0,1,.971-1.419,2.672,2.672,0,0,1,.955-.223,5.515,5.515,0,0,1,1.687.149c.056.014.112.024.167.037a.163.163,0,0,0,.039,0Zm.037.66a1.132,1.132,0,0,0-.114-.048,5.234,5.234,0,0,0-1.237-.188,4.423,4.423,0,0,0-.637.036,1.516,1.516,0,0,0-.641.232.958.958,0,0,0-.071,1.555,1.412,1.412,0,0,0,.458.231,1.96,1.96,0,0,0,.829.044,1.808,1.808,0,0,0,.939-.4,1.252,1.252,0,0,0,.472-.887c.009-.187,0-.376,0-.577Z" transform="translate(-986.823 -689.245)" fill-rule="evenodd"/>
      <path id="Path_94" data-name="Path 94" d="M214.354,731.424a2.668,2.668,0,0,1-2.725-2.711,2.735,2.735,0,1,1,2.725,2.711Zm-1.923-2.766a2.12,2.12,0,0,0,.35,1.218,1.905,1.905,0,0,0,3.142.055,2.192,2.192,0,0,0-.133-2.635,1.891,1.891,0,0,0-3.158.437,2.1,2.1,0,0,0-.2.925Z" transform="translate(-200.867 -688.693)" fill-rule="evenodd"/>
      <path id="Path_95" data-name="Path 95" d="M1416.242,728.679a2.732,2.732,0,1,1-2.725-2.739,2.679,2.679,0,0,1,2.725,2.739Zm-4.661-.037a2.067,2.067,0,0,0,.365,1.25,1.905,1.905,0,0,0,3.127.028,2.2,2.2,0,0,0-.121-2.616,1.892,1.892,0,0,0-3.194.47,2.044,2.044,0,0,0-.177.868Z" transform="translate(-1338.392 -688.682)" fill-rule="evenodd"/>
      <path id="Path_96" data-name="Path 96" d="M333.061,728.079a2.2,2.2,0,0,1,.726-.011c.008.04.019.086.026.131a.784.784,0,0,1,0,.1v4.734a.376.376,0,0,1-.038.25,4.057,4.057,0,0,1-.711,0c-.049-.272,0-.542-.029-.8-.058-.019-.07.019-.089.042-.058.069-.11.144-.169.211a1.923,1.923,0,0,1-1.334.661,2.294,2.294,0,0,1-.783-.064,1.789,1.789,0,0,1-1.364-1.463,2.5,2.5,0,0,1-.054-.513c-.005-1.044,0-2.088,0-3.131,0-.049.008-.1.012-.144a2.031,2.031,0,0,1,.746-.009.589.589,0,0,1,.022.256v2.687a3.072,3.072,0,0,0,.048.563,1.325,1.325,0,0,0,1.509,1.11,1.527,1.527,0,0,0,1.462-1.514c.005-.09,0-.181,0-.271v-2.565a.727.727,0,0,1,.022-.26Z" transform="translate(-312.429 -690.677)" fill-rule="evenodd"/>
      <path id="Path_97" data-name="Path 97" d="M1530.512,725.99c.049.266,0,.53.041.83l.18-.22a1.9,1.9,0,0,1,1.034-.675,2.3,2.3,0,0,1,1.312.047,1.726,1.726,0,0,1,1.081,1.011,2.4,2.4,0,0,1,.181.938c.005,1.026,0,2.055,0,3.083a1.847,1.847,0,0,1-.02.2,4.517,4.517,0,0,1-.726.005.5.5,0,0,1-.032-.269V728.2a2.611,2.611,0,0,0-.049-.513,1.808,1.808,0,0,0-.154-.439,1.172,1.172,0,0,0-.716-.6,1.71,1.71,0,0,0-.949-.029,1.5,1.5,0,0,0-1.137,1.31,4.3,4.3,0,0,0-.023.467v2.516c0,.089,0,.179-.006.268a.764.764,0,0,1-.373.038,1.3,1.3,0,0,1-.375-.018c-.006-.053-.016-.1-.017-.147-.029-1.026-.013-4.831.022-5.051A2.278,2.278,0,0,1,1530.512,725.99Z" transform="translate(-1451.243 -688.598)" fill-rule="evenodd"/>
      <path id="Path_98" data-name="Path 98" d="M429.49,731.05a5,5,0,0,1,.385-.542c.073.047.141.089.208.133a3.174,3.174,0,0,0,1.1.467,2.286,2.286,0,0,0,.76.032,1.137,1.137,0,0,0,.46-.164.743.743,0,0,0,.338-.439.617.617,0,0,0-.213-.705,1.69,1.69,0,0,0-.405-.228c-.237-.092-.483-.159-.724-.239s-.5-.156-.744-.256a2.313,2.313,0,0,1-.468-.268,1.09,1.09,0,0,1-.46-.91,1.379,1.379,0,0,1,.7-1.273,2.033,2.033,0,0,1,1.11-.272,3.5,3.5,0,0,1,1.711.483.876.876,0,0,1,.082.054.311.311,0,0,1,.041.049,3.06,3.06,0,0,1-.335.558c-.1-.055-.192-.106-.29-.155a2.686,2.686,0,0,0-1.346-.333,1.174,1.174,0,0,0-.563.158.685.685,0,0,0-.356.532.507.507,0,0,0,.163.468,1.461,1.461,0,0,0,.348.228c.209.093.428.165.645.24.24.083.485.152.724.24a3.2,3.2,0,0,1,.468.217,1.276,1.276,0,0,1,.6,1.626,1.388,1.388,0,0,1-.705.818,2.226,2.226,0,0,1-1.191.251,3.615,3.615,0,0,1-1.867-.63c-.034-.023-.064-.048-.1-.072Z" transform="translate(-407.533 -689.104)" fill-rule="evenodd"/>
      <path id="Path_99" data-name="Path 99" d="M2275.109,727.018a4.476,4.476,0,0,1-.344.553c-.107-.058-.207-.115-.309-.166a2.677,2.677,0,0,0-1.346-.321,1.127,1.127,0,0,0-.577.182.668.668,0,0,0-.321.553.512.512,0,0,0,.2.455,2.058,2.058,0,0,0,.4.236c.187.081.385.139.577.205.241.081.485.153.724.242a3.11,3.11,0,0,1,.446.208,1.279,1.279,0,0,1,.592,1.649,1.383,1.383,0,0,1-.72.807,2.255,2.255,0,0,1-1.194.24,3.6,3.6,0,0,1-1.822-.615.436.436,0,0,1-.186-.172c.022-.037.045-.079.073-.119.094-.133.192-.265.292-.408.073.045.133.083.192.122a3.21,3.21,0,0,0,1.125.481,2.261,2.261,0,0,0,.76.033,1.089,1.089,0,0,0,.54-.221.737.737,0,0,0,.276-.723.485.485,0,0,0-.176-.317,1.576,1.576,0,0,0-.347-.228c-.218-.094-.446-.165-.672-.24-.257-.085-.517-.159-.773-.247a2.159,2.159,0,0,1-.547-.28,1.154,1.154,0,0,1-.513-1.058,1.38,1.38,0,0,1,.764-1.21,1.75,1.75,0,0,1,.653-.21,3.378,3.378,0,0,1,2.188.513.469.469,0,0,1,.049.054Z" transform="translate(-2154.625 -689.145)" fill-rule="evenodd"/>
      <path id="Path_100" data-name="Path 100" d="M1856.1,726.952l-.339.562c-.074-.037-.139-.068-.2-.1a3.051,3.051,0,0,0-1.016-.363,1.7,1.7,0,0,0-.757.029.908.908,0,0,0-.419.247.6.6,0,0,0,.086.941,2.1,2.1,0,0,0,.458.235c.253.1.513.165.769.256.217.075.434.152.641.244a2.111,2.111,0,0,1,.385.222,1.186,1.186,0,0,1,.5,1.16,1.439,1.439,0,0,1-.922,1.237,2.243,2.243,0,0,1-1.035.185,3.621,3.621,0,0,1-1.93-.665c-.027-.019-.053-.039-.078-.06a.289.289,0,0,1-.032-.037,1.854,1.854,0,0,1,.38-.541l.2.128a3.173,3.173,0,0,0,1.106.465,2.22,2.22,0,0,0,.76.028,1.113,1.113,0,0,0,.5-.2.738.738,0,0,0,.308-.487.6.6,0,0,0-.22-.616,1.633,1.633,0,0,0-.38-.224c-.2-.081-.4-.141-.605-.206-.257-.084-.519-.156-.773-.249a2.628,2.628,0,0,1-.463-.227,1.185,1.185,0,0,1-.558-1.358,1.35,1.35,0,0,1,.677-.926,2.052,2.052,0,0,1,1.09-.267,3.5,3.5,0,0,1,1.756.5C1856.027,726.891,1856.059,726.918,1856.1,726.952Z" transform="translate(-1757.146 -689.088)" fill-rule="evenodd"/>
      <path id="Path_101" data-name="Path 101" d="M1676.989,726.9a5.6,5.6,0,0,1-.358.573c-.1-.055-.192-.106-.289-.154a2.68,2.68,0,0,0-1.372-.333,1.16,1.16,0,0,0-.56.169.685.685,0,0,0-.312.4.565.565,0,0,0,.172.626,1.266,1.266,0,0,0,.4.235c.239.088.481.166.721.249s.483.161.72.251a1.982,1.982,0,0,1,.513.291,1.167,1.167,0,0,1,.472.932,1.453,1.453,0,0,1-.919,1.44,2.294,2.294,0,0,1-1.034.187,3.614,3.614,0,0,1-1.952-.674c-.039-.027-.071-.064-.119-.1l.381-.54.216.138a3.206,3.206,0,0,0,1.1.468,2.245,2.245,0,0,0,.76.032,1.116,1.116,0,0,0,.521-.206.718.718,0,0,0,.293-.468.623.623,0,0,0-.287-.682,2.383,2.383,0,0,0-.462-.228c-.256-.092-.518-.158-.775-.244-.226-.075-.449-.156-.669-.245a1.535,1.535,0,0,1-.491-.321,1.115,1.115,0,0,1-.34-.769,1.454,1.454,0,0,1,1.175-1.52,2.6,2.6,0,0,1,1.053-.041,3.581,3.581,0,0,1,1.187.394C1676.816,726.8,1676.893,726.848,1676.989,726.9Z" transform="translate(-1587.206 -689.053)" fill-rule="evenodd"/>
      <path id="Path_102" data-name="Path 102" d="M120.812,729.9l.474.442a1.009,1.009,0,0,1-.084.119,2.733,2.733,0,1,1,.036-3.647,1.077,1.077,0,0,1-.23.274,2.677,2.677,0,0,1-.263.268c-.064-.059-.117-.111-.172-.156a4.79,4.79,0,0,0-.449-.346,1.819,1.819,0,0,0-2.468.513,2.051,2.051,0,0,0-.376,1.078,2.244,2.244,0,0,0,.2,1.127,1.891,1.891,0,0,0,2.693.833,4.411,4.411,0,0,0,.455-.336C120.684,730.027,120.734,729.974,120.812,729.9Z" transform="translate(-110.599 -688.638)" fill-rule="evenodd"/>
      <path id="Path_103" data-name="Path 103" d="M619.608,729.934a4.7,4.7,0,0,1,.476.426,2.659,2.659,0,0,1-2.774.953,2.7,2.7,0,0,1-2.023-2.452,2.742,2.742,0,0,1,1.749-2.781,2.714,2.714,0,0,1,3.008.769,1.761,1.761,0,0,1-.238.27c-.076.085-.158.166-.245.256-.05-.043-.091-.079-.133-.114a5.169,5.169,0,0,0-.5-.394,1.82,1.82,0,0,0-2.479.543,2.225,2.225,0,0,0-.034,2.4,1.888,1.888,0,0,0,2.424.691,2.436,2.436,0,0,0,.587-.4Z" transform="translate(-583.773 -688.656)" fill-rule="evenodd"/>
      <path id="Path_104" data-name="Path 104" d="M1307.349,697.155a6.039,6.039,0,0,1,.017.769c0,.256,0,.507,0,.746a.263.263,0,0,0,.227.055h1.184a.341.341,0,0,1,.244.042,4.7,4.7,0,0,1,.008.618,1.969,1.969,0,0,1-.2.021h-1.184c-.081,0-.161.006-.256.011a1.4,1.4,0,0,0-.019.151q0,1.467,0,2.934a1.182,1.182,0,0,0,.026.244.7.7,0,0,0,.663.592,1.583,1.583,0,0,0,.752-.084c.053-.02.107-.036.174-.058a2.791,2.791,0,0,1,.018.627,1.087,1.087,0,0,1-.144.085,2.051,2.051,0,0,1-1.328.081,1.174,1.174,0,0,1-.9-.975,2.747,2.747,0,0,1-.045-.513c0-.928,0-1.859,0-2.786,0-.089,0-.18,0-.276a6.708,6.708,0,0,0-.688-.046,1.455,1.455,0,0,1-.018-.641c.219-.064.449,0,.692-.047.006-.064.018-.124.019-.187V697.41c0-.08.007-.16.011-.253a3.5,3.5,0,0,1,.753,0Z" transform="translate(-1238.857 -661.359)" fill-rule="evenodd"/>
      <path id="Path_105" data-name="Path 105" d="M1933.456,698.737a4.624,4.624,0,0,0,.013-.542c0-.164,0-.329,0-.493s0-.343,0-.513a.889.889,0,0,1,.375-.035c.122,0,.244,0,.38,0a1.758,1.758,0,0,1,.022.179v1.134c0,.08.006.16.011.257.095.005.175.012.257.013h1.134a.525.525,0,0,1,.248.028,1.057,1.057,0,0,1,.02.315v.274c-.064.082-.135.064-.2.064h-1.209a.394.394,0,0,0-.25.037c0,.058-.012.122-.012.186v2.811a1.5,1.5,0,0,0,.031.321.688.688,0,0,0,.646.577,1.592,1.592,0,0,0,.753-.078c.06-.022.123-.038.192-.06.006.064.015.11.016.158v.47a1.828,1.828,0,0,1-.184.094,2.07,2.07,0,0,1-1.282.069,1.177,1.177,0,0,1-.91-.991,3.011,3.011,0,0,1-.044-.539c0-.921,0-1.841,0-2.761a.574.574,0,0,0-.03-.281c-.218-.038-.449.006-.68-.027a2.933,2.933,0,0,1-.013-.641,1.03,1.03,0,0,1,.164-.03C1933.078,698.734,1933.25,698.737,1933.456,698.737Z" transform="translate(-1833.523 -661.369)" fill-rule="evenodd"/>
      <path id="Path_106" data-name="Path 106" d="M510.569,698.728c.256-.05.478.008.7-.045a1.966,1.966,0,0,0,.025-.513c.005-.164,0-.329,0-.494s0-.344,0-.517a.741.741,0,0,1,.37-.039,1.2,1.2,0,0,1,.374.019,2.36,2.36,0,0,1,.021.513c0,.164,0,.329,0,.493s0,.343,0,.494a.21.21,0,0,0,.2.064h1.184c.081,0,.162.006.256.01a2.987,2.987,0,0,1,.013.653c-.073.007-.136.018-.2.019H512.34c-.08,0-.16.006-.252.011a1.22,1.22,0,0,0-.021.155v2.885a1.533,1.533,0,0,0,.024.245.705.705,0,0,0,.674.641,1.575,1.575,0,0,0,.752-.087c.052-.02.106-.035.174-.058a1.014,1.014,0,0,1,.023.324v.283a.6.6,0,0,1-.315.164,2.091,2.091,0,0,1-1.072.049,1.223,1.223,0,0,1-1.015-1.123,3.774,3.774,0,0,1-.018-.419V699.7c0-.089,0-.178-.006-.267a.738.738,0,0,0-.351-.038c-.114-.006-.227,0-.351-.005a3.516,3.516,0,0,1-.019-.658Z" transform="translate(-484.439 -661.339)" fill-rule="evenodd"/>
      <path id="Path_107" data-name="Path 107" d="M585.767,728.089a2,2,0,0,1,.733-.01l.016.017a.05.05,0,0,1,.008.023q0,2.466.007,4.932a1.7,1.7,0,0,1-.006.172.251.251,0,0,1-.023.058,5.272,5.272,0,0,1-.717.019.631.631,0,0,1-.033-.287q0-1.048,0-2.1v-2.565A.9.9,0,0,1,585.767,728.089Z" transform="translate(-555.761 -690.684)" fill-rule="evenodd"/>
      <path id="Path_108" data-name="Path 108" d="M1278.784,728.087a2.507,2.507,0,0,1,.733.009c.005.043.015.09.016.138.03,1.13.013,4.82-.022,5.048a2.083,2.083,0,0,1-.736,0q-.013-.068-.019-.137C1278.719,732.138,1278.739,728.317,1278.784,728.087Z" transform="translate(-1213.136 -690.697)" fill-rule="evenodd"/>
      <path id="Path_109" data-name="Path 109" d="M1382.106,733.229q-.064.011-.128.015h-.6a1.1,1.1,0,0,1-.027-.151c0-.123,0-.247,0-.37v-4.686a.778.778,0,0,1,.394-.04.885.885,0,0,1,.358.024c.04.228.059,4.023.026,5.059a1.435,1.435,0,0,1-.023.149Z" transform="translate(-1310.474 -690.628)" fill-rule="evenodd"/>
      <path id="Path_110" data-name="Path 110" d="M585.635,689.05c.017.274.007.534.008.8a1.08,1.08,0,0,1-.441.033,1.964,1.964,0,0,1-.411-.011,2.629,2.629,0,0,1-.01-.8,2.98,2.98,0,0,1,.854-.016Z" transform="translate(-554.818 -653.667)" fill-rule="evenodd"/>
      <path id="Path_111" data-name="Path 111" d="M1380.4,689.9c-.011-.3-.005-.555-.005-.828a6.773,6.773,0,0,1,.842-.017,2.225,2.225,0,0,1,.029.824,1.371,1.371,0,0,1-.428.023C1380.7,689.906,1380.557,689.9,1380.4,689.9Z" transform="translate(-1309.565 -653.687)" fill-rule="evenodd"/>
      <path id="Path_112" data-name="Path 112" d="M1278.063,689.26h.816a2.225,2.225,0,0,1,.03.814,1.088,1.088,0,0,1-.43.028,1.81,1.81,0,0,1-.412-.012A2.63,2.63,0,0,1,1278.063,689.26Z" transform="translate(-1212.469 -653.887)" fill-rule="evenodd"/>
      <path id="Path_124" data-name="Path 124" d="M2296.455,22.42h-.585c-.03-.049-.064-.095-.089-.145q-.107-.208-.206-.419a.436.436,0,0,0-.531-.268c-.053.263,0,.535-.035.808a1.365,1.365,0,0,1-.541.02.426.426,0,0,1-.023-.1q0-1.009,0-2.018a.8.8,0,0,1,.015-.108c.052-.005.1-.013.146-.014.256,0,.508-.006.763,0a1.829,1.829,0,0,1,.388.051.509.509,0,0,1,.421.532.54.54,0,0,1-.287.554,1.034,1.034,0,0,0-.09.064.916.916,0,0,1,.375.449C2296.263,22.018,2296.365,22.2,2296.455,22.42Zm-1.422-1.25c.128,0,.226,0,.321,0a.233.233,0,0,0,.228-.155.321.321,0,0,0-.042-.325.208.208,0,0,0-.078-.058.7.7,0,0,0-.435.012,3.239,3.239,0,0,0,.006.526Z" transform="translate(-2176.646 -19.19)" fill-rule="evenodd"/>
      <path id="Path_125" data-name="Path 125" d="M2305.683,29a3.247,3.247,0,0,1,0-.527.7.7,0,0,1,.435-.012.2.2,0,0,1,.079.058.32.32,0,0,1,.042.325.233.233,0,0,1-.228.155C2305.907,29,2305.8,29,2305.683,29Z" transform="translate(-2187.292 -27.015)" fill="#fff" fill-rule="evenodd"/>
    </g>
    <path id="The_Art_of_Designing_Silence" data-name="The Art of Designing Silence" d="M-36.855-9.345h2.865V0h1.365V-9.345h2.85v-1.11h-7.08ZM-28.095,0h1.365V-4.545c0-1.77.96-2.64,2.355-2.64s2.3.855,2.3,2.535V0h1.35V-4.845A3.171,3.171,0,0,0-24.015-8.37,3.093,3.093,0,0,0-26.73-7.035V-11.1h-1.365ZM-15-7.2a2.412,2.412,0,0,1,2.6,2.49h-5.19A2.546,2.546,0,0,1-15-7.2Zm3.84,4.665h-1.47A2.259,2.259,0,0,1-14.94-1.02,2.584,2.584,0,0,1-17.61-3.6h6.57a7.4,7.4,0,0,0,.045-.825,3.768,3.768,0,0,0-3.945-3.93A3.911,3.911,0,0,0-19-4.125,3.96,3.96,0,0,0-14.94.135,3.7,3.7,0,0,0-11.16-2.535ZM1.83,0H3.27L-.495-10.4H-2.07L-5.85,0h1.44l.84-2.325H.99ZM.6-3.435H-3.18l1.89-5.28ZM6.285-4.47c0-1.9.99-2.49,2.3-2.49h.36V-8.37A2.768,2.768,0,0,0,6.285-6.885V-8.22H4.92V0H6.285Zm4.53,2.22C10.815-.6,11.64,0,13.1,0h1.23V-1.155H13.32c-.84,0-1.14-.285-1.14-1.095V-7.1h2.145V-8.22H12.18v-2.07H10.815v2.07H9.75V-7.1h1.065ZM27.78-4.125a4.012,4.012,0,0,0-4.155-4.23,4.02,4.02,0,0,0-4.155,4.23A3.991,3.991,0,0,0,23.565.135,4.076,4.076,0,0,0,27.78-4.125Zm-6.915,0A2.725,2.725,0,0,1,23.61-7.17a2.762,2.762,0,0,1,2.775,3.045,2.791,2.791,0,0,1-2.82,3.06C22.14-1.065,20.865-2.04,20.865-4.125ZM29.835,0H31.2V-7.1h1.725V-8.22H31.2v-.585c0-1.065.405-1.515,1.635-1.515v-1.14c-2.1,0-3,.825-3,2.655v.585H28.77V-7.1h1.065Zm-91.47,12.545H-64.89V23h3.255c3.435,0,5.55-1.965,5.55-5.2S-58.2,12.545-61.635,12.545Zm-1.89,9.33v-8.22h1.89A3.771,3.771,0,0,1-57.48,17.8c0,2.55-1.425,4.08-4.155,4.08ZM-50.79,15.8a2.412,2.412,0,0,1,2.595,2.49h-5.19A2.546,2.546,0,0,1-50.79,15.8Zm3.84,4.665h-1.47a2.259,2.259,0,0,1-2.31,1.515A2.584,2.584,0,0,1-53.4,19.4h6.57a7.4,7.4,0,0,0,.045-.825,3.768,3.768,0,0,0-3.945-3.93,3.911,3.911,0,0,0-4.065,4.23,3.96,3.96,0,0,0,4.065,4.26A3.7,3.7,0,0,0-46.95,20.465Zm7.875.3c-.06-2.94-4.83-1.875-4.83-3.825,0-.66.6-1.14,1.6-1.14a1.581,1.581,0,0,1,1.785,1.425h1.365c-.09-1.605-1.29-2.58-3.105-2.58S-45.27,15.68-45.27,16.94c0,3.06,4.86,2,4.86,3.825,0,.675-.6,1.215-1.68,1.215-1.155,0-1.86-.6-1.935-1.4h-1.41c.09,1.5,1.44,2.55,3.36,2.55C-40.26,23.135-39.075,22.115-39.075,20.765ZM-37.155,23h1.365V14.78h-1.365Zm.705-9.555a.91.91,0,0,0,.9-.93.91.91,0,0,0-.9-.93.916.916,0,0,0-.93.93A.916.916,0,0,0-36.45,13.445Zm2.475,5.415a3.956,3.956,0,0,0,3.9,4.275,3.435,3.435,0,0,0,3.06-1.68V23.18a2.44,2.44,0,0,1-2.55,2.685A2.552,2.552,0,0,1-32.19,24.2h-1.35c.27,1.755,1.815,2.85,3.975,2.85a3.685,3.685,0,0,0,3.93-3.87v-8.4h-1.38v1.5a3.388,3.388,0,0,0-3.06-1.635A3.9,3.9,0,0,0-33.975,18.86Zm6.96.015a2.813,2.813,0,0,1-2.79,3.06A2.815,2.815,0,0,1-32.58,18.86,2.775,2.775,0,0,1-29.8,15.83,2.816,2.816,0,0,1-27.015,18.875ZM-17.31,23h1.35V18.155a3.189,3.189,0,0,0-3.36-3.525,3.037,3.037,0,0,0-2.64,1.32V14.78h-1.365V23h1.365V18.455c0-1.77.96-2.64,2.355-2.64s2.3.855,2.3,2.535Zm3.585,0h1.365V14.78h-1.365Zm.705-9.555a.91.91,0,0,0,.9-.93.91.91,0,0,0-.9-.93.916.916,0,0,0-.93.93A.916.916,0,0,0-13.02,13.445Zm9,9.555h1.35V18.155A3.189,3.189,0,0,0-6.03,14.63a3.037,3.037,0,0,0-2.64,1.32V14.78h-1.365V23H-8.67V18.455c0-1.77.96-2.64,2.355-2.64,1.38,0,2.295.855,2.295,2.535Zm3.075-4.14a3.956,3.956,0,0,0,3.9,4.275,3.435,3.435,0,0,0,3.06-1.68V23.18a2.44,2.44,0,0,1-2.55,2.685A2.552,2.552,0,0,1,.84,24.2H-.51c.27,1.755,1.815,2.85,3.975,2.85a3.685,3.685,0,0,0,3.93-3.87v-8.4H6.015v1.5a3.388,3.388,0,0,0-3.06-1.635A3.9,3.9,0,0,0-.945,18.86Zm6.96.015a2.813,2.813,0,0,1-2.79,3.06A2.815,2.815,0,0,1,.45,18.86a2.775,2.775,0,0,1,2.775-3.03A2.816,2.816,0,0,1,6.015,18.875ZM20.5,20.15c0-3.87-5.64-2.19-5.64-4.89,0-1.125.885-1.71,2.01-1.68A1.894,1.894,0,0,1,18.9,15.095h1.5c-.165-1.59-1.47-2.685-3.465-2.685-2.07,0-3.465,1.17-3.465,2.9,0,3.885,5.655,2.085,5.655,4.9,0,.99-.78,1.74-2.1,1.74a1.937,1.937,0,0,1-2.16-1.74H13.41c.03,1.725,1.515,2.9,3.615,2.9C19.29,23.1,20.5,21.635,20.5,20.15ZM22.515,23H23.88V14.78H22.515Zm.7-9.555a.93.93,0,1,0-.93-.93A.91.91,0,0,0,23.22,13.445ZM26.2,23H27.57V11.9H26.2Zm7.185-7.2a2.412,2.412,0,0,1,2.595,2.49h-5.19A2.546,2.546,0,0,1,33.39,15.8Zm3.84,4.665H35.76a2.259,2.259,0,0,1-2.31,1.515,2.584,2.584,0,0,1-2.67-2.58h6.57a7.4,7.4,0,0,0,.045-.825,3.768,3.768,0,0,0-3.945-3.93,3.911,3.911,0,0,0-4.065,4.23,3.96,3.96,0,0,0,4.065,4.26A3.7,3.7,0,0,0,37.23,20.465ZM45.21,23h1.35V18.155A3.189,3.189,0,0,0,43.2,14.63a3.037,3.037,0,0,0-2.64,1.32V14.78H39.195V23H40.56V18.455c0-1.77.96-2.64,2.355-2.64s2.295.855,2.295,2.535Zm3.075-4.125a3.915,3.915,0,0,0,4.005,4.26,3.656,3.656,0,0,0,3.795-2.775h-1.47a2.205,2.205,0,0,1-2.325,1.62c-1.5,0-2.61-1.065-2.61-3.1,0-2.01,1.11-3.075,2.61-3.075a2.239,2.239,0,0,1,2.325,1.62h1.47a3.572,3.572,0,0,0-3.795-2.775A3.905,3.905,0,0,0,48.285,18.875ZM61.395,15.8a2.412,2.412,0,0,1,2.595,2.49H58.8A2.546,2.546,0,0,1,61.395,15.8Zm3.84,4.665h-1.47a2.259,2.259,0,0,1-2.31,1.515,2.584,2.584,0,0,1-2.67-2.58h6.57a7.4,7.4,0,0,0,.045-.825,3.768,3.768,0,0,0-3.945-3.93,3.911,3.911,0,0,0-4.065,4.23,3.96,3.96,0,0,0,4.065,4.26A3.7,3.7,0,0,0,65.235,20.465Z" transform="translate(13208.727 -2872.333)" fill="#333"/>
  </g>
</svg>
