<svg xmlns="http://www.w3.org/2000/svg" width="160" height="160" viewBox="0 0 160 160">
  <g id="true" transform="translate(-11756 2986)">
    <rect id="Rectangle_461" data-name="Rectangle 461" width="160" height="160" transform="translate(11756 -2986)" fill="none"/>
    <g id="True_Design-01" data-name="True Design-01" transform="translate(11779 -2956.386)">
      <path id="Path_127" data-name="Path 127" d="M19.544,29.787h10.72V21.921H19.544V9.79L10.81,14.874V48.06a10.18,10.18,0,0,0,2.73,7A13.277,13.277,0,0,0,20,58.8a25.283,25.283,0,0,0,6.687.8h1.871v-9l-1.871-.085c-4.907,0-6.471-1.81-6.687-2.208a3.462,3.462,0,0,1-.459-1.679V29.787Z" transform="translate(-10.81 -9.79)" fill="#120c14"/>
      <path id="Path_128" data-name="Path 128" d="M52.861,32.765V25.381H44.12V63.076h8.734V38.423a7.252,7.252,0,0,1,.853-2.255,6.664,6.664,0,0,1,1.081-1.426,7.046,7.046,0,0,1,8.626-1.135V24.66c-10.489,0-10.551,8.1-10.551,8.1" transform="translate(-18.579 -13.258)" fill="#120c14"/>
      <path id="Path_129" data-name="Path 129" d="M94.286,25.61V50.431a5.011,5.011,0,0,1-10.022,0V25.61H75.53V51.757c0,1.181,0,11.885,9.845,11.885,6.441,0,8.91-6.541,8.91-6.541v5.743h8.734V25.61Z" transform="translate(-25.904 -13.479)" fill="#120c14"/>
      <path id="Path_130" data-name="Path 130" d="M127.573,33.444a2.445,2.445,0,0,1,.2-.2,8.089,8.089,0,0,1,10.827,0c.069.066.131.131.192.2a4.506,4.506,0,0,1,.459.583c1.465,1.933,1.5,4.141,1.6,6.027H125.5c.1-1.91.123-4.067,1.61-6.027a5.859,5.859,0,0,1,.459-.583m21.811,8.49a18.9,18.9,0,0,0-3.65-11.977,11.384,11.384,0,0,0-.935-1.173c-.123-.138-.262-.276-.394-.407-4.669-4.976-17.153-4.976-21.822,0-.138.131-.268.268-.394.407a11.385,11.385,0,0,0-.935,1.173c-3.477,4.585-4.11,9.715-4.118,13.963h0v.108l.023,1.219c.015.414.131,1.265.131,1.265a20.619,20.619,0,0,0,3.964,10.712,11.531,11.531,0,0,0,.935,1.166c.131.138.262.276.394.407,6.111,6.088,18.372,5.874,24.046.222.131-.138-5.122-5.544-5.122-5.544-.062.077-.138.138-.207.215-3.458,3.443-10.382,3.1-13.717-.222-.066-.069-.138-.138-.207-.215-.184-.207-.345-.414-.491-.613-1.5-1.986-1.588-4.164-1.71-6.126h23.847c-.008,0,.345-3.428.36-4.578" transform="translate(-35.605 -13.255)" fill="#120c14"/>
    </g>
    <text id="Extraordinary_Everyday" data-name="Extraordinary Everyday" transform="translate(11836 -2875.5)" fill="#333" font-size="15" font-family="Poppins-Regular, Poppins"><tspan x="-51.442" y="0">Extraordinary </tspan><tspan x="-34.087" y="23">Everyday</tspan></text>
  </g>
</svg>
