<svg xmlns="http://www.w3.org/2000/svg" width="160" height="160" viewBox="0 0 160 160">
  <g id="true" transform="translate(-11756 2986)">
    <rect id="Rectangle_461" data-name="Rectangle 461" width="160" height="160" transform="translate(11756 -2986)" fill="none"/>
    <g id="True_Design-01" data-name="True Design-01" transform="translate(11779 -2956.386)">
      <path id="Path_127" data-name="Path 127" d="M19.544,29.787h10.72V21.921H19.544V9.79L10.81,14.874V48.06a10.18,10.18,0,0,0,2.73,7A13.277,13.277,0,0,0,20,58.8a25.283,25.283,0,0,0,6.687.8h1.871v-9l-1.871-.085c-4.907,0-6.471-1.81-6.687-2.208a3.462,3.462,0,0,1-.459-1.679V29.787Z" transform="translate(-10.81 -9.79)" fill="#120c14"/>
      <path id="Path_128" data-name="Path 128" d="M52.861,32.765V25.381H44.12V63.076h8.734V38.423a7.252,7.252,0,0,1,.853-2.255,6.664,6.664,0,0,1,1.081-1.426,7.046,7.046,0,0,1,8.626-1.135V24.66c-10.489,0-10.551,8.1-10.551,8.1" transform="translate(-18.579 -13.258)" fill="#120c14"/>
      <path id="Path_129" data-name="Path 129" d="M94.286,25.61V50.431a5.011,5.011,0,0,1-10.022,0V25.61H75.53V51.757c0,1.181,0,11.885,9.845,11.885,6.441,0,8.91-6.541,8.91-6.541v5.743h8.734V25.61Z" transform="translate(-25.904 -13.479)" fill="#120c14"/>
      <path id="Path_130" data-name="Path 130" d="M127.573,33.444a2.445,2.445,0,0,1,.2-.2,8.089,8.089,0,0,1,10.827,0c.069.066.131.131.192.2a4.506,4.506,0,0,1,.459.583c1.465,1.933,1.5,4.141,1.6,6.027H125.5c.1-1.91.123-4.067,1.61-6.027a5.859,5.859,0,0,1,.459-.583m21.811,8.49a18.9,18.9,0,0,0-3.65-11.977,11.384,11.384,0,0,0-.935-1.173c-.123-.138-.262-.276-.394-.407-4.669-4.976-17.153-4.976-21.822,0-.138.131-.268.268-.394.407a11.385,11.385,0,0,0-.935,1.173c-3.477,4.585-4.11,9.715-4.118,13.963h0v.108l.023,1.219c.015.414.131,1.265.131,1.265a20.619,20.619,0,0,0,3.964,10.712,11.531,11.531,0,0,0,.935,1.166c.131.138.262.276.394.407,6.111,6.088,18.372,5.874,24.046.222.131-.138-5.122-5.544-5.122-5.544-.062.077-.138.138-.207.215-3.458,3.443-10.382,3.1-13.717-.222-.066-.069-.138-.138-.207-.215-.184-.207-.345-.414-.491-.613-1.5-1.986-1.588-4.164-1.71-6.126h23.847c-.008,0,.345-3.428.36-4.578" transform="translate(-35.605 -13.255)" fill="#120c14"/>
    </g>
    <path id="Extraordinary_Everyday" data-name="Extraordinary Everyday" d="M-44.662-10.47h-5.625V0h5.625V-1.125h-4.26v-3.6h3.81V-5.85h-3.81V-9.345h4.26ZM-38.3,0h1.545l-2.655-4.155,2.64-4.065H-38.2l-1.86,3.045-1.95-3.045h-1.545L-40.9-4.08-43.552,0h1.425l1.875-3.06Zm3.195-2.25c0,1.65.825,2.25,2.28,2.25h1.23V-1.155H-32.6c-.84,0-1.14-.285-1.14-1.095V-7.1H-31.6V-8.22h-2.145v-2.07h-1.365v2.07h-1.065V-7.1h1.065Zm6.525-2.22c0-1.9.99-2.49,2.3-2.49h.36V-8.37a2.768,2.768,0,0,0-2.655,1.485V-8.22h-1.365V0h1.365Zm3.72.33A3.953,3.953,0,0,0-20.977.135,3.433,3.433,0,0,0-17.9-1.53V0h1.38V-8.22H-17.9v1.5a3.411,3.411,0,0,0-3.06-1.635A3.9,3.9,0,0,0-24.862-4.14Zm6.96.015a2.813,2.813,0,0,1-2.79,3.06A2.815,2.815,0,0,1-23.467-4.14a2.775,2.775,0,0,1,2.775-3.03A2.816,2.816,0,0,1-17.9-4.125Zm11.49,0a4.012,4.012,0,0,0-4.155-4.23,4.02,4.02,0,0,0-4.155,4.23A3.991,3.991,0,0,0-10.628.135,4.076,4.076,0,0,0-6.413-4.125Zm-6.915,0A2.725,2.725,0,0,1-10.583-7.17,2.762,2.762,0,0,1-7.808-4.125a2.791,2.791,0,0,1-2.82,3.06C-12.052-1.065-13.328-2.04-13.328-4.125Zm10.08-.345c0-1.9.99-2.49,2.295-2.49h.36V-8.37A2.768,2.768,0,0,0-3.248-6.885V-8.22H-4.613V0h1.365Zm3.72.33A3.956,3.956,0,0,0,4.372.135a3.376,3.376,0,0,0,3.06-1.68V0h1.38V-11.1H7.432v4.35A3.585,3.585,0,0,0,4.387-8.355,3.9,3.9,0,0,0,.472-4.14Zm6.96.015a2.813,2.813,0,0,1-2.79,3.06A2.815,2.815,0,0,1,1.867-4.14,2.775,2.775,0,0,1,4.642-7.17,2.816,2.816,0,0,1,7.432-4.125ZM11.122,0h1.365V-8.22H11.122Zm.705-9.555a.91.91,0,0,0,.9-.93.91.91,0,0,0-.9-.93.916.916,0,0,0-.93.93A.916.916,0,0,0,11.827-9.555Zm9,9.555h1.35V-4.845a3.189,3.189,0,0,0-3.36-3.525,3.037,3.037,0,0,0-2.64,1.32V-8.22H14.813V0h1.365V-4.545c0-1.77.96-2.64,2.355-2.64s2.3.855,2.3,2.535ZM23.9-4.14A3.953,3.953,0,0,0,27.788.135,3.433,3.433,0,0,0,30.862-1.53V0h1.38V-8.22h-1.38v1.5A3.411,3.411,0,0,0,27.8-8.355,3.9,3.9,0,0,0,23.9-4.14Zm6.96.015a2.813,2.813,0,0,1-2.79,3.06A2.815,2.815,0,0,1,25.3-4.14a2.775,2.775,0,0,1,2.775-3.03A2.816,2.816,0,0,1,30.862-4.125Zm5.055-.345c0-1.9.99-2.49,2.295-2.49h.36V-8.37a2.768,2.768,0,0,0-2.655,1.485V-8.22H34.552V0h1.365Zm7.35,2.91-2.58-6.66H39.173L42.487-.09l-1.62,3.96h1.41l4.95-12.09h-1.41ZM-27.307,12.53h-5.625V23h5.625V21.875h-4.26v-3.6h3.81V17.15h-3.81V13.655h4.26Zm1.095,2.25L-22.987,23h1.59l3.225-8.22h-1.455l-2.55,6.96-2.565-6.96Zm12.885,1.02a2.412,2.412,0,0,1,2.6,2.49h-5.19A2.546,2.546,0,0,1-13.327,15.8Zm3.84,4.665h-1.47a2.259,2.259,0,0,1-2.31,1.515,2.584,2.584,0,0,1-2.67-2.58h6.57a7.4,7.4,0,0,0,.045-.825,3.768,3.768,0,0,0-3.945-3.93,3.911,3.911,0,0,0-4.065,4.23,3.96,3.96,0,0,0,4.065,4.26A3.7,3.7,0,0,0-9.487,20.465Zm3.33-1.935c0-1.9.99-2.49,2.295-2.49h.36V14.63a2.768,2.768,0,0,0-2.655,1.485V14.78H-7.522V23h1.365Zm7.35,2.91-2.58-6.66H-2.9L.413,22.91l-1.62,3.96H.2l4.95-12.09H3.743Zm4.815-2.58a3.956,3.956,0,0,0,3.9,4.275,3.376,3.376,0,0,0,3.06-1.68V23h1.38V11.9h-1.38v4.35a3.585,3.585,0,0,0-3.045-1.605A3.9,3.9,0,0,0,6.007,18.86Zm6.96.015A2.8,2.8,0,1,1,7.4,18.86a2.775,2.775,0,0,1,2.775-3.03A2.816,2.816,0,0,1,12.967,18.875Zm3.18-.015a3.953,3.953,0,0,0,3.885,4.275,3.433,3.433,0,0,0,3.075-1.665V23h1.38V14.78h-1.38v1.5a3.411,3.411,0,0,0-3.06-1.635A3.9,3.9,0,0,0,16.147,18.86Zm6.96.015a2.8,2.8,0,1,1-5.565-.015,2.775,2.775,0,0,1,2.775-3.03A2.816,2.816,0,0,1,23.107,18.875Zm6.81,2.565-2.58-6.66H25.822l3.315,8.13-1.62,3.96h1.41l4.95-12.09h-1.41Z" transform="translate(11836 -2875.5)" fill="#333"/>
  </g>
</svg>
