<svg xmlns="http://www.w3.org/2000/svg" width="192" height="192" viewBox="0 0 192 192">
  <g id="true" transform="translate(-11756 2986)">
    <rect id="Rectangle_461" data-name="Rectangle 461" width="192" height="192" transform="translate(11756 -2986)" fill="none"/>
    <g id="True_Design-01" data-name="True Design-01" transform="translate(11765.12 -2928.4)">
      <path id="Path_127" data-name="Path 127" d="M24.124,40.274H40.465V28.282H24.124V9.79L10.81,17.54V68.129A15.519,15.519,0,0,0,14.971,78.8a20.24,20.24,0,0,0,9.854,5.7,38.542,38.542,0,0,0,10.193,1.227H37.87V72.01l-2.852-.129c-7.481,0-9.865-2.759-10.193-3.366a5.277,5.277,0,0,1-.7-2.56V40.274Z" transform="translate(-10.81 -9.79)" fill="#120c14"/>
      <path id="Path_128" data-name="Path 128" d="M57.445,37.015V25.759H44.12V83.221H57.434V45.641a11.055,11.055,0,0,1,1.3-3.437,10.158,10.158,0,0,1,1.648-2.174c3.46-3.472,9.234-4.36,13.15-1.73V24.66c-15.99,0-16.084,12.355-16.084,12.355" transform="translate(-5.185 -7.279)" fill="#120c14"/>
      <path id="Path_129" data-name="Path 129" d="M104.121,25.61V63.447a7.639,7.639,0,1,1-15.277,0V25.61H75.53V65.469c0,1.8,0,18.118,15.008,18.118,9.819,0,13.582-9.971,13.582-9.971v8.755h13.314V25.61Z" transform="translate(0.12 -7.118)" fill="#120c14"/>
      <path id="Path_130" data-name="Path 130" d="M133.048,38.058a3.733,3.733,0,0,1,.3-.3,10.352,10.352,0,0,1,8.252-3.168,10.3,10.3,0,0,1,8.252,3.168c.105.105.2.2.292.3a6.866,6.866,0,0,1,.7.888c2.233,2.946,2.279,6.312,2.443,9.187h-23.4c.152-2.911.187-6.2,2.455-9.187a8.935,8.935,0,0,1,.7-.888M166.291,51a28.814,28.814,0,0,0-5.564-18.258,17.353,17.353,0,0,0-1.426-1.788c-.187-.21-.4-.421-.6-.62-7.118-7.586-26.148-7.586-33.266,0-.21.2-.409.409-.6.62a17.353,17.353,0,0,0-1.426,1.788c-5.3,6.99-6.265,14.81-6.277,21.285h0v.164l.035,1.859c.023.631.2,1.929.2,1.929a31.431,31.431,0,0,0,6.043,16.329,17.58,17.58,0,0,0,1.426,1.777c.2.21.4.421.6.62,9.316,9.281,28.006,8.954,36.656.339.2-.21-7.808-8.451-7.808-8.451-.094.117-.21.21-.316.327-5.272,5.248-15.827,4.722-20.911-.339-.105-.105-.21-.21-.316-.327-.281-.316-.526-.631-.748-.935-2.291-3.027-2.42-6.347-2.607-9.339h36.352c-.012,0,.526-5.225.549-6.978" transform="translate(7.147 -7.282)" fill="#120c14"/>
    </g>
  </g>
</svg>
