<svg width="17" height="17" viewBox="0 0 17 17" fill="none" xmlns="http://www.w3.org/2000/svg">
<path fill-rule="evenodd" clip-rule="evenodd" d="M8.01666 1.68989C9.08413 1.64984 10.1531 1.67957 11.2167 1.77889C11.7326 1.77255 12.2451 1.86312 12.7277 2.04589C13.3934 2.35614 13.9284 2.89116 14.2387 3.55689C14.4214 4.03941 14.512 4.55195 14.5057 5.06789C14.5057 5.86789 14.5947 6.13489 14.5947 8.26789C14.6347 9.33535 14.605 10.4043 14.5057 11.4679C14.512 11.9838 14.4214 12.4964 14.2387 12.9789C13.9284 13.6446 13.3934 14.1796 12.7277 14.4899C12.2451 14.6726 11.7326 14.7632 11.2167 14.7569C10.4167 14.7569 10.1497 14.8459 8.01666 14.8459C6.9492 14.8859 5.88026 14.8562 4.81666 14.7569C4.30073 14.7632 3.78819 14.6726 3.30566 14.4899C2.63994 14.1796 2.10492 13.6446 1.79466 12.9789C1.6119 12.4964 1.52133 11.9838 1.52766 11.4679C1.52766 10.6679 1.43866 10.4009 1.43866 8.26789C1.39862 7.20042 1.42835 6.13148 1.52766 5.06789C1.52133 4.55195 1.6119 4.03941 1.79466 3.55689C1.94975 3.22723 2.16012 2.92655 2.41666 2.66789C2.62501 2.35689 2.9421 2.13503 3.30566 2.04589C3.78819 1.86312 4.30073 1.77255 4.81666 1.77889C5.88026 1.67957 6.9492 1.64984 8.01666 1.68989V1.68989ZM8.01666 0.267885C6.91955 0.228784 5.82106 0.258509 4.72766 0.356885C4.05983 0.35528 3.3973 0.475585 2.77266 0.711885C2.23328 0.887869 1.74511 1.19306 1.35066 1.60089C0.942343 1.9955 0.63679 2.48404 0.460664 3.02389C0.18183 3.63596 0.0598249 4.30785 0.105664 4.97889C0.00728829 6.07228 -0.0224367 7.17077 0.0166645 8.26789C-0.0224367 9.365 0.00728829 10.4635 0.105664 11.5569C0.104257 12.2251 0.224903 12.888 0.461664 13.5129C0.637648 14.0523 0.942843 14.5404 1.35066 14.9349C1.74511 15.3427 2.23328 15.6479 2.77266 15.8239C3.39755 16.0606 4.06043 16.1813 4.72866 16.1799C5.82175 16.2779 6.9199 16.3073 8.01666 16.2679C9.11378 16.307 10.2123 16.2773 11.3057 16.1789C11.9739 16.1803 12.6368 16.0596 13.2617 15.8229C13.7971 15.6384 14.2834 15.3345 14.6838 14.9341C15.0842 14.5336 15.3882 14.0473 15.5727 13.5119C15.8094 12.887 15.9301 12.2241 15.9287 11.5559C15.9277 10.6679 16.0167 10.4009 16.0167 8.26789C16.0558 7.17077 16.026 6.07228 15.9277 4.97889C15.9291 4.31065 15.8084 3.64777 15.5717 3.02289C15.3957 2.4835 15.0905 1.99533 14.6827 1.60089C14.2882 1.19306 13.8 0.887869 13.2607 0.711885C12.636 0.475585 11.9735 0.35528 11.3057 0.356885C10.2123 0.258509 9.11378 0.228784 8.01666 0.267885V0.267885ZM8.01666 4.17889C7.47723 4.16996 6.94151 4.26963 6.44137 4.47196C5.94124 4.67429 5.48691 4.97515 5.10542 5.35664C4.72393 5.73814 4.42307 6.19246 4.22074 6.6926C4.01841 7.19273 3.91874 7.72845 3.92766 8.26789C3.92766 9.07661 4.16748 9.86718 4.61679 10.5396C5.06609 11.212 5.7047 11.7361 6.45187 12.0456C7.19904 12.3551 8.0212 12.4361 8.81439 12.2783C9.60758 12.1205 10.3362 11.7311 10.908 11.1592C11.4799 10.5874 11.8693 9.8588 12.0271 9.06561C12.1849 8.27242 12.1039 7.45026 11.7944 6.70309C11.4849 5.95593 10.9608 5.31731 10.2884 4.86801C9.61596 4.4187 8.82539 4.17889 8.01666 4.17889V4.17889ZM8.01666 10.9349C7.66464 10.9414 7.31491 10.8769 6.98839 10.7451C6.66187 10.6134 6.36527 10.4172 6.1163 10.1682C5.86734 9.91928 5.67113 9.62268 5.53941 9.29616C5.40769 8.96964 5.34315 8.61991 5.34966 8.26789C5.34315 7.91586 5.40769 7.56613 5.53941 7.23961C5.67113 6.91309 5.86734 6.61649 6.1163 6.36752C6.36527 6.11856 6.66187 5.92235 6.98839 5.79063C7.31491 5.65891 7.66464 5.59437 8.01666 5.60089C8.36869 5.59437 8.71842 5.65891 9.04494 5.79063C9.37145 5.92235 9.66806 6.11856 9.91703 6.36752C10.166 6.61649 10.3622 6.91309 10.4939 7.23961C10.6256 7.56613 10.6902 7.91586 10.6837 8.26789C10.6902 8.61991 10.6256 8.96964 10.4939 9.29616C10.3622 9.62268 10.166 9.91928 9.91703 10.1682C9.66806 10.4172 9.37145 10.6134 9.04494 10.7451C8.71842 10.8769 8.36869 10.9414 8.01666 10.9349V10.9349ZM12.2837 3.02389C12.0902 3.02389 11.9011 3.08124 11.7403 3.18871C11.5795 3.29617 11.4541 3.44891 11.3801 3.62762C11.3061 3.80633 11.2867 4.00297 11.3245 4.19268C11.3622 4.3824 11.4553 4.55666 11.5921 4.69344C11.7289 4.83021 11.9032 4.92336 12.0929 4.96109C12.2826 4.99883 12.4792 4.97946 12.6579 4.90544C12.8366 4.83142 12.9894 4.70606 13.0968 4.54523C13.2043 4.3844 13.2617 4.19532 13.2617 4.00189C13.2596 3.74315 13.1559 3.4956 12.9729 3.31265C12.7899 3.12969 12.5424 3.02598 12.2837 3.02389" fill="#EC1651"/>
</svg>
