<svg width="110" height="45" viewBox="0 0 110 45" fill="none" xmlns="http://www.w3.org/2000/svg">
<path d="M99.5452 30.8102V26.7871C98.7855 27.6279 96.8238 28.2485 93.6601 28.649L86.874 29.4891C84.9762 29.6372 83.1322 30.1901 81.466 31.1106C80.89 31.4961 80.4259 32.0268 80.1207 32.6491C79.8155 33.2714 79.6799 33.9633 79.7277 34.6548C79.7246 35.378 79.9082 36.0899 80.2608 36.7214C80.6134 37.353 81.1229 37.8828 81.7403 38.2598C83.33 39.2475 85.1823 39.7287 87.0517 39.6398C90.1907 39.7389 93.2839 38.8683 95.9102 37.1463C97.0096 36.4919 97.9214 35.5648 98.5577 34.4549C99.194 33.3449 99.5331 32.0896 99.5423 30.8102H99.5452ZM80.7475 21.6214H75.101C75.822 14.3335 81.0272 10.6895 90.7166 10.6895C94.0278 10.5642 97.327 11.1572 100.387 12.4278C103.591 13.9086 105.193 16.3113 105.193 19.6359V36.5765C105.14 36.9439 105.173 37.3186 105.291 37.6707C105.408 38.0229 105.605 38.3429 105.868 38.6054C106.13 38.8678 106.45 39.0655 106.802 39.1827C107.155 39.2999 107.529 39.3334 107.897 39.2805C108.604 39.2688 109.308 39.1883 110 39.0401V43.2448C108.451 43.4934 106.884 43.6139 105.315 43.605C102.072 43.605 100.269 42.1436 99.9073 39.2207C98.4147 41.0103 96.4321 42.3253 94.2028 43.0043C91.737 43.8893 89.1355 44.3364 86.5157 44.3254C81.8307 44.3254 78.3863 43.2442 76.1826 41.0816C75.3623 40.2677 74.7201 39.2921 74.2968 38.2168C73.8736 37.1416 73.6785 35.99 73.7238 34.8353C73.6428 33.5518 73.8767 32.2679 74.4052 31.0955C74.9337 29.923 75.7408 28.8975 76.7562 28.1082C78.7784 26.5868 82.2724 25.5657 87.2381 25.0449L94.0841 24.3245C95.4726 24.2492 96.8358 23.9219 98.1072 23.3588C98.5869 23.0696 98.9762 22.652 99.231 22.1531C99.4858 21.6543 99.596 21.0941 99.549 20.536C99.549 17.0922 96.5267 15.3704 90.4819 15.3704C84.1526 15.3736 80.9078 17.4573 80.7475 21.6214ZM44.0213 24.6248H66.4259C66.1123 22.0462 64.796 19.6948 62.762 18.0792C60.6595 16.4831 58.0735 15.6559 55.4351 15.7354C52.7613 15.6688 50.1412 16.4933 47.9875 18.0792C46.9222 18.8495 46.0223 19.8257 45.341 20.9501C44.6598 22.0744 44.211 23.324 44.0213 24.6248ZM72.791 29.3085H43.8407C43.9181 30.7551 44.313 32.1668 44.9973 33.4436C45.6816 34.7203 46.6385 35.8308 47.8001 36.6963C49.9712 38.4075 52.6652 39.3194 55.4293 39.2786C60.4748 39.2786 63.8584 37.417 65.5799 33.6939H71.946C70.6518 37.1294 68.2129 40.0138 65.0401 41.8609C62.2165 43.5081 58.9993 44.3591 55.7306 44.3235C49.8841 44.3235 45.3192 42.6618 42.0358 39.3385C40.515 37.7768 39.3264 35.9231 38.5418 33.8894C37.7572 31.8556 37.3929 29.684 37.4708 27.5056C37.3932 25.3274 37.7577 23.1562 38.5423 21.1228C39.3269 19.0894 40.5153 17.236 42.0358 15.6746C45.3192 12.3525 49.8841 10.6908 55.7306 10.6895C59.9795 10.5368 64.133 11.9713 67.382 14.7137C70.9873 17.8767 72.79 22.4816 72.79 28.5282L72.791 29.3085ZM6.44619 27.6871C6.33711 30.61 7.29861 33.4721 9.1502 35.7364C11.2323 38.0979 14.1755 39.2786 17.9798 39.2786C21.824 39.2786 24.7855 38.0979 26.8644 35.7364C28.7509 33.4883 29.7355 30.6198 29.6273 27.6871C29.707 26.1324 29.4651 24.578 28.9168 23.1211C28.3684 21.6642 27.5254 20.336 26.4404 19.2197C25.3104 18.1582 23.9785 17.3346 22.5239 16.7981C21.0693 16.2616 19.5217 16.023 17.973 16.0966C16.4329 16.0193 14.8931 16.2564 13.4475 16.7933C12.0019 17.3302 10.6808 18.1558 9.56449 19.2197C8.49777 20.346 7.67118 21.6773 7.13496 23.1329C6.59873 24.5886 6.36503 26.138 6.44619 27.6871ZM29.269 43.2438V39.2197C27.9933 40.9366 26.2424 42.242 24.2328 42.9744C22.0195 43.8714 19.6532 44.3306 17.2651 44.3264C12.7894 44.497 8.42225 42.9238 5.08357 39.9382C1.75055 36.8949 0.0821166 32.8106 0.0782538 27.6852C0.0743909 22.5598 1.74283 18.4558 5.08357 15.3732C8.25627 12.4903 12.3171 11.0488 17.2661 11.0488C19.6521 11.036 22.018 11.4846 24.2337 12.3699C26.246 13.1122 27.9967 14.4276 29.2699 16.1535V0H35.2748V43.2438H29.269Z" fill="#404041"/>
</svg>
