<svg width="88" height="36" viewBox="0 0 88 36" fill="none" xmlns="http://www.w3.org/2000/svg">
<path d="M79.7232 24.3914V21.2064C79.1217 21.8721 77.5687 22.3634 75.0641 22.6804L69.6918 23.3456C68.1894 23.4628 66.7295 23.9005 65.4105 24.6292C64.9545 24.9344 64.5871 25.3546 64.3455 25.8472C64.1038 26.3399 63.9965 26.8876 64.0343 27.435C64.0319 28.0076 64.1772 28.5712 64.4563 29.0711C64.7355 29.5711 65.1389 29.9906 65.6276 30.289C66.8861 31.0709 68.3525 31.4519 69.8325 31.3815C72.3175 31.46 74.7663 30.7707 76.8455 29.4075C77.7158 28.8894 78.4377 28.1555 78.9414 27.2768C79.4451 26.3981 79.7136 25.4043 79.7209 24.3914H79.7232ZM64.8417 17.117H60.3715C60.9423 11.3473 65.0631 8.46254 72.7339 8.46254C75.3553 8.36335 77.9671 8.83281 80.3898 9.83868C82.926 11.011 84.1941 12.9131 84.1941 15.5451V28.9564C84.1523 29.2473 84.1788 29.5439 84.2715 29.8227C84.3643 30.1015 84.5208 30.3548 84.7286 30.5626C84.9364 30.7704 85.1897 30.9269 85.4685 31.0196C85.7473 31.1124 86.0439 31.1389 86.3348 31.0971C86.8947 31.0878 87.4524 31.024 87.9999 30.9067V34.2355C86.7736 34.4323 85.5332 34.5277 84.2912 34.5206C81.7234 34.5206 80.2963 33.3636 80.0099 31.0497C78.8282 32.4665 77.2587 33.5076 75.4938 34.0451C73.5417 34.7457 71.4822 35.0996 69.4082 35.091C65.6992 35.091 62.9724 34.235 61.2277 32.5229C60.5783 31.8786 60.07 31.1062 59.7349 30.255C59.3998 29.4037 59.2453 28.4921 59.2813 27.578C59.2171 26.5618 59.4023 25.5454 59.8207 24.6172C60.2391 23.689 60.878 22.8772 61.6819 22.2523C63.2828 21.0479 66.0488 20.2395 69.98 19.8272L75.3998 19.2569C76.499 19.1972 77.5782 18.9382 78.5848 18.4923C78.9646 18.2634 79.2727 17.9328 79.4744 17.5379C79.6761 17.143 79.7633 16.6995 79.7262 16.2576C79.7262 13.5313 77.3335 12.1682 72.5481 12.1682C67.5374 12.1707 64.9686 13.8203 64.8417 17.117ZM35.7667 19.4946H53.5037C53.2554 17.4533 52.2134 15.5917 50.6031 14.3127C48.9387 13.0491 46.8914 12.3942 44.8027 12.4572C42.6859 12.4044 40.6117 13.0572 38.9066 14.3127C38.0633 14.9225 37.3509 15.6954 36.8115 16.5855C36.2722 17.4756 35.9169 18.4648 35.7667 19.4946ZM58.5427 23.2026H35.6238C35.6851 24.3477 35.9977 25.4654 36.5394 26.4761C37.0811 27.4869 37.8387 28.3661 38.7583 29.0512C40.4771 30.406 42.6098 31.1278 44.7981 31.0956C48.7925 31.0956 51.4711 29.6218 52.834 26.6743H57.8738C56.8492 29.3941 54.9184 31.6776 52.4066 33.1399C50.1713 34.4439 47.6243 35.1176 45.0366 35.0894C40.4082 35.0894 36.7943 33.7739 34.1949 31.143C32.9909 29.9066 32.05 28.4391 31.4288 26.8291C30.8077 25.219 30.5193 23.4998 30.581 21.7752C30.5195 20.0509 30.8081 18.332 31.4292 16.7222C32.0503 15.1124 32.9911 13.6452 34.1949 12.409C36.7943 9.77905 40.4082 8.46355 45.0366 8.46254C48.4003 8.3416 51.6885 9.47728 54.2606 11.6483C57.1149 14.1524 58.542 17.7979 58.542 22.5849L58.5427 23.2026ZM6.0198 21.919C5.93345 24.2329 6.69463 26.4988 8.16048 28.2913C9.80879 30.1608 12.1388 31.0956 15.1505 31.0956C18.1939 31.0956 20.5384 30.1608 22.1842 28.2913C23.6777 26.5116 24.4571 24.2407 24.3715 21.919C24.4346 20.6882 24.2431 19.4576 23.809 18.3042C23.3749 17.1508 22.7075 16.0993 21.8485 15.2156C20.954 14.3752 19.8996 13.7233 18.748 13.2985C17.5964 12.8738 16.3712 12.6849 15.1452 12.7431C13.9259 12.682 12.7069 12.8696 11.5625 13.2947C10.4181 13.7198 9.37218 14.3733 8.48846 15.2156C7.64397 16.1072 6.98959 17.1612 6.56508 18.3136C6.14056 19.4659 5.95555 20.6926 6.0198 21.919ZM24.0878 34.2347V31.0489C23.0779 32.4081 21.6918 33.4415 20.1008 34.0214C18.3487 34.7315 16.4754 35.095 14.5848 35.0917C11.0415 35.2268 7.58418 33.9814 4.94106 31.6177C2.30243 29.2085 0.981579 25.975 0.978521 21.9174C0.975463 17.8598 2.29631 14.6109 4.94106 12.1705C7.45278 9.88812 10.6676 8.74694 14.5856 8.74694C16.4745 8.7368 18.3475 9.09194 20.1016 9.79281C21.6946 10.3805 23.0806 11.4218 24.0886 12.7882V0H28.8424V34.2347H24.0878Z" fill="#404041"/>
</svg>
