<svg width="72" height="46" viewBox="0 0 72 46" fill="none" xmlns="http://www.w3.org/2000/svg">
<path d="M65.5896 28.5712C65.7119 27.0233 65.498 25.4672 64.9626 24.0096C64.4272 22.5521 63.5829 21.2275 62.4877 20.1268C61.3925 19.026 60.0722 18.1752 58.6173 17.6325C57.1625 17.0898 55.6075 16.8681 54.0589 16.9826C52.51 16.9089 50.9621 17.1473 49.5072 17.6837C48.0522 18.22 46.72 19.0434 45.5896 20.1048C44.5048 21.2212 43.6619 22.5494 43.1135 24.0063C42.5652 25.4632 42.3232 27.0176 42.4027 28.5722C42.2943 31.5047 43.2789 34.3729 45.1656 36.6205C47.2477 38.9833 50.2108 40.1647 54.055 40.1647C57.8593 40.1647 60.8025 38.9833 62.8846 36.6205C64.7364 34.3568 65.698 31.4948 65.5886 28.5722L65.5896 28.5712ZM25.971 31.6944V27.6712C25.2113 28.512 23.2496 29.1326 20.0859 29.5331L13.2998 30.3742C11.4018 30.521 9.55753 31.074 7.89183 31.9957C7.31561 32.381 6.8514 32.9117 6.54615 33.534C6.24091 34.1564 6.10547 34.8483 6.15354 35.5399C6.15006 36.2623 6.33302 36.9734 6.68473 37.6044C7.03645 38.2354 7.54501 38.765 8.16127 39.142C9.75054 40.1308 11.603 40.6128 13.4727 40.5239C16.6115 40.6228 19.7045 39.7525 22.3312 38.0314C23.4316 37.3773 24.3447 36.4504 24.9823 35.3403C25.6199 34.2302 25.9604 32.9745 25.971 31.6944V31.6944ZM36.761 39.8315V0.882202H42.7658V17.396C45.099 13.752 49.0999 11.93 54.7687 11.93C59.7125 11.93 63.7734 13.3715 66.9512 16.2545C70.2842 19.3377 71.9523 23.4417 71.9556 28.5664C71.9588 33.6912 70.291 37.7771 66.9522 40.8243C63.6127 43.8087 59.2452 45.3806 54.7697 45.2086C52.413 45.2196 50.0767 44.7709 47.8918 43.8875C45.8498 43.1553 44.0678 41.8397 42.7668 40.1038V44.128H36.761C35.2013 44.128 33.4775 44.4882 31.7392 44.4882C28.4957 44.4882 26.6931 43.0267 26.3312 40.1038C24.8384 41.8933 22.8559 43.2082 20.6267 43.8875C18.1609 44.7724 15.5594 45.2195 12.9396 45.2086C8.25462 45.2086 4.81023 44.1273 2.60647 41.9648C1.78559 41.1513 1.1428 40.176 0.718867 39.1009C0.294938 38.0258 0.0991348 36.8743 0.143885 35.7195C0.0629347 34.436 0.29689 33.1521 0.825388 31.9796C1.35389 30.8072 2.16092 29.7817 3.17624 28.9923C5.19845 27.471 8.69241 26.4499 13.6581 25.929L20.5041 25.2086C21.8926 25.1333 23.2559 24.8061 24.5273 24.2429C25.007 23.9537 25.3962 23.5361 25.651 23.0373C25.9058 22.5384 26.016 21.9783 25.9691 21.4201C25.9691 17.9764 22.9464 16.2545 16.901 16.2545C10.5756 16.2545 7.33236 18.3366 7.17141 22.5007H1.52776C2.24883 15.2128 7.45404 11.5688 17.1434 11.5688C20.4546 11.4435 23.7538 12.0365 26.8141 13.3071C30.0164 14.7879 31.6182 17.1906 31.6195 20.5152V37.4607C31.5666 37.8281 31.6001 38.2027 31.7173 38.5549C31.8345 38.9071 32.0322 39.2271 32.2946 39.4895C32.5571 39.752 32.8771 39.9497 33.2293 40.0669C33.5815 40.184 33.9561 40.2175 34.3235 40.1647C35.023 40.159 35.7202 40.0833 36.4046 39.9387L36.761 39.8315Z" fill="#FFC10E"/>
</svg>
