<svg width="17" height="14" viewBox="0 0 17 14" fill="none" xmlns="http://www.w3.org/2000/svg">
<path fill-rule="evenodd" clip-rule="evenodd" d="M5.0836 13.245C6.3124 13.2561 7.53108 13.0222 8.66848 12.557C9.80588 12.0919 10.8392 11.4047 11.7081 10.5358C12.577 9.66678 13.264 8.63339 13.729 7.49594C14.1941 6.35849 14.4278 5.13978 14.4166 3.91099V3.46699C15.0377 2.99412 15.578 2.42372 16.0166 1.77799C15.4205 2.03711 14.7927 2.21633 14.1496 2.31099C14.8107 1.89582 15.3119 1.26917 15.5716 0.532987C14.9294 0.89057 14.2419 1.15967 13.5276 1.33299C13.2267 0.994392 12.8569 0.724088 12.443 0.540226C12.029 0.356363 11.5805 0.263198 11.1276 0.266987C10.2594 0.280146 9.43046 0.630889 8.81648 1.24487C8.2025 1.85884 7.85176 2.68779 7.8386 3.55599C7.81841 3.7966 7.84873 4.03878 7.9276 4.26699C6.61947 4.20386 5.33995 3.86186 4.17476 3.26392C3.00958 2.66598 1.98565 1.8259 1.1716 0.799987C0.879068 1.31473 0.726019 1.89693 0.7276 2.48899C0.739332 3.02628 0.873519 3.55381 1.11994 4.0314C1.36636 4.509 1.71852 4.92406 2.1496 5.24499C1.61538 5.23419 1.09374 5.08091 0.638603 4.80099V4.80099C0.637771 5.56234 0.904337 6.2998 1.39178 6.88465C1.87922 7.46951 2.55657 7.86461 3.3056 8.00099C3.01613 8.07909 2.71581 8.10916 2.4166 8.08999C2.20533 8.10417 1.99342 8.07385 1.7946 8.00099C2.01193 8.65974 2.42743 9.23529 2.98428 9.64895C3.54113 10.0626 4.21215 10.2942 4.9056 10.312C3.73711 11.2247 2.29926 11.7247 0.816601 11.734C0.546857 11.7484 0.276576 11.7184 0.0166016 11.645C1.48765 12.7132 3.26586 13.2747 5.0836 13.245Z" fill="#EC1651"/>
</svg>
