<svg width="58" height="37" viewBox="0 0 58 37" fill="none" xmlns="http://www.w3.org/2000/svg">
<path d="M52.2583 22.8272C52.3552 21.6018 52.1859 20.3698 51.762 19.2159C51.3381 18.062 50.6698 17.0134 49.8027 16.142C48.9357 15.2706 47.8904 14.597 46.7387 14.1674C45.5869 13.7377 44.3559 13.5622 43.1299 13.6529C41.9037 13.5946 40.6783 13.7833 39.5265 14.2079C38.3746 14.6325 37.3199 15.2843 36.425 16.1246C35.5662 17.0085 34.8989 18.0599 34.4648 19.2133C34.0307 20.3667 33.8392 21.5972 33.9021 22.828C33.8163 25.1495 34.5958 27.4202 36.0894 29.1995C37.7377 31.0701 40.0835 32.0054 43.1269 32.0054C46.1386 32.0054 48.4686 31.0701 50.1169 29.1995C51.583 27.4075 52.3442 25.1417 52.2576 22.828L52.2583 22.8272ZM20.8937 25.2997V22.1147C20.2923 22.7803 18.7392 23.2717 16.2347 23.5887L10.8623 24.2546C9.35974 24.3708 7.89967 24.8086 6.581 25.5382C6.12482 25.8433 5.75732 26.2634 5.51567 26.7561C5.27401 27.2488 5.16679 27.7966 5.20485 28.344C5.20209 28.916 5.34694 29.4789 5.62537 29.9784C5.90381 30.478 6.30643 30.8973 6.7943 31.1957C8.05247 31.9786 9.51902 32.3601 10.9992 32.2898C13.4841 32.368 15.9327 31.679 18.0122 30.3165C18.8833 29.7986 19.6062 29.0649 20.111 28.1861C20.6157 27.3073 20.8853 26.3131 20.8937 25.2997V25.2997ZM29.4357 31.7416V0.906738H34.1896V13.9801C36.0366 11.0953 39.2041 9.65291 43.6918 9.65291C47.6057 9.65291 50.8205 10.7941 53.3363 13.0765C55.975 15.5173 57.2956 18.7663 57.2981 22.8234C57.3007 26.8805 55.9803 30.1152 53.3371 32.5275C50.6933 34.8902 47.2357 36.1346 43.6926 35.9985C41.8269 36.0072 39.9774 35.6519 38.2477 34.9526C36.6311 34.373 35.2203 33.3314 34.1903 31.9572V35.143H29.4357C28.201 35.143 26.8363 35.4281 25.4602 35.4281C22.8924 35.4281 21.4653 34.2712 21.1789 31.9572C19.997 33.3738 18.4275 34.4148 16.6628 34.9526C14.7107 35.6532 12.6512 36.0071 10.5772 35.9985C6.8682 35.9985 4.14139 35.1425 2.39675 33.4304C1.74689 32.7864 1.23801 32.0143 0.902398 31.1632C0.566788 30.3121 0.411777 29.4005 0.447205 28.4862C0.383119 27.4701 0.568333 26.4537 0.986727 25.5255C1.40512 24.5973 2.04402 23.7855 2.84782 23.1606C4.44873 21.9562 7.21479 21.1478 11.146 20.7355L16.5657 20.1651C17.6649 20.1055 18.7442 19.8465 19.7507 19.4006C20.1305 19.1717 20.4387 18.8411 20.6404 18.4462C20.8421 18.0513 20.9293 17.6078 20.8922 17.1659C20.8922 14.4396 18.4992 13.0765 13.7133 13.0765C8.70561 13.0765 6.13808 14.7248 6.01066 18.0214H1.54277C2.11362 12.2518 6.23441 9.36698 13.9052 9.36698C16.5265 9.26779 19.1383 9.73726 21.5611 10.7431C24.0963 11.9154 25.3644 13.8175 25.3654 16.4495V29.8647C25.3235 30.1555 25.3501 30.4521 25.4428 30.7309C25.5356 31.0097 25.6921 31.2631 25.8999 31.4709C26.1077 31.6786 26.361 31.8351 26.6398 31.9279C26.9186 32.0207 27.2152 32.0472 27.5061 32.0054C28.0598 32.0009 28.6118 31.9409 29.1536 31.8265L29.4357 31.7416Z" fill="#FFC10E"/>
</svg>
